<?xml version="1.0" encoding="utf-8" standalone="no"?>
<!DOCTYPE svg PUBLIC "-//W3C//DTD SVG 1.1//EN"
  "http://www.w3.org/Graphics/SVG/1.1/DTD/svg11.dtd">
<!-- Created with matplotlib (https://matplotlib.org/) -->
<svg height="1039.923125pt" version="1.1" viewBox="0 0 1402.880625 1039.923125" width="1402.880625pt" xmlns="http://www.w3.org/2000/svg" xmlns:xlink="http://www.w3.org/1999/xlink">
 <metadata>
  <rdf:RDF xmlns:cc="http://creativecommons.org/ns#" xmlns:dc="http://purl.org/dc/elements/1.1/" xmlns:rdf="http://www.w3.org/1999/02/22-rdf-syntax-ns#">
   <cc:Work>
    <dc:type rdf:resource="http://purl.org/dc/dcmitype/StillImage"/>
    <dc:date>2023-10-16T19:46:49.575135</dc:date>
    <dc:format>image/svg+xml</dc:format>
    <dc:creator>
     <cc:Agent>
      <dc:title>Matplotlib v3.3.2, https://matplotlib.org/</dc:title>
     </cc:Agent>
    </dc:creator>
   </cc:Work>
  </rdf:RDF>
 </metadata>
 <defs>
  <style type="text/css">*{stroke-linecap:butt;stroke-linejoin:round;}</style>
 </defs>
 <g id="figure_1">
  <g id="patch_1">
   <path d="M 0 1039.923125 
L 1402.880625 1039.923125 
L 1402.880625 0 
L 0 0 
z
" style="fill:#ffffff;"/>
  </g>
  <g id="axes_1">
   <g id="patch_2">
    <path d="M 176.890625 926.12 
L 1370.230625 926.12 
L 1370.230625 55.7 
L 176.890625 55.7 
z
" style="fill:#ffffff;"/>
   </g>
   <g id="matplotlib.axis_1">
    <g id="xtick_1">
     <g id="line2d_1">
      <path clip-path="url(#p08d90baa66)" d="M 230.208906 926.12 
L 230.208906 55.7 
" style="fill:none;stroke:#b0b0b0;stroke-linecap:square;stroke-opacity:0.6;stroke-width:2;"/>
     </g>
     <g id="line2d_2">
      <defs>
       <path d="M 0 0 
L 0 12 
" id="mfbe6af49d2" style="stroke:#000000;stroke-width:2.5;"/>
      </defs>
      <g>
       <use style="stroke:#000000;stroke-width:2.5;" x="230.208906" xlink:href="#mfbe6af49d2" y="926.12"/>
      </g>
     </g>
     <g id="text_1">
      <!-- 0 -->
      <g transform="translate(217.483906 972.01375)scale(0.4 -0.4)">
       <defs>
        <path d="M 31.78125 66.40625 
Q 24.171875 66.40625 20.328125 58.90625 
Q 16.5 51.421875 16.5 36.375 
Q 16.5 21.390625 20.328125 13.890625 
Q 24.171875 6.390625 31.78125 6.390625 
Q 39.453125 6.390625 43.28125 13.890625 
Q 47.125 21.390625 47.125 36.375 
Q 47.125 51.421875 43.28125 58.90625 
Q 39.453125 66.40625 31.78125 66.40625 
z
M 31.78125 74.21875 
Q 44.046875 74.21875 50.515625 64.515625 
Q 56.984375 54.828125 56.984375 36.375 
Q 56.984375 17.96875 50.515625 8.265625 
Q 44.046875 -1.421875 31.78125 -1.421875 
Q 19.53125 -1.421875 13.0625 8.265625 
Q 6.59375 17.96875 6.59375 36.375 
Q 6.59375 54.828125 13.0625 64.515625 
Q 19.53125 74.21875 31.78125 74.21875 
z
" id="DejaVuSans-48"/>
       </defs>
       <use xlink:href="#DejaVuSans-48"/>
      </g>
     </g>
    </g>
    <g id="xtick_2">
     <g id="line2d_3">
      <path clip-path="url(#p08d90baa66)" d="M 325.210716 926.12 
L 325.210716 55.7 
" style="fill:none;stroke:#b0b0b0;stroke-linecap:square;stroke-opacity:0.6;stroke-width:2;"/>
     </g>
     <g id="line2d_4">
      <g>
       <use style="stroke:#000000;stroke-width:2.5;" x="325.210716" xlink:href="#mfbe6af49d2" y="926.12"/>
      </g>
     </g>
     <g id="text_2">
      <!-- 2 -->
      <g transform="translate(312.485716 972.01375)scale(0.4 -0.4)">
       <defs>
        <path d="M 19.1875 8.296875 
L 53.609375 8.296875 
L 53.609375 0 
L 7.328125 0 
L 7.328125 8.296875 
Q 12.9375 14.109375 22.625 23.890625 
Q 32.328125 33.6875 34.8125 36.53125 
Q 39.546875 41.84375 41.421875 45.53125 
Q 43.3125 49.21875 43.3125 52.78125 
Q 43.3125 58.59375 39.234375 62.25 
Q 35.15625 65.921875 28.609375 65.921875 
Q 23.96875 65.921875 18.8125 64.3125 
Q 13.671875 62.703125 7.8125 59.421875 
L 7.8125 69.390625 
Q 13.765625 71.78125 18.9375 73 
Q 24.125 74.21875 28.421875 74.21875 
Q 39.75 74.21875 46.484375 68.546875 
Q 53.21875 62.890625 53.21875 53.421875 
Q 53.21875 48.921875 51.53125 44.890625 
Q 49.859375 40.875 45.40625 35.40625 
Q 44.1875 33.984375 37.640625 27.21875 
Q 31.109375 20.453125 19.1875 8.296875 
z
" id="DejaVuSans-50"/>
       </defs>
       <use xlink:href="#DejaVuSans-50"/>
      </g>
     </g>
    </g>
    <g id="xtick_3">
     <g id="line2d_5">
      <path clip-path="url(#p08d90baa66)" d="M 420.212526 926.12 
L 420.212526 55.7 
" style="fill:none;stroke:#b0b0b0;stroke-linecap:square;stroke-opacity:0.6;stroke-width:2;"/>
     </g>
     <g id="line2d_6">
      <g>
       <use style="stroke:#000000;stroke-width:2.5;" x="420.212526" xlink:href="#mfbe6af49d2" y="926.12"/>
      </g>
     </g>
     <g id="text_3">
      <!-- 4 -->
      <g transform="translate(407.487526 972.01375)scale(0.4 -0.4)">
       <defs>
        <path d="M 37.796875 64.3125 
L 12.890625 25.390625 
L 37.796875 25.390625 
z
M 35.203125 72.90625 
L 47.609375 72.90625 
L 47.609375 25.390625 
L 58.015625 25.390625 
L 58.015625 17.1875 
L 47.609375 17.1875 
L 47.609375 0 
L 37.796875 0 
L 37.796875 17.1875 
L 4.890625 17.1875 
L 4.890625 26.703125 
z
" id="DejaVuSans-52"/>
       </defs>
       <use xlink:href="#DejaVuSans-52"/>
      </g>
     </g>
    </g>
    <g id="xtick_4">
     <g id="line2d_7">
      <path clip-path="url(#p08d90baa66)" d="M 515.214336 926.12 
L 515.214336 55.7 
" style="fill:none;stroke:#b0b0b0;stroke-linecap:square;stroke-opacity:0.6;stroke-width:2;"/>
     </g>
     <g id="line2d_8">
      <g>
       <use style="stroke:#000000;stroke-width:2.5;" x="515.214336" xlink:href="#mfbe6af49d2" y="926.12"/>
      </g>
     </g>
     <g id="text_4">
      <!-- 6 -->
      <g transform="translate(502.489336 972.01375)scale(0.4 -0.4)">
       <defs>
        <path d="M 33.015625 40.375 
Q 26.375 40.375 22.484375 35.828125 
Q 18.609375 31.296875 18.609375 23.390625 
Q 18.609375 15.53125 22.484375 10.953125 
Q 26.375 6.390625 33.015625 6.390625 
Q 39.65625 6.390625 43.53125 10.953125 
Q 47.40625 15.53125 47.40625 23.390625 
Q 47.40625 31.296875 43.53125 35.828125 
Q 39.65625 40.375 33.015625 40.375 
z
M 52.59375 71.296875 
L 52.59375 62.3125 
Q 48.875 64.0625 45.09375 64.984375 
Q 41.3125 65.921875 37.59375 65.921875 
Q 27.828125 65.921875 22.671875 59.328125 
Q 17.53125 52.734375 16.796875 39.40625 
Q 19.671875 43.65625 24.015625 45.921875 
Q 28.375 48.1875 33.59375 48.1875 
Q 44.578125 48.1875 50.953125 41.515625 
Q 57.328125 34.859375 57.328125 23.390625 
Q 57.328125 12.15625 50.6875 5.359375 
Q 44.046875 -1.421875 33.015625 -1.421875 
Q 20.359375 -1.421875 13.671875 8.265625 
Q 6.984375 17.96875 6.984375 36.375 
Q 6.984375 53.65625 15.1875 63.9375 
Q 23.390625 74.21875 37.203125 74.21875 
Q 40.921875 74.21875 44.703125 73.484375 
Q 48.484375 72.75 52.59375 71.296875 
z
" id="DejaVuSans-54"/>
       </defs>
       <use xlink:href="#DejaVuSans-54"/>
      </g>
     </g>
    </g>
    <g id="xtick_5">
     <g id="line2d_9">
      <path clip-path="url(#p08d90baa66)" d="M 610.216146 926.12 
L 610.216146 55.7 
" style="fill:none;stroke:#b0b0b0;stroke-linecap:square;stroke-opacity:0.6;stroke-width:2;"/>
     </g>
     <g id="line2d_10">
      <g>
       <use style="stroke:#000000;stroke-width:2.5;" x="610.216146" xlink:href="#mfbe6af49d2" y="926.12"/>
      </g>
     </g>
     <g id="text_5">
      <!-- 8 -->
      <g transform="translate(597.491146 972.01375)scale(0.4 -0.4)">
       <defs>
        <path d="M 31.78125 34.625 
Q 24.75 34.625 20.71875 30.859375 
Q 16.703125 27.09375 16.703125 20.515625 
Q 16.703125 13.921875 20.71875 10.15625 
Q 24.75 6.390625 31.78125 6.390625 
Q 38.8125 6.390625 42.859375 10.171875 
Q 46.921875 13.96875 46.921875 20.515625 
Q 46.921875 27.09375 42.890625 30.859375 
Q 38.875 34.625 31.78125 34.625 
z
M 21.921875 38.8125 
Q 15.578125 40.375 12.03125 44.71875 
Q 8.5 49.078125 8.5 55.328125 
Q 8.5 64.0625 14.71875 69.140625 
Q 20.953125 74.21875 31.78125 74.21875 
Q 42.671875 74.21875 48.875 69.140625 
Q 55.078125 64.0625 55.078125 55.328125 
Q 55.078125 49.078125 51.53125 44.71875 
Q 48 40.375 41.703125 38.8125 
Q 48.828125 37.15625 52.796875 32.3125 
Q 56.78125 27.484375 56.78125 20.515625 
Q 56.78125 9.90625 50.3125 4.234375 
Q 43.84375 -1.421875 31.78125 -1.421875 
Q 19.734375 -1.421875 13.25 4.234375 
Q 6.78125 9.90625 6.78125 20.515625 
Q 6.78125 27.484375 10.78125 32.3125 
Q 14.796875 37.15625 21.921875 38.8125 
z
M 18.3125 54.390625 
Q 18.3125 48.734375 21.84375 45.5625 
Q 25.390625 42.390625 31.78125 42.390625 
Q 38.140625 42.390625 41.71875 45.5625 
Q 45.3125 48.734375 45.3125 54.390625 
Q 45.3125 60.0625 41.71875 63.234375 
Q 38.140625 66.40625 31.78125 66.40625 
Q 25.390625 66.40625 21.84375 63.234375 
Q 18.3125 60.0625 18.3125 54.390625 
z
" id="DejaVuSans-56"/>
       </defs>
       <use xlink:href="#DejaVuSans-56"/>
      </g>
     </g>
    </g>
    <g id="xtick_6">
     <g id="line2d_11">
      <path clip-path="url(#p08d90baa66)" d="M 705.217956 926.12 
L 705.217956 55.7 
" style="fill:none;stroke:#b0b0b0;stroke-linecap:square;stroke-opacity:0.6;stroke-width:2;"/>
     </g>
     <g id="line2d_12">
      <g>
       <use style="stroke:#000000;stroke-width:2.5;" x="705.217956" xlink:href="#mfbe6af49d2" y="926.12"/>
      </g>
     </g>
     <g id="text_6">
      <!-- 10 -->
      <g transform="translate(679.767956 972.01375)scale(0.4 -0.4)">
       <defs>
        <path d="M 12.40625 8.296875 
L 28.515625 8.296875 
L 28.515625 63.921875 
L 10.984375 60.40625 
L 10.984375 69.390625 
L 28.421875 72.90625 
L 38.28125 72.90625 
L 38.28125 8.296875 
L 54.390625 8.296875 
L 54.390625 0 
L 12.40625 0 
z
" id="DejaVuSans-49"/>
       </defs>
       <use xlink:href="#DejaVuSans-49"/>
       <use x="63.623047" xlink:href="#DejaVuSans-48"/>
      </g>
     </g>
    </g>
    <g id="xtick_7">
     <g id="line2d_13">
      <path clip-path="url(#p08d90baa66)" d="M 800.219766 926.12 
L 800.219766 55.7 
" style="fill:none;stroke:#b0b0b0;stroke-linecap:square;stroke-opacity:0.6;stroke-width:2;"/>
     </g>
     <g id="line2d_14">
      <g>
       <use style="stroke:#000000;stroke-width:2.5;" x="800.219766" xlink:href="#mfbe6af49d2" y="926.12"/>
      </g>
     </g>
     <g id="text_7">
      <!-- 12 -->
      <g transform="translate(774.769766 972.01375)scale(0.4 -0.4)">
       <use xlink:href="#DejaVuSans-49"/>
       <use x="63.623047" xlink:href="#DejaVuSans-50"/>
      </g>
     </g>
    </g>
    <g id="xtick_8">
     <g id="line2d_15">
      <path clip-path="url(#p08d90baa66)" d="M 895.221576 926.12 
L 895.221576 55.7 
" style="fill:none;stroke:#b0b0b0;stroke-linecap:square;stroke-opacity:0.6;stroke-width:2;"/>
     </g>
     <g id="line2d_16">
      <g>
       <use style="stroke:#000000;stroke-width:2.5;" x="895.221576" xlink:href="#mfbe6af49d2" y="926.12"/>
      </g>
     </g>
     <g id="text_8">
      <!-- 14 -->
      <g transform="translate(869.771576 972.01375)scale(0.4 -0.4)">
       <use xlink:href="#DejaVuSans-49"/>
       <use x="63.623047" xlink:href="#DejaVuSans-52"/>
      </g>
     </g>
    </g>
    <g id="xtick_9">
     <g id="line2d_17">
      <path clip-path="url(#p08d90baa66)" d="M 990.223385 926.12 
L 990.223385 55.7 
" style="fill:none;stroke:#b0b0b0;stroke-linecap:square;stroke-opacity:0.6;stroke-width:2;"/>
     </g>
     <g id="line2d_18">
      <g>
       <use style="stroke:#000000;stroke-width:2.5;" x="990.223385" xlink:href="#mfbe6af49d2" y="926.12"/>
      </g>
     </g>
     <g id="text_9">
      <!-- 16 -->
      <g transform="translate(964.773385 972.01375)scale(0.4 -0.4)">
       <use xlink:href="#DejaVuSans-49"/>
       <use x="63.623047" xlink:href="#DejaVuSans-54"/>
      </g>
     </g>
    </g>
    <g id="xtick_10">
     <g id="line2d_19">
      <path clip-path="url(#p08d90baa66)" d="M 1085.225195 926.12 
L 1085.225195 55.7 
" style="fill:none;stroke:#b0b0b0;stroke-linecap:square;stroke-opacity:0.6;stroke-width:2;"/>
     </g>
     <g id="line2d_20">
      <g>
       <use style="stroke:#000000;stroke-width:2.5;" x="1085.225195" xlink:href="#mfbe6af49d2" y="926.12"/>
      </g>
     </g>
     <g id="text_10">
      <!-- 18 -->
      <g transform="translate(1059.775195 972.01375)scale(0.4 -0.4)">
       <use xlink:href="#DejaVuSans-49"/>
       <use x="63.623047" xlink:href="#DejaVuSans-56"/>
      </g>
     </g>
    </g>
    <g id="xtick_11">
     <g id="line2d_21">
      <path clip-path="url(#p08d90baa66)" d="M 1180.227005 926.12 
L 1180.227005 55.7 
" style="fill:none;stroke:#b0b0b0;stroke-linecap:square;stroke-opacity:0.6;stroke-width:2;"/>
     </g>
     <g id="line2d_22">
      <g>
       <use style="stroke:#000000;stroke-width:2.5;" x="1180.227005" xlink:href="#mfbe6af49d2" y="926.12"/>
      </g>
     </g>
     <g id="text_11">
      <!-- 20 -->
      <g transform="translate(1154.777005 972.01375)scale(0.4 -0.4)">
       <use xlink:href="#DejaVuSans-50"/>
       <use x="63.623047" xlink:href="#DejaVuSans-48"/>
      </g>
     </g>
    </g>
    <g id="xtick_12">
     <g id="line2d_23">
      <path clip-path="url(#p08d90baa66)" d="M 1275.228815 926.12 
L 1275.228815 55.7 
" style="fill:none;stroke:#b0b0b0;stroke-linecap:square;stroke-opacity:0.6;stroke-width:2;"/>
     </g>
     <g id="line2d_24">
      <g>
       <use style="stroke:#000000;stroke-width:2.5;" x="1275.228815" xlink:href="#mfbe6af49d2" y="926.12"/>
      </g>
     </g>
     <g id="text_12">
      <!-- 22 -->
      <g transform="translate(1249.778815 972.01375)scale(0.4 -0.4)">
       <use xlink:href="#DejaVuSans-50"/>
       <use x="63.623047" xlink:href="#DejaVuSans-50"/>
      </g>
     </g>
    </g>
    <g id="xtick_13">
     <g id="line2d_25">
      <path clip-path="url(#p08d90baa66)" d="M 1370.230625 926.12 
L 1370.230625 55.7 
" style="fill:none;stroke:#b0b0b0;stroke-linecap:square;stroke-opacity:0.6;stroke-width:2;"/>
     </g>
     <g id="line2d_26">
      <g>
       <use style="stroke:#000000;stroke-width:2.5;" x="1370.230625" xlink:href="#mfbe6af49d2" y="926.12"/>
      </g>
     </g>
     <g id="text_13">
      <!-- 24 -->
      <g transform="translate(1344.780625 972.01375)scale(0.4 -0.4)">
       <use xlink:href="#DejaVuSans-50"/>
       <use x="63.623047" xlink:href="#DejaVuSans-52"/>
      </g>
     </g>
    </g>
    <g id="text_14">
     <!-- Time (in sec) -->
     <g transform="translate(612.052813 1022.324687)scale(0.5 -0.5)">
      <defs>
       <path d="M -0.296875 72.90625 
L 61.375 72.90625 
L 61.375 64.59375 
L 35.5 64.59375 
L 35.5 0 
L 25.59375 0 
L 25.59375 64.59375 
L -0.296875 64.59375 
z
" id="DejaVuSans-84"/>
       <path d="M 9.421875 54.6875 
L 18.40625 54.6875 
L 18.40625 0 
L 9.421875 0 
z
M 9.421875 75.984375 
L 18.40625 75.984375 
L 18.40625 64.59375 
L 9.421875 64.59375 
z
" id="DejaVuSans-105"/>
       <path d="M 52 44.1875 
Q 55.375 50.25 60.0625 53.125 
Q 64.75 56 71.09375 56 
Q 79.640625 56 84.28125 50.015625 
Q 88.921875 44.046875 88.921875 33.015625 
L 88.921875 0 
L 79.890625 0 
L 79.890625 32.71875 
Q 79.890625 40.578125 77.09375 44.375 
Q 74.3125 48.1875 68.609375 48.1875 
Q 61.625 48.1875 57.5625 43.546875 
Q 53.515625 38.921875 53.515625 30.90625 
L 53.515625 0 
L 44.484375 0 
L 44.484375 32.71875 
Q 44.484375 40.625 41.703125 44.40625 
Q 38.921875 48.1875 33.109375 48.1875 
Q 26.21875 48.1875 22.15625 43.53125 
Q 18.109375 38.875 18.109375 30.90625 
L 18.109375 0 
L 9.078125 0 
L 9.078125 54.6875 
L 18.109375 54.6875 
L 18.109375 46.1875 
Q 21.1875 51.21875 25.484375 53.609375 
Q 29.78125 56 35.6875 56 
Q 41.65625 56 45.828125 52.96875 
Q 50 49.953125 52 44.1875 
z
" id="DejaVuSans-109"/>
       <path d="M 56.203125 29.59375 
L 56.203125 25.203125 
L 14.890625 25.203125 
Q 15.484375 15.921875 20.484375 11.0625 
Q 25.484375 6.203125 34.421875 6.203125 
Q 39.59375 6.203125 44.453125 7.46875 
Q 49.3125 8.734375 54.109375 11.28125 
L 54.109375 2.78125 
Q 49.265625 0.734375 44.1875 -0.34375 
Q 39.109375 -1.421875 33.890625 -1.421875 
Q 20.796875 -1.421875 13.15625 6.1875 
Q 5.515625 13.8125 5.515625 26.8125 
Q 5.515625 40.234375 12.765625 48.109375 
Q 20.015625 56 32.328125 56 
Q 43.359375 56 49.78125 48.890625 
Q 56.203125 41.796875 56.203125 29.59375 
z
M 47.21875 32.234375 
Q 47.125 39.59375 43.09375 43.984375 
Q 39.0625 48.390625 32.421875 48.390625 
Q 24.90625 48.390625 20.390625 44.140625 
Q 15.875 39.890625 15.1875 32.171875 
z
" id="DejaVuSans-101"/>
       <path id="DejaVuSans-32"/>
       <path d="M 31 75.875 
Q 24.46875 64.65625 21.28125 53.65625 
Q 18.109375 42.671875 18.109375 31.390625 
Q 18.109375 20.125 21.3125 9.0625 
Q 24.515625 -2 31 -13.1875 
L 23.1875 -13.1875 
Q 15.875 -1.703125 12.234375 9.375 
Q 8.59375 20.453125 8.59375 31.390625 
Q 8.59375 42.28125 12.203125 53.3125 
Q 15.828125 64.359375 23.1875 75.875 
z
" id="DejaVuSans-40"/>
       <path d="M 54.890625 33.015625 
L 54.890625 0 
L 45.90625 0 
L 45.90625 32.71875 
Q 45.90625 40.484375 42.875 44.328125 
Q 39.84375 48.1875 33.796875 48.1875 
Q 26.515625 48.1875 22.3125 43.546875 
Q 18.109375 38.921875 18.109375 30.90625 
L 18.109375 0 
L 9.078125 0 
L 9.078125 54.6875 
L 18.109375 54.6875 
L 18.109375 46.1875 
Q 21.34375 51.125 25.703125 53.5625 
Q 30.078125 56 35.796875 56 
Q 45.21875 56 50.046875 50.171875 
Q 54.890625 44.34375 54.890625 33.015625 
z
" id="DejaVuSans-110"/>
       <path d="M 44.28125 53.078125 
L 44.28125 44.578125 
Q 40.484375 46.53125 36.375 47.5 
Q 32.28125 48.484375 27.875 48.484375 
Q 21.1875 48.484375 17.84375 46.4375 
Q 14.5 44.390625 14.5 40.28125 
Q 14.5 37.15625 16.890625 35.375 
Q 19.28125 33.59375 26.515625 31.984375 
L 29.59375 31.296875 
Q 39.15625 29.25 43.1875 25.515625 
Q 47.21875 21.78125 47.21875 15.09375 
Q 47.21875 7.46875 41.1875 3.015625 
Q 35.15625 -1.421875 24.609375 -1.421875 
Q 20.21875 -1.421875 15.453125 -0.5625 
Q 10.6875 0.296875 5.421875 2 
L 5.421875 11.28125 
Q 10.40625 8.6875 15.234375 7.390625 
Q 20.0625 6.109375 24.8125 6.109375 
Q 31.15625 6.109375 34.5625 8.28125 
Q 37.984375 10.453125 37.984375 14.40625 
Q 37.984375 18.0625 35.515625 20.015625 
Q 33.0625 21.96875 24.703125 23.78125 
L 21.578125 24.515625 
Q 13.234375 26.265625 9.515625 29.90625 
Q 5.8125 33.546875 5.8125 39.890625 
Q 5.8125 47.609375 11.28125 51.796875 
Q 16.75 56 26.8125 56 
Q 31.78125 56 36.171875 55.265625 
Q 40.578125 54.546875 44.28125 53.078125 
z
" id="DejaVuSans-115"/>
       <path d="M 48.78125 52.59375 
L 48.78125 44.1875 
Q 44.96875 46.296875 41.140625 47.34375 
Q 37.3125 48.390625 33.40625 48.390625 
Q 24.65625 48.390625 19.8125 42.84375 
Q 14.984375 37.3125 14.984375 27.296875 
Q 14.984375 17.28125 19.8125 11.734375 
Q 24.65625 6.203125 33.40625 6.203125 
Q 37.3125 6.203125 41.140625 7.25 
Q 44.96875 8.296875 48.78125 10.40625 
L 48.78125 2.09375 
Q 45.015625 0.34375 40.984375 -0.53125 
Q 36.96875 -1.421875 32.421875 -1.421875 
Q 20.0625 -1.421875 12.78125 6.34375 
Q 5.515625 14.109375 5.515625 27.296875 
Q 5.515625 40.671875 12.859375 48.328125 
Q 20.21875 56 33.015625 56 
Q 37.15625 56 41.109375 55.140625 
Q 45.0625 54.296875 48.78125 52.59375 
z
" id="DejaVuSans-99"/>
       <path d="M 8.015625 75.875 
L 15.828125 75.875 
Q 23.140625 64.359375 26.78125 53.3125 
Q 30.421875 42.28125 30.421875 31.390625 
Q 30.421875 20.453125 26.78125 9.375 
Q 23.140625 -1.703125 15.828125 -13.1875 
L 8.015625 -13.1875 
Q 14.5 -2 17.703125 9.0625 
Q 20.90625 20.125 20.90625 31.390625 
Q 20.90625 42.671875 17.703125 53.65625 
Q 14.5 64.65625 8.015625 75.875 
z
" id="DejaVuSans-41"/>
      </defs>
      <use xlink:href="#DejaVuSans-84"/>
      <use x="57.958984" xlink:href="#DejaVuSans-105"/>
      <use x="85.742188" xlink:href="#DejaVuSans-109"/>
      <use x="183.154297" xlink:href="#DejaVuSans-101"/>
      <use x="244.677734" xlink:href="#DejaVuSans-32"/>
      <use x="276.464844" xlink:href="#DejaVuSans-40"/>
      <use x="315.478516" xlink:href="#DejaVuSans-105"/>
      <use x="343.261719" xlink:href="#DejaVuSans-110"/>
      <use x="406.640625" xlink:href="#DejaVuSans-32"/>
      <use x="438.427734" xlink:href="#DejaVuSans-115"/>
      <use x="490.527344" xlink:href="#DejaVuSans-101"/>
      <use x="552.050781" xlink:href="#DejaVuSans-99"/>
      <use x="607.03125" xlink:href="#DejaVuSans-41"/>
     </g>
    </g>
   </g>
   <g id="matplotlib.axis_2">
    <g id="ytick_1">
     <g id="line2d_27">
      <path clip-path="url(#p08d90baa66)" d="M 176.890625 926.12 
L 1370.230625 926.12 
" style="fill:none;stroke:#b0b0b0;stroke-linecap:square;stroke-opacity:0.6;stroke-width:2;"/>
     </g>
     <g id="line2d_28">
      <defs>
       <path d="M 0 0 
L -12 0 
" id="mb9b048ce69" style="stroke:#000000;stroke-width:2.5;"/>
      </defs>
      <g>
       <use style="stroke:#000000;stroke-width:2.5;" x="176.890625" xlink:href="#mb9b048ce69" y="926.12"/>
      </g>
     </g>
     <g id="text_15">
      <!-- 0 -->
      <g transform="translate(135.940625 941.316875)scale(0.4 -0.4)">
       <use xlink:href="#DejaVuSans-48"/>
      </g>
     </g>
    </g>
    <g id="ytick_2">
     <g id="line2d_29">
      <path clip-path="url(#p08d90baa66)" d="M 176.890625 874.918824 
L 1370.230625 874.918824 
" style="fill:none;stroke:#b0b0b0;stroke-linecap:square;stroke-opacity:0.6;stroke-width:2;"/>
     </g>
     <g id="line2d_30">
      <g>
       <use style="stroke:#000000;stroke-width:2.5;" x="176.890625" xlink:href="#mb9b048ce69" y="874.918824"/>
      </g>
     </g>
     <g id="text_16">
      <!-- 100 -->
      <g transform="translate(85.040625 890.115699)scale(0.4 -0.4)">
       <use xlink:href="#DejaVuSans-49"/>
       <use x="63.623047" xlink:href="#DejaVuSans-48"/>
       <use x="127.246094" xlink:href="#DejaVuSans-48"/>
      </g>
     </g>
    </g>
    <g id="ytick_3">
     <g id="line2d_31">
      <path clip-path="url(#p08d90baa66)" d="M 176.890625 823.717647 
L 1370.230625 823.717647 
" style="fill:none;stroke:#b0b0b0;stroke-linecap:square;stroke-opacity:0.6;stroke-width:2;"/>
     </g>
     <g id="line2d_32">
      <g>
       <use style="stroke:#000000;stroke-width:2.5;" x="176.890625" xlink:href="#mb9b048ce69" y="823.717647"/>
      </g>
     </g>
     <g id="text_17">
      <!-- 200 -->
      <g transform="translate(85.040625 838.914522)scale(0.4 -0.4)">
       <use xlink:href="#DejaVuSans-50"/>
       <use x="63.623047" xlink:href="#DejaVuSans-48"/>
       <use x="127.246094" xlink:href="#DejaVuSans-48"/>
      </g>
     </g>
    </g>
    <g id="ytick_4">
     <g id="line2d_33">
      <path clip-path="url(#p08d90baa66)" d="M 176.890625 772.516471 
L 1370.230625 772.516471 
" style="fill:none;stroke:#b0b0b0;stroke-linecap:square;stroke-opacity:0.6;stroke-width:2;"/>
     </g>
     <g id="line2d_34">
      <g>
       <use style="stroke:#000000;stroke-width:2.5;" x="176.890625" xlink:href="#mb9b048ce69" y="772.516471"/>
      </g>
     </g>
     <g id="text_18">
      <!-- 300 -->
      <g transform="translate(85.040625 787.713346)scale(0.4 -0.4)">
       <defs>
        <path d="M 40.578125 39.3125 
Q 47.65625 37.796875 51.625 33 
Q 55.609375 28.21875 55.609375 21.1875 
Q 55.609375 10.40625 48.1875 4.484375 
Q 40.765625 -1.421875 27.09375 -1.421875 
Q 22.515625 -1.421875 17.65625 -0.515625 
Q 12.796875 0.390625 7.625 2.203125 
L 7.625 11.71875 
Q 11.71875 9.328125 16.59375 8.109375 
Q 21.484375 6.890625 26.8125 6.890625 
Q 36.078125 6.890625 40.9375 10.546875 
Q 45.796875 14.203125 45.796875 21.1875 
Q 45.796875 27.640625 41.28125 31.265625 
Q 36.765625 34.90625 28.71875 34.90625 
L 20.21875 34.90625 
L 20.21875 43.015625 
L 29.109375 43.015625 
Q 36.375 43.015625 40.234375 45.921875 
Q 44.09375 48.828125 44.09375 54.296875 
Q 44.09375 59.90625 40.109375 62.90625 
Q 36.140625 65.921875 28.71875 65.921875 
Q 24.65625 65.921875 20.015625 65.03125 
Q 15.375 64.15625 9.8125 62.3125 
L 9.8125 71.09375 
Q 15.4375 72.65625 20.34375 73.4375 
Q 25.25 74.21875 29.59375 74.21875 
Q 40.828125 74.21875 47.359375 69.109375 
Q 53.90625 64.015625 53.90625 55.328125 
Q 53.90625 49.265625 50.4375 45.09375 
Q 46.96875 40.921875 40.578125 39.3125 
z
" id="DejaVuSans-51"/>
       </defs>
       <use xlink:href="#DejaVuSans-51"/>
       <use x="63.623047" xlink:href="#DejaVuSans-48"/>
       <use x="127.246094" xlink:href="#DejaVuSans-48"/>
      </g>
     </g>
    </g>
    <g id="ytick_5">
     <g id="line2d_35">
      <path clip-path="url(#p08d90baa66)" d="M 176.890625 721.315294 
L 1370.230625 721.315294 
" style="fill:none;stroke:#b0b0b0;stroke-linecap:square;stroke-opacity:0.6;stroke-width:2;"/>
     </g>
     <g id="line2d_36">
      <g>
       <use style="stroke:#000000;stroke-width:2.5;" x="176.890625" xlink:href="#mb9b048ce69" y="721.315294"/>
      </g>
     </g>
     <g id="text_19">
      <!-- 400 -->
      <g transform="translate(85.040625 736.512169)scale(0.4 -0.4)">
       <use xlink:href="#DejaVuSans-52"/>
       <use x="63.623047" xlink:href="#DejaVuSans-48"/>
       <use x="127.246094" xlink:href="#DejaVuSans-48"/>
      </g>
     </g>
    </g>
    <g id="ytick_6">
     <g id="line2d_37">
      <path clip-path="url(#p08d90baa66)" d="M 176.890625 670.114118 
L 1370.230625 670.114118 
" style="fill:none;stroke:#b0b0b0;stroke-linecap:square;stroke-opacity:0.6;stroke-width:2;"/>
     </g>
     <g id="line2d_38">
      <g>
       <use style="stroke:#000000;stroke-width:2.5;" x="176.890625" xlink:href="#mb9b048ce69" y="670.114118"/>
      </g>
     </g>
     <g id="text_20">
      <!-- 500 -->
      <g transform="translate(85.040625 685.310993)scale(0.4 -0.4)">
       <defs>
        <path d="M 10.796875 72.90625 
L 49.515625 72.90625 
L 49.515625 64.59375 
L 19.828125 64.59375 
L 19.828125 46.734375 
Q 21.96875 47.46875 24.109375 47.828125 
Q 26.265625 48.1875 28.421875 48.1875 
Q 40.625 48.1875 47.75 41.5 
Q 54.890625 34.8125 54.890625 23.390625 
Q 54.890625 11.625 47.5625 5.09375 
Q 40.234375 -1.421875 26.90625 -1.421875 
Q 22.3125 -1.421875 17.546875 -0.640625 
Q 12.796875 0.140625 7.71875 1.703125 
L 7.71875 11.625 
Q 12.109375 9.234375 16.796875 8.0625 
Q 21.484375 6.890625 26.703125 6.890625 
Q 35.15625 6.890625 40.078125 11.328125 
Q 45.015625 15.765625 45.015625 23.390625 
Q 45.015625 31 40.078125 35.4375 
Q 35.15625 39.890625 26.703125 39.890625 
Q 22.75 39.890625 18.8125 39.015625 
Q 14.890625 38.140625 10.796875 36.28125 
z
" id="DejaVuSans-53"/>
       </defs>
       <use xlink:href="#DejaVuSans-53"/>
       <use x="63.623047" xlink:href="#DejaVuSans-48"/>
       <use x="127.246094" xlink:href="#DejaVuSans-48"/>
      </g>
     </g>
    </g>
    <g id="ytick_7">
     <g id="line2d_39">
      <path clip-path="url(#p08d90baa66)" d="M 176.890625 618.912941 
L 1370.230625 618.912941 
" style="fill:none;stroke:#b0b0b0;stroke-linecap:square;stroke-opacity:0.6;stroke-width:2;"/>
     </g>
     <g id="line2d_40">
      <g>
       <use style="stroke:#000000;stroke-width:2.5;" x="176.890625" xlink:href="#mb9b048ce69" y="618.912941"/>
      </g>
     </g>
     <g id="text_21">
      <!-- 600 -->
      <g transform="translate(85.040625 634.109816)scale(0.4 -0.4)">
       <use xlink:href="#DejaVuSans-54"/>
       <use x="63.623047" xlink:href="#DejaVuSans-48"/>
       <use x="127.246094" xlink:href="#DejaVuSans-48"/>
      </g>
     </g>
    </g>
    <g id="ytick_8">
     <g id="line2d_41">
      <path clip-path="url(#p08d90baa66)" d="M 176.890625 567.711765 
L 1370.230625 567.711765 
" style="fill:none;stroke:#b0b0b0;stroke-linecap:square;stroke-opacity:0.6;stroke-width:2;"/>
     </g>
     <g id="line2d_42">
      <g>
       <use style="stroke:#000000;stroke-width:2.5;" x="176.890625" xlink:href="#mb9b048ce69" y="567.711765"/>
      </g>
     </g>
     <g id="text_22">
      <!-- 700 -->
      <g transform="translate(85.040625 582.90864)scale(0.4 -0.4)">
       <defs>
        <path d="M 8.203125 72.90625 
L 55.078125 72.90625 
L 55.078125 68.703125 
L 28.609375 0 
L 18.3125 0 
L 43.21875 64.59375 
L 8.203125 64.59375 
z
" id="DejaVuSans-55"/>
       </defs>
       <use xlink:href="#DejaVuSans-55"/>
       <use x="63.623047" xlink:href="#DejaVuSans-48"/>
       <use x="127.246094" xlink:href="#DejaVuSans-48"/>
      </g>
     </g>
    </g>
    <g id="ytick_9">
     <g id="line2d_43">
      <path clip-path="url(#p08d90baa66)" d="M 176.890625 516.510588 
L 1370.230625 516.510588 
" style="fill:none;stroke:#b0b0b0;stroke-linecap:square;stroke-opacity:0.6;stroke-width:2;"/>
     </g>
     <g id="line2d_44">
      <g>
       <use style="stroke:#000000;stroke-width:2.5;" x="176.890625" xlink:href="#mb9b048ce69" y="516.510588"/>
      </g>
     </g>
     <g id="text_23">
      <!-- 800 -->
      <g transform="translate(85.040625 531.707463)scale(0.4 -0.4)">
       <use xlink:href="#DejaVuSans-56"/>
       <use x="63.623047" xlink:href="#DejaVuSans-48"/>
       <use x="127.246094" xlink:href="#DejaVuSans-48"/>
      </g>
     </g>
    </g>
    <g id="ytick_10">
     <g id="line2d_45">
      <path clip-path="url(#p08d90baa66)" d="M 176.890625 465.309412 
L 1370.230625 465.309412 
" style="fill:none;stroke:#b0b0b0;stroke-linecap:square;stroke-opacity:0.6;stroke-width:2;"/>
     </g>
     <g id="line2d_46">
      <g>
       <use style="stroke:#000000;stroke-width:2.5;" x="176.890625" xlink:href="#mb9b048ce69" y="465.309412"/>
      </g>
     </g>
     <g id="text_24">
      <!-- 900 -->
      <g transform="translate(85.040625 480.506287)scale(0.4 -0.4)">
       <defs>
        <path d="M 10.984375 1.515625 
L 10.984375 10.5 
Q 14.703125 8.734375 18.5 7.8125 
Q 22.3125 6.890625 25.984375 6.890625 
Q 35.75 6.890625 40.890625 13.453125 
Q 46.046875 20.015625 46.78125 33.40625 
Q 43.953125 29.203125 39.59375 26.953125 
Q 35.25 24.703125 29.984375 24.703125 
Q 19.046875 24.703125 12.671875 31.3125 
Q 6.296875 37.9375 6.296875 49.421875 
Q 6.296875 60.640625 12.9375 67.421875 
Q 19.578125 74.21875 30.609375 74.21875 
Q 43.265625 74.21875 49.921875 64.515625 
Q 56.59375 54.828125 56.59375 36.375 
Q 56.59375 19.140625 48.40625 8.859375 
Q 40.234375 -1.421875 26.421875 -1.421875 
Q 22.703125 -1.421875 18.890625 -0.6875 
Q 15.09375 0.046875 10.984375 1.515625 
z
M 30.609375 32.421875 
Q 37.25 32.421875 41.125 36.953125 
Q 45.015625 41.5 45.015625 49.421875 
Q 45.015625 57.28125 41.125 61.84375 
Q 37.25 66.40625 30.609375 66.40625 
Q 23.96875 66.40625 20.09375 61.84375 
Q 16.21875 57.28125 16.21875 49.421875 
Q 16.21875 41.5 20.09375 36.953125 
Q 23.96875 32.421875 30.609375 32.421875 
z
" id="DejaVuSans-57"/>
       </defs>
       <use xlink:href="#DejaVuSans-57"/>
       <use x="63.623047" xlink:href="#DejaVuSans-48"/>
       <use x="127.246094" xlink:href="#DejaVuSans-48"/>
      </g>
     </g>
    </g>
    <g id="ytick_11">
     <g id="line2d_47">
      <path clip-path="url(#p08d90baa66)" d="M 176.890625 414.108235 
L 1370.230625 414.108235 
" style="fill:none;stroke:#b0b0b0;stroke-linecap:square;stroke-opacity:0.6;stroke-width:2;"/>
     </g>
     <g id="line2d_48">
      <g>
       <use style="stroke:#000000;stroke-width:2.5;" x="176.890625" xlink:href="#mb9b048ce69" y="414.108235"/>
      </g>
     </g>
     <g id="text_25">
      <!-- 1000 -->
      <g transform="translate(59.590625 429.30511)scale(0.4 -0.4)">
       <use xlink:href="#DejaVuSans-49"/>
       <use x="63.623047" xlink:href="#DejaVuSans-48"/>
       <use x="127.246094" xlink:href="#DejaVuSans-48"/>
       <use x="190.869141" xlink:href="#DejaVuSans-48"/>
      </g>
     </g>
    </g>
    <g id="ytick_12">
     <g id="line2d_49">
      <path clip-path="url(#p08d90baa66)" d="M 176.890625 362.907059 
L 1370.230625 362.907059 
" style="fill:none;stroke:#b0b0b0;stroke-linecap:square;stroke-opacity:0.6;stroke-width:2;"/>
     </g>
     <g id="line2d_50">
      <g>
       <use style="stroke:#000000;stroke-width:2.5;" x="176.890625" xlink:href="#mb9b048ce69" y="362.907059"/>
      </g>
     </g>
     <g id="text_26">
      <!-- 1100 -->
      <g transform="translate(59.590625 378.103934)scale(0.4 -0.4)">
       <use xlink:href="#DejaVuSans-49"/>
       <use x="63.623047" xlink:href="#DejaVuSans-49"/>
       <use x="127.246094" xlink:href="#DejaVuSans-48"/>
       <use x="190.869141" xlink:href="#DejaVuSans-48"/>
      </g>
     </g>
    </g>
    <g id="ytick_13">
     <g id="line2d_51">
      <path clip-path="url(#p08d90baa66)" d="M 176.890625 311.705882 
L 1370.230625 311.705882 
" style="fill:none;stroke:#b0b0b0;stroke-linecap:square;stroke-opacity:0.6;stroke-width:2;"/>
     </g>
     <g id="line2d_52">
      <g>
       <use style="stroke:#000000;stroke-width:2.5;" x="176.890625" xlink:href="#mb9b048ce69" y="311.705882"/>
      </g>
     </g>
     <g id="text_27">
      <!-- 1200 -->
      <g transform="translate(59.590625 326.902757)scale(0.4 -0.4)">
       <use xlink:href="#DejaVuSans-49"/>
       <use x="63.623047" xlink:href="#DejaVuSans-50"/>
       <use x="127.246094" xlink:href="#DejaVuSans-48"/>
       <use x="190.869141" xlink:href="#DejaVuSans-48"/>
      </g>
     </g>
    </g>
    <g id="ytick_14">
     <g id="line2d_53">
      <path clip-path="url(#p08d90baa66)" d="M 176.890625 260.504706 
L 1370.230625 260.504706 
" style="fill:none;stroke:#b0b0b0;stroke-linecap:square;stroke-opacity:0.6;stroke-width:2;"/>
     </g>
     <g id="line2d_54">
      <g>
       <use style="stroke:#000000;stroke-width:2.5;" x="176.890625" xlink:href="#mb9b048ce69" y="260.504706"/>
      </g>
     </g>
     <g id="text_28">
      <!-- 1300 -->
      <g transform="translate(59.590625 275.701581)scale(0.4 -0.4)">
       <use xlink:href="#DejaVuSans-49"/>
       <use x="63.623047" xlink:href="#DejaVuSans-51"/>
       <use x="127.246094" xlink:href="#DejaVuSans-48"/>
       <use x="190.869141" xlink:href="#DejaVuSans-48"/>
      </g>
     </g>
    </g>
    <g id="ytick_15">
     <g id="line2d_55">
      <path clip-path="url(#p08d90baa66)" d="M 176.890625 209.303529 
L 1370.230625 209.303529 
" style="fill:none;stroke:#b0b0b0;stroke-linecap:square;stroke-opacity:0.6;stroke-width:2;"/>
     </g>
     <g id="line2d_56">
      <g>
       <use style="stroke:#000000;stroke-width:2.5;" x="176.890625" xlink:href="#mb9b048ce69" y="209.303529"/>
      </g>
     </g>
     <g id="text_29">
      <!-- 1400 -->
      <g transform="translate(59.590625 224.500404)scale(0.4 -0.4)">
       <use xlink:href="#DejaVuSans-49"/>
       <use x="63.623047" xlink:href="#DejaVuSans-52"/>
       <use x="127.246094" xlink:href="#DejaVuSans-48"/>
       <use x="190.869141" xlink:href="#DejaVuSans-48"/>
      </g>
     </g>
    </g>
    <g id="ytick_16">
     <g id="line2d_57">
      <path clip-path="url(#p08d90baa66)" d="M 176.890625 158.102353 
L 1370.230625 158.102353 
" style="fill:none;stroke:#b0b0b0;stroke-linecap:square;stroke-opacity:0.6;stroke-width:2;"/>
     </g>
     <g id="line2d_58">
      <g>
       <use style="stroke:#000000;stroke-width:2.5;" x="176.890625" xlink:href="#mb9b048ce69" y="158.102353"/>
      </g>
     </g>
     <g id="text_30">
      <!-- 1500 -->
      <g transform="translate(59.590625 173.299228)scale(0.4 -0.4)">
       <use xlink:href="#DejaVuSans-49"/>
       <use x="63.623047" xlink:href="#DejaVuSans-53"/>
       <use x="127.246094" xlink:href="#DejaVuSans-48"/>
       <use x="190.869141" xlink:href="#DejaVuSans-48"/>
      </g>
     </g>
    </g>
    <g id="ytick_17">
     <g id="line2d_59">
      <path clip-path="url(#p08d90baa66)" d="M 176.890625 106.901176 
L 1370.230625 106.901176 
" style="fill:none;stroke:#b0b0b0;stroke-linecap:square;stroke-opacity:0.6;stroke-width:2;"/>
     </g>
     <g id="line2d_60">
      <g>
       <use style="stroke:#000000;stroke-width:2.5;" x="176.890625" xlink:href="#mb9b048ce69" y="106.901176"/>
      </g>
     </g>
     <g id="text_31">
      <!-- 1600 -->
      <g transform="translate(59.590625 122.098051)scale(0.4 -0.4)">
       <use xlink:href="#DejaVuSans-49"/>
       <use x="63.623047" xlink:href="#DejaVuSans-54"/>
       <use x="127.246094" xlink:href="#DejaVuSans-48"/>
       <use x="190.869141" xlink:href="#DejaVuSans-48"/>
      </g>
     </g>
    </g>
    <g id="text_32">
     <!-- Largest cluster size -->
     <g transform="translate(45.192188 733.460781)rotate(-90)scale(0.5 -0.5)">
      <defs>
       <path d="M 9.8125 72.90625 
L 19.671875 72.90625 
L 19.671875 8.296875 
L 55.171875 8.296875 
L 55.171875 0 
L 9.8125 0 
z
" id="DejaVuSans-76"/>
       <path d="M 34.28125 27.484375 
Q 23.390625 27.484375 19.1875 25 
Q 14.984375 22.515625 14.984375 16.5 
Q 14.984375 11.71875 18.140625 8.90625 
Q 21.296875 6.109375 26.703125 6.109375 
Q 34.1875 6.109375 38.703125 11.40625 
Q 43.21875 16.703125 43.21875 25.484375 
L 43.21875 27.484375 
z
M 52.203125 31.203125 
L 52.203125 0 
L 43.21875 0 
L 43.21875 8.296875 
Q 40.140625 3.328125 35.546875 0.953125 
Q 30.953125 -1.421875 24.3125 -1.421875 
Q 15.921875 -1.421875 10.953125 3.296875 
Q 6 8.015625 6 15.921875 
Q 6 25.140625 12.171875 29.828125 
Q 18.359375 34.515625 30.609375 34.515625 
L 43.21875 34.515625 
L 43.21875 35.40625 
Q 43.21875 41.609375 39.140625 45 
Q 35.0625 48.390625 27.6875 48.390625 
Q 23 48.390625 18.546875 47.265625 
Q 14.109375 46.140625 10.015625 43.890625 
L 10.015625 52.203125 
Q 14.9375 54.109375 19.578125 55.046875 
Q 24.21875 56 28.609375 56 
Q 40.484375 56 46.34375 49.84375 
Q 52.203125 43.703125 52.203125 31.203125 
z
" id="DejaVuSans-97"/>
       <path d="M 41.109375 46.296875 
Q 39.59375 47.171875 37.8125 47.578125 
Q 36.03125 48 33.890625 48 
Q 26.265625 48 22.1875 43.046875 
Q 18.109375 38.09375 18.109375 28.8125 
L 18.109375 0 
L 9.078125 0 
L 9.078125 54.6875 
L 18.109375 54.6875 
L 18.109375 46.1875 
Q 20.953125 51.171875 25.484375 53.578125 
Q 30.03125 56 36.53125 56 
Q 37.453125 56 38.578125 55.875 
Q 39.703125 55.765625 41.0625 55.515625 
z
" id="DejaVuSans-114"/>
       <path d="M 45.40625 27.984375 
Q 45.40625 37.75 41.375 43.109375 
Q 37.359375 48.484375 30.078125 48.484375 
Q 22.859375 48.484375 18.828125 43.109375 
Q 14.796875 37.75 14.796875 27.984375 
Q 14.796875 18.265625 18.828125 12.890625 
Q 22.859375 7.515625 30.078125 7.515625 
Q 37.359375 7.515625 41.375 12.890625 
Q 45.40625 18.265625 45.40625 27.984375 
z
M 54.390625 6.78125 
Q 54.390625 -7.171875 48.1875 -13.984375 
Q 42 -20.796875 29.203125 -20.796875 
Q 24.46875 -20.796875 20.265625 -20.09375 
Q 16.0625 -19.390625 12.109375 -17.921875 
L 12.109375 -9.1875 
Q 16.0625 -11.328125 19.921875 -12.34375 
Q 23.78125 -13.375 27.78125 -13.375 
Q 36.625 -13.375 41.015625 -8.765625 
Q 45.40625 -4.15625 45.40625 5.171875 
L 45.40625 9.625 
Q 42.625 4.78125 38.28125 2.390625 
Q 33.9375 0 27.875 0 
Q 17.828125 0 11.671875 7.65625 
Q 5.515625 15.328125 5.515625 27.984375 
Q 5.515625 40.671875 11.671875 48.328125 
Q 17.828125 56 27.875 56 
Q 33.9375 56 38.28125 53.609375 
Q 42.625 51.21875 45.40625 46.390625 
L 45.40625 54.6875 
L 54.390625 54.6875 
z
" id="DejaVuSans-103"/>
       <path d="M 18.3125 70.21875 
L 18.3125 54.6875 
L 36.8125 54.6875 
L 36.8125 47.703125 
L 18.3125 47.703125 
L 18.3125 18.015625 
Q 18.3125 11.328125 20.140625 9.421875 
Q 21.96875 7.515625 27.59375 7.515625 
L 36.8125 7.515625 
L 36.8125 0 
L 27.59375 0 
Q 17.1875 0 13.234375 3.875 
Q 9.28125 7.765625 9.28125 18.015625 
L 9.28125 47.703125 
L 2.6875 47.703125 
L 2.6875 54.6875 
L 9.28125 54.6875 
L 9.28125 70.21875 
z
" id="DejaVuSans-116"/>
       <path d="M 9.421875 75.984375 
L 18.40625 75.984375 
L 18.40625 0 
L 9.421875 0 
z
" id="DejaVuSans-108"/>
       <path d="M 8.5 21.578125 
L 8.5 54.6875 
L 17.484375 54.6875 
L 17.484375 21.921875 
Q 17.484375 14.15625 20.5 10.265625 
Q 23.53125 6.390625 29.59375 6.390625 
Q 36.859375 6.390625 41.078125 11.03125 
Q 45.3125 15.671875 45.3125 23.6875 
L 45.3125 54.6875 
L 54.296875 54.6875 
L 54.296875 0 
L 45.3125 0 
L 45.3125 8.40625 
Q 42.046875 3.421875 37.71875 1 
Q 33.40625 -1.421875 27.6875 -1.421875 
Q 18.265625 -1.421875 13.375 4.4375 
Q 8.5 10.296875 8.5 21.578125 
z
M 31.109375 56 
z
" id="DejaVuSans-117"/>
       <path d="M 5.515625 54.6875 
L 48.1875 54.6875 
L 48.1875 46.484375 
L 14.40625 7.171875 
L 48.1875 7.171875 
L 48.1875 0 
L 4.296875 0 
L 4.296875 8.203125 
L 38.09375 47.515625 
L 5.515625 47.515625 
z
" id="DejaVuSans-122"/>
      </defs>
      <use xlink:href="#DejaVuSans-76"/>
      <use x="55.712891" xlink:href="#DejaVuSans-97"/>
      <use x="116.992188" xlink:href="#DejaVuSans-114"/>
      <use x="156.355469" xlink:href="#DejaVuSans-103"/>
      <use x="219.832031" xlink:href="#DejaVuSans-101"/>
      <use x="281.355469" xlink:href="#DejaVuSans-115"/>
      <use x="333.455078" xlink:href="#DejaVuSans-116"/>
      <use x="372.664062" xlink:href="#DejaVuSans-32"/>
      <use x="404.451172" xlink:href="#DejaVuSans-99"/>
      <use x="459.431641" xlink:href="#DejaVuSans-108"/>
      <use x="487.214844" xlink:href="#DejaVuSans-117"/>
      <use x="550.59375" xlink:href="#DejaVuSans-115"/>
      <use x="602.693359" xlink:href="#DejaVuSans-116"/>
      <use x="641.902344" xlink:href="#DejaVuSans-101"/>
      <use x="703.425781" xlink:href="#DejaVuSans-114"/>
      <use x="744.539062" xlink:href="#DejaVuSans-32"/>
      <use x="776.326172" xlink:href="#DejaVuSans-115"/>
      <use x="828.425781" xlink:href="#DejaVuSans-105"/>
      <use x="856.208984" xlink:href="#DejaVuSans-122"/>
      <use x="908.699219" xlink:href="#DejaVuSans-101"/>
     </g>
    </g>
   </g>
   <g id="line2d_61">
    <path clip-path="url(#p08d90baa66)" d="M 230.297971 925.607988 
L 230.743292 924.071953 
L 231.633934 924.071953 
L 232.079255 922.535918 
L 232.969896 922.535918 
L 233.415217 920.999882 
L 233.860538 920.999882 
L 234.305859 920.487871 
L 234.75118 920.487871 
L 235.196501 918.439824 
L 235.641822 918.439824 
L 236.087143 917.927812 
L 236.532464 917.927812 
L 236.977785 914.343729 
L 239.649711 914.343729 
L 240.095032 912.807694 
L 240.540353 910.759647 
L 240.985674 906.151541 
L 241.430995 906.151541 
L 241.876316 905.639529 
L 242.766958 905.639529 
L 243.212279 903.591482 
L 245.438884 903.591482 
L 246.329526 894.375271 
L 246.774847 894.375271 
L 247.220168 891.3032 
L 249.001452 891.3032 
L 249.446773 886.695094 
L 249.892094 884.647047 
L 250.337415 884.647047 
L 250.782736 882.599 
L 252.56402 882.599 
L 253.009341 882.086988 
L 263.251723 882.086988 
L 263.697044 871.334741 
L 265.033007 871.334741 
L 265.478328 871.846753 
L 265.923649 871.846753 
L 266.36897 858.022435 
L 268.150254 858.022435 
L 268.595575 847.7822 
L 274.384748 847.7822 
L 274.830069 845.734153 
L 276.166032 845.734153 
L 276.611353 845.222141 
L 277.947316 845.222141 
L 278.392637 844.710129 
L 278.837958 844.710129 
L 279.283279 845.222141 
L 280.173921 845.222141 
L 280.619242 844.710129 
L 286.408415 844.710129 
L 286.853736 821.157588 
L 288.189698 821.157588 
L 289.08034 820.133565 
L 298.877402 820.133565 
L 299.322723 757.156118 
L 302.43997 757.156118 
L 302.885291 756.644106 
L 307.338501 756.644106 
L 307.783822 756.132094 
L 318.916846 756.132094 
L 319.362167 751.523988 
L 329.159229 751.523988 
L 329.60455 751.011976 
L 331.831155 751.011976 
L 332.276476 708.002988 
L 339.401612 708.002988 
L 339.846933 707.490976 
L 340.292254 707.490976 
L 340.737575 706.978965 
L 350.979957 706.978965 
L 351.425278 706.466953 
L 351.870599 706.466953 
L 352.31592 703.906894 
L 354.097204 703.906894 
L 354.542525 677.794294 
L 355.433167 677.794294 
L 355.878488 677.282282 
L 378.144537 677.282282 
L 378.589858 676.770271 
L 402.19187 676.770271 
L 402.637191 676.258259 
L 411.09829 676.258259 
L 411.543611 676.770271 
L 419.114068 676.770271 
L 419.559389 676.258259 
L 433.80966 676.258259 
L 434.254981 675.746247 
L 440.489475 675.746247 
L 440.934796 672.674176 
L 441.380117 672.162165 
L 442.71608 672.162165 
L 443.161401 672.674176 
L 448.505253 672.674176 
L 448.950574 670.114118 
L 463.646166 670.114118 
L 464.091487 664.481988 
L 468.990018 664.481988 
L 469.435339 664.994 
L 475.669833 664.994 
L 476.115154 664.481988 
L 488.13882 664.481988 
L 488.584141 663.969976 
L 489.474783 663.969976 
L 489.920104 664.481988 
L 490.365425 664.481988 
L 490.810746 573.343894 
L 492.59203 573.343894 
L 493.037351 553.375435 
L 534.897524 553.375435 
L 535.342845 553.887447 
L 535.788165 553.887447 
L 536.233486 553.375435 
L 545.139906 553.375435 
L 545.585227 553.887447 
L 550.929079 553.887447 
L 551.3744 553.375435 
L 571.413844 553.375435 
L 571.859165 552.863424 
L 659.053014 552.863424 
L 659.498335 397.211847 
L 670.186038 397.211847 
L 670.631359 397.723859 
L 681.764384 397.723859 
L 682.209705 398.235871 
L 698.24126 398.235871 
L 698.686581 397.723859 
L 703.585112 397.723859 
L 704.030433 397.211847 
L 749.453174 397.211847 
L 749.898495 129.941706 
L 781.516284 129.941706 
L 781.961605 130.453718 
L 782.406926 129.941706 
L 784.18821 129.941706 
L 784.633531 130.453718 
L 787.305457 130.453718 
L 787.750778 130.965729 
L 793.539951 130.965729 
L 793.985272 131.477741 
L 806.89958 131.477741 
L 807.344901 130.965729 
L 810.462148 130.965729 
L 810.907469 131.477741 
L 812.243432 131.477741 
L 812.688753 131.989753 
L 815.360679 131.989753 
L 815.806 131.477741 
L 838.51737 131.477741 
L 838.962691 131.989753 
L 844.751864 131.989753 
L 845.197185 131.477741 
L 858.111494 131.477741 
L 858.556815 130.965729 
L 871.916444 130.965729 
L 872.361765 131.477741 
L 883.940111 131.477741 
L 884.385432 130.965729 
L 923.128357 130.965729 
L 923.573678 130.453718 
L 940.495876 130.453718 
L 940.941197 129.941706 
L 947.977268 129.941706 
L 948.422589 130.453718 
L 948.86791 130.453718 
L 949.313231 129.941706 
L 984.493589 129.941706 
L 984.93891 130.453718 
L 1002.306428 130.453718 
L 1002.751749 129.941706 
L 1029.025687 129.941706 
L 1029.471008 130.453718 
L 1031.697613 130.453718 
L 1032.142934 129.941706 
L 1033.033576 129.941706 
L 1033.478897 130.453718 
L 1040.604033 130.453718 
L 1041.049354 129.941706 
L 1049.510452 129.941706 
L 1049.955773 130.453718 
L 1052.627699 130.453718 
L 1053.07302 129.941706 
L 1053.963662 129.941706 
L 1054.408983 130.453718 
L 1057.971551 130.453718 
L 1058.416872 129.941706 
L 1080.682921 129.941706 
L 1081.128242 130.453718 
L 1107.40218 130.453718 
L 1107.847501 130.965729 
L 1108.292822 130.453718 
L 1112.746032 130.453718 
L 1113.191353 129.941706 
L 1120.76181 129.941706 
L 1121.207131 130.453718 
L 1122.543094 130.453718 
L 1122.988415 129.941706 
L 1134.56676 129.941706 
L 1135.012081 130.453718 
L 1144.363822 130.453718 
L 1144.809143 130.965729 
L 1154.606205 130.965729 
L 1155.051526 130.453718 
L 1155.942168 130.453718 
L 1156.387489 129.941706 
L 1158.614093 129.941706 
L 1159.059414 130.453718 
L 1185.778673 130.453718 
L 1186.223994 129.941706 
L 1204.036834 129.941706 
L 1204.482155 130.453718 
L 1204.927476 130.453718 
L 1205.372797 129.941706 
L 1211.607291 129.941706 
L 1212.052612 129.429694 
L 1228.529488 129.429694 
L 1228.974809 129.941706 
L 1251.686179 129.941706 
L 1252.1315 130.453718 
L 1271.725623 130.453718 
L 1272.170944 130.965729 
L 1272.616265 130.965729 
L 1273.061586 131.477741 
L 1273.506907 131.477741 
L 1273.952228 131.989753 
L 1280.632043 131.989753 
L 1281.077364 132.501765 
L 1281.968006 132.501765 
L 1282.413327 131.989753 
L 1298.444882 131.989753 
L 1298.444882 131.989753 
" style="fill:none;stroke:#1f77b4;stroke-linecap:square;stroke-width:3;"/>
   </g>
   <g id="line2d_62">
    <path clip-path="url(#p08d90baa66)" d="M 230.297971 925.607988 
L 230.743292 924.071953 
L 231.188613 924.071953 
L 232.079255 923.047929 
L 232.969896 923.047929 
L 233.415217 921.511894 
L 233.860538 921.511894 
L 234.305859 920.999882 
L 234.75118 920.999882 
L 235.196501 919.463847 
L 235.641822 919.463847 
L 236.087143 917.927812 
L 237.423106 917.927812 
L 237.868427 917.4158 
L 238.759069 917.4158 
L 239.20439 916.391776 
L 239.649711 914.855741 
L 240.095032 914.855741 
L 240.540353 913.319706 
L 242.766958 913.319706 
L 243.212279 912.807694 
L 243.6576 911.783671 
L 244.102921 908.7116 
L 244.548242 906.663553 
L 246.329526 906.663553 
L 246.774847 904.615506 
L 247.665489 904.615506 
L 248.11081 901.543435 
L 248.556131 901.543435 
L 249.001452 897.959353 
L 250.337415 897.959353 
L 250.782736 896.423318 
L 254.790625 896.423318 
L 255.235946 881.062965 
L 260.579797 881.062965 
L 261.025118 876.966871 
L 262.361081 876.966871 
L 262.806402 876.454859 
L 266.36897 876.454859 
L 266.814291 875.942847 
L 267.259612 868.774682 
L 269.931538 868.774682 
L 270.376859 858.022435 
L 274.830069 858.022435 
L 275.27539 857.510424 
L 275.720711 857.510424 
L 276.166032 856.998412 
L 277.056674 856.998412 
L 277.501995 832.421847 
L 280.173921 832.421847 
L 280.619242 829.861788 
L 283.736489 829.861788 
L 284.627131 828.837765 
L 285.963094 828.837765 
L 286.408415 828.325753 
L 287.744378 828.325753 
L 288.189698 827.813741 
L 289.970982 827.813741 
L 290.416303 827.301729 
L 292.197587 827.301729 
L 292.642908 819.621553 
L 297.98676 819.621553 
L 298.432081 807.845282 
L 298.877402 807.333271 
L 303.330612 807.333271 
L 303.775933 806.821259 
L 312.682353 806.821259 
L 313.127674 799.653094 
L 315.799599 799.653094 
L 316.24492 799.141082 
L 318.916846 799.141082 
L 319.362167 798.629071 
L 325.15134 798.629071 
L 325.596661 799.141082 
L 330.940513 799.141082 
L 331.385834 764.836294 
L 335.839044 764.836294 
L 336.284365 724.387365 
L 338.956291 724.387365 
L 339.401612 723.875353 
L 339.846933 722.339318 
L 340.737575 722.339318 
L 341.182896 721.827306 
L 342.518859 721.827306 
L 342.964179 706.978965 
L 347.86271 706.978965 
L 348.308031 706.466953 
L 350.089315 706.466953 
L 350.534636 705.954941 
L 352.761241 705.954941 
L 353.206562 705.442929 
L 358.105093 705.442929 
L 358.550414 705.954941 
L 379.035179 705.954941 
L 379.4805 694.178671 
L 389.277562 694.178671 
L 389.722883 693.666659 
L 397.738661 693.666659 
L 398.183981 660.385894 
L 401.301228 660.385894 
L 401.746549 607.136671 
L 419.559389 607.136671 
L 420.00471 579.488035 
L 420.450031 505.246329 
L 438.26287 505.246329 
L 438.708191 505.758341 
L 440.489475 505.758341 
L 440.934796 506.270353 
L 441.825438 506.270353 
L 442.270759 505.758341 
L 444.497364 505.758341 
L 444.942685 301.465647 
L 445.388006 301.465647 
L 445.833327 299.4176 
L 449.395895 299.4176 
L 449.841216 298.905588 
L 454.294425 298.905588 
L 454.739746 298.393576 
L 456.075709 298.393576 
L 456.52103 298.905588 
L 460.083598 298.905588 
L 460.528919 298.393576 
L 463.200845 298.393576 
L 463.646166 297.881565 
L 468.990018 297.881565 
L 469.435339 298.393576 
L 473.888549 298.393576 
L 474.33387 297.881565 
L 491.256067 297.881565 
L 491.701388 298.393576 
L 497.490561 298.393576 
L 497.935882 297.881565 
L 501.053129 297.881565 
L 501.49845 297.369553 
L 564.288708 297.369553 
L 564.734029 297.881565 
L 567.851276 297.881565 
L 568.296597 297.369553 
L 595.372113 297.369553 
L 595.817434 297.881565 
L 615.411557 297.881565 
L 615.856878 280.473165 
L 618.083483 280.473165 
L 618.528804 279.961153 
L 618.974125 279.961153 
L 619.419446 279.449141 
L 619.864767 279.449141 
L 620.310088 278.937129 
L 651.482557 278.937129 
L 651.927878 279.449141 
L 654.154483 279.449141 
L 654.599804 279.961153 
L 689.780162 279.961153 
L 690.225483 279.449141 
L 717.835384 279.449141 
L 718.280705 279.961153 
L 722.733915 279.961153 
L 723.179235 129.941706 
L 732.085655 129.941706 
L 732.530976 130.453718 
L 739.210791 130.453718 
L 739.656112 130.965729 
L 743.664001 130.965729 
L 744.109322 131.477741 
L 766.820692 131.477741 
L 767.266013 130.965729 
L 790.422704 130.965729 
L 790.868025 131.477741 
L 803.782334 131.477741 
L 804.227655 131.989753 
L 805.563618 131.989753 
L 806.008938 131.477741 
L 813.579395 131.477741 
L 814.024716 130.965729 
L 814.470037 131.477741 
L 819.813889 131.477741 
L 820.25921 130.965729 
L 835.845444 130.965729 
L 836.290765 131.477741 
L 837.181407 131.477741 
L 837.626728 130.965729 
L 839.408012 130.965729 
L 839.853333 131.477741 
L 845.197185 131.477741 
L 845.642506 130.965729 
L 859.002136 130.965729 
L 859.892778 131.989753 
L 869.689839 131.989753 
L 870.13516 132.501765 
L 878.596259 132.501765 
L 879.04158 131.989753 
L 887.057358 131.989753 
L 887.502679 131.477741 
L 887.948 131.989753 
L 890.174604 131.989753 
L 890.619925 132.501765 
L 912.440654 132.501765 
L 912.885975 131.989753 
L 918.229826 131.989753 
L 918.675147 132.501765 
L 930.698814 132.501765 
L 931.144135 131.477741 
L 945.305342 131.477741 
L 945.750663 131.989753 
L 949.313231 131.989753 
L 949.758552 132.501765 
L 963.563503 132.501765 
L 964.008824 133.013776 
L 965.790107 133.013776 
L 966.235428 133.525788 
L 968.016712 133.525788 
L 968.462033 133.013776 
L 972.469922 133.013776 
L 972.915243 132.501765 
L 988.946799 132.501765 
L 989.39212 131.989753 
L 989.837441 131.989753 
L 990.282762 132.501765 
L 1002.751749 132.501765 
L 1003.19707 133.013776 
L 1021.900551 133.013776 
L 1022.345872 133.525788 
L 1034.369539 133.525788 
L 1034.81486 134.0378 
L 1036.596144 134.0378 
L 1037.041465 134.549812 
L 1040.158712 134.549812 
L 1040.604033 134.0378 
L 1045.057243 134.0378 
L 1045.502564 133.525788 
L 1094.042551 133.525788 
L 1094.487872 134.0378 
L 1094.933193 133.525788 
L 1095.823835 133.525788 
L 1096.269156 133.013776 
L 1103.839612 133.013776 
L 1104.284933 132.501765 
L 1106.511538 132.501765 
L 1106.956859 131.989753 
L 1111.85539 131.989753 
L 1112.300711 131.477741 
L 1117.644563 131.477741 
L 1118.089884 131.989753 
L 1149.707674 131.989753 
L 1150.152995 131.477741 
L 1151.043637 131.477741 
L 1151.488958 130.965729 
L 1176.426933 130.965729 
L 1176.872254 131.477741 
L 1183.99739 131.477741 
L 1184.442711 130.965729 
L 1218.732426 130.965729 
L 1219.177747 130.453718 
L 1240.107834 130.453718 
L 1240.553155 130.965729 
L 1244.115722 130.965729 
L 1244.561043 130.453718 
L 1249.459574 130.453718 
L 1249.904895 130.965729 
L 1257.475352 130.965729 
L 1257.920673 131.477741 
L 1258.811315 131.477741 
L 1259.256636 131.989753 
L 1274.84287 131.989753 
L 1275.288191 132.501765 
L 1276.178833 132.501765 
L 1276.624154 133.013776 
L 1281.077364 133.013776 
L 1281.522685 133.525788 
L 1283.74929 133.525788 
L 1284.194611 134.0378 
L 1286.866537 134.0378 
L 1287.311858 133.525788 
L 1288.647821 133.525788 
L 1289.093142 134.0378 
L 1298.444882 134.0378 
L 1298.444882 134.0378 
" style="fill:none;stroke:#ff7f0e;stroke-linecap:square;stroke-width:3;"/>
   </g>
   <g id="line2d_63">
    <path clip-path="url(#p08d90baa66)" d="M 230.297971 925.607988 
L 230.743292 924.071953 
L 231.188613 923.559941 
L 231.633934 923.559941 
L 232.524576 922.535918 
L 232.969896 922.535918 
L 233.415217 921.511894 
L 233.860538 917.927812 
L 234.305859 917.927812 
L 234.75118 917.4158 
L 235.196501 917.4158 
L 235.641822 914.855741 
L 236.087143 914.855741 
L 236.977785 913.831718 
L 237.868427 913.831718 
L 238.313748 913.319706 
L 238.759069 912.295682 
L 240.095032 912.295682 
L 240.540353 911.271659 
L 240.985674 911.271659 
L 241.430995 908.199588 
L 243.6576 908.199588 
L 244.102921 904.103494 
L 244.548242 904.103494 
L 244.993563 901.543435 
L 245.884205 901.543435 
L 246.329526 899.495388 
L 247.220168 899.495388 
L 247.665489 894.887282 
L 248.11081 893.351247 
L 248.556131 879.526929 
L 249.001452 879.014918 
L 249.892094 879.014918 
L 250.337415 878.502906 
L 250.782736 875.430835 
L 251.673378 875.430835 
L 252.118699 864.678588 
L 252.56402 864.678588 
L 253.009341 864.166576 
L 254.345304 864.166576 
L 254.790625 838.053976 
L 255.235946 837.541965 
L 264.587686 837.541965 
L 265.033007 823.717647 
L 265.478328 823.717647 
L 265.923649 823.205635 
L 267.259612 823.205635 
L 267.704933 822.693624 
L 269.486217 822.693624 
L 269.931538 822.181612 
L 278.837958 822.181612 
L 279.283279 790.948894 
L 279.7286 771.492447 
L 281.064563 771.492447 
L 281.509884 770.980435 
L 285.963094 770.980435 
L 286.408415 771.492447 
L 287.299057 771.492447 
L 287.744378 770.980435 
L 291.752266 770.980435 
L 292.197587 769.4444 
L 296.205476 769.4444 
L 296.650797 764.324282 
L 300.658686 764.324282 
L 301.549328 763.300259 
L 310.010427 763.300259 
L 310.455748 762.788247 
L 311.791711 762.788247 
L 312.237032 758.692153 
L 319.807488 758.692153 
L 320.252809 754.596059 
L 329.60455 754.596059 
L 330.049871 755.108071 
L 330.940513 755.108071 
L 331.831155 754.084047 
L 341.628217 754.084047 
L 342.073538 728.483459 
L 346.081426 728.483459 
L 346.526747 727.971447 
L 364.339587 727.971447 
L 364.784908 727.459435 
L 380.816463 727.459435 
L 381.261784 701.346835 
L 398.183981 701.346835 
L 398.629302 700.834824 
L 416.887463 700.834824 
L 417.332784 590.240282 
L 432.919018 590.240282 
L 433.364339 589.728271 
L 436.036265 589.728271 
L 436.481586 589.216259 
L 437.817549 589.216259 
L 438.26287 588.704247 
L 444.052043 588.704247 
L 444.497364 588.192235 
L 454.739746 588.192235 
L 455.185067 585.120165 
L 466.318092 585.120165 
L 466.763413 585.632176 
L 484.130931 585.632176 
L 484.576252 554.399459 
L 514.858079 554.399459 
L 515.3034 554.911471 
L 530.444314 554.911471 
L 531.334956 555.935494 
L 531.780277 555.935494 
L 532.225598 555.423482 
L 572.304486 555.423482 
L 573.195128 554.399459 
L 584.773474 554.399459 
L 585.218795 553.887447 
L 589.137619 553.887447 
L 589.58294 421.788412 
L 705.366396 421.788412 
L 705.811717 422.300424 
L 709.374285 422.300424 
L 709.819606 422.812435 
L 763.258124 422.812435 
L 763.703445 423.324447 
L 766.820692 423.324447 
L 767.266013 422.812435 
L 803.782334 422.812435 
L 804.227655 422.300424 
L 811.35279 422.300424 
L 811.798111 422.812435 
L 831.392235 422.812435 
L 831.837556 422.300424 
L 840.298654 422.300424 
L 840.743975 422.812435 
L 853.212963 422.812435 
L 853.658284 423.324447 
L 880.822864 423.324447 
L 881.268185 422.812435 
L 883.940111 422.812435 
L 884.385432 422.300424 
L 890.174604 422.300424 
L 890.619925 421.788412 
L 942.633416 421.788412 
L 943.078737 421.2764 
L 948.86791 421.2764 
L 949.313231 420.764388 
L 961.782219 420.764388 
L 962.22754 421.2764 
L 967.12607 421.2764 
L 967.571391 421.788412 
L 993.400008 421.788412 
L 993.845329 421.2764 
L 1025.90844 421.2764 
L 1026.353761 421.788412 
L 1035.705502 421.788412 
L 1036.150823 422.300424 
L 1060.198156 422.300424 
L 1060.643477 421.788412 
L 1074.003107 421.788412 
L 1074.448428 421.2764 
L 1081.128242 421.2764 
L 1081.573563 337.306471 
L 1092.261267 337.306471 
L 1092.706588 336.794459 
L 1101.613008 336.794459 
L 1102.058329 336.282447 
L 1108.738143 336.282447 
L 1109.183464 332.698365 
L 1127.886946 332.698365 
L 1128.332267 333.210376 
L 1133.676118 333.210376 
L 1134.121439 333.722388 
L 1157.723452 333.722388 
L 1158.168772 334.2344 
L 1188.89592 334.2344 
L 1189.341241 334.746412 
L 1190.677204 334.746412 
L 1191.122525 335.258424 
L 1191.567846 335.258424 
L 1192.013167 334.746412 
L 1197.80234 334.746412 
L 1198.247661 334.2344 
L 1201.364908 334.2344 
L 1201.810229 133.525788 
L 1211.16197 133.525788 
L 1211.607291 133.013776 
L 1222.740315 133.013776 
L 1223.185636 133.525788 
L 1229.865451 133.525788 
L 1230.310772 134.0378 
L 1238.32655 134.0378 
L 1238.771871 133.525788 
L 1242.334438 133.525788 
L 1242.779759 133.013776 
L 1244.561043 133.013776 
L 1245.006364 132.501765 
L 1253.467463 132.501765 
L 1253.912784 133.013776 
L 1269.053697 133.013776 
L 1269.499018 132.501765 
L 1271.725623 132.501765 
L 1272.170944 131.989753 
L 1277.960117 131.989753 
L 1278.405438 132.501765 
L 1278.850759 132.501765 
L 1279.29608 131.989753 
L 1293.101031 131.989753 
L 1293.546352 132.501765 
L 1298.444882 132.501765 
L 1298.444882 132.501765 
" style="fill:none;stroke:#2ca02c;stroke-linecap:square;stroke-width:3;"/>
   </g>
   <g id="line2d_64">
    <path clip-path="url(#p08d90baa66)" d="M 230.297971 925.607988 
L 230.743292 924.071953 
L 231.188613 924.071953 
L 231.633934 923.559941 
L 232.079255 922.023906 
L 232.969896 920.999882 
L 234.305859 920.999882 
L 235.196501 919.975859 
L 235.641822 917.927812 
L 236.087143 917.927812 
L 236.532464 917.4158 
L 236.977785 917.4158 
L 237.423106 916.391776 
L 237.868427 911.783671 
L 238.313748 911.783671 
L 238.759069 908.199588 
L 239.20439 908.199588 
L 239.649711 906.151541 
L 240.095032 903.079471 
L 240.985674 902.055447 
L 244.993563 902.055447 
L 245.438884 898.471365 
L 246.329526 898.471365 
L 246.774847 897.959353 
L 247.220168 894.375271 
L 247.665489 889.767165 
L 249.892094 889.767165 
L 250.337415 889.255153 
L 250.782736 889.255153 
L 251.228057 880.550953 
L 251.673378 880.550953 
L 252.118699 880.038941 
L 253.899983 880.038941 
L 254.345304 879.526929 
L 256.126588 879.526929 
L 256.571909 863.654565 
L 259.689156 863.654565 
L 260.134477 850.854271 
L 261.91576 850.854271 
L 262.361081 847.270188 
L 262.806402 847.270188 
L 263.251723 846.758176 
L 268.150254 846.758176 
L 268.595575 843.174094 
L 271.267501 843.174094 
L 271.712822 789.412859 
L 274.384748 789.412859 
L 274.830069 787.876824 
L 275.27539 787.364812 
L 276.611353 787.364812 
L 277.056674 786.8528 
L 277.501995 786.8528 
L 277.947316 786.340788 
L 278.837958 786.340788 
L 279.283279 785.828776 
L 281.064563 785.828776 
L 281.509884 776.100553 
L 282.400526 776.100553 
L 282.845847 774.052506 
L 283.291168 774.052506 
L 283.736489 774.564518 
L 284.627131 774.564518 
L 285.072452 774.052506 
L 287.299057 774.052506 
L 287.744378 773.540494 
L 292.197587 773.540494 
L 292.642908 768.932388 
L 293.088229 769.4444 
L 293.53355 767.396353 
L 296.205476 767.396353 
L 296.650797 764.836294 
L 301.994649 764.836294 
L 302.43997 764.324282 
L 302.885291 751.523988 
L 304.221254 751.523988 
L 304.666575 749.987953 
L 306.89318 749.987953 
L 307.338501 749.475941 
L 315.799599 749.475941 
L 316.24492 748.963929 
L 322.479414 748.963929 
L 322.924735 748.451918 
L 325.15134 748.451918 
L 325.596661 728.995471 
L 326.932624 728.995471 
L 327.377945 728.483459 
L 332.276476 728.483459 
L 332.721797 728.995471 
L 335.393723 728.995471 
L 335.839044 728.483459 
L 336.284365 720.803282 
L 343.854821 720.803282 
L 344.300142 712.099082 
L 352.761241 712.099082 
L 353.206562 630.1772 
L 355.433167 630.1772 
L 355.878488 629.665188 
L 359.886377 629.665188 
L 360.331698 629.153176 
L 360.777019 629.665188 
L 378.589858 629.665188 
L 379.035179 629.153176 
L 381.707105 629.153176 
L 382.152426 628.641165 
L 382.597747 628.641165 
L 383.043068 628.129153 
L 385.714994 628.129153 
L 386.160315 626.081106 
L 400.410586 626.081106 
L 400.855907 625.569094 
L 409.762327 625.569094 
L 410.207648 471.965565 
L 415.5515 471.965565 
L 415.996821 472.477576 
L 421.785994 472.477576 
L 422.231315 472.989588 
L 428.911129 472.989588 
L 429.35645 462.237341 
L 432.919018 462.237341 
L 433.364339 462.749353 
L 448.950574 462.749353 
L 449.395895 462.237341 
L 456.075709 462.237341 
L 456.52103 461.725329 
L 467.208734 461.725329 
L 467.654055 462.749353 
L 476.115154 462.749353 
L 476.560475 463.261365 
L 483.68561 463.261365 
L 484.130931 462.749353 
L 489.029462 462.749353 
L 489.474783 460.701306 
L 491.701388 460.701306 
L 492.146709 460.189294 
L 514.858079 460.189294 
L 515.3034 460.701306 
L 534.452203 460.701306 
L 534.897524 295.833518 
L 538.01477 295.833518 
L 538.460091 296.345529 
L 541.577338 296.345529 
L 542.022659 295.833518 
L 568.296597 295.833518 
L 568.741918 296.345529 
L 589.58294 296.345529 
L 590.028261 296.857541 
L 594.926792 296.857541 
L 595.372113 296.345529 
L 609.177064 296.345529 
L 609.622385 296.857541 
L 635.896323 296.857541 
L 636.341644 233.880094 
L 658.162372 233.880094 
L 658.607693 233.368082 
L 703.585112 233.368082 
L 704.030433 232.856071 
L 723.179235 232.856071 
L 723.624556 232.344059 
L 732.530976 232.344059 
L 732.976297 232.856071 
L 734.31226 232.856071 
L 734.757581 232.344059 
L 752.57042 232.344059 
L 753.015741 232.856071 
L 775.727112 232.856071 
L 776.172433 233.368082 
L 777.508396 233.368082 
L 777.953717 233.880094 
L 782.406926 233.880094 
L 782.852247 232.856071 
L 795.766556 232.856071 
L 796.211877 232.344059 
L 796.657198 232.856071 
L 804.227655 232.856071 
L 804.672976 232.344059 
L 813.579395 232.344059 
L 814.024716 232.856071 
L 821.149852 232.856071 
L 821.595173 233.368082 
L 841.634617 233.368082 
L 842.079938 232.856071 
L 873.697728 232.856071 
L 874.143049 232.344059 
L 890.174604 232.344059 
L 890.619925 232.856071 
L 892.401209 232.856071 
L 892.84653 233.368082 
L 893.291851 232.856071 
L 894.627814 232.856071 
L 895.073135 233.368082 
L 913.331296 233.368082 
L 913.776617 232.856071 
L 932.480098 232.856071 
L 933.37074 233.880094 
L 935.152024 233.880094 
L 935.597345 234.392106 
L 937.378629 234.392106 
L 937.82395 234.904118 
L 964.899466 234.904118 
L 965.344787 235.416129 
L 967.571391 235.416129 
L 968.016712 235.928141 
L 1003.19707 235.928141 
L 1003.642391 235.416129 
L 1010.322206 235.416129 
L 1010.767527 234.904118 
L 1012.548811 234.904118 
L 1012.994132 235.416129 
L 1022.791193 235.416129 
L 1023.236514 235.928141 
L 1028.135045 235.928141 
L 1028.580366 235.416129 
L 1033.033576 235.416129 
L 1033.478897 131.989753 
L 1033.924218 131.989753 
L 1034.369539 131.477741 
L 1044.166601 131.477741 
L 1044.611922 130.965729 
L 1053.07302 130.965729 
L 1053.518341 130.453718 
L 1074.448428 130.453718 
L 1074.893749 129.941706 
L 1078.010995 129.941706 
L 1078.456316 130.453718 
L 1114.972637 130.453718 
L 1115.417958 130.965729 
L 1145.699785 130.965729 
L 1146.145106 131.477741 
L 1168.411155 131.477741 
L 1168.856476 131.989753 
L 1182.661427 131.989753 
L 1183.552069 130.965729 
L 1186.669315 130.965729 
L 1187.114636 131.477741 
L 1201.810229 131.477741 
L 1202.25555 131.989753 
L 1205.372797 131.989753 
L 1205.818118 132.501765 
L 1206.263439 131.989753 
L 1207.599402 131.989753 
L 1208.044723 131.477741 
L 1208.935365 131.477741 
L 1209.380686 130.965729 
L 1218.732426 130.965729 
L 1219.177747 130.453718 
L 1245.451685 130.453718 
L 1245.897006 130.965729 
L 1264.600488 130.965729 
L 1265.045809 130.453718 
L 1285.085253 130.453718 
L 1285.530574 130.965729 
L 1292.210389 130.965729 
L 1292.65571 130.453718 
L 1297.999561 130.453718 
L 1298.444882 129.941706 
L 1298.444882 129.941706 
" style="fill:none;stroke:#d62728;stroke-linecap:square;stroke-width:3;"/>
   </g>
   <g id="line2d_65">
    <path clip-path="url(#p08d90baa66)" d="M 230.297971 925.607988 
L 231.188613 923.559941 
L 231.633934 923.559941 
L 232.524576 921.511894 
L 232.969896 920.999882 
L 234.305859 920.999882 
L 234.75118 920.487871 
L 235.641822 920.487871 
L 236.532464 919.463847 
L 236.977785 917.4158 
L 238.313748 917.4158 
L 238.759069 915.367753 
L 240.095032 915.367753 
L 240.540353 914.343729 
L 240.985674 911.271659 
L 241.430995 910.759647 
L 241.876316 910.759647 
L 242.321637 908.7116 
L 244.993563 908.7116 
L 245.438884 908.199588 
L 246.774847 908.199588 
L 247.220168 902.567459 
L 247.665489 902.567459 
L 248.11081 901.031424 
L 250.337415 901.031424 
L 250.782736 900.519412 
L 251.673378 900.519412 
L 252.118699 887.207106 
L 252.56402 887.207106 
L 253.009341 882.086988 
L 253.454662 881.574976 
L 253.899983 881.574976 
L 254.345304 871.846753 
L 254.790625 856.4864 
L 257.462551 856.4864 
L 257.907872 849.318235 
L 259.243835 849.318235 
L 259.689156 843.686106 
L 260.134477 843.174094 
L 260.579797 837.541965 
L 265.478328 837.541965 
L 265.923649 833.445871 
L 266.814291 833.445871 
L 267.259612 832.933859 
L 269.040896 832.933859 
L 269.486217 832.421847 
L 270.376859 832.421847 
L 271.267501 831.397824 
L 273.494106 831.397824 
L 273.939427 797.093035 
L 278.837958 797.093035 
L 279.283279 792.484929 
L 281.064563 792.484929 
L 281.509884 788.388835 
L 290.416303 788.388835 
L 290.861624 787.876824 
L 291.306945 787.876824 
L 291.752266 787.364812 
L 293.53355 787.364812 
L 293.978871 786.8528 
L 294.424192 786.8528 
L 294.869513 786.340788 
L 296.650797 786.340788 
L 297.096118 786.8528 
L 302.885291 786.8528 
L 303.330612 768.932388 
L 303.775933 768.932388 
L 304.666575 767.908365 
L 305.111896 767.908365 
L 305.557217 761.764224 
L 306.002538 761.252212 
L 313.572995 761.252212 
L 314.018316 760.7402 
L 315.354279 760.7402 
L 315.799599 761.252212 
L 323.370056 761.252212 
L 323.815377 735.651624 
L 324.260698 735.139612 
L 329.60455 735.139612 
L 330.049871 734.6276 
L 333.167118 734.6276 
L 333.612439 721.315294 
L 334.948402 721.315294 
L 335.393723 714.659141 
L 358.995735 714.659141 
L 359.441056 696.738729 
L 363.003624 696.738729 
L 363.448945 696.226718 
L 364.784908 696.226718 
L 365.230229 695.714706 
L 366.120871 695.714706 
L 366.566192 696.226718 
L 370.12876 696.226718 
L 370.57408 695.714706 
L 379.4805 695.714706 
L 379.925821 694.178671 
L 380.371142 692.130624 
L 389.722883 692.130624 
L 390.168204 692.642635 
L 400.855907 692.642635 
L 401.301228 692.130624 
L 401.746549 692.642635 
L 407.090401 692.642635 
L 407.535722 687.010506 
L 422.676636 687.010506 
L 423.121957 686.498494 
L 424.012599 686.498494 
L 424.45792 685.986482 
L 429.801771 685.986482 
L 430.247092 685.474471 
L 437.372228 685.474471 
L 437.817549 685.986482 
L 438.26287 685.986482 
L 438.708191 686.498494 
L 442.270759 686.498494 
L 442.71608 678.818318 
L 446.723969 678.818318 
L 447.16929 439.708824 
L 451.6225 439.708824 
L 452.067821 439.196812 
L 453.849104 439.196812 
L 454.294425 438.6848 
L 458.747635 438.6848 
L 459.192956 411.548176 
L 474.779191 411.548176 
L 475.224512 391.067706 
L 497.04524 391.067706 
L 497.490561 389.531671 
L 498.826524 389.531671 
L 499.271845 385.435576 
L 499.717166 385.435576 
L 500.607808 386.4596 
L 516.639363 386.4596 
L 517.084684 386.971612 
L 520.201931 386.971612 
L 520.647252 381.851494 
L 521.092573 381.851494 
L 521.537894 381.339482 
L 538.01477 381.339482 
L 538.460091 380.827471 
L 542.913301 380.827471 
L 543.358622 381.339482 
L 545.585227 381.339482 
L 546.030548 380.827471 
L 548.257153 380.827471 
L 548.702474 380.315459 
L 554.936968 380.315459 
L 555.382289 379.803447 
L 556.272931 379.803447 
L 556.718252 380.315459 
L 561.171462 380.315459 
L 561.616783 379.803447 
L 562.952746 379.803447 
L 563.398066 379.291435 
L 574.976412 379.291435 
L 575.421733 379.803447 
L 589.58294 379.803447 
L 590.028261 380.315459 
L 594.03615 380.315459 
L 594.481471 379.803447 
L 597.153397 379.803447 
L 597.598718 379.291435 
L 611.403669 379.291435 
L 611.84899 378.779424 
L 625.65394 378.779424 
L 626.099261 379.291435 
L 643.9121 379.291435 
L 644.357421 378.779424 
L 663.951545 378.779424 
L 664.396866 379.291435 
L 664.842187 379.291435 
L 665.287508 379.803447 
L 708.483643 379.803447 
L 708.928964 380.315459 
L 732.976297 380.315459 
L 733.421618 380.827471 
L 735.202902 380.827471 
L 735.648223 378.267412 
L 736.093544 377.7554 
L 740.101433 377.7554 
L 740.546754 377.243388 
L 759.695556 377.243388 
L 760.140877 376.731376 
L 789.977383 376.731376 
L 790.422704 376.219365 
L 791.758667 376.219365 
L 792.203988 376.731376 
L 812.688753 376.731376 
L 813.134074 377.243388 
L 836.736086 377.243388 
L 837.181407 376.731376 
L 862.564703 376.731376 
L 863.010024 377.243388 
L 870.580481 377.243388 
L 871.025802 376.731376 
L 883.49479 376.731376 
L 884.385432 377.7554 
L 932.925419 377.7554 
L 933.37074 377.243388 
L 941.386518 377.243388 
L 941.831839 376.731376 
L 978.704416 376.731376 
L 979.149737 377.243388 
L 988.056157 377.243388 
L 988.501478 376.731376 
L 1015.666058 376.731376 
L 1016.111379 377.243388 
L 1021.45523 377.243388 
L 1021.900551 377.7554 
L 1022.345872 377.243388 
L 1028.580366 377.243388 
L 1029.025687 338.330494 
L 1029.471008 337.818482 
L 1051.291736 337.818482 
L 1051.737057 338.330494 
L 1052.627699 338.330494 
L 1053.07302 338.842506 
L 1093.151909 338.842506 
L 1093.59723 338.330494 
L 1114.527316 338.330494 
L 1114.972637 338.842506 
L 1118.089884 338.842506 
L 1118.535205 338.330494 
L 1127.441625 338.330494 
L 1127.886946 337.818482 
L 1129.66823 337.818482 
L 1130.558872 338.842506 
L 1142.137217 338.842506 
L 1142.582538 338.330494 
L 1177.762896 338.330494 
L 1178.208217 338.842506 
L 1204.036834 338.842506 
L 1204.482155 338.330494 
L 1219.623068 338.330494 
L 1220.068389 337.818482 
L 1220.51371 337.818482 
L 1220.959031 337.306471 
L 1257.030031 337.306471 
L 1257.475352 336.794459 
L 1265.045809 336.794459 
L 1265.49113 337.306471 
L 1275.733512 337.306471 
L 1276.178833 337.818482 
L 1297.108919 337.818482 
L 1297.55424 338.330494 
L 1298.444882 338.330494 
L 1298.444882 338.330494 
" style="fill:none;stroke:#9467bd;stroke-linecap:square;stroke-width:3;"/>
   </g>
   <g id="patch_3">
    <path d="M 176.890625 926.12 
L 176.890625 55.7 
" style="fill:none;stroke:#000000;stroke-linecap:square;stroke-linejoin:miter;stroke-width:5;"/>
   </g>
   <g id="patch_4">
    <path d="M 1370.230625 926.12 
L 1370.230625 55.7 
" style="fill:none;stroke:#000000;stroke-linecap:square;stroke-linejoin:miter;stroke-width:5;"/>
   </g>
   <g id="patch_5">
    <path d="M 176.890625 926.12 
L 1370.230625 926.12 
" style="fill:none;stroke:#000000;stroke-linecap:square;stroke-linejoin:miter;stroke-width:5;"/>
   </g>
   <g id="patch_6">
    <path d="M 176.890625 55.7 
L 1370.230625 55.7 
" style="fill:none;stroke:#000000;stroke-linecap:square;stroke-linejoin:miter;stroke-width:5;"/>
   </g>
   <g id="text_33">
    <!-- $\phi_{ribosome} = $0.0 ; $T_{c} = $1.0 ; $\varepsilon = $17.0 -->
    <g transform="translate(359.810625 45.2)scale(0.5 -0.5)">
     <defs>
      <path d="M 46.734375 75.984375 
L 42.78125 55.8125 
Q 52.546875 55.8125 57.5625 48.34375 
Q 62.75 40.71875 60.15625 27.296875 
Q 57.515625 13.875 49.359375 6.25 
Q 41.453125 -1.21875 31.6875 -1.21875 
L 27.875 -20.796875 
L 18.953125 -20.796875 
L 22.75 -1.21875 
Q 13.03125 -1.21875 7.953125 6.25 
Q 2.78125 13.875 5.421875 27.296875 
Q 8.015625 40.71875 16.15625 48.34375 
Q 24.125 55.8125 33.84375 55.8125 
L 37.796875 75.984375 
z
M 33.25 6.78125 
Q 38.765625 6.78125 43.5 11.8125 
Q 48.6875 17.4375 50.6875 27.296875 
Q 52.640625 37.0625 49.515625 42.78125 
Q 46.734375 47.796875 41.21875 47.796875 
z
M 24.3125 6.78125 
L 32.28125 47.796875 
Q 26.8125 47.796875 22.078125 42.78125 
Q 16.75 37.0625 14.890625 27.296875 
Q 13.03125 17.4375 16.0625 11.8125 
Q 18.796875 6.78125 24.3125 6.78125 
z
" id="DejaVuSans-Oblique-981"/>
      <path d="M 44.578125 46.390625 
Q 43.21875 47.125 41.453125 47.515625 
Q 39.703125 47.90625 37.703125 47.90625 
Q 30.515625 47.90625 25.140625 42.453125 
Q 19.78125 37.015625 18.015625 27.875 
L 12.5 0 
L 3.515625 0 
L 14.203125 54.6875 
L 23.1875 54.6875 
L 21.484375 46.1875 
Q 25.046875 50.921875 30 53.453125 
Q 34.96875 56 40.578125 56 
Q 42.046875 56 43.453125 55.828125 
Q 44.875 55.671875 46.296875 55.28125 
z
" id="DejaVuSans-Oblique-114"/>
      <path d="M 18.3125 75.984375 
L 27.296875 75.984375 
L 25.09375 64.59375 
L 16.109375 64.59375 
z
M 14.203125 54.6875 
L 23.1875 54.6875 
L 12.5 0 
L 3.515625 0 
z
" id="DejaVuSans-Oblique-105"/>
      <path d="M 49.515625 33.40625 
Q 49.515625 40.484375 46.265625 44.484375 
Q 43.015625 48.484375 37.3125 48.484375 
Q 33.15625 48.484375 29.515625 46.453125 
Q 25.875 44.4375 23.1875 40.578125 
Q 20.359375 36.53125 18.71875 31.171875 
Q 17.09375 25.828125 17.09375 20.515625 
Q 17.09375 13.765625 20.28125 9.9375 
Q 23.484375 6.109375 29.109375 6.109375 
Q 33.34375 6.109375 36.953125 8.078125 
Q 40.578125 10.0625 43.3125 13.921875 
Q 46.09375 17.921875 47.796875 23.234375 
Q 49.515625 28.5625 49.515625 33.40625 
z
M 21.578125 46.390625 
Q 24.90625 50.875 29.90625 53.4375 
Q 34.90625 56 40.375 56 
Q 48.78125 56 53.734375 50.328125 
Q 58.6875 44.671875 58.6875 35.015625 
Q 58.6875 27.09375 55.78125 19.671875 
Q 52.875 12.25 47.515625 6.5 
Q 44 2.6875 39.40625 0.625 
Q 34.8125 -1.421875 29.78125 -1.421875 
Q 24.46875 -1.421875 20.5625 1.015625 
Q 16.65625 3.46875 14.203125 8.296875 
L 12.59375 0 
L 3.609375 0 
L 18.40625 75.984375 
L 27.390625 75.984375 
z
" id="DejaVuSans-Oblique-98"/>
      <path d="M 25.390625 -1.421875 
Q 15.765625 -1.421875 10.171875 4.515625 
Q 4.59375 10.453125 4.59375 20.703125 
Q 4.59375 26.65625 6.515625 32.828125 
Q 8.453125 39.015625 11.53125 43.21875 
Q 16.359375 49.75 22.3125 52.875 
Q 28.265625 56 35.796875 56 
Q 45.125 56 50.859375 50.1875 
Q 56.59375 44.390625 56.59375 35.015625 
Q 56.59375 28.515625 54.6875 22.0625 
Q 52.78125 15.625 49.703125 11.375 
Q 44.921875 4.828125 38.96875 1.703125 
Q 33.015625 -1.421875 25.390625 -1.421875 
z
M 13.921875 21 
Q 13.921875 13.578125 17.015625 9.890625 
Q 20.125 6.203125 26.421875 6.203125 
Q 35.453125 6.203125 41.375 14.078125 
Q 47.3125 21.96875 47.3125 34.078125 
Q 47.3125 41.15625 44.140625 44.765625 
Q 40.96875 48.390625 34.8125 48.390625 
Q 29.734375 48.390625 25.78125 46.015625 
Q 21.828125 43.65625 18.703125 38.8125 
Q 16.40625 35.203125 15.15625 30.5625 
Q 13.921875 25.921875 13.921875 21 
z
" id="DejaVuSans-Oblique-111"/>
      <path d="M 50 53.078125 
L 48.296875 44.578125 
Q 44.734375 46.53125 40.765625 47.5 
Q 36.8125 48.484375 32.625 48.484375 
Q 25.53125 48.484375 21.453125 46.0625 
Q 17.390625 43.65625 17.390625 39.5 
Q 17.390625 34.671875 26.859375 32.078125 
Q 27.59375 31.890625 27.9375 31.78125 
L 30.8125 30.90625 
Q 39.796875 28.421875 42.796875 25.6875 
Q 45.796875 22.953125 45.796875 18.21875 
Q 45.796875 9.515625 38.890625 4.046875 
Q 31.984375 -1.421875 20.796875 -1.421875 
Q 16.453125 -1.421875 11.671875 -0.578125 
Q 6.890625 0.25 1.125 2 
L 2.875 11.28125 
Q 7.8125 8.734375 12.59375 7.421875 
Q 17.390625 6.109375 21.78125 6.109375 
Q 28.375 6.109375 32.5 8.9375 
Q 36.625 11.765625 36.625 16.109375 
Q 36.625 20.796875 25.78125 23.6875 
L 24.859375 23.921875 
L 21.78125 24.703125 
Q 14.9375 26.515625 11.765625 29.46875 
Q 8.59375 32.421875 8.59375 37.015625 
Q 8.59375 45.75 15.15625 50.875 
Q 21.734375 56 33.015625 56 
Q 37.453125 56 41.671875 55.265625 
Q 45.90625 54.546875 50 53.078125 
z
" id="DejaVuSans-Oblique-115"/>
      <path d="M 89.796875 33.015625 
L 83.40625 0 
L 74.421875 0 
L 80.71875 32.71875 
Q 81.109375 34.8125 81.296875 36.328125 
Q 81.5 37.84375 81.5 38.921875 
Q 81.5 43.3125 79.046875 45.75 
Q 76.609375 48.1875 72.21875 48.1875 
Q 65.671875 48.1875 60.546875 43.28125 
Q 55.421875 38.375 53.90625 30.515625 
L 47.90625 0 
L 38.921875 0 
L 45.3125 32.71875 
Q 45.703125 34.515625 45.890625 36.046875 
Q 46.09375 37.59375 46.09375 38.8125 
Q 46.09375 43.265625 43.65625 45.71875 
Q 41.21875 48.1875 36.921875 48.1875 
Q 30.28125 48.1875 25.140625 43.28125 
Q 20.015625 38.375 18.5 30.515625 
L 12.5 0 
L 3.515625 0 
L 14.203125 54.6875 
L 23.1875 54.6875 
L 21.484375 46.1875 
Q 25.140625 50.984375 30.046875 53.484375 
Q 34.96875 56 40.578125 56 
Q 46.53125 56 50.359375 52.875 
Q 54.203125 49.75 54.984375 44.1875 
Q 59.078125 49.953125 64.46875 52.96875 
Q 69.875 56 75.875 56 
Q 82.90625 56 86.734375 51.953125 
Q 90.578125 47.90625 90.578125 40.484375 
Q 90.578125 38.875 90.375 36.9375 
Q 90.1875 35.015625 89.796875 33.015625 
z
" id="DejaVuSans-Oblique-109"/>
      <path d="M 48.09375 32.234375 
Q 48.25 33.015625 48.3125 33.84375 
Q 48.390625 34.671875 48.390625 35.5 
Q 48.390625 41.453125 44.890625 44.921875 
Q 41.40625 48.390625 35.40625 48.390625 
Q 28.71875 48.390625 23.578125 44.15625 
Q 18.453125 39.9375 15.828125 32.171875 
z
M 55.90625 25.203125 
L 14.109375 25.203125 
Q 13.8125 23.34375 13.71875 22.265625 
Q 13.625 21.1875 13.625 20.40625 
Q 13.625 13.625 17.796875 9.90625 
Q 21.96875 6.203125 29.59375 6.203125 
Q 35.453125 6.203125 40.671875 7.515625 
Q 45.90625 8.84375 50.390625 11.375 
L 48.6875 2.484375 
Q 43.84375 0.53125 38.6875 -0.4375 
Q 33.546875 -1.421875 28.21875 -1.421875 
Q 16.84375 -1.421875 10.71875 4.015625 
Q 4.59375 9.46875 4.59375 19.484375 
Q 4.59375 28.03125 7.640625 35.375 
Q 10.6875 42.71875 16.609375 48.484375 
Q 20.40625 52.09375 25.65625 54.046875 
Q 30.90625 56 36.8125 56 
Q 46.09375 56 51.578125 50.4375 
Q 57.078125 44.875 57.078125 35.5 
Q 57.078125 33.25 56.78125 30.6875 
Q 56.5 28.125 55.90625 25.203125 
z
" id="DejaVuSans-Oblique-101"/>
      <path d="M 10.59375 45.40625 
L 73.1875 45.40625 
L 73.1875 37.203125 
L 10.59375 37.203125 
z
M 10.59375 25.484375 
L 73.1875 25.484375 
L 73.1875 17.1875 
L 10.59375 17.1875 
z
" id="DejaVuSans-61"/>
      <path d="M 10.6875 12.40625 
L 21 12.40625 
L 21 0 
L 10.6875 0 
z
" id="DejaVuSans-46"/>
      <path d="M 11.71875 51.703125 
L 22.015625 51.703125 
L 22.015625 39.3125 
L 11.71875 39.3125 
z
M 11.71875 12.40625 
L 22.015625 12.40625 
L 22.015625 4 
L 14.015625 -11.625 
L 7.71875 -11.625 
L 11.71875 4 
z
" id="DejaVuSans-59"/>
      <path d="M 5.90625 72.90625 
L 67.578125 72.90625 
L 66.015625 64.59375 
L 39.984375 64.59375 
L 27.484375 0 
L 17.578125 0 
L 30.078125 64.59375 
L 4.296875 64.59375 
z
" id="DejaVuSans-Oblique-84"/>
      <path d="M 53.609375 52.59375 
L 51.8125 43.703125 
Q 48.578125 46.046875 44.9375 47.21875 
Q 41.3125 48.390625 37.40625 48.390625 
Q 33.109375 48.390625 29.21875 46.875 
Q 25.34375 45.359375 22.703125 42.578125 
Q 18.5 38.328125 16.203125 32.609375 
Q 13.921875 26.90625 13.921875 20.796875 
Q 13.921875 13.421875 17.609375 9.8125 
Q 21.296875 6.203125 28.8125 6.203125 
Q 32.515625 6.203125 36.6875 7.328125 
Q 40.875 8.453125 45.40625 10.6875 
L 43.703125 1.8125 
Q 39.796875 0.203125 35.671875 -0.609375 
Q 31.546875 -1.421875 27.203125 -1.421875 
Q 16.3125 -1.421875 10.453125 4.015625 
Q 4.59375 9.46875 4.59375 19.578125 
Q 4.59375 28.078125 7.640625 35.234375 
Q 10.6875 42.390625 16.703125 48.09375 
Q 20.796875 52 26.3125 54 
Q 31.84375 56 38.375 56 
Q 42.1875 56 45.9375 55.140625 
Q 49.703125 54.296875 53.609375 52.59375 
z
" id="DejaVuSans-Oblique-99"/>
      <path d="M 19.734375 29.5 
Q 14.453125 30.671875 12.15625 33.84375 
Q 10.453125 36.078125 10.453125 39.109375 
Q 10.453125 47.40625 18.359375 52.25 
Q 24.609375 56.0625 34.1875 56.0625 
Q 37.890625 56.0625 41.9375 55.46875 
Q 46 54.890625 50.53125 53.71875 
L 48.96875 45.5625 
Q 44.484375 46.96875 40.71875 47.609375 
Q 36.859375 48.25 33.40625 48.25 
Q 27.59375 48.25 23.78125 46 
Q 19.1875 43.3125 19.1875 39.40625 
Q 19.1875 36.8125 21.578125 35.015625 
Q 24.421875 32.859375 30.078125 32.859375 
L 37.640625 32.859375 
L 36.234375 25.4375 
L 29 25.4375 
Q 22.265625 25.4375 18.3125 22.953125 
Q 12.9375 19.578125 12.9375 14.3125 
Q 12.9375 10.984375 15.828125 8.796875 
Q 19.4375 6.0625 26.8125 6.0625 
Q 31.34375 6.0625 35.6875 6.9375 
Q 40.046875 7.859375 43.84375 9.671875 
L 42.1875 1.3125 
Q 37.546875 -0.046875 33.296875 -0.734375 
Q 29.046875 -1.421875 25.140625 -1.421875 
Q 13.53125 -1.421875 8.0625 3.03125 
Q 3.90625 6.453125 3.90625 12.203125 
Q 3.90625 19.96875 9.375 24.75 
Q 13.421875 28.328125 19.734375 29.5 
z
" id="DejaVuSans-Oblique-949"/>
     </defs>
     <use transform="translate(0 0.015625)" xlink:href="#DejaVuSans-Oblique-981"/>
     <use transform="translate(65.966797 -16.390625)scale(0.7)" xlink:href="#DejaVuSans-Oblique-114"/>
     <use transform="translate(94.746094 -16.390625)scale(0.7)" xlink:href="#DejaVuSans-Oblique-105"/>
     <use transform="translate(114.194336 -16.390625)scale(0.7)" xlink:href="#DejaVuSans-Oblique-98"/>
     <use transform="translate(158.62793 -16.390625)scale(0.7)" xlink:href="#DejaVuSans-Oblique-111"/>
     <use transform="translate(201.455078 -16.390625)scale(0.7)" xlink:href="#DejaVuSans-Oblique-115"/>
     <use transform="translate(237.924805 -16.390625)scale(0.7)" xlink:href="#DejaVuSans-Oblique-111"/>
     <use transform="translate(280.751953 -16.390625)scale(0.7)" xlink:href="#DejaVuSans-Oblique-109"/>
     <use transform="translate(348.94043 -16.390625)scale(0.7)" xlink:href="#DejaVuSans-Oblique-101"/>
     <use transform="translate(414.223633 0.015625)" xlink:href="#DejaVuSans-61"/>
     <use transform="translate(517.495117 0.015625)" xlink:href="#DejaVuSans-48"/>
     <use transform="translate(581.118164 0.015625)" xlink:href="#DejaVuSans-46"/>
     <use transform="translate(612.905273 0.015625)" xlink:href="#DejaVuSans-48"/>
     <use transform="translate(676.52832 0.015625)" xlink:href="#DejaVuSans-32"/>
     <use transform="translate(708.31543 0.015625)" xlink:href="#DejaVuSans-59"/>
     <use transform="translate(742.006836 0.015625)" xlink:href="#DejaVuSans-32"/>
     <use transform="translate(773.793945 0.015625)" xlink:href="#DejaVuSans-Oblique-84"/>
     <use transform="translate(834.87793 -16.390625)scale(0.7)" xlink:href="#DejaVuSans-Oblique-99"/>
     <use transform="translate(895.581055 0.015625)" xlink:href="#DejaVuSans-61"/>
     <use transform="translate(998.852539 0.015625)" xlink:href="#DejaVuSans-49"/>
     <use transform="translate(1062.475586 0.015625)" xlink:href="#DejaVuSans-46"/>
     <use transform="translate(1094.262695 0.015625)" xlink:href="#DejaVuSans-48"/>
     <use transform="translate(1157.885742 0.015625)" xlink:href="#DejaVuSans-32"/>
     <use transform="translate(1189.672852 0.015625)" xlink:href="#DejaVuSans-59"/>
     <use transform="translate(1223.364258 0.015625)" xlink:href="#DejaVuSans-32"/>
     <use transform="translate(1255.151367 0.015625)" xlink:href="#DejaVuSans-Oblique-949"/>
     <use transform="translate(1328.686523 0.015625)" xlink:href="#DejaVuSans-61"/>
     <use transform="translate(1431.958008 0.015625)" xlink:href="#DejaVuSans-49"/>
     <use transform="translate(1495.581055 0.015625)" xlink:href="#DejaVuSans-55"/>
     <use transform="translate(1559.204102 0.015625)" xlink:href="#DejaVuSans-46"/>
     <use transform="translate(1590.991211 0.015625)" xlink:href="#DejaVuSans-48"/>
    </g>
   </g>
   <g id="legend_1">
    <g id="patch_7">
     <path d="M 197.890625 299.871875 
L 372.814062 299.871875 
Q 378.814062 299.871875 378.814062 293.871875 
L 378.814062 76.7 
Q 378.814062 70.7 372.814062 70.7 
L 197.890625 70.7 
Q 191.890625 70.7 191.890625 76.7 
L 191.890625 293.871875 
Q 191.890625 299.871875 197.890625 299.871875 
z
" style="fill:#ffffff;opacity:0.8;stroke:#cccccc;stroke-linejoin:miter;stroke-width:2;"/>
    </g>
    <g id="line2d_66">
     <path d="M 203.890625 94.995312 
L 263.890625 94.995312 
" style="fill:none;stroke:#1f77b4;stroke-linecap:square;stroke-width:3;"/>
    </g>
    <g id="line2d_67"/>
    <g id="text_34">
     <!-- s = 1 -->
     <g transform="translate(287.890625 105.495312)scale(0.3 -0.3)">
      <use xlink:href="#DejaVuSans-115"/>
      <use x="52.099609" xlink:href="#DejaVuSans-32"/>
      <use x="83.886719" xlink:href="#DejaVuSans-61"/>
      <use x="167.675781" xlink:href="#DejaVuSans-32"/>
      <use x="199.462891" xlink:href="#DejaVuSans-49"/>
     </g>
    </g>
    <g id="line2d_68">
     <path d="M 203.890625 139.029687 
L 263.890625 139.029687 
" style="fill:none;stroke:#ff7f0e;stroke-linecap:square;stroke-width:3;"/>
    </g>
    <g id="line2d_69"/>
    <g id="text_35">
     <!-- s = 2 -->
     <g transform="translate(287.890625 149.529687)scale(0.3 -0.3)">
      <use xlink:href="#DejaVuSans-115"/>
      <use x="52.099609" xlink:href="#DejaVuSans-32"/>
      <use x="83.886719" xlink:href="#DejaVuSans-61"/>
      <use x="167.675781" xlink:href="#DejaVuSans-32"/>
      <use x="199.462891" xlink:href="#DejaVuSans-50"/>
     </g>
    </g>
    <g id="line2d_70">
     <path d="M 203.890625 183.064062 
L 263.890625 183.064062 
" style="fill:none;stroke:#2ca02c;stroke-linecap:square;stroke-width:3;"/>
    </g>
    <g id="line2d_71"/>
    <g id="text_36">
     <!-- s = 3 -->
     <g transform="translate(287.890625 193.564062)scale(0.3 -0.3)">
      <use xlink:href="#DejaVuSans-115"/>
      <use x="52.099609" xlink:href="#DejaVuSans-32"/>
      <use x="83.886719" xlink:href="#DejaVuSans-61"/>
      <use x="167.675781" xlink:href="#DejaVuSans-32"/>
      <use x="199.462891" xlink:href="#DejaVuSans-51"/>
     </g>
    </g>
    <g id="line2d_72">
     <path d="M 203.890625 227.098437 
L 263.890625 227.098437 
" style="fill:none;stroke:#d62728;stroke-linecap:square;stroke-width:3;"/>
    </g>
    <g id="line2d_73"/>
    <g id="text_37">
     <!-- s = 4 -->
     <g transform="translate(287.890625 237.598437)scale(0.3 -0.3)">
      <use xlink:href="#DejaVuSans-115"/>
      <use x="52.099609" xlink:href="#DejaVuSans-32"/>
      <use x="83.886719" xlink:href="#DejaVuSans-61"/>
      <use x="167.675781" xlink:href="#DejaVuSans-32"/>
      <use x="199.462891" xlink:href="#DejaVuSans-52"/>
     </g>
    </g>
    <g id="line2d_74">
     <path d="M 203.890625 271.132812 
L 263.890625 271.132812 
" style="fill:none;stroke:#9467bd;stroke-linecap:square;stroke-width:3;"/>
    </g>
    <g id="line2d_75"/>
    <g id="text_38">
     <!-- s = 5 -->
     <g transform="translate(287.890625 281.632812)scale(0.3 -0.3)">
      <use xlink:href="#DejaVuSans-115"/>
      <use x="52.099609" xlink:href="#DejaVuSans-32"/>
      <use x="83.886719" xlink:href="#DejaVuSans-61"/>
      <use x="167.675781" xlink:href="#DejaVuSans-32"/>
      <use x="199.462891" xlink:href="#DejaVuSans-53"/>
     </g>
    </g>
   </g>
  </g>
 </g>
 <defs>
  <clipPath id="p08d90baa66">
   <rect height="870.42" width="1193.34" x="176.890625" y="55.7"/>
  </clipPath>
 </defs>
</svg>
