<?xml version="1.0" encoding="utf-8" standalone="no"?>
<!DOCTYPE svg PUBLIC "-//W3C//DTD SVG 1.1//EN"
  "http://www.w3.org/Graphics/SVG/1.1/DTD/svg11.dtd">
<!-- Created with matplotlib (https://matplotlib.org/) -->
<svg height="1039.923125pt" version="1.1" viewBox="0 0 1402.880625 1039.923125" width="1402.880625pt" xmlns="http://www.w3.org/2000/svg" xmlns:xlink="http://www.w3.org/1999/xlink">
 <metadata>
  <rdf:RDF xmlns:cc="http://creativecommons.org/ns#" xmlns:dc="http://purl.org/dc/elements/1.1/" xmlns:rdf="http://www.w3.org/1999/02/22-rdf-syntax-ns#">
   <cc:Work>
    <dc:type rdf:resource="http://purl.org/dc/dcmitype/StillImage"/>
    <dc:date>2023-11-26T18:32:28.443821</dc:date>
    <dc:format>image/svg+xml</dc:format>
    <dc:creator>
     <cc:Agent>
      <dc:title>Matplotlib v3.3.2, https://matplotlib.org/</dc:title>
     </cc:Agent>
    </dc:creator>
   </cc:Work>
  </rdf:RDF>
 </metadata>
 <defs>
  <style type="text/css">*{stroke-linecap:butt;stroke-linejoin:round;}</style>
 </defs>
 <g id="figure_1">
  <g id="patch_1">
   <path d="M 0 1039.923125 
L 1402.880625 1039.923125 
L 1402.880625 0 
L 0 0 
z
" style="fill:#ffffff;"/>
  </g>
  <g id="axes_1">
   <g id="patch_2">
    <path d="M 176.890625 926.12 
L 1370.230625 926.12 
L 1370.230625 55.7 
L 176.890625 55.7 
z
" style="fill:#ffffff;"/>
   </g>
   <g id="matplotlib.axis_1">
    <g id="xtick_1">
     <g id="line2d_1">
      <path clip-path="url(#p059be3343d)" d="M 230.196144 926.12 
L 230.196144 55.7 
" style="fill:none;stroke:#b0b0b0;stroke-linecap:square;stroke-opacity:0.6;stroke-width:2;"/>
     </g>
     <g id="line2d_2">
      <defs>
       <path d="M 0 0 
L 0 12 
" id="mbf4169cfdb" style="stroke:#000000;stroke-width:2.5;"/>
      </defs>
      <g>
       <use style="stroke:#000000;stroke-width:2.5;" x="230.196144" xlink:href="#mbf4169cfdb" y="926.12"/>
      </g>
     </g>
     <g id="text_1">
      <!-- 0 -->
      <g transform="translate(217.471144 972.01375)scale(0.4 -0.4)">
       <defs>
        <path d="M 31.78125 66.40625 
Q 24.171875 66.40625 20.328125 58.90625 
Q 16.5 51.421875 16.5 36.375 
Q 16.5 21.390625 20.328125 13.890625 
Q 24.171875 6.390625 31.78125 6.390625 
Q 39.453125 6.390625 43.28125 13.890625 
Q 47.125 21.390625 47.125 36.375 
Q 47.125 51.421875 43.28125 58.90625 
Q 39.453125 66.40625 31.78125 66.40625 
z
M 31.78125 74.21875 
Q 44.046875 74.21875 50.515625 64.515625 
Q 56.984375 54.828125 56.984375 36.375 
Q 56.984375 17.96875 50.515625 8.265625 
Q 44.046875 -1.421875 31.78125 -1.421875 
Q 19.53125 -1.421875 13.0625 8.265625 
Q 6.59375 17.96875 6.59375 36.375 
Q 6.59375 54.828125 13.0625 64.515625 
Q 19.53125 74.21875 31.78125 74.21875 
z
" id="DejaVuSans-48"/>
       </defs>
       <use xlink:href="#DejaVuSans-48"/>
      </g>
     </g>
    </g>
    <g id="xtick_2">
     <g id="line2d_3">
      <path clip-path="url(#p059be3343d)" d="M 325.199017 926.12 
L 325.199017 55.7 
" style="fill:none;stroke:#b0b0b0;stroke-linecap:square;stroke-opacity:0.6;stroke-width:2;"/>
     </g>
     <g id="line2d_4">
      <g>
       <use style="stroke:#000000;stroke-width:2.5;" x="325.199017" xlink:href="#mbf4169cfdb" y="926.12"/>
      </g>
     </g>
     <g id="text_2">
      <!-- 2 -->
      <g transform="translate(312.474017 972.01375)scale(0.4 -0.4)">
       <defs>
        <path d="M 19.1875 8.296875 
L 53.609375 8.296875 
L 53.609375 0 
L 7.328125 0 
L 7.328125 8.296875 
Q 12.9375 14.109375 22.625 23.890625 
Q 32.328125 33.6875 34.8125 36.53125 
Q 39.546875 41.84375 41.421875 45.53125 
Q 43.3125 49.21875 43.3125 52.78125 
Q 43.3125 58.59375 39.234375 62.25 
Q 35.15625 65.921875 28.609375 65.921875 
Q 23.96875 65.921875 18.8125 64.3125 
Q 13.671875 62.703125 7.8125 59.421875 
L 7.8125 69.390625 
Q 13.765625 71.78125 18.9375 73 
Q 24.125 74.21875 28.421875 74.21875 
Q 39.75 74.21875 46.484375 68.546875 
Q 53.21875 62.890625 53.21875 53.421875 
Q 53.21875 48.921875 51.53125 44.890625 
Q 49.859375 40.875 45.40625 35.40625 
Q 44.1875 33.984375 37.640625 27.21875 
Q 31.109375 20.453125 19.1875 8.296875 
z
" id="DejaVuSans-50"/>
       </defs>
       <use xlink:href="#DejaVuSans-50"/>
      </g>
     </g>
    </g>
    <g id="xtick_3">
     <g id="line2d_5">
      <path clip-path="url(#p059be3343d)" d="M 420.20189 926.12 
L 420.20189 55.7 
" style="fill:none;stroke:#b0b0b0;stroke-linecap:square;stroke-opacity:0.6;stroke-width:2;"/>
     </g>
     <g id="line2d_6">
      <g>
       <use style="stroke:#000000;stroke-width:2.5;" x="420.20189" xlink:href="#mbf4169cfdb" y="926.12"/>
      </g>
     </g>
     <g id="text_3">
      <!-- 4 -->
      <g transform="translate(407.47689 972.01375)scale(0.4 -0.4)">
       <defs>
        <path d="M 37.796875 64.3125 
L 12.890625 25.390625 
L 37.796875 25.390625 
z
M 35.203125 72.90625 
L 47.609375 72.90625 
L 47.609375 25.390625 
L 58.015625 25.390625 
L 58.015625 17.1875 
L 47.609375 17.1875 
L 47.609375 0 
L 37.796875 0 
L 37.796875 17.1875 
L 4.890625 17.1875 
L 4.890625 26.703125 
z
" id="DejaVuSans-52"/>
       </defs>
       <use xlink:href="#DejaVuSans-52"/>
      </g>
     </g>
    </g>
    <g id="xtick_4">
     <g id="line2d_7">
      <path clip-path="url(#p059be3343d)" d="M 515.204764 926.12 
L 515.204764 55.7 
" style="fill:none;stroke:#b0b0b0;stroke-linecap:square;stroke-opacity:0.6;stroke-width:2;"/>
     </g>
     <g id="line2d_8">
      <g>
       <use style="stroke:#000000;stroke-width:2.5;" x="515.204764" xlink:href="#mbf4169cfdb" y="926.12"/>
      </g>
     </g>
     <g id="text_4">
      <!-- 6 -->
      <g transform="translate(502.479764 972.01375)scale(0.4 -0.4)">
       <defs>
        <path d="M 33.015625 40.375 
Q 26.375 40.375 22.484375 35.828125 
Q 18.609375 31.296875 18.609375 23.390625 
Q 18.609375 15.53125 22.484375 10.953125 
Q 26.375 6.390625 33.015625 6.390625 
Q 39.65625 6.390625 43.53125 10.953125 
Q 47.40625 15.53125 47.40625 23.390625 
Q 47.40625 31.296875 43.53125 35.828125 
Q 39.65625 40.375 33.015625 40.375 
z
M 52.59375 71.296875 
L 52.59375 62.3125 
Q 48.875 64.0625 45.09375 64.984375 
Q 41.3125 65.921875 37.59375 65.921875 
Q 27.828125 65.921875 22.671875 59.328125 
Q 17.53125 52.734375 16.796875 39.40625 
Q 19.671875 43.65625 24.015625 45.921875 
Q 28.375 48.1875 33.59375 48.1875 
Q 44.578125 48.1875 50.953125 41.515625 
Q 57.328125 34.859375 57.328125 23.390625 
Q 57.328125 12.15625 50.6875 5.359375 
Q 44.046875 -1.421875 33.015625 -1.421875 
Q 20.359375 -1.421875 13.671875 8.265625 
Q 6.984375 17.96875 6.984375 36.375 
Q 6.984375 53.65625 15.1875 63.9375 
Q 23.390625 74.21875 37.203125 74.21875 
Q 40.921875 74.21875 44.703125 73.484375 
Q 48.484375 72.75 52.59375 71.296875 
z
" id="DejaVuSans-54"/>
       </defs>
       <use xlink:href="#DejaVuSans-54"/>
      </g>
     </g>
    </g>
    <g id="xtick_5">
     <g id="line2d_9">
      <path clip-path="url(#p059be3343d)" d="M 610.207637 926.12 
L 610.207637 55.7 
" style="fill:none;stroke:#b0b0b0;stroke-linecap:square;stroke-opacity:0.6;stroke-width:2;"/>
     </g>
     <g id="line2d_10">
      <g>
       <use style="stroke:#000000;stroke-width:2.5;" x="610.207637" xlink:href="#mbf4169cfdb" y="926.12"/>
      </g>
     </g>
     <g id="text_5">
      <!-- 8 -->
      <g transform="translate(597.482637 972.01375)scale(0.4 -0.4)">
       <defs>
        <path d="M 31.78125 34.625 
Q 24.75 34.625 20.71875 30.859375 
Q 16.703125 27.09375 16.703125 20.515625 
Q 16.703125 13.921875 20.71875 10.15625 
Q 24.75 6.390625 31.78125 6.390625 
Q 38.8125 6.390625 42.859375 10.171875 
Q 46.921875 13.96875 46.921875 20.515625 
Q 46.921875 27.09375 42.890625 30.859375 
Q 38.875 34.625 31.78125 34.625 
z
M 21.921875 38.8125 
Q 15.578125 40.375 12.03125 44.71875 
Q 8.5 49.078125 8.5 55.328125 
Q 8.5 64.0625 14.71875 69.140625 
Q 20.953125 74.21875 31.78125 74.21875 
Q 42.671875 74.21875 48.875 69.140625 
Q 55.078125 64.0625 55.078125 55.328125 
Q 55.078125 49.078125 51.53125 44.71875 
Q 48 40.375 41.703125 38.8125 
Q 48.828125 37.15625 52.796875 32.3125 
Q 56.78125 27.484375 56.78125 20.515625 
Q 56.78125 9.90625 50.3125 4.234375 
Q 43.84375 -1.421875 31.78125 -1.421875 
Q 19.734375 -1.421875 13.25 4.234375 
Q 6.78125 9.90625 6.78125 20.515625 
Q 6.78125 27.484375 10.78125 32.3125 
Q 14.796875 37.15625 21.921875 38.8125 
z
M 18.3125 54.390625 
Q 18.3125 48.734375 21.84375 45.5625 
Q 25.390625 42.390625 31.78125 42.390625 
Q 38.140625 42.390625 41.71875 45.5625 
Q 45.3125 48.734375 45.3125 54.390625 
Q 45.3125 60.0625 41.71875 63.234375 
Q 38.140625 66.40625 31.78125 66.40625 
Q 25.390625 66.40625 21.84375 63.234375 
Q 18.3125 60.0625 18.3125 54.390625 
z
" id="DejaVuSans-56"/>
       </defs>
       <use xlink:href="#DejaVuSans-56"/>
      </g>
     </g>
    </g>
    <g id="xtick_6">
     <g id="line2d_11">
      <path clip-path="url(#p059be3343d)" d="M 705.210511 926.12 
L 705.210511 55.7 
" style="fill:none;stroke:#b0b0b0;stroke-linecap:square;stroke-opacity:0.6;stroke-width:2;"/>
     </g>
     <g id="line2d_12">
      <g>
       <use style="stroke:#000000;stroke-width:2.5;" x="705.210511" xlink:href="#mbf4169cfdb" y="926.12"/>
      </g>
     </g>
     <g id="text_6">
      <!-- 10 -->
      <g transform="translate(679.760511 972.01375)scale(0.4 -0.4)">
       <defs>
        <path d="M 12.40625 8.296875 
L 28.515625 8.296875 
L 28.515625 63.921875 
L 10.984375 60.40625 
L 10.984375 69.390625 
L 28.421875 72.90625 
L 38.28125 72.90625 
L 38.28125 8.296875 
L 54.390625 8.296875 
L 54.390625 0 
L 12.40625 0 
z
" id="DejaVuSans-49"/>
       </defs>
       <use xlink:href="#DejaVuSans-49"/>
       <use x="63.623047" xlink:href="#DejaVuSans-48"/>
      </g>
     </g>
    </g>
    <g id="xtick_7">
     <g id="line2d_13">
      <path clip-path="url(#p059be3343d)" d="M 800.213384 926.12 
L 800.213384 55.7 
" style="fill:none;stroke:#b0b0b0;stroke-linecap:square;stroke-opacity:0.6;stroke-width:2;"/>
     </g>
     <g id="line2d_14">
      <g>
       <use style="stroke:#000000;stroke-width:2.5;" x="800.213384" xlink:href="#mbf4169cfdb" y="926.12"/>
      </g>
     </g>
     <g id="text_7">
      <!-- 12 -->
      <g transform="translate(774.763384 972.01375)scale(0.4 -0.4)">
       <use xlink:href="#DejaVuSans-49"/>
       <use x="63.623047" xlink:href="#DejaVuSans-50"/>
      </g>
     </g>
    </g>
    <g id="xtick_8">
     <g id="line2d_15">
      <path clip-path="url(#p059be3343d)" d="M 895.216258 926.12 
L 895.216258 55.7 
" style="fill:none;stroke:#b0b0b0;stroke-linecap:square;stroke-opacity:0.6;stroke-width:2;"/>
     </g>
     <g id="line2d_16">
      <g>
       <use style="stroke:#000000;stroke-width:2.5;" x="895.216258" xlink:href="#mbf4169cfdb" y="926.12"/>
      </g>
     </g>
     <g id="text_8">
      <!-- 14 -->
      <g transform="translate(869.766258 972.01375)scale(0.4 -0.4)">
       <use xlink:href="#DejaVuSans-49"/>
       <use x="63.623047" xlink:href="#DejaVuSans-52"/>
      </g>
     </g>
    </g>
    <g id="xtick_9">
     <g id="line2d_17">
      <path clip-path="url(#p059be3343d)" d="M 990.219131 926.12 
L 990.219131 55.7 
" style="fill:none;stroke:#b0b0b0;stroke-linecap:square;stroke-opacity:0.6;stroke-width:2;"/>
     </g>
     <g id="line2d_18">
      <g>
       <use style="stroke:#000000;stroke-width:2.5;" x="990.219131" xlink:href="#mbf4169cfdb" y="926.12"/>
      </g>
     </g>
     <g id="text_9">
      <!-- 16 -->
      <g transform="translate(964.769131 972.01375)scale(0.4 -0.4)">
       <use xlink:href="#DejaVuSans-49"/>
       <use x="63.623047" xlink:href="#DejaVuSans-54"/>
      </g>
     </g>
    </g>
    <g id="xtick_10">
     <g id="line2d_19">
      <path clip-path="url(#p059be3343d)" d="M 1085.222005 926.12 
L 1085.222005 55.7 
" style="fill:none;stroke:#b0b0b0;stroke-linecap:square;stroke-opacity:0.6;stroke-width:2;"/>
     </g>
     <g id="line2d_20">
      <g>
       <use style="stroke:#000000;stroke-width:2.5;" x="1085.222005" xlink:href="#mbf4169cfdb" y="926.12"/>
      </g>
     </g>
     <g id="text_10">
      <!-- 18 -->
      <g transform="translate(1059.772005 972.01375)scale(0.4 -0.4)">
       <use xlink:href="#DejaVuSans-49"/>
       <use x="63.623047" xlink:href="#DejaVuSans-56"/>
      </g>
     </g>
    </g>
    <g id="xtick_11">
     <g id="line2d_21">
      <path clip-path="url(#p059be3343d)" d="M 1180.224878 926.12 
L 1180.224878 55.7 
" style="fill:none;stroke:#b0b0b0;stroke-linecap:square;stroke-opacity:0.6;stroke-width:2;"/>
     </g>
     <g id="line2d_22">
      <g>
       <use style="stroke:#000000;stroke-width:2.5;" x="1180.224878" xlink:href="#mbf4169cfdb" y="926.12"/>
      </g>
     </g>
     <g id="text_11">
      <!-- 20 -->
      <g transform="translate(1154.774878 972.01375)scale(0.4 -0.4)">
       <use xlink:href="#DejaVuSans-50"/>
       <use x="63.623047" xlink:href="#DejaVuSans-48"/>
      </g>
     </g>
    </g>
    <g id="xtick_12">
     <g id="line2d_23">
      <path clip-path="url(#p059be3343d)" d="M 1275.227752 926.12 
L 1275.227752 55.7 
" style="fill:none;stroke:#b0b0b0;stroke-linecap:square;stroke-opacity:0.6;stroke-width:2;"/>
     </g>
     <g id="line2d_24">
      <g>
       <use style="stroke:#000000;stroke-width:2.5;" x="1275.227752" xlink:href="#mbf4169cfdb" y="926.12"/>
      </g>
     </g>
     <g id="text_12">
      <!-- 22 -->
      <g transform="translate(1249.777752 972.01375)scale(0.4 -0.4)">
       <use xlink:href="#DejaVuSans-50"/>
       <use x="63.623047" xlink:href="#DejaVuSans-50"/>
      </g>
     </g>
    </g>
    <g id="xtick_13">
     <g id="line2d_25">
      <path clip-path="url(#p059be3343d)" d="M 1370.230625 926.12 
L 1370.230625 55.7 
" style="fill:none;stroke:#b0b0b0;stroke-linecap:square;stroke-opacity:0.6;stroke-width:2;"/>
     </g>
     <g id="line2d_26">
      <g>
       <use style="stroke:#000000;stroke-width:2.5;" x="1370.230625" xlink:href="#mbf4169cfdb" y="926.12"/>
      </g>
     </g>
     <g id="text_13">
      <!-- 24 -->
      <g transform="translate(1344.780625 972.01375)scale(0.4 -0.4)">
       <use xlink:href="#DejaVuSans-50"/>
       <use x="63.623047" xlink:href="#DejaVuSans-52"/>
      </g>
     </g>
    </g>
    <g id="text_14">
     <!-- Time (in sec) -->
     <g transform="translate(612.052813 1022.324687)scale(0.5 -0.5)">
      <defs>
       <path d="M -0.296875 72.90625 
L 61.375 72.90625 
L 61.375 64.59375 
L 35.5 64.59375 
L 35.5 0 
L 25.59375 0 
L 25.59375 64.59375 
L -0.296875 64.59375 
z
" id="DejaVuSans-84"/>
       <path d="M 9.421875 54.6875 
L 18.40625 54.6875 
L 18.40625 0 
L 9.421875 0 
z
M 9.421875 75.984375 
L 18.40625 75.984375 
L 18.40625 64.59375 
L 9.421875 64.59375 
z
" id="DejaVuSans-105"/>
       <path d="M 52 44.1875 
Q 55.375 50.25 60.0625 53.125 
Q 64.75 56 71.09375 56 
Q 79.640625 56 84.28125 50.015625 
Q 88.921875 44.046875 88.921875 33.015625 
L 88.921875 0 
L 79.890625 0 
L 79.890625 32.71875 
Q 79.890625 40.578125 77.09375 44.375 
Q 74.3125 48.1875 68.609375 48.1875 
Q 61.625 48.1875 57.5625 43.546875 
Q 53.515625 38.921875 53.515625 30.90625 
L 53.515625 0 
L 44.484375 0 
L 44.484375 32.71875 
Q 44.484375 40.625 41.703125 44.40625 
Q 38.921875 48.1875 33.109375 48.1875 
Q 26.21875 48.1875 22.15625 43.53125 
Q 18.109375 38.875 18.109375 30.90625 
L 18.109375 0 
L 9.078125 0 
L 9.078125 54.6875 
L 18.109375 54.6875 
L 18.109375 46.1875 
Q 21.1875 51.21875 25.484375 53.609375 
Q 29.78125 56 35.6875 56 
Q 41.65625 56 45.828125 52.96875 
Q 50 49.953125 52 44.1875 
z
" id="DejaVuSans-109"/>
       <path d="M 56.203125 29.59375 
L 56.203125 25.203125 
L 14.890625 25.203125 
Q 15.484375 15.921875 20.484375 11.0625 
Q 25.484375 6.203125 34.421875 6.203125 
Q 39.59375 6.203125 44.453125 7.46875 
Q 49.3125 8.734375 54.109375 11.28125 
L 54.109375 2.78125 
Q 49.265625 0.734375 44.1875 -0.34375 
Q 39.109375 -1.421875 33.890625 -1.421875 
Q 20.796875 -1.421875 13.15625 6.1875 
Q 5.515625 13.8125 5.515625 26.8125 
Q 5.515625 40.234375 12.765625 48.109375 
Q 20.015625 56 32.328125 56 
Q 43.359375 56 49.78125 48.890625 
Q 56.203125 41.796875 56.203125 29.59375 
z
M 47.21875 32.234375 
Q 47.125 39.59375 43.09375 43.984375 
Q 39.0625 48.390625 32.421875 48.390625 
Q 24.90625 48.390625 20.390625 44.140625 
Q 15.875 39.890625 15.1875 32.171875 
z
" id="DejaVuSans-101"/>
       <path id="DejaVuSans-32"/>
       <path d="M 31 75.875 
Q 24.46875 64.65625 21.28125 53.65625 
Q 18.109375 42.671875 18.109375 31.390625 
Q 18.109375 20.125 21.3125 9.0625 
Q 24.515625 -2 31 -13.1875 
L 23.1875 -13.1875 
Q 15.875 -1.703125 12.234375 9.375 
Q 8.59375 20.453125 8.59375 31.390625 
Q 8.59375 42.28125 12.203125 53.3125 
Q 15.828125 64.359375 23.1875 75.875 
z
" id="DejaVuSans-40"/>
       <path d="M 54.890625 33.015625 
L 54.890625 0 
L 45.90625 0 
L 45.90625 32.71875 
Q 45.90625 40.484375 42.875 44.328125 
Q 39.84375 48.1875 33.796875 48.1875 
Q 26.515625 48.1875 22.3125 43.546875 
Q 18.109375 38.921875 18.109375 30.90625 
L 18.109375 0 
L 9.078125 0 
L 9.078125 54.6875 
L 18.109375 54.6875 
L 18.109375 46.1875 
Q 21.34375 51.125 25.703125 53.5625 
Q 30.078125 56 35.796875 56 
Q 45.21875 56 50.046875 50.171875 
Q 54.890625 44.34375 54.890625 33.015625 
z
" id="DejaVuSans-110"/>
       <path d="M 44.28125 53.078125 
L 44.28125 44.578125 
Q 40.484375 46.53125 36.375 47.5 
Q 32.28125 48.484375 27.875 48.484375 
Q 21.1875 48.484375 17.84375 46.4375 
Q 14.5 44.390625 14.5 40.28125 
Q 14.5 37.15625 16.890625 35.375 
Q 19.28125 33.59375 26.515625 31.984375 
L 29.59375 31.296875 
Q 39.15625 29.25 43.1875 25.515625 
Q 47.21875 21.78125 47.21875 15.09375 
Q 47.21875 7.46875 41.1875 3.015625 
Q 35.15625 -1.421875 24.609375 -1.421875 
Q 20.21875 -1.421875 15.453125 -0.5625 
Q 10.6875 0.296875 5.421875 2 
L 5.421875 11.28125 
Q 10.40625 8.6875 15.234375 7.390625 
Q 20.0625 6.109375 24.8125 6.109375 
Q 31.15625 6.109375 34.5625 8.28125 
Q 37.984375 10.453125 37.984375 14.40625 
Q 37.984375 18.0625 35.515625 20.015625 
Q 33.0625 21.96875 24.703125 23.78125 
L 21.578125 24.515625 
Q 13.234375 26.265625 9.515625 29.90625 
Q 5.8125 33.546875 5.8125 39.890625 
Q 5.8125 47.609375 11.28125 51.796875 
Q 16.75 56 26.8125 56 
Q 31.78125 56 36.171875 55.265625 
Q 40.578125 54.546875 44.28125 53.078125 
z
" id="DejaVuSans-115"/>
       <path d="M 48.78125 52.59375 
L 48.78125 44.1875 
Q 44.96875 46.296875 41.140625 47.34375 
Q 37.3125 48.390625 33.40625 48.390625 
Q 24.65625 48.390625 19.8125 42.84375 
Q 14.984375 37.3125 14.984375 27.296875 
Q 14.984375 17.28125 19.8125 11.734375 
Q 24.65625 6.203125 33.40625 6.203125 
Q 37.3125 6.203125 41.140625 7.25 
Q 44.96875 8.296875 48.78125 10.40625 
L 48.78125 2.09375 
Q 45.015625 0.34375 40.984375 -0.53125 
Q 36.96875 -1.421875 32.421875 -1.421875 
Q 20.0625 -1.421875 12.78125 6.34375 
Q 5.515625 14.109375 5.515625 27.296875 
Q 5.515625 40.671875 12.859375 48.328125 
Q 20.21875 56 33.015625 56 
Q 37.15625 56 41.109375 55.140625 
Q 45.0625 54.296875 48.78125 52.59375 
z
" id="DejaVuSans-99"/>
       <path d="M 8.015625 75.875 
L 15.828125 75.875 
Q 23.140625 64.359375 26.78125 53.3125 
Q 30.421875 42.28125 30.421875 31.390625 
Q 30.421875 20.453125 26.78125 9.375 
Q 23.140625 -1.703125 15.828125 -13.1875 
L 8.015625 -13.1875 
Q 14.5 -2 17.703125 9.0625 
Q 20.90625 20.125 20.90625 31.390625 
Q 20.90625 42.671875 17.703125 53.65625 
Q 14.5 64.65625 8.015625 75.875 
z
" id="DejaVuSans-41"/>
      </defs>
      <use xlink:href="#DejaVuSans-84"/>
      <use x="57.958984" xlink:href="#DejaVuSans-105"/>
      <use x="85.742188" xlink:href="#DejaVuSans-109"/>
      <use x="183.154297" xlink:href="#DejaVuSans-101"/>
      <use x="244.677734" xlink:href="#DejaVuSans-32"/>
      <use x="276.464844" xlink:href="#DejaVuSans-40"/>
      <use x="315.478516" xlink:href="#DejaVuSans-105"/>
      <use x="343.261719" xlink:href="#DejaVuSans-110"/>
      <use x="406.640625" xlink:href="#DejaVuSans-32"/>
      <use x="438.427734" xlink:href="#DejaVuSans-115"/>
      <use x="490.527344" xlink:href="#DejaVuSans-101"/>
      <use x="552.050781" xlink:href="#DejaVuSans-99"/>
      <use x="607.03125" xlink:href="#DejaVuSans-41"/>
     </g>
    </g>
   </g>
   <g id="matplotlib.axis_2">
    <g id="ytick_1">
     <g id="line2d_27">
      <path clip-path="url(#p059be3343d)" d="M 176.890625 926.12 
L 1370.230625 926.12 
" style="fill:none;stroke:#b0b0b0;stroke-linecap:square;stroke-opacity:0.6;stroke-width:2;"/>
     </g>
     <g id="line2d_28">
      <defs>
       <path d="M 0 0 
L -12 0 
" id="m19a8f2f184" style="stroke:#000000;stroke-width:2.5;"/>
      </defs>
      <g>
       <use style="stroke:#000000;stroke-width:2.5;" x="176.890625" xlink:href="#m19a8f2f184" y="926.12"/>
      </g>
     </g>
     <g id="text_15">
      <!-- 0 -->
      <g transform="translate(135.940625 941.316875)scale(0.4 -0.4)">
       <use xlink:href="#DejaVuSans-48"/>
      </g>
     </g>
    </g>
    <g id="ytick_2">
     <g id="line2d_29">
      <path clip-path="url(#p059be3343d)" d="M 176.890625 874.918824 
L 1370.230625 874.918824 
" style="fill:none;stroke:#b0b0b0;stroke-linecap:square;stroke-opacity:0.6;stroke-width:2;"/>
     </g>
     <g id="line2d_30">
      <g>
       <use style="stroke:#000000;stroke-width:2.5;" x="176.890625" xlink:href="#m19a8f2f184" y="874.918824"/>
      </g>
     </g>
     <g id="text_16">
      <!-- 100 -->
      <g transform="translate(85.040625 890.115699)scale(0.4 -0.4)">
       <use xlink:href="#DejaVuSans-49"/>
       <use x="63.623047" xlink:href="#DejaVuSans-48"/>
       <use x="127.246094" xlink:href="#DejaVuSans-48"/>
      </g>
     </g>
    </g>
    <g id="ytick_3">
     <g id="line2d_31">
      <path clip-path="url(#p059be3343d)" d="M 176.890625 823.717647 
L 1370.230625 823.717647 
" style="fill:none;stroke:#b0b0b0;stroke-linecap:square;stroke-opacity:0.6;stroke-width:2;"/>
     </g>
     <g id="line2d_32">
      <g>
       <use style="stroke:#000000;stroke-width:2.5;" x="176.890625" xlink:href="#m19a8f2f184" y="823.717647"/>
      </g>
     </g>
     <g id="text_17">
      <!-- 200 -->
      <g transform="translate(85.040625 838.914522)scale(0.4 -0.4)">
       <use xlink:href="#DejaVuSans-50"/>
       <use x="63.623047" xlink:href="#DejaVuSans-48"/>
       <use x="127.246094" xlink:href="#DejaVuSans-48"/>
      </g>
     </g>
    </g>
    <g id="ytick_4">
     <g id="line2d_33">
      <path clip-path="url(#p059be3343d)" d="M 176.890625 772.516471 
L 1370.230625 772.516471 
" style="fill:none;stroke:#b0b0b0;stroke-linecap:square;stroke-opacity:0.6;stroke-width:2;"/>
     </g>
     <g id="line2d_34">
      <g>
       <use style="stroke:#000000;stroke-width:2.5;" x="176.890625" xlink:href="#m19a8f2f184" y="772.516471"/>
      </g>
     </g>
     <g id="text_18">
      <!-- 300 -->
      <g transform="translate(85.040625 787.713346)scale(0.4 -0.4)">
       <defs>
        <path d="M 40.578125 39.3125 
Q 47.65625 37.796875 51.625 33 
Q 55.609375 28.21875 55.609375 21.1875 
Q 55.609375 10.40625 48.1875 4.484375 
Q 40.765625 -1.421875 27.09375 -1.421875 
Q 22.515625 -1.421875 17.65625 -0.515625 
Q 12.796875 0.390625 7.625 2.203125 
L 7.625 11.71875 
Q 11.71875 9.328125 16.59375 8.109375 
Q 21.484375 6.890625 26.8125 6.890625 
Q 36.078125 6.890625 40.9375 10.546875 
Q 45.796875 14.203125 45.796875 21.1875 
Q 45.796875 27.640625 41.28125 31.265625 
Q 36.765625 34.90625 28.71875 34.90625 
L 20.21875 34.90625 
L 20.21875 43.015625 
L 29.109375 43.015625 
Q 36.375 43.015625 40.234375 45.921875 
Q 44.09375 48.828125 44.09375 54.296875 
Q 44.09375 59.90625 40.109375 62.90625 
Q 36.140625 65.921875 28.71875 65.921875 
Q 24.65625 65.921875 20.015625 65.03125 
Q 15.375 64.15625 9.8125 62.3125 
L 9.8125 71.09375 
Q 15.4375 72.65625 20.34375 73.4375 
Q 25.25 74.21875 29.59375 74.21875 
Q 40.828125 74.21875 47.359375 69.109375 
Q 53.90625 64.015625 53.90625 55.328125 
Q 53.90625 49.265625 50.4375 45.09375 
Q 46.96875 40.921875 40.578125 39.3125 
z
" id="DejaVuSans-51"/>
       </defs>
       <use xlink:href="#DejaVuSans-51"/>
       <use x="63.623047" xlink:href="#DejaVuSans-48"/>
       <use x="127.246094" xlink:href="#DejaVuSans-48"/>
      </g>
     </g>
    </g>
    <g id="ytick_5">
     <g id="line2d_35">
      <path clip-path="url(#p059be3343d)" d="M 176.890625 721.315294 
L 1370.230625 721.315294 
" style="fill:none;stroke:#b0b0b0;stroke-linecap:square;stroke-opacity:0.6;stroke-width:2;"/>
     </g>
     <g id="line2d_36">
      <g>
       <use style="stroke:#000000;stroke-width:2.5;" x="176.890625" xlink:href="#m19a8f2f184" y="721.315294"/>
      </g>
     </g>
     <g id="text_19">
      <!-- 400 -->
      <g transform="translate(85.040625 736.512169)scale(0.4 -0.4)">
       <use xlink:href="#DejaVuSans-52"/>
       <use x="63.623047" xlink:href="#DejaVuSans-48"/>
       <use x="127.246094" xlink:href="#DejaVuSans-48"/>
      </g>
     </g>
    </g>
    <g id="ytick_6">
     <g id="line2d_37">
      <path clip-path="url(#p059be3343d)" d="M 176.890625 670.114118 
L 1370.230625 670.114118 
" style="fill:none;stroke:#b0b0b0;stroke-linecap:square;stroke-opacity:0.6;stroke-width:2;"/>
     </g>
     <g id="line2d_38">
      <g>
       <use style="stroke:#000000;stroke-width:2.5;" x="176.890625" xlink:href="#m19a8f2f184" y="670.114118"/>
      </g>
     </g>
     <g id="text_20">
      <!-- 500 -->
      <g transform="translate(85.040625 685.310993)scale(0.4 -0.4)">
       <defs>
        <path d="M 10.796875 72.90625 
L 49.515625 72.90625 
L 49.515625 64.59375 
L 19.828125 64.59375 
L 19.828125 46.734375 
Q 21.96875 47.46875 24.109375 47.828125 
Q 26.265625 48.1875 28.421875 48.1875 
Q 40.625 48.1875 47.75 41.5 
Q 54.890625 34.8125 54.890625 23.390625 
Q 54.890625 11.625 47.5625 5.09375 
Q 40.234375 -1.421875 26.90625 -1.421875 
Q 22.3125 -1.421875 17.546875 -0.640625 
Q 12.796875 0.140625 7.71875 1.703125 
L 7.71875 11.625 
Q 12.109375 9.234375 16.796875 8.0625 
Q 21.484375 6.890625 26.703125 6.890625 
Q 35.15625 6.890625 40.078125 11.328125 
Q 45.015625 15.765625 45.015625 23.390625 
Q 45.015625 31 40.078125 35.4375 
Q 35.15625 39.890625 26.703125 39.890625 
Q 22.75 39.890625 18.8125 39.015625 
Q 14.890625 38.140625 10.796875 36.28125 
z
" id="DejaVuSans-53"/>
       </defs>
       <use xlink:href="#DejaVuSans-53"/>
       <use x="63.623047" xlink:href="#DejaVuSans-48"/>
       <use x="127.246094" xlink:href="#DejaVuSans-48"/>
      </g>
     </g>
    </g>
    <g id="ytick_7">
     <g id="line2d_39">
      <path clip-path="url(#p059be3343d)" d="M 176.890625 618.912941 
L 1370.230625 618.912941 
" style="fill:none;stroke:#b0b0b0;stroke-linecap:square;stroke-opacity:0.6;stroke-width:2;"/>
     </g>
     <g id="line2d_40">
      <g>
       <use style="stroke:#000000;stroke-width:2.5;" x="176.890625" xlink:href="#m19a8f2f184" y="618.912941"/>
      </g>
     </g>
     <g id="text_21">
      <!-- 600 -->
      <g transform="translate(85.040625 634.109816)scale(0.4 -0.4)">
       <use xlink:href="#DejaVuSans-54"/>
       <use x="63.623047" xlink:href="#DejaVuSans-48"/>
       <use x="127.246094" xlink:href="#DejaVuSans-48"/>
      </g>
     </g>
    </g>
    <g id="ytick_8">
     <g id="line2d_41">
      <path clip-path="url(#p059be3343d)" d="M 176.890625 567.711765 
L 1370.230625 567.711765 
" style="fill:none;stroke:#b0b0b0;stroke-linecap:square;stroke-opacity:0.6;stroke-width:2;"/>
     </g>
     <g id="line2d_42">
      <g>
       <use style="stroke:#000000;stroke-width:2.5;" x="176.890625" xlink:href="#m19a8f2f184" y="567.711765"/>
      </g>
     </g>
     <g id="text_22">
      <!-- 700 -->
      <g transform="translate(85.040625 582.90864)scale(0.4 -0.4)">
       <defs>
        <path d="M 8.203125 72.90625 
L 55.078125 72.90625 
L 55.078125 68.703125 
L 28.609375 0 
L 18.3125 0 
L 43.21875 64.59375 
L 8.203125 64.59375 
z
" id="DejaVuSans-55"/>
       </defs>
       <use xlink:href="#DejaVuSans-55"/>
       <use x="63.623047" xlink:href="#DejaVuSans-48"/>
       <use x="127.246094" xlink:href="#DejaVuSans-48"/>
      </g>
     </g>
    </g>
    <g id="ytick_9">
     <g id="line2d_43">
      <path clip-path="url(#p059be3343d)" d="M 176.890625 516.510588 
L 1370.230625 516.510588 
" style="fill:none;stroke:#b0b0b0;stroke-linecap:square;stroke-opacity:0.6;stroke-width:2;"/>
     </g>
     <g id="line2d_44">
      <g>
       <use style="stroke:#000000;stroke-width:2.5;" x="176.890625" xlink:href="#m19a8f2f184" y="516.510588"/>
      </g>
     </g>
     <g id="text_23">
      <!-- 800 -->
      <g transform="translate(85.040625 531.707463)scale(0.4 -0.4)">
       <use xlink:href="#DejaVuSans-56"/>
       <use x="63.623047" xlink:href="#DejaVuSans-48"/>
       <use x="127.246094" xlink:href="#DejaVuSans-48"/>
      </g>
     </g>
    </g>
    <g id="ytick_10">
     <g id="line2d_45">
      <path clip-path="url(#p059be3343d)" d="M 176.890625 465.309412 
L 1370.230625 465.309412 
" style="fill:none;stroke:#b0b0b0;stroke-linecap:square;stroke-opacity:0.6;stroke-width:2;"/>
     </g>
     <g id="line2d_46">
      <g>
       <use style="stroke:#000000;stroke-width:2.5;" x="176.890625" xlink:href="#m19a8f2f184" y="465.309412"/>
      </g>
     </g>
     <g id="text_24">
      <!-- 900 -->
      <g transform="translate(85.040625 480.506287)scale(0.4 -0.4)">
       <defs>
        <path d="M 10.984375 1.515625 
L 10.984375 10.5 
Q 14.703125 8.734375 18.5 7.8125 
Q 22.3125 6.890625 25.984375 6.890625 
Q 35.75 6.890625 40.890625 13.453125 
Q 46.046875 20.015625 46.78125 33.40625 
Q 43.953125 29.203125 39.59375 26.953125 
Q 35.25 24.703125 29.984375 24.703125 
Q 19.046875 24.703125 12.671875 31.3125 
Q 6.296875 37.9375 6.296875 49.421875 
Q 6.296875 60.640625 12.9375 67.421875 
Q 19.578125 74.21875 30.609375 74.21875 
Q 43.265625 74.21875 49.921875 64.515625 
Q 56.59375 54.828125 56.59375 36.375 
Q 56.59375 19.140625 48.40625 8.859375 
Q 40.234375 -1.421875 26.421875 -1.421875 
Q 22.703125 -1.421875 18.890625 -0.6875 
Q 15.09375 0.046875 10.984375 1.515625 
z
M 30.609375 32.421875 
Q 37.25 32.421875 41.125 36.953125 
Q 45.015625 41.5 45.015625 49.421875 
Q 45.015625 57.28125 41.125 61.84375 
Q 37.25 66.40625 30.609375 66.40625 
Q 23.96875 66.40625 20.09375 61.84375 
Q 16.21875 57.28125 16.21875 49.421875 
Q 16.21875 41.5 20.09375 36.953125 
Q 23.96875 32.421875 30.609375 32.421875 
z
" id="DejaVuSans-57"/>
       </defs>
       <use xlink:href="#DejaVuSans-57"/>
       <use x="63.623047" xlink:href="#DejaVuSans-48"/>
       <use x="127.246094" xlink:href="#DejaVuSans-48"/>
      </g>
     </g>
    </g>
    <g id="ytick_11">
     <g id="line2d_47">
      <path clip-path="url(#p059be3343d)" d="M 176.890625 414.108235 
L 1370.230625 414.108235 
" style="fill:none;stroke:#b0b0b0;stroke-linecap:square;stroke-opacity:0.6;stroke-width:2;"/>
     </g>
     <g id="line2d_48">
      <g>
       <use style="stroke:#000000;stroke-width:2.5;" x="176.890625" xlink:href="#m19a8f2f184" y="414.108235"/>
      </g>
     </g>
     <g id="text_25">
      <!-- 1000 -->
      <g transform="translate(59.590625 429.30511)scale(0.4 -0.4)">
       <use xlink:href="#DejaVuSans-49"/>
       <use x="63.623047" xlink:href="#DejaVuSans-48"/>
       <use x="127.246094" xlink:href="#DejaVuSans-48"/>
       <use x="190.869141" xlink:href="#DejaVuSans-48"/>
      </g>
     </g>
    </g>
    <g id="ytick_12">
     <g id="line2d_49">
      <path clip-path="url(#p059be3343d)" d="M 176.890625 362.907059 
L 1370.230625 362.907059 
" style="fill:none;stroke:#b0b0b0;stroke-linecap:square;stroke-opacity:0.6;stroke-width:2;"/>
     </g>
     <g id="line2d_50">
      <g>
       <use style="stroke:#000000;stroke-width:2.5;" x="176.890625" xlink:href="#m19a8f2f184" y="362.907059"/>
      </g>
     </g>
     <g id="text_26">
      <!-- 1100 -->
      <g transform="translate(59.590625 378.103934)scale(0.4 -0.4)">
       <use xlink:href="#DejaVuSans-49"/>
       <use x="63.623047" xlink:href="#DejaVuSans-49"/>
       <use x="127.246094" xlink:href="#DejaVuSans-48"/>
       <use x="190.869141" xlink:href="#DejaVuSans-48"/>
      </g>
     </g>
    </g>
    <g id="ytick_13">
     <g id="line2d_51">
      <path clip-path="url(#p059be3343d)" d="M 176.890625 311.705882 
L 1370.230625 311.705882 
" style="fill:none;stroke:#b0b0b0;stroke-linecap:square;stroke-opacity:0.6;stroke-width:2;"/>
     </g>
     <g id="line2d_52">
      <g>
       <use style="stroke:#000000;stroke-width:2.5;" x="176.890625" xlink:href="#m19a8f2f184" y="311.705882"/>
      </g>
     </g>
     <g id="text_27">
      <!-- 1200 -->
      <g transform="translate(59.590625 326.902757)scale(0.4 -0.4)">
       <use xlink:href="#DejaVuSans-49"/>
       <use x="63.623047" xlink:href="#DejaVuSans-50"/>
       <use x="127.246094" xlink:href="#DejaVuSans-48"/>
       <use x="190.869141" xlink:href="#DejaVuSans-48"/>
      </g>
     </g>
    </g>
    <g id="ytick_14">
     <g id="line2d_53">
      <path clip-path="url(#p059be3343d)" d="M 176.890625 260.504706 
L 1370.230625 260.504706 
" style="fill:none;stroke:#b0b0b0;stroke-linecap:square;stroke-opacity:0.6;stroke-width:2;"/>
     </g>
     <g id="line2d_54">
      <g>
       <use style="stroke:#000000;stroke-width:2.5;" x="176.890625" xlink:href="#m19a8f2f184" y="260.504706"/>
      </g>
     </g>
     <g id="text_28">
      <!-- 1300 -->
      <g transform="translate(59.590625 275.701581)scale(0.4 -0.4)">
       <use xlink:href="#DejaVuSans-49"/>
       <use x="63.623047" xlink:href="#DejaVuSans-51"/>
       <use x="127.246094" xlink:href="#DejaVuSans-48"/>
       <use x="190.869141" xlink:href="#DejaVuSans-48"/>
      </g>
     </g>
    </g>
    <g id="ytick_15">
     <g id="line2d_55">
      <path clip-path="url(#p059be3343d)" d="M 176.890625 209.303529 
L 1370.230625 209.303529 
" style="fill:none;stroke:#b0b0b0;stroke-linecap:square;stroke-opacity:0.6;stroke-width:2;"/>
     </g>
     <g id="line2d_56">
      <g>
       <use style="stroke:#000000;stroke-width:2.5;" x="176.890625" xlink:href="#m19a8f2f184" y="209.303529"/>
      </g>
     </g>
     <g id="text_29">
      <!-- 1400 -->
      <g transform="translate(59.590625 224.500404)scale(0.4 -0.4)">
       <use xlink:href="#DejaVuSans-49"/>
       <use x="63.623047" xlink:href="#DejaVuSans-52"/>
       <use x="127.246094" xlink:href="#DejaVuSans-48"/>
       <use x="190.869141" xlink:href="#DejaVuSans-48"/>
      </g>
     </g>
    </g>
    <g id="ytick_16">
     <g id="line2d_57">
      <path clip-path="url(#p059be3343d)" d="M 176.890625 158.102353 
L 1370.230625 158.102353 
" style="fill:none;stroke:#b0b0b0;stroke-linecap:square;stroke-opacity:0.6;stroke-width:2;"/>
     </g>
     <g id="line2d_58">
      <g>
       <use style="stroke:#000000;stroke-width:2.5;" x="176.890625" xlink:href="#m19a8f2f184" y="158.102353"/>
      </g>
     </g>
     <g id="text_30">
      <!-- 1500 -->
      <g transform="translate(59.590625 173.299228)scale(0.4 -0.4)">
       <use xlink:href="#DejaVuSans-49"/>
       <use x="63.623047" xlink:href="#DejaVuSans-53"/>
       <use x="127.246094" xlink:href="#DejaVuSans-48"/>
       <use x="190.869141" xlink:href="#DejaVuSans-48"/>
      </g>
     </g>
    </g>
    <g id="ytick_17">
     <g id="line2d_59">
      <path clip-path="url(#p059be3343d)" d="M 176.890625 106.901176 
L 1370.230625 106.901176 
" style="fill:none;stroke:#b0b0b0;stroke-linecap:square;stroke-opacity:0.6;stroke-width:2;"/>
     </g>
     <g id="line2d_60">
      <g>
       <use style="stroke:#000000;stroke-width:2.5;" x="176.890625" xlink:href="#m19a8f2f184" y="106.901176"/>
      </g>
     </g>
     <g id="text_31">
      <!-- 1600 -->
      <g transform="translate(59.590625 122.098051)scale(0.4 -0.4)">
       <use xlink:href="#DejaVuSans-49"/>
       <use x="63.623047" xlink:href="#DejaVuSans-54"/>
       <use x="127.246094" xlink:href="#DejaVuSans-48"/>
       <use x="190.869141" xlink:href="#DejaVuSans-48"/>
      </g>
     </g>
    </g>
    <g id="text_32">
     <!-- Largest cluster size -->
     <g transform="translate(45.192188 733.460781)rotate(-90)scale(0.5 -0.5)">
      <defs>
       <path d="M 9.8125 72.90625 
L 19.671875 72.90625 
L 19.671875 8.296875 
L 55.171875 8.296875 
L 55.171875 0 
L 9.8125 0 
z
" id="DejaVuSans-76"/>
       <path d="M 34.28125 27.484375 
Q 23.390625 27.484375 19.1875 25 
Q 14.984375 22.515625 14.984375 16.5 
Q 14.984375 11.71875 18.140625 8.90625 
Q 21.296875 6.109375 26.703125 6.109375 
Q 34.1875 6.109375 38.703125 11.40625 
Q 43.21875 16.703125 43.21875 25.484375 
L 43.21875 27.484375 
z
M 52.203125 31.203125 
L 52.203125 0 
L 43.21875 0 
L 43.21875 8.296875 
Q 40.140625 3.328125 35.546875 0.953125 
Q 30.953125 -1.421875 24.3125 -1.421875 
Q 15.921875 -1.421875 10.953125 3.296875 
Q 6 8.015625 6 15.921875 
Q 6 25.140625 12.171875 29.828125 
Q 18.359375 34.515625 30.609375 34.515625 
L 43.21875 34.515625 
L 43.21875 35.40625 
Q 43.21875 41.609375 39.140625 45 
Q 35.0625 48.390625 27.6875 48.390625 
Q 23 48.390625 18.546875 47.265625 
Q 14.109375 46.140625 10.015625 43.890625 
L 10.015625 52.203125 
Q 14.9375 54.109375 19.578125 55.046875 
Q 24.21875 56 28.609375 56 
Q 40.484375 56 46.34375 49.84375 
Q 52.203125 43.703125 52.203125 31.203125 
z
" id="DejaVuSans-97"/>
       <path d="M 41.109375 46.296875 
Q 39.59375 47.171875 37.8125 47.578125 
Q 36.03125 48 33.890625 48 
Q 26.265625 48 22.1875 43.046875 
Q 18.109375 38.09375 18.109375 28.8125 
L 18.109375 0 
L 9.078125 0 
L 9.078125 54.6875 
L 18.109375 54.6875 
L 18.109375 46.1875 
Q 20.953125 51.171875 25.484375 53.578125 
Q 30.03125 56 36.53125 56 
Q 37.453125 56 38.578125 55.875 
Q 39.703125 55.765625 41.0625 55.515625 
z
" id="DejaVuSans-114"/>
       <path d="M 45.40625 27.984375 
Q 45.40625 37.75 41.375 43.109375 
Q 37.359375 48.484375 30.078125 48.484375 
Q 22.859375 48.484375 18.828125 43.109375 
Q 14.796875 37.75 14.796875 27.984375 
Q 14.796875 18.265625 18.828125 12.890625 
Q 22.859375 7.515625 30.078125 7.515625 
Q 37.359375 7.515625 41.375 12.890625 
Q 45.40625 18.265625 45.40625 27.984375 
z
M 54.390625 6.78125 
Q 54.390625 -7.171875 48.1875 -13.984375 
Q 42 -20.796875 29.203125 -20.796875 
Q 24.46875 -20.796875 20.265625 -20.09375 
Q 16.0625 -19.390625 12.109375 -17.921875 
L 12.109375 -9.1875 
Q 16.0625 -11.328125 19.921875 -12.34375 
Q 23.78125 -13.375 27.78125 -13.375 
Q 36.625 -13.375 41.015625 -8.765625 
Q 45.40625 -4.15625 45.40625 5.171875 
L 45.40625 9.625 
Q 42.625 4.78125 38.28125 2.390625 
Q 33.9375 0 27.875 0 
Q 17.828125 0 11.671875 7.65625 
Q 5.515625 15.328125 5.515625 27.984375 
Q 5.515625 40.671875 11.671875 48.328125 
Q 17.828125 56 27.875 56 
Q 33.9375 56 38.28125 53.609375 
Q 42.625 51.21875 45.40625 46.390625 
L 45.40625 54.6875 
L 54.390625 54.6875 
z
" id="DejaVuSans-103"/>
       <path d="M 18.3125 70.21875 
L 18.3125 54.6875 
L 36.8125 54.6875 
L 36.8125 47.703125 
L 18.3125 47.703125 
L 18.3125 18.015625 
Q 18.3125 11.328125 20.140625 9.421875 
Q 21.96875 7.515625 27.59375 7.515625 
L 36.8125 7.515625 
L 36.8125 0 
L 27.59375 0 
Q 17.1875 0 13.234375 3.875 
Q 9.28125 7.765625 9.28125 18.015625 
L 9.28125 47.703125 
L 2.6875 47.703125 
L 2.6875 54.6875 
L 9.28125 54.6875 
L 9.28125 70.21875 
z
" id="DejaVuSans-116"/>
       <path d="M 9.421875 75.984375 
L 18.40625 75.984375 
L 18.40625 0 
L 9.421875 0 
z
" id="DejaVuSans-108"/>
       <path d="M 8.5 21.578125 
L 8.5 54.6875 
L 17.484375 54.6875 
L 17.484375 21.921875 
Q 17.484375 14.15625 20.5 10.265625 
Q 23.53125 6.390625 29.59375 6.390625 
Q 36.859375 6.390625 41.078125 11.03125 
Q 45.3125 15.671875 45.3125 23.6875 
L 45.3125 54.6875 
L 54.296875 54.6875 
L 54.296875 0 
L 45.3125 0 
L 45.3125 8.40625 
Q 42.046875 3.421875 37.71875 1 
Q 33.40625 -1.421875 27.6875 -1.421875 
Q 18.265625 -1.421875 13.375 4.4375 
Q 8.5 10.296875 8.5 21.578125 
z
M 31.109375 56 
z
" id="DejaVuSans-117"/>
       <path d="M 5.515625 54.6875 
L 48.1875 54.6875 
L 48.1875 46.484375 
L 14.40625 7.171875 
L 48.1875 7.171875 
L 48.1875 0 
L 4.296875 0 
L 4.296875 8.203125 
L 38.09375 47.515625 
L 5.515625 47.515625 
z
" id="DejaVuSans-122"/>
      </defs>
      <use xlink:href="#DejaVuSans-76"/>
      <use x="55.712891" xlink:href="#DejaVuSans-97"/>
      <use x="116.992188" xlink:href="#DejaVuSans-114"/>
      <use x="156.355469" xlink:href="#DejaVuSans-103"/>
      <use x="219.832031" xlink:href="#DejaVuSans-101"/>
      <use x="281.355469" xlink:href="#DejaVuSans-115"/>
      <use x="333.455078" xlink:href="#DejaVuSans-116"/>
      <use x="372.664062" xlink:href="#DejaVuSans-32"/>
      <use x="404.451172" xlink:href="#DejaVuSans-99"/>
      <use x="459.431641" xlink:href="#DejaVuSans-108"/>
      <use x="487.214844" xlink:href="#DejaVuSans-117"/>
      <use x="550.59375" xlink:href="#DejaVuSans-115"/>
      <use x="602.693359" xlink:href="#DejaVuSans-116"/>
      <use x="641.902344" xlink:href="#DejaVuSans-101"/>
      <use x="703.425781" xlink:href="#DejaVuSans-114"/>
      <use x="744.539062" xlink:href="#DejaVuSans-32"/>
      <use x="776.326172" xlink:href="#DejaVuSans-115"/>
      <use x="828.425781" xlink:href="#DejaVuSans-105"/>
      <use x="856.208984" xlink:href="#DejaVuSans-122"/>
      <use x="908.699219" xlink:href="#DejaVuSans-101"/>
     </g>
    </g>
   </g>
   <g id="line2d_61">
    <path clip-path="url(#p059be3343d)" d="M 230.285209 926.12 
L 230.730535 924.071953 
L 231.621187 923.047929 
L 232.066513 921.511894 
L 232.511839 921.511894 
L 232.957165 920.999882 
L 233.402491 920.999882 
L 233.847816 919.463847 
L 234.293142 919.463847 
L 235.183794 913.831718 
L 235.62912 913.319706 
L 236.074446 911.783671 
L 237.410424 911.783671 
L 238.301076 905.127518 
L 238.746402 905.127518 
L 239.191728 904.615506 
L 240.08238 904.615506 
L 240.527706 902.055447 
L 240.973032 902.055447 
L 241.418358 896.935329 
L 242.754336 896.935329 
L 243.199662 894.375271 
L 244.980966 892.327224 
L 245.426292 892.327224 
L 245.871618 890.791188 
L 246.76227 890.791188 
L 247.207596 888.743141 
L 247.652922 873.382788 
L 254.332811 873.382788 
L 254.778137 841.638059 
L 260.567375 841.638059 
L 261.012701 841.126047 
L 262.348679 841.126047 
L 262.794004 830.885812 
L 265.46596 830.885812 
L 265.911286 830.3738 
L 279.716391 830.3738 
L 280.161717 825.765694 
L 280.607043 825.765694 
L 281.052369 825.253682 
L 292.185518 825.253682 
L 292.630844 822.693624 
L 293.07617 821.157588 
L 305.099972 821.157588 
L 305.545298 820.645576 
L 325.584966 820.645576 
L 326.030292 743.843812 
L 332.710182 743.843812 
L 333.155508 743.3318 
L 337.163441 743.3318 
L 337.608767 742.819788 
L 340.280723 742.819788 
L 340.726049 707.490976 
L 365.218977 707.490976 
L 365.664303 704.418906 
L 432.374134 704.418906 
L 432.81946 656.2898 
L 434.600763 656.2898 
L 435.046089 609.696729 
L 450.187172 609.696729 
L 450.632498 609.184718 
L 480.024012 609.184718 
L 480.469338 503.198282 
L 501.399659 503.198282 
L 501.844985 503.710294 
L 537.471062 503.710294 
L 537.916388 503.198282 
L 566.862576 503.198282 
L 567.307902 396.699835 
L 1034.187649 396.699835 
L 1034.632975 397.211847 
L 1035.523626 397.211847 
L 1035.968952 396.699835 
L 1101.877196 396.699835 
L 1102.322522 397.211847 
L 1102.767848 396.699835 
L 1196.197236 396.699835 
L 1196.642562 397.211847 
L 1298.176883 397.211847 
L 1298.176883 397.211847 
" style="fill:none;stroke:#1f77b4;stroke-linecap:square;stroke-width:3;"/>
   </g>
   <g id="line2d_62">
    <path clip-path="url(#p059be3343d)" d="M 230.285209 926.12 
L 230.730535 923.559941 
L 231.175861 923.559941 
L 231.621187 922.535918 
L 232.511839 921.511894 
L 232.957165 919.463847 
L 233.847816 918.439824 
L 234.293142 917.4158 
L 234.738468 917.4158 
L 235.183794 912.807694 
L 236.074446 912.807694 
L 236.519772 911.271659 
L 236.965098 905.127518 
L 237.85575 905.127518 
L 238.301076 903.079471 
L 238.746402 903.079471 
L 239.191728 902.567459 
L 240.08238 902.567459 
L 240.527706 900.519412 
L 242.754336 900.519412 
L 243.199662 898.983376 
L 245.426292 898.983376 
L 245.871618 897.959353 
L 246.316944 892.839235 
L 246.76227 892.839235 
L 247.207596 890.279176 
L 247.652922 863.654565 
L 251.660855 863.654565 
L 252.551507 862.630541 
L 257.004767 862.630541 
L 257.450093 862.118529 
L 258.786071 862.118529 
L 259.231397 841.126047 
L 262.348679 841.126047 
L 262.794004 840.614035 
L 272.591176 840.614035 
L 273.036502 827.301729 
L 273.927154 827.301729 
L 274.37248 826.277706 
L 277.935087 826.277706 
L 278.380413 801.189129 
L 281.497695 801.189129 
L 281.943021 799.141082 
L 284.169651 799.141082 
L 284.614977 798.629071 
L 304.20932 798.629071 
L 304.654646 795.557 
L 311.334535 795.557 
L 311.779861 793.508953 
L 323.358336 793.508953 
L 323.803662 753.572035 
L 334.491486 753.572035 
L 334.936812 742.307776 
L 340.280723 742.307776 
L 340.726049 674.210212 
L 341.171375 674.210212 
L 341.616701 673.6982 
L 369.672237 673.6982 
L 370.117563 587.680224 
L 371.453541 587.680224 
L 371.898867 585.120165 
L 377.688105 585.120165 
L 378.133431 584.608153 
L 399.063751 584.608153 
L 399.509077 549.279341 
L 417.678377 549.279341 
L 418.123703 542.623188 
L 424.803592 542.623188 
L 425.248918 542.111176 
L 442.616631 542.111176 
L 443.061957 541.599165 
L 605.962196 541.599165 
L 606.407522 541.087153 
L 691.910109 541.087153 
L 692.355434 540.575141 
L 770.198414 540.575141 
L 770.64374 513.438518 
L 1002.569505 513.438518 
L 1003.014831 513.950529 
L 1058.235251 513.950529 
L 1058.680577 127.893659 
L 1121.827799 127.893659 
L 1122.273125 127.381647 
L 1200.650496 127.381647 
L 1201.095822 127.893659 
L 1206.885059 127.893659 
L 1207.330385 127.381647 
L 1298.176883 127.381647 
L 1298.176883 127.381647 
" style="fill:none;stroke:#ff7f0e;stroke-linecap:square;stroke-width:3;"/>
   </g>
   <g id="line2d_63">
    <path clip-path="url(#p059be3343d)" d="M 230.285209 926.12 
L 230.730535 924.071953 
L 231.175861 923.047929 
L 231.621187 921.511894 
L 232.066513 920.487871 
L 232.511839 920.487871 
L 232.957165 919.975859 
L 233.402491 919.975859 
L 233.847816 917.927812 
L 234.293142 917.927812 
L 234.738468 917.4158 
L 235.183794 917.4158 
L 235.62912 913.319706 
L 236.074446 913.319706 
L 236.519772 912.807694 
L 236.965098 909.735624 
L 237.410424 909.735624 
L 238.746402 906.663553 
L 239.191728 903.591482 
L 239.637054 903.079471 
L 240.527706 903.079471 
L 240.973032 901.031424 
L 242.30901 901.031424 
L 242.754336 890.791188 
L 243.199662 890.791188 
L 243.644988 890.279176 
L 244.090314 890.279176 
L 244.53564 889.767165 
L 244.980966 887.719118 
L 245.426292 887.719118 
L 245.871618 887.207106 
L 246.316944 879.014918 
L 247.652922 879.014918 
L 248.098247 878.502906 
L 249.879551 878.502906 
L 250.324877 874.918824 
L 251.215529 874.918824 
L 251.660855 868.262671 
L 252.551507 868.262671 
L 252.996833 867.750659 
L 253.442159 837.541965 
L 254.778137 836.005929 
L 255.668789 836.005929 
L 256.114115 835.493918 
L 259.676723 835.493918 
L 260.122049 832.421847 
L 269.028568 832.421847 
L 269.473894 830.885812 
L 271.700524 830.885812 
L 272.14585 829.349776 
L 277.489761 829.349776 
L 277.935087 799.141082 
L 279.716391 799.141082 
L 280.161717 793.508953 
L 280.607043 792.996941 
L 283.724325 792.996941 
L 284.169651 792.484929 
L 293.07617 792.484929 
L 293.521496 791.972918 
L 295.748126 791.972918 
L 296.193452 775.076529 
L 307.326601 775.076529 
L 307.771927 774.564518 
L 386.149298 774.564518 
L 386.594624 761.252212 
L 403.962337 761.252212 
L 404.407663 706.466953 
L 412.334465 706.466953 
L 412.779791 703.906894 
L 415.897073 703.906894 
L 416.342399 703.394882 
L 424.803592 703.394882 
L 425.248918 648.609624 
L 442.616631 648.609624 
L 443.061957 617.888918 
L 458.20304 617.888918 
L 458.648366 602.528565 
L 466.664233 602.528565 
L 467.109559 540.575141 
L 470.226841 540.575141 
L 470.672167 541.087153 
L 555.729427 541.087153 
L 556.174753 232.344059 
L 591.711765 232.344059 
L 592.157091 189.847082 
L 620.212627 189.847082 
L 620.657953 177.5588 
L 885.983166 177.5588 
L 886.428492 127.381647 
L 1153.445943 127.381647 
L 1153.891269 127.893659 
L 1200.650496 127.893659 
L 1201.095822 127.381647 
L 1237.167225 127.381647 
L 1237.612551 127.893659 
L 1247.409723 127.893659 
L 1247.855049 127.381647 
L 1298.176883 127.381647 
L 1298.176883 127.381647 
" style="fill:none;stroke:#2ca02c;stroke-linecap:square;stroke-width:3;"/>
   </g>
   <g id="line2d_64">
    <path clip-path="url(#p059be3343d)" d="M 230.285209 926.12 
L 230.730535 924.071953 
L 231.175861 923.047929 
L 231.621187 923.047929 
L 232.066513 922.023906 
L 232.511839 921.511894 
L 232.957165 920.487871 
L 233.847816 917.4158 
L 234.293142 916.903788 
L 234.738468 916.903788 
L 235.183794 913.831718 
L 235.62912 913.319706 
L 236.074446 913.319706 
L 236.519772 911.271659 
L 236.965098 910.759647 
L 237.410424 910.759647 
L 237.85575 899.495388 
L 238.301076 898.983376 
L 238.746402 898.983376 
L 239.191728 898.471365 
L 240.973032 898.471365 
L 241.418358 894.887282 
L 241.863684 894.887282 
L 242.30901 884.647047 
L 243.644988 883.111012 
L 244.980966 883.111012 
L 245.426292 882.599 
L 248.988899 882.599 
L 249.434225 877.990894 
L 249.879551 877.990894 
L 250.324877 853.414329 
L 253.442159 853.414329 
L 253.887485 852.902318 
L 257.004767 852.902318 
L 257.450093 852.390306 
L 257.895419 852.390306 
L 258.340745 851.878294 
L 258.786071 851.878294 
L 259.231397 849.318235 
L 264.129982 849.318235 
L 264.575308 846.758176 
L 272.591176 846.758176 
L 273.036502 846.246165 
L 285.950955 846.246165 
L 286.396281 836.517941 
L 288.622911 836.517941 
L 289.068237 782.756706 
L 299.310734 782.756706 
L 299.75606 735.651624 
L 305.545298 735.651624 
L 305.990624 729.507482 
L 322.467684 729.507482 
L 322.91301 727.459435 
L 323.358336 727.459435 
L 323.803662 634.273294 
L 329.5929 634.273294 
L 330.038226 631.713235 
L 330.483552 631.713235 
L 330.928878 631.201224 
L 342.062027 631.201224 
L 342.507353 538.527094 
L 350.968546 538.527094 
L 351.413872 538.015082 
L 351.859198 538.015082 
L 352.304524 535.455024 
L 362.992348 535.455024 
L 363.437674 534.943012 
L 370.562889 534.943012 
L 371.008215 534.431 
L 389.26658 534.431 
L 389.711906 414.108235 
L 399.509077 414.108235 
L 399.954403 413.596224 
L 441.725979 413.596224 
L 442.171305 374.683329 
L 554.393449 374.683329 
L 554.838775 304.537718 
L 659.846639 304.537718 
L 660.291965 165.270518 
L 662.963921 165.270518 
L 663.409246 165.782529 
L 663.854572 165.782529 
L 664.299898 165.270518 
L 678.105003 165.270518 
L 678.550329 146.838094 
L 750.693136 146.838094 
L 751.138462 127.893659 
L 901.124249 127.893659 
L 901.569575 127.381647 
L 1033.296997 127.381647 
L 1033.742323 127.893659 
L 1034.187649 127.381647 
L 1223.807446 127.381647 
L 1224.252772 127.893659 
L 1235.385921 127.893659 
L 1235.831247 127.381647 
L 1298.176883 127.381647 
L 1298.176883 127.381647 
" style="fill:none;stroke:#d62728;stroke-linecap:square;stroke-width:3;"/>
   </g>
   <g id="line2d_65">
    <path clip-path="url(#p059be3343d)" d="M 230.285209 926.12 
L 230.730535 923.559941 
L 231.175861 923.559941 
L 231.621187 923.047929 
L 232.066513 922.023906 
L 232.511839 921.511894 
L 232.957165 920.487871 
L 233.402491 918.951835 
L 234.293142 918.951835 
L 234.738468 918.439824 
L 235.183794 916.903788 
L 235.62912 914.343729 
L 236.074446 912.807694 
L 236.965098 912.807694 
L 237.410424 902.055447 
L 237.85575 902.055447 
L 238.301076 900.0074 
L 238.746402 900.0074 
L 239.191728 899.495388 
L 240.973032 899.495388 
L 241.418358 898.983376 
L 241.863684 898.983376 
L 242.754336 897.959353 
L 243.644988 897.959353 
L 244.090314 897.447341 
L 244.980966 897.447341 
L 245.426292 895.911306 
L 245.871618 895.911306 
L 246.316944 895.399294 
L 246.76227 895.399294 
L 247.207596 894.887282 
L 248.098247 894.887282 
L 248.543573 893.863259 
L 248.988899 893.863259 
L 249.434225 892.839235 
L 250.324877 892.839235 
L 250.770203 891.3032 
L 251.660855 891.3032 
L 252.106181 881.574976 
L 252.551507 881.574976 
L 252.996833 881.062965 
L 253.442159 881.062965 
L 253.887485 874.406812 
L 254.778137 874.406812 
L 255.223463 873.8948 
L 256.114115 873.8948 
L 256.559441 867.238647 
L 258.786071 867.238647 
L 259.231397 866.726635 
L 259.676723 866.726635 
L 260.122049 860.582494 
L 270.809872 860.582494 
L 271.255198 852.902318 
L 272.14585 852.902318 
L 272.591176 845.222141 
L 273.481828 845.222141 
L 273.927154 822.181612 
L 274.37248 822.181612 
L 274.817806 820.133565 
L 278.825739 820.133565 
L 279.271065 819.621553 
L 281.943021 819.621553 
L 282.388347 819.109541 
L 283.278999 819.109541 
L 283.724325 816.549482 
L 285.950955 816.549482 
L 286.396281 813.989424 
L 297.084104 813.989424 
L 297.52943 809.381318 
L 311.334535 809.381318 
L 311.779861 777.124576 
L 350.52322 777.124576 
L 350.968546 731.043518 
L 356.757784 731.043518 
L 357.20311 725.9234 
L 368.781585 725.9234 
L 369.226911 725.411388 
L 384.367994 725.411388 
L 384.81332 696.226718 
L 436.827393 696.226718 
L 437.272719 689.570565 
L 440.835327 689.570565 
L 441.280653 687.010506 
L 563.745295 687.010506 
L 564.190621 686.498494 
L 740.450639 686.498494 
L 740.895965 598.432471 
L 1105.88513 598.432471 
L 1106.330456 455.069176 
L 1298.176883 455.069176 
L 1298.176883 455.069176 
" style="fill:none;stroke:#9467bd;stroke-linecap:square;stroke-width:3;"/>
   </g>
   <g id="patch_3">
    <path d="M 176.890625 926.12 
L 176.890625 55.7 
" style="fill:none;stroke:#000000;stroke-linecap:square;stroke-linejoin:miter;stroke-width:5;"/>
   </g>
   <g id="patch_4">
    <path d="M 1370.230625 926.12 
L 1370.230625 55.7 
" style="fill:none;stroke:#000000;stroke-linecap:square;stroke-linejoin:miter;stroke-width:5;"/>
   </g>
   <g id="patch_5">
    <path d="M 176.890625 926.12 
L 1370.230625 926.12 
" style="fill:none;stroke:#000000;stroke-linecap:square;stroke-linejoin:miter;stroke-width:5;"/>
   </g>
   <g id="patch_6">
    <path d="M 176.890625 55.7 
L 1370.230625 55.7 
" style="fill:none;stroke:#000000;stroke-linecap:square;stroke-linejoin:miter;stroke-width:5;"/>
   </g>
   <g id="text_33">
    <!-- $\phi_{ribosome} = $0.3 ; $T_{c} = $1.0 ; $\varepsilon = $20.0 -->
    <g transform="translate(359.810625 45.2)scale(0.5 -0.5)">
     <defs>
      <path d="M 46.734375 75.984375 
L 42.78125 55.8125 
Q 52.546875 55.8125 57.5625 48.34375 
Q 62.75 40.71875 60.15625 27.296875 
Q 57.515625 13.875 49.359375 6.25 
Q 41.453125 -1.21875 31.6875 -1.21875 
L 27.875 -20.796875 
L 18.953125 -20.796875 
L 22.75 -1.21875 
Q 13.03125 -1.21875 7.953125 6.25 
Q 2.78125 13.875 5.421875 27.296875 
Q 8.015625 40.71875 16.15625 48.34375 
Q 24.125 55.8125 33.84375 55.8125 
L 37.796875 75.984375 
z
M 33.25 6.78125 
Q 38.765625 6.78125 43.5 11.8125 
Q 48.6875 17.4375 50.6875 27.296875 
Q 52.640625 37.0625 49.515625 42.78125 
Q 46.734375 47.796875 41.21875 47.796875 
z
M 24.3125 6.78125 
L 32.28125 47.796875 
Q 26.8125 47.796875 22.078125 42.78125 
Q 16.75 37.0625 14.890625 27.296875 
Q 13.03125 17.4375 16.0625 11.8125 
Q 18.796875 6.78125 24.3125 6.78125 
z
" id="DejaVuSans-Oblique-981"/>
      <path d="M 44.578125 46.390625 
Q 43.21875 47.125 41.453125 47.515625 
Q 39.703125 47.90625 37.703125 47.90625 
Q 30.515625 47.90625 25.140625 42.453125 
Q 19.78125 37.015625 18.015625 27.875 
L 12.5 0 
L 3.515625 0 
L 14.203125 54.6875 
L 23.1875 54.6875 
L 21.484375 46.1875 
Q 25.046875 50.921875 30 53.453125 
Q 34.96875 56 40.578125 56 
Q 42.046875 56 43.453125 55.828125 
Q 44.875 55.671875 46.296875 55.28125 
z
" id="DejaVuSans-Oblique-114"/>
      <path d="M 18.3125 75.984375 
L 27.296875 75.984375 
L 25.09375 64.59375 
L 16.109375 64.59375 
z
M 14.203125 54.6875 
L 23.1875 54.6875 
L 12.5 0 
L 3.515625 0 
z
" id="DejaVuSans-Oblique-105"/>
      <path d="M 49.515625 33.40625 
Q 49.515625 40.484375 46.265625 44.484375 
Q 43.015625 48.484375 37.3125 48.484375 
Q 33.15625 48.484375 29.515625 46.453125 
Q 25.875 44.4375 23.1875 40.578125 
Q 20.359375 36.53125 18.71875 31.171875 
Q 17.09375 25.828125 17.09375 20.515625 
Q 17.09375 13.765625 20.28125 9.9375 
Q 23.484375 6.109375 29.109375 6.109375 
Q 33.34375 6.109375 36.953125 8.078125 
Q 40.578125 10.0625 43.3125 13.921875 
Q 46.09375 17.921875 47.796875 23.234375 
Q 49.515625 28.5625 49.515625 33.40625 
z
M 21.578125 46.390625 
Q 24.90625 50.875 29.90625 53.4375 
Q 34.90625 56 40.375 56 
Q 48.78125 56 53.734375 50.328125 
Q 58.6875 44.671875 58.6875 35.015625 
Q 58.6875 27.09375 55.78125 19.671875 
Q 52.875 12.25 47.515625 6.5 
Q 44 2.6875 39.40625 0.625 
Q 34.8125 -1.421875 29.78125 -1.421875 
Q 24.46875 -1.421875 20.5625 1.015625 
Q 16.65625 3.46875 14.203125 8.296875 
L 12.59375 0 
L 3.609375 0 
L 18.40625 75.984375 
L 27.390625 75.984375 
z
" id="DejaVuSans-Oblique-98"/>
      <path d="M 25.390625 -1.421875 
Q 15.765625 -1.421875 10.171875 4.515625 
Q 4.59375 10.453125 4.59375 20.703125 
Q 4.59375 26.65625 6.515625 32.828125 
Q 8.453125 39.015625 11.53125 43.21875 
Q 16.359375 49.75 22.3125 52.875 
Q 28.265625 56 35.796875 56 
Q 45.125 56 50.859375 50.1875 
Q 56.59375 44.390625 56.59375 35.015625 
Q 56.59375 28.515625 54.6875 22.0625 
Q 52.78125 15.625 49.703125 11.375 
Q 44.921875 4.828125 38.96875 1.703125 
Q 33.015625 -1.421875 25.390625 -1.421875 
z
M 13.921875 21 
Q 13.921875 13.578125 17.015625 9.890625 
Q 20.125 6.203125 26.421875 6.203125 
Q 35.453125 6.203125 41.375 14.078125 
Q 47.3125 21.96875 47.3125 34.078125 
Q 47.3125 41.15625 44.140625 44.765625 
Q 40.96875 48.390625 34.8125 48.390625 
Q 29.734375 48.390625 25.78125 46.015625 
Q 21.828125 43.65625 18.703125 38.8125 
Q 16.40625 35.203125 15.15625 30.5625 
Q 13.921875 25.921875 13.921875 21 
z
" id="DejaVuSans-Oblique-111"/>
      <path d="M 50 53.078125 
L 48.296875 44.578125 
Q 44.734375 46.53125 40.765625 47.5 
Q 36.8125 48.484375 32.625 48.484375 
Q 25.53125 48.484375 21.453125 46.0625 
Q 17.390625 43.65625 17.390625 39.5 
Q 17.390625 34.671875 26.859375 32.078125 
Q 27.59375 31.890625 27.9375 31.78125 
L 30.8125 30.90625 
Q 39.796875 28.421875 42.796875 25.6875 
Q 45.796875 22.953125 45.796875 18.21875 
Q 45.796875 9.515625 38.890625 4.046875 
Q 31.984375 -1.421875 20.796875 -1.421875 
Q 16.453125 -1.421875 11.671875 -0.578125 
Q 6.890625 0.25 1.125 2 
L 2.875 11.28125 
Q 7.8125 8.734375 12.59375 7.421875 
Q 17.390625 6.109375 21.78125 6.109375 
Q 28.375 6.109375 32.5 8.9375 
Q 36.625 11.765625 36.625 16.109375 
Q 36.625 20.796875 25.78125 23.6875 
L 24.859375 23.921875 
L 21.78125 24.703125 
Q 14.9375 26.515625 11.765625 29.46875 
Q 8.59375 32.421875 8.59375 37.015625 
Q 8.59375 45.75 15.15625 50.875 
Q 21.734375 56 33.015625 56 
Q 37.453125 56 41.671875 55.265625 
Q 45.90625 54.546875 50 53.078125 
z
" id="DejaVuSans-Oblique-115"/>
      <path d="M 89.796875 33.015625 
L 83.40625 0 
L 74.421875 0 
L 80.71875 32.71875 
Q 81.109375 34.8125 81.296875 36.328125 
Q 81.5 37.84375 81.5 38.921875 
Q 81.5 43.3125 79.046875 45.75 
Q 76.609375 48.1875 72.21875 48.1875 
Q 65.671875 48.1875 60.546875 43.28125 
Q 55.421875 38.375 53.90625 30.515625 
L 47.90625 0 
L 38.921875 0 
L 45.3125 32.71875 
Q 45.703125 34.515625 45.890625 36.046875 
Q 46.09375 37.59375 46.09375 38.8125 
Q 46.09375 43.265625 43.65625 45.71875 
Q 41.21875 48.1875 36.921875 48.1875 
Q 30.28125 48.1875 25.140625 43.28125 
Q 20.015625 38.375 18.5 30.515625 
L 12.5 0 
L 3.515625 0 
L 14.203125 54.6875 
L 23.1875 54.6875 
L 21.484375 46.1875 
Q 25.140625 50.984375 30.046875 53.484375 
Q 34.96875 56 40.578125 56 
Q 46.53125 56 50.359375 52.875 
Q 54.203125 49.75 54.984375 44.1875 
Q 59.078125 49.953125 64.46875 52.96875 
Q 69.875 56 75.875 56 
Q 82.90625 56 86.734375 51.953125 
Q 90.578125 47.90625 90.578125 40.484375 
Q 90.578125 38.875 90.375 36.9375 
Q 90.1875 35.015625 89.796875 33.015625 
z
" id="DejaVuSans-Oblique-109"/>
      <path d="M 48.09375 32.234375 
Q 48.25 33.015625 48.3125 33.84375 
Q 48.390625 34.671875 48.390625 35.5 
Q 48.390625 41.453125 44.890625 44.921875 
Q 41.40625 48.390625 35.40625 48.390625 
Q 28.71875 48.390625 23.578125 44.15625 
Q 18.453125 39.9375 15.828125 32.171875 
z
M 55.90625 25.203125 
L 14.109375 25.203125 
Q 13.8125 23.34375 13.71875 22.265625 
Q 13.625 21.1875 13.625 20.40625 
Q 13.625 13.625 17.796875 9.90625 
Q 21.96875 6.203125 29.59375 6.203125 
Q 35.453125 6.203125 40.671875 7.515625 
Q 45.90625 8.84375 50.390625 11.375 
L 48.6875 2.484375 
Q 43.84375 0.53125 38.6875 -0.4375 
Q 33.546875 -1.421875 28.21875 -1.421875 
Q 16.84375 -1.421875 10.71875 4.015625 
Q 4.59375 9.46875 4.59375 19.484375 
Q 4.59375 28.03125 7.640625 35.375 
Q 10.6875 42.71875 16.609375 48.484375 
Q 20.40625 52.09375 25.65625 54.046875 
Q 30.90625 56 36.8125 56 
Q 46.09375 56 51.578125 50.4375 
Q 57.078125 44.875 57.078125 35.5 
Q 57.078125 33.25 56.78125 30.6875 
Q 56.5 28.125 55.90625 25.203125 
z
" id="DejaVuSans-Oblique-101"/>
      <path d="M 10.59375 45.40625 
L 73.1875 45.40625 
L 73.1875 37.203125 
L 10.59375 37.203125 
z
M 10.59375 25.484375 
L 73.1875 25.484375 
L 73.1875 17.1875 
L 10.59375 17.1875 
z
" id="DejaVuSans-61"/>
      <path d="M 10.6875 12.40625 
L 21 12.40625 
L 21 0 
L 10.6875 0 
z
" id="DejaVuSans-46"/>
      <path d="M 11.71875 51.703125 
L 22.015625 51.703125 
L 22.015625 39.3125 
L 11.71875 39.3125 
z
M 11.71875 12.40625 
L 22.015625 12.40625 
L 22.015625 4 
L 14.015625 -11.625 
L 7.71875 -11.625 
L 11.71875 4 
z
" id="DejaVuSans-59"/>
      <path d="M 5.90625 72.90625 
L 67.578125 72.90625 
L 66.015625 64.59375 
L 39.984375 64.59375 
L 27.484375 0 
L 17.578125 0 
L 30.078125 64.59375 
L 4.296875 64.59375 
z
" id="DejaVuSans-Oblique-84"/>
      <path d="M 53.609375 52.59375 
L 51.8125 43.703125 
Q 48.578125 46.046875 44.9375 47.21875 
Q 41.3125 48.390625 37.40625 48.390625 
Q 33.109375 48.390625 29.21875 46.875 
Q 25.34375 45.359375 22.703125 42.578125 
Q 18.5 38.328125 16.203125 32.609375 
Q 13.921875 26.90625 13.921875 20.796875 
Q 13.921875 13.421875 17.609375 9.8125 
Q 21.296875 6.203125 28.8125 6.203125 
Q 32.515625 6.203125 36.6875 7.328125 
Q 40.875 8.453125 45.40625 10.6875 
L 43.703125 1.8125 
Q 39.796875 0.203125 35.671875 -0.609375 
Q 31.546875 -1.421875 27.203125 -1.421875 
Q 16.3125 -1.421875 10.453125 4.015625 
Q 4.59375 9.46875 4.59375 19.578125 
Q 4.59375 28.078125 7.640625 35.234375 
Q 10.6875 42.390625 16.703125 48.09375 
Q 20.796875 52 26.3125 54 
Q 31.84375 56 38.375 56 
Q 42.1875 56 45.9375 55.140625 
Q 49.703125 54.296875 53.609375 52.59375 
z
" id="DejaVuSans-Oblique-99"/>
      <path d="M 19.734375 29.5 
Q 14.453125 30.671875 12.15625 33.84375 
Q 10.453125 36.078125 10.453125 39.109375 
Q 10.453125 47.40625 18.359375 52.25 
Q 24.609375 56.0625 34.1875 56.0625 
Q 37.890625 56.0625 41.9375 55.46875 
Q 46 54.890625 50.53125 53.71875 
L 48.96875 45.5625 
Q 44.484375 46.96875 40.71875 47.609375 
Q 36.859375 48.25 33.40625 48.25 
Q 27.59375 48.25 23.78125 46 
Q 19.1875 43.3125 19.1875 39.40625 
Q 19.1875 36.8125 21.578125 35.015625 
Q 24.421875 32.859375 30.078125 32.859375 
L 37.640625 32.859375 
L 36.234375 25.4375 
L 29 25.4375 
Q 22.265625 25.4375 18.3125 22.953125 
Q 12.9375 19.578125 12.9375 14.3125 
Q 12.9375 10.984375 15.828125 8.796875 
Q 19.4375 6.0625 26.8125 6.0625 
Q 31.34375 6.0625 35.6875 6.9375 
Q 40.046875 7.859375 43.84375 9.671875 
L 42.1875 1.3125 
Q 37.546875 -0.046875 33.296875 -0.734375 
Q 29.046875 -1.421875 25.140625 -1.421875 
Q 13.53125 -1.421875 8.0625 3.03125 
Q 3.90625 6.453125 3.90625 12.203125 
Q 3.90625 19.96875 9.375 24.75 
Q 13.421875 28.328125 19.734375 29.5 
z
" id="DejaVuSans-Oblique-949"/>
     </defs>
     <use transform="translate(0 0.015625)" xlink:href="#DejaVuSans-Oblique-981"/>
     <use transform="translate(65.966797 -16.390625)scale(0.7)" xlink:href="#DejaVuSans-Oblique-114"/>
     <use transform="translate(94.746094 -16.390625)scale(0.7)" xlink:href="#DejaVuSans-Oblique-105"/>
     <use transform="translate(114.194336 -16.390625)scale(0.7)" xlink:href="#DejaVuSans-Oblique-98"/>
     <use transform="translate(158.62793 -16.390625)scale(0.7)" xlink:href="#DejaVuSans-Oblique-111"/>
     <use transform="translate(201.455078 -16.390625)scale(0.7)" xlink:href="#DejaVuSans-Oblique-115"/>
     <use transform="translate(237.924805 -16.390625)scale(0.7)" xlink:href="#DejaVuSans-Oblique-111"/>
     <use transform="translate(280.751953 -16.390625)scale(0.7)" xlink:href="#DejaVuSans-Oblique-109"/>
     <use transform="translate(348.94043 -16.390625)scale(0.7)" xlink:href="#DejaVuSans-Oblique-101"/>
     <use transform="translate(414.223633 0.015625)" xlink:href="#DejaVuSans-61"/>
     <use transform="translate(517.495117 0.015625)" xlink:href="#DejaVuSans-48"/>
     <use transform="translate(581.118164 0.015625)" xlink:href="#DejaVuSans-46"/>
     <use transform="translate(612.905273 0.015625)" xlink:href="#DejaVuSans-51"/>
     <use transform="translate(676.52832 0.015625)" xlink:href="#DejaVuSans-32"/>
     <use transform="translate(708.31543 0.015625)" xlink:href="#DejaVuSans-59"/>
     <use transform="translate(742.006836 0.015625)" xlink:href="#DejaVuSans-32"/>
     <use transform="translate(773.793945 0.015625)" xlink:href="#DejaVuSans-Oblique-84"/>
     <use transform="translate(834.87793 -16.390625)scale(0.7)" xlink:href="#DejaVuSans-Oblique-99"/>
     <use transform="translate(895.581055 0.015625)" xlink:href="#DejaVuSans-61"/>
     <use transform="translate(998.852539 0.015625)" xlink:href="#DejaVuSans-49"/>
     <use transform="translate(1062.475586 0.015625)" xlink:href="#DejaVuSans-46"/>
     <use transform="translate(1094.262695 0.015625)" xlink:href="#DejaVuSans-48"/>
     <use transform="translate(1157.885742 0.015625)" xlink:href="#DejaVuSans-32"/>
     <use transform="translate(1189.672852 0.015625)" xlink:href="#DejaVuSans-59"/>
     <use transform="translate(1223.364258 0.015625)" xlink:href="#DejaVuSans-32"/>
     <use transform="translate(1255.151367 0.015625)" xlink:href="#DejaVuSans-Oblique-949"/>
     <use transform="translate(1328.686523 0.015625)" xlink:href="#DejaVuSans-61"/>
     <use transform="translate(1431.958008 0.015625)" xlink:href="#DejaVuSans-50"/>
     <use transform="translate(1495.581055 0.015625)" xlink:href="#DejaVuSans-48"/>
     <use transform="translate(1559.204102 0.015625)" xlink:href="#DejaVuSans-46"/>
     <use transform="translate(1590.991211 0.015625)" xlink:href="#DejaVuSans-48"/>
    </g>
   </g>
   <g id="legend_1">
    <g id="patch_7">
     <path d="M 197.890625 299.871875 
L 372.814062 299.871875 
Q 378.814062 299.871875 378.814062 293.871875 
L 378.814062 76.7 
Q 378.814062 70.7 372.814062 70.7 
L 197.890625 70.7 
Q 191.890625 70.7 191.890625 76.7 
L 191.890625 293.871875 
Q 191.890625 299.871875 197.890625 299.871875 
z
" style="fill:#ffffff;opacity:0.8;stroke:#cccccc;stroke-linejoin:miter;stroke-width:2;"/>
    </g>
    <g id="line2d_66">
     <path d="M 203.890625 94.995312 
L 263.890625 94.995312 
" style="fill:none;stroke:#1f77b4;stroke-linecap:square;stroke-width:3;"/>
    </g>
    <g id="line2d_67"/>
    <g id="text_34">
     <!-- s = 1 -->
     <g transform="translate(287.890625 105.495312)scale(0.3 -0.3)">
      <use xlink:href="#DejaVuSans-115"/>
      <use x="52.099609" xlink:href="#DejaVuSans-32"/>
      <use x="83.886719" xlink:href="#DejaVuSans-61"/>
      <use x="167.675781" xlink:href="#DejaVuSans-32"/>
      <use x="199.462891" xlink:href="#DejaVuSans-49"/>
     </g>
    </g>
    <g id="line2d_68">
     <path d="M 203.890625 139.029687 
L 263.890625 139.029687 
" style="fill:none;stroke:#ff7f0e;stroke-linecap:square;stroke-width:3;"/>
    </g>
    <g id="line2d_69"/>
    <g id="text_35">
     <!-- s = 2 -->
     <g transform="translate(287.890625 149.529687)scale(0.3 -0.3)">
      <use xlink:href="#DejaVuSans-115"/>
      <use x="52.099609" xlink:href="#DejaVuSans-32"/>
      <use x="83.886719" xlink:href="#DejaVuSans-61"/>
      <use x="167.675781" xlink:href="#DejaVuSans-32"/>
      <use x="199.462891" xlink:href="#DejaVuSans-50"/>
     </g>
    </g>
    <g id="line2d_70">
     <path d="M 203.890625 183.064062 
L 263.890625 183.064062 
" style="fill:none;stroke:#2ca02c;stroke-linecap:square;stroke-width:3;"/>
    </g>
    <g id="line2d_71"/>
    <g id="text_36">
     <!-- s = 3 -->
     <g transform="translate(287.890625 193.564062)scale(0.3 -0.3)">
      <use xlink:href="#DejaVuSans-115"/>
      <use x="52.099609" xlink:href="#DejaVuSans-32"/>
      <use x="83.886719" xlink:href="#DejaVuSans-61"/>
      <use x="167.675781" xlink:href="#DejaVuSans-32"/>
      <use x="199.462891" xlink:href="#DejaVuSans-51"/>
     </g>
    </g>
    <g id="line2d_72">
     <path d="M 203.890625 227.098437 
L 263.890625 227.098437 
" style="fill:none;stroke:#d62728;stroke-linecap:square;stroke-width:3;"/>
    </g>
    <g id="line2d_73"/>
    <g id="text_37">
     <!-- s = 4 -->
     <g transform="translate(287.890625 237.598437)scale(0.3 -0.3)">
      <use xlink:href="#DejaVuSans-115"/>
      <use x="52.099609" xlink:href="#DejaVuSans-32"/>
      <use x="83.886719" xlink:href="#DejaVuSans-61"/>
      <use x="167.675781" xlink:href="#DejaVuSans-32"/>
      <use x="199.462891" xlink:href="#DejaVuSans-52"/>
     </g>
    </g>
    <g id="line2d_74">
     <path d="M 203.890625 271.132812 
L 263.890625 271.132812 
" style="fill:none;stroke:#9467bd;stroke-linecap:square;stroke-width:3;"/>
    </g>
    <g id="line2d_75"/>
    <g id="text_38">
     <!-- s = 5 -->
     <g transform="translate(287.890625 281.632812)scale(0.3 -0.3)">
      <use xlink:href="#DejaVuSans-115"/>
      <use x="52.099609" xlink:href="#DejaVuSans-32"/>
      <use x="83.886719" xlink:href="#DejaVuSans-61"/>
      <use x="167.675781" xlink:href="#DejaVuSans-32"/>
      <use x="199.462891" xlink:href="#DejaVuSans-53"/>
     </g>
    </g>
   </g>
  </g>
 </g>
 <defs>
  <clipPath id="p059be3343d">
   <rect height="870.42" width="1193.34" x="176.890625" y="55.7"/>
  </clipPath>
 </defs>
</svg>
