<?xml version="1.0" encoding="utf-8" standalone="no"?>
<!DOCTYPE svg PUBLIC "-//W3C//DTD SVG 1.1//EN"
  "http://www.w3.org/Graphics/SVG/1.1/DTD/svg11.dtd">
<!-- Created with matplotlib (https://matplotlib.org/) -->
<svg height="1039.923125pt" version="1.1" viewBox="0 0 1402.880625 1039.923125" width="1402.880625pt" xmlns="http://www.w3.org/2000/svg" xmlns:xlink="http://www.w3.org/1999/xlink">
 <metadata>
  <rdf:RDF xmlns:cc="http://creativecommons.org/ns#" xmlns:dc="http://purl.org/dc/elements/1.1/" xmlns:rdf="http://www.w3.org/1999/02/22-rdf-syntax-ns#">
   <cc:Work>
    <dc:type rdf:resource="http://purl.org/dc/dcmitype/StillImage"/>
    <dc:date>2023-11-26T18:32:31.374758</dc:date>
    <dc:format>image/svg+xml</dc:format>
    <dc:creator>
     <cc:Agent>
      <dc:title>Matplotlib v3.3.2, https://matplotlib.org/</dc:title>
     </cc:Agent>
    </dc:creator>
   </cc:Work>
  </rdf:RDF>
 </metadata>
 <defs>
  <style type="text/css">*{stroke-linecap:butt;stroke-linejoin:round;}</style>
 </defs>
 <g id="figure_1">
  <g id="patch_1">
   <path d="M 0 1039.923125 
L 1402.880625 1039.923125 
L 1402.880625 0 
L 0 0 
z
" style="fill:#ffffff;"/>
  </g>
  <g id="axes_1">
   <g id="patch_2">
    <path d="M 176.890625 926.12 
L 1370.230625 926.12 
L 1370.230625 55.7 
L 176.890625 55.7 
z
" style="fill:#ffffff;"/>
   </g>
   <g id="matplotlib.axis_1">
    <g id="xtick_1">
     <g id="line2d_1">
      <path clip-path="url(#p0781323a80)" d="M 230.196144 926.12 
L 230.196144 55.7 
" style="fill:none;stroke:#b0b0b0;stroke-linecap:square;stroke-opacity:0.6;stroke-width:2;"/>
     </g>
     <g id="line2d_2">
      <defs>
       <path d="M 0 0 
L 0 12 
" id="m741dd0e5af" style="stroke:#000000;stroke-width:2.5;"/>
      </defs>
      <g>
       <use style="stroke:#000000;stroke-width:2.5;" x="230.196144" xlink:href="#m741dd0e5af" y="926.12"/>
      </g>
     </g>
     <g id="text_1">
      <!-- 0 -->
      <g transform="translate(217.471144 972.01375)scale(0.4 -0.4)">
       <defs>
        <path d="M 31.78125 66.40625 
Q 24.171875 66.40625 20.328125 58.90625 
Q 16.5 51.421875 16.5 36.375 
Q 16.5 21.390625 20.328125 13.890625 
Q 24.171875 6.390625 31.78125 6.390625 
Q 39.453125 6.390625 43.28125 13.890625 
Q 47.125 21.390625 47.125 36.375 
Q 47.125 51.421875 43.28125 58.90625 
Q 39.453125 66.40625 31.78125 66.40625 
z
M 31.78125 74.21875 
Q 44.046875 74.21875 50.515625 64.515625 
Q 56.984375 54.828125 56.984375 36.375 
Q 56.984375 17.96875 50.515625 8.265625 
Q 44.046875 -1.421875 31.78125 -1.421875 
Q 19.53125 -1.421875 13.0625 8.265625 
Q 6.59375 17.96875 6.59375 36.375 
Q 6.59375 54.828125 13.0625 64.515625 
Q 19.53125 74.21875 31.78125 74.21875 
z
" id="DejaVuSans-48"/>
       </defs>
       <use xlink:href="#DejaVuSans-48"/>
      </g>
     </g>
    </g>
    <g id="xtick_2">
     <g id="line2d_3">
      <path clip-path="url(#p0781323a80)" d="M 325.199017 926.12 
L 325.199017 55.7 
" style="fill:none;stroke:#b0b0b0;stroke-linecap:square;stroke-opacity:0.6;stroke-width:2;"/>
     </g>
     <g id="line2d_4">
      <g>
       <use style="stroke:#000000;stroke-width:2.5;" x="325.199017" xlink:href="#m741dd0e5af" y="926.12"/>
      </g>
     </g>
     <g id="text_2">
      <!-- 2 -->
      <g transform="translate(312.474017 972.01375)scale(0.4 -0.4)">
       <defs>
        <path d="M 19.1875 8.296875 
L 53.609375 8.296875 
L 53.609375 0 
L 7.328125 0 
L 7.328125 8.296875 
Q 12.9375 14.109375 22.625 23.890625 
Q 32.328125 33.6875 34.8125 36.53125 
Q 39.546875 41.84375 41.421875 45.53125 
Q 43.3125 49.21875 43.3125 52.78125 
Q 43.3125 58.59375 39.234375 62.25 
Q 35.15625 65.921875 28.609375 65.921875 
Q 23.96875 65.921875 18.8125 64.3125 
Q 13.671875 62.703125 7.8125 59.421875 
L 7.8125 69.390625 
Q 13.765625 71.78125 18.9375 73 
Q 24.125 74.21875 28.421875 74.21875 
Q 39.75 74.21875 46.484375 68.546875 
Q 53.21875 62.890625 53.21875 53.421875 
Q 53.21875 48.921875 51.53125 44.890625 
Q 49.859375 40.875 45.40625 35.40625 
Q 44.1875 33.984375 37.640625 27.21875 
Q 31.109375 20.453125 19.1875 8.296875 
z
" id="DejaVuSans-50"/>
       </defs>
       <use xlink:href="#DejaVuSans-50"/>
      </g>
     </g>
    </g>
    <g id="xtick_3">
     <g id="line2d_5">
      <path clip-path="url(#p0781323a80)" d="M 420.20189 926.12 
L 420.20189 55.7 
" style="fill:none;stroke:#b0b0b0;stroke-linecap:square;stroke-opacity:0.6;stroke-width:2;"/>
     </g>
     <g id="line2d_6">
      <g>
       <use style="stroke:#000000;stroke-width:2.5;" x="420.20189" xlink:href="#m741dd0e5af" y="926.12"/>
      </g>
     </g>
     <g id="text_3">
      <!-- 4 -->
      <g transform="translate(407.47689 972.01375)scale(0.4 -0.4)">
       <defs>
        <path d="M 37.796875 64.3125 
L 12.890625 25.390625 
L 37.796875 25.390625 
z
M 35.203125 72.90625 
L 47.609375 72.90625 
L 47.609375 25.390625 
L 58.015625 25.390625 
L 58.015625 17.1875 
L 47.609375 17.1875 
L 47.609375 0 
L 37.796875 0 
L 37.796875 17.1875 
L 4.890625 17.1875 
L 4.890625 26.703125 
z
" id="DejaVuSans-52"/>
       </defs>
       <use xlink:href="#DejaVuSans-52"/>
      </g>
     </g>
    </g>
    <g id="xtick_4">
     <g id="line2d_7">
      <path clip-path="url(#p0781323a80)" d="M 515.204764 926.12 
L 515.204764 55.7 
" style="fill:none;stroke:#b0b0b0;stroke-linecap:square;stroke-opacity:0.6;stroke-width:2;"/>
     </g>
     <g id="line2d_8">
      <g>
       <use style="stroke:#000000;stroke-width:2.5;" x="515.204764" xlink:href="#m741dd0e5af" y="926.12"/>
      </g>
     </g>
     <g id="text_4">
      <!-- 6 -->
      <g transform="translate(502.479764 972.01375)scale(0.4 -0.4)">
       <defs>
        <path d="M 33.015625 40.375 
Q 26.375 40.375 22.484375 35.828125 
Q 18.609375 31.296875 18.609375 23.390625 
Q 18.609375 15.53125 22.484375 10.953125 
Q 26.375 6.390625 33.015625 6.390625 
Q 39.65625 6.390625 43.53125 10.953125 
Q 47.40625 15.53125 47.40625 23.390625 
Q 47.40625 31.296875 43.53125 35.828125 
Q 39.65625 40.375 33.015625 40.375 
z
M 52.59375 71.296875 
L 52.59375 62.3125 
Q 48.875 64.0625 45.09375 64.984375 
Q 41.3125 65.921875 37.59375 65.921875 
Q 27.828125 65.921875 22.671875 59.328125 
Q 17.53125 52.734375 16.796875 39.40625 
Q 19.671875 43.65625 24.015625 45.921875 
Q 28.375 48.1875 33.59375 48.1875 
Q 44.578125 48.1875 50.953125 41.515625 
Q 57.328125 34.859375 57.328125 23.390625 
Q 57.328125 12.15625 50.6875 5.359375 
Q 44.046875 -1.421875 33.015625 -1.421875 
Q 20.359375 -1.421875 13.671875 8.265625 
Q 6.984375 17.96875 6.984375 36.375 
Q 6.984375 53.65625 15.1875 63.9375 
Q 23.390625 74.21875 37.203125 74.21875 
Q 40.921875 74.21875 44.703125 73.484375 
Q 48.484375 72.75 52.59375 71.296875 
z
" id="DejaVuSans-54"/>
       </defs>
       <use xlink:href="#DejaVuSans-54"/>
      </g>
     </g>
    </g>
    <g id="xtick_5">
     <g id="line2d_9">
      <path clip-path="url(#p0781323a80)" d="M 610.207637 926.12 
L 610.207637 55.7 
" style="fill:none;stroke:#b0b0b0;stroke-linecap:square;stroke-opacity:0.6;stroke-width:2;"/>
     </g>
     <g id="line2d_10">
      <g>
       <use style="stroke:#000000;stroke-width:2.5;" x="610.207637" xlink:href="#m741dd0e5af" y="926.12"/>
      </g>
     </g>
     <g id="text_5">
      <!-- 8 -->
      <g transform="translate(597.482637 972.01375)scale(0.4 -0.4)">
       <defs>
        <path d="M 31.78125 34.625 
Q 24.75 34.625 20.71875 30.859375 
Q 16.703125 27.09375 16.703125 20.515625 
Q 16.703125 13.921875 20.71875 10.15625 
Q 24.75 6.390625 31.78125 6.390625 
Q 38.8125 6.390625 42.859375 10.171875 
Q 46.921875 13.96875 46.921875 20.515625 
Q 46.921875 27.09375 42.890625 30.859375 
Q 38.875 34.625 31.78125 34.625 
z
M 21.921875 38.8125 
Q 15.578125 40.375 12.03125 44.71875 
Q 8.5 49.078125 8.5 55.328125 
Q 8.5 64.0625 14.71875 69.140625 
Q 20.953125 74.21875 31.78125 74.21875 
Q 42.671875 74.21875 48.875 69.140625 
Q 55.078125 64.0625 55.078125 55.328125 
Q 55.078125 49.078125 51.53125 44.71875 
Q 48 40.375 41.703125 38.8125 
Q 48.828125 37.15625 52.796875 32.3125 
Q 56.78125 27.484375 56.78125 20.515625 
Q 56.78125 9.90625 50.3125 4.234375 
Q 43.84375 -1.421875 31.78125 -1.421875 
Q 19.734375 -1.421875 13.25 4.234375 
Q 6.78125 9.90625 6.78125 20.515625 
Q 6.78125 27.484375 10.78125 32.3125 
Q 14.796875 37.15625 21.921875 38.8125 
z
M 18.3125 54.390625 
Q 18.3125 48.734375 21.84375 45.5625 
Q 25.390625 42.390625 31.78125 42.390625 
Q 38.140625 42.390625 41.71875 45.5625 
Q 45.3125 48.734375 45.3125 54.390625 
Q 45.3125 60.0625 41.71875 63.234375 
Q 38.140625 66.40625 31.78125 66.40625 
Q 25.390625 66.40625 21.84375 63.234375 
Q 18.3125 60.0625 18.3125 54.390625 
z
" id="DejaVuSans-56"/>
       </defs>
       <use xlink:href="#DejaVuSans-56"/>
      </g>
     </g>
    </g>
    <g id="xtick_6">
     <g id="line2d_11">
      <path clip-path="url(#p0781323a80)" d="M 705.210511 926.12 
L 705.210511 55.7 
" style="fill:none;stroke:#b0b0b0;stroke-linecap:square;stroke-opacity:0.6;stroke-width:2;"/>
     </g>
     <g id="line2d_12">
      <g>
       <use style="stroke:#000000;stroke-width:2.5;" x="705.210511" xlink:href="#m741dd0e5af" y="926.12"/>
      </g>
     </g>
     <g id="text_6">
      <!-- 10 -->
      <g transform="translate(679.760511 972.01375)scale(0.4 -0.4)">
       <defs>
        <path d="M 12.40625 8.296875 
L 28.515625 8.296875 
L 28.515625 63.921875 
L 10.984375 60.40625 
L 10.984375 69.390625 
L 28.421875 72.90625 
L 38.28125 72.90625 
L 38.28125 8.296875 
L 54.390625 8.296875 
L 54.390625 0 
L 12.40625 0 
z
" id="DejaVuSans-49"/>
       </defs>
       <use xlink:href="#DejaVuSans-49"/>
       <use x="63.623047" xlink:href="#DejaVuSans-48"/>
      </g>
     </g>
    </g>
    <g id="xtick_7">
     <g id="line2d_13">
      <path clip-path="url(#p0781323a80)" d="M 800.213384 926.12 
L 800.213384 55.7 
" style="fill:none;stroke:#b0b0b0;stroke-linecap:square;stroke-opacity:0.6;stroke-width:2;"/>
     </g>
     <g id="line2d_14">
      <g>
       <use style="stroke:#000000;stroke-width:2.5;" x="800.213384" xlink:href="#m741dd0e5af" y="926.12"/>
      </g>
     </g>
     <g id="text_7">
      <!-- 12 -->
      <g transform="translate(774.763384 972.01375)scale(0.4 -0.4)">
       <use xlink:href="#DejaVuSans-49"/>
       <use x="63.623047" xlink:href="#DejaVuSans-50"/>
      </g>
     </g>
    </g>
    <g id="xtick_8">
     <g id="line2d_15">
      <path clip-path="url(#p0781323a80)" d="M 895.216258 926.12 
L 895.216258 55.7 
" style="fill:none;stroke:#b0b0b0;stroke-linecap:square;stroke-opacity:0.6;stroke-width:2;"/>
     </g>
     <g id="line2d_16">
      <g>
       <use style="stroke:#000000;stroke-width:2.5;" x="895.216258" xlink:href="#m741dd0e5af" y="926.12"/>
      </g>
     </g>
     <g id="text_8">
      <!-- 14 -->
      <g transform="translate(869.766258 972.01375)scale(0.4 -0.4)">
       <use xlink:href="#DejaVuSans-49"/>
       <use x="63.623047" xlink:href="#DejaVuSans-52"/>
      </g>
     </g>
    </g>
    <g id="xtick_9">
     <g id="line2d_17">
      <path clip-path="url(#p0781323a80)" d="M 990.219131 926.12 
L 990.219131 55.7 
" style="fill:none;stroke:#b0b0b0;stroke-linecap:square;stroke-opacity:0.6;stroke-width:2;"/>
     </g>
     <g id="line2d_18">
      <g>
       <use style="stroke:#000000;stroke-width:2.5;" x="990.219131" xlink:href="#m741dd0e5af" y="926.12"/>
      </g>
     </g>
     <g id="text_9">
      <!-- 16 -->
      <g transform="translate(964.769131 972.01375)scale(0.4 -0.4)">
       <use xlink:href="#DejaVuSans-49"/>
       <use x="63.623047" xlink:href="#DejaVuSans-54"/>
      </g>
     </g>
    </g>
    <g id="xtick_10">
     <g id="line2d_19">
      <path clip-path="url(#p0781323a80)" d="M 1085.222005 926.12 
L 1085.222005 55.7 
" style="fill:none;stroke:#b0b0b0;stroke-linecap:square;stroke-opacity:0.6;stroke-width:2;"/>
     </g>
     <g id="line2d_20">
      <g>
       <use style="stroke:#000000;stroke-width:2.5;" x="1085.222005" xlink:href="#m741dd0e5af" y="926.12"/>
      </g>
     </g>
     <g id="text_10">
      <!-- 18 -->
      <g transform="translate(1059.772005 972.01375)scale(0.4 -0.4)">
       <use xlink:href="#DejaVuSans-49"/>
       <use x="63.623047" xlink:href="#DejaVuSans-56"/>
      </g>
     </g>
    </g>
    <g id="xtick_11">
     <g id="line2d_21">
      <path clip-path="url(#p0781323a80)" d="M 1180.224878 926.12 
L 1180.224878 55.7 
" style="fill:none;stroke:#b0b0b0;stroke-linecap:square;stroke-opacity:0.6;stroke-width:2;"/>
     </g>
     <g id="line2d_22">
      <g>
       <use style="stroke:#000000;stroke-width:2.5;" x="1180.224878" xlink:href="#m741dd0e5af" y="926.12"/>
      </g>
     </g>
     <g id="text_11">
      <!-- 20 -->
      <g transform="translate(1154.774878 972.01375)scale(0.4 -0.4)">
       <use xlink:href="#DejaVuSans-50"/>
       <use x="63.623047" xlink:href="#DejaVuSans-48"/>
      </g>
     </g>
    </g>
    <g id="xtick_12">
     <g id="line2d_23">
      <path clip-path="url(#p0781323a80)" d="M 1275.227752 926.12 
L 1275.227752 55.7 
" style="fill:none;stroke:#b0b0b0;stroke-linecap:square;stroke-opacity:0.6;stroke-width:2;"/>
     </g>
     <g id="line2d_24">
      <g>
       <use style="stroke:#000000;stroke-width:2.5;" x="1275.227752" xlink:href="#m741dd0e5af" y="926.12"/>
      </g>
     </g>
     <g id="text_12">
      <!-- 22 -->
      <g transform="translate(1249.777752 972.01375)scale(0.4 -0.4)">
       <use xlink:href="#DejaVuSans-50"/>
       <use x="63.623047" xlink:href="#DejaVuSans-50"/>
      </g>
     </g>
    </g>
    <g id="xtick_13">
     <g id="line2d_25">
      <path clip-path="url(#p0781323a80)" d="M 1370.230625 926.12 
L 1370.230625 55.7 
" style="fill:none;stroke:#b0b0b0;stroke-linecap:square;stroke-opacity:0.6;stroke-width:2;"/>
     </g>
     <g id="line2d_26">
      <g>
       <use style="stroke:#000000;stroke-width:2.5;" x="1370.230625" xlink:href="#m741dd0e5af" y="926.12"/>
      </g>
     </g>
     <g id="text_13">
      <!-- 24 -->
      <g transform="translate(1344.780625 972.01375)scale(0.4 -0.4)">
       <use xlink:href="#DejaVuSans-50"/>
       <use x="63.623047" xlink:href="#DejaVuSans-52"/>
      </g>
     </g>
    </g>
    <g id="text_14">
     <!-- Time (in sec) -->
     <g transform="translate(612.052813 1022.324687)scale(0.5 -0.5)">
      <defs>
       <path d="M -0.296875 72.90625 
L 61.375 72.90625 
L 61.375 64.59375 
L 35.5 64.59375 
L 35.5 0 
L 25.59375 0 
L 25.59375 64.59375 
L -0.296875 64.59375 
z
" id="DejaVuSans-84"/>
       <path d="M 9.421875 54.6875 
L 18.40625 54.6875 
L 18.40625 0 
L 9.421875 0 
z
M 9.421875 75.984375 
L 18.40625 75.984375 
L 18.40625 64.59375 
L 9.421875 64.59375 
z
" id="DejaVuSans-105"/>
       <path d="M 52 44.1875 
Q 55.375 50.25 60.0625 53.125 
Q 64.75 56 71.09375 56 
Q 79.640625 56 84.28125 50.015625 
Q 88.921875 44.046875 88.921875 33.015625 
L 88.921875 0 
L 79.890625 0 
L 79.890625 32.71875 
Q 79.890625 40.578125 77.09375 44.375 
Q 74.3125 48.1875 68.609375 48.1875 
Q 61.625 48.1875 57.5625 43.546875 
Q 53.515625 38.921875 53.515625 30.90625 
L 53.515625 0 
L 44.484375 0 
L 44.484375 32.71875 
Q 44.484375 40.625 41.703125 44.40625 
Q 38.921875 48.1875 33.109375 48.1875 
Q 26.21875 48.1875 22.15625 43.53125 
Q 18.109375 38.875 18.109375 30.90625 
L 18.109375 0 
L 9.078125 0 
L 9.078125 54.6875 
L 18.109375 54.6875 
L 18.109375 46.1875 
Q 21.1875 51.21875 25.484375 53.609375 
Q 29.78125 56 35.6875 56 
Q 41.65625 56 45.828125 52.96875 
Q 50 49.953125 52 44.1875 
z
" id="DejaVuSans-109"/>
       <path d="M 56.203125 29.59375 
L 56.203125 25.203125 
L 14.890625 25.203125 
Q 15.484375 15.921875 20.484375 11.0625 
Q 25.484375 6.203125 34.421875 6.203125 
Q 39.59375 6.203125 44.453125 7.46875 
Q 49.3125 8.734375 54.109375 11.28125 
L 54.109375 2.78125 
Q 49.265625 0.734375 44.1875 -0.34375 
Q 39.109375 -1.421875 33.890625 -1.421875 
Q 20.796875 -1.421875 13.15625 6.1875 
Q 5.515625 13.8125 5.515625 26.8125 
Q 5.515625 40.234375 12.765625 48.109375 
Q 20.015625 56 32.328125 56 
Q 43.359375 56 49.78125 48.890625 
Q 56.203125 41.796875 56.203125 29.59375 
z
M 47.21875 32.234375 
Q 47.125 39.59375 43.09375 43.984375 
Q 39.0625 48.390625 32.421875 48.390625 
Q 24.90625 48.390625 20.390625 44.140625 
Q 15.875 39.890625 15.1875 32.171875 
z
" id="DejaVuSans-101"/>
       <path id="DejaVuSans-32"/>
       <path d="M 31 75.875 
Q 24.46875 64.65625 21.28125 53.65625 
Q 18.109375 42.671875 18.109375 31.390625 
Q 18.109375 20.125 21.3125 9.0625 
Q 24.515625 -2 31 -13.1875 
L 23.1875 -13.1875 
Q 15.875 -1.703125 12.234375 9.375 
Q 8.59375 20.453125 8.59375 31.390625 
Q 8.59375 42.28125 12.203125 53.3125 
Q 15.828125 64.359375 23.1875 75.875 
z
" id="DejaVuSans-40"/>
       <path d="M 54.890625 33.015625 
L 54.890625 0 
L 45.90625 0 
L 45.90625 32.71875 
Q 45.90625 40.484375 42.875 44.328125 
Q 39.84375 48.1875 33.796875 48.1875 
Q 26.515625 48.1875 22.3125 43.546875 
Q 18.109375 38.921875 18.109375 30.90625 
L 18.109375 0 
L 9.078125 0 
L 9.078125 54.6875 
L 18.109375 54.6875 
L 18.109375 46.1875 
Q 21.34375 51.125 25.703125 53.5625 
Q 30.078125 56 35.796875 56 
Q 45.21875 56 50.046875 50.171875 
Q 54.890625 44.34375 54.890625 33.015625 
z
" id="DejaVuSans-110"/>
       <path d="M 44.28125 53.078125 
L 44.28125 44.578125 
Q 40.484375 46.53125 36.375 47.5 
Q 32.28125 48.484375 27.875 48.484375 
Q 21.1875 48.484375 17.84375 46.4375 
Q 14.5 44.390625 14.5 40.28125 
Q 14.5 37.15625 16.890625 35.375 
Q 19.28125 33.59375 26.515625 31.984375 
L 29.59375 31.296875 
Q 39.15625 29.25 43.1875 25.515625 
Q 47.21875 21.78125 47.21875 15.09375 
Q 47.21875 7.46875 41.1875 3.015625 
Q 35.15625 -1.421875 24.609375 -1.421875 
Q 20.21875 -1.421875 15.453125 -0.5625 
Q 10.6875 0.296875 5.421875 2 
L 5.421875 11.28125 
Q 10.40625 8.6875 15.234375 7.390625 
Q 20.0625 6.109375 24.8125 6.109375 
Q 31.15625 6.109375 34.5625 8.28125 
Q 37.984375 10.453125 37.984375 14.40625 
Q 37.984375 18.0625 35.515625 20.015625 
Q 33.0625 21.96875 24.703125 23.78125 
L 21.578125 24.515625 
Q 13.234375 26.265625 9.515625 29.90625 
Q 5.8125 33.546875 5.8125 39.890625 
Q 5.8125 47.609375 11.28125 51.796875 
Q 16.75 56 26.8125 56 
Q 31.78125 56 36.171875 55.265625 
Q 40.578125 54.546875 44.28125 53.078125 
z
" id="DejaVuSans-115"/>
       <path d="M 48.78125 52.59375 
L 48.78125 44.1875 
Q 44.96875 46.296875 41.140625 47.34375 
Q 37.3125 48.390625 33.40625 48.390625 
Q 24.65625 48.390625 19.8125 42.84375 
Q 14.984375 37.3125 14.984375 27.296875 
Q 14.984375 17.28125 19.8125 11.734375 
Q 24.65625 6.203125 33.40625 6.203125 
Q 37.3125 6.203125 41.140625 7.25 
Q 44.96875 8.296875 48.78125 10.40625 
L 48.78125 2.09375 
Q 45.015625 0.34375 40.984375 -0.53125 
Q 36.96875 -1.421875 32.421875 -1.421875 
Q 20.0625 -1.421875 12.78125 6.34375 
Q 5.515625 14.109375 5.515625 27.296875 
Q 5.515625 40.671875 12.859375 48.328125 
Q 20.21875 56 33.015625 56 
Q 37.15625 56 41.109375 55.140625 
Q 45.0625 54.296875 48.78125 52.59375 
z
" id="DejaVuSans-99"/>
       <path d="M 8.015625 75.875 
L 15.828125 75.875 
Q 23.140625 64.359375 26.78125 53.3125 
Q 30.421875 42.28125 30.421875 31.390625 
Q 30.421875 20.453125 26.78125 9.375 
Q 23.140625 -1.703125 15.828125 -13.1875 
L 8.015625 -13.1875 
Q 14.5 -2 17.703125 9.0625 
Q 20.90625 20.125 20.90625 31.390625 
Q 20.90625 42.671875 17.703125 53.65625 
Q 14.5 64.65625 8.015625 75.875 
z
" id="DejaVuSans-41"/>
      </defs>
      <use xlink:href="#DejaVuSans-84"/>
      <use x="57.958984" xlink:href="#DejaVuSans-105"/>
      <use x="85.742188" xlink:href="#DejaVuSans-109"/>
      <use x="183.154297" xlink:href="#DejaVuSans-101"/>
      <use x="244.677734" xlink:href="#DejaVuSans-32"/>
      <use x="276.464844" xlink:href="#DejaVuSans-40"/>
      <use x="315.478516" xlink:href="#DejaVuSans-105"/>
      <use x="343.261719" xlink:href="#DejaVuSans-110"/>
      <use x="406.640625" xlink:href="#DejaVuSans-32"/>
      <use x="438.427734" xlink:href="#DejaVuSans-115"/>
      <use x="490.527344" xlink:href="#DejaVuSans-101"/>
      <use x="552.050781" xlink:href="#DejaVuSans-99"/>
      <use x="607.03125" xlink:href="#DejaVuSans-41"/>
     </g>
    </g>
   </g>
   <g id="matplotlib.axis_2">
    <g id="ytick_1">
     <g id="line2d_27">
      <path clip-path="url(#p0781323a80)" d="M 176.890625 926.12 
L 1370.230625 926.12 
" style="fill:none;stroke:#b0b0b0;stroke-linecap:square;stroke-opacity:0.6;stroke-width:2;"/>
     </g>
     <g id="line2d_28">
      <defs>
       <path d="M 0 0 
L -12 0 
" id="mf4d20dfcdf" style="stroke:#000000;stroke-width:2.5;"/>
      </defs>
      <g>
       <use style="stroke:#000000;stroke-width:2.5;" x="176.890625" xlink:href="#mf4d20dfcdf" y="926.12"/>
      </g>
     </g>
     <g id="text_15">
      <!-- 0 -->
      <g transform="translate(135.940625 941.316875)scale(0.4 -0.4)">
       <use xlink:href="#DejaVuSans-48"/>
      </g>
     </g>
    </g>
    <g id="ytick_2">
     <g id="line2d_29">
      <path clip-path="url(#p0781323a80)" d="M 176.890625 874.918824 
L 1370.230625 874.918824 
" style="fill:none;stroke:#b0b0b0;stroke-linecap:square;stroke-opacity:0.6;stroke-width:2;"/>
     </g>
     <g id="line2d_30">
      <g>
       <use style="stroke:#000000;stroke-width:2.5;" x="176.890625" xlink:href="#mf4d20dfcdf" y="874.918824"/>
      </g>
     </g>
     <g id="text_16">
      <!-- 100 -->
      <g transform="translate(85.040625 890.115699)scale(0.4 -0.4)">
       <use xlink:href="#DejaVuSans-49"/>
       <use x="63.623047" xlink:href="#DejaVuSans-48"/>
       <use x="127.246094" xlink:href="#DejaVuSans-48"/>
      </g>
     </g>
    </g>
    <g id="ytick_3">
     <g id="line2d_31">
      <path clip-path="url(#p0781323a80)" d="M 176.890625 823.717647 
L 1370.230625 823.717647 
" style="fill:none;stroke:#b0b0b0;stroke-linecap:square;stroke-opacity:0.6;stroke-width:2;"/>
     </g>
     <g id="line2d_32">
      <g>
       <use style="stroke:#000000;stroke-width:2.5;" x="176.890625" xlink:href="#mf4d20dfcdf" y="823.717647"/>
      </g>
     </g>
     <g id="text_17">
      <!-- 200 -->
      <g transform="translate(85.040625 838.914522)scale(0.4 -0.4)">
       <use xlink:href="#DejaVuSans-50"/>
       <use x="63.623047" xlink:href="#DejaVuSans-48"/>
       <use x="127.246094" xlink:href="#DejaVuSans-48"/>
      </g>
     </g>
    </g>
    <g id="ytick_4">
     <g id="line2d_33">
      <path clip-path="url(#p0781323a80)" d="M 176.890625 772.516471 
L 1370.230625 772.516471 
" style="fill:none;stroke:#b0b0b0;stroke-linecap:square;stroke-opacity:0.6;stroke-width:2;"/>
     </g>
     <g id="line2d_34">
      <g>
       <use style="stroke:#000000;stroke-width:2.5;" x="176.890625" xlink:href="#mf4d20dfcdf" y="772.516471"/>
      </g>
     </g>
     <g id="text_18">
      <!-- 300 -->
      <g transform="translate(85.040625 787.713346)scale(0.4 -0.4)">
       <defs>
        <path d="M 40.578125 39.3125 
Q 47.65625 37.796875 51.625 33 
Q 55.609375 28.21875 55.609375 21.1875 
Q 55.609375 10.40625 48.1875 4.484375 
Q 40.765625 -1.421875 27.09375 -1.421875 
Q 22.515625 -1.421875 17.65625 -0.515625 
Q 12.796875 0.390625 7.625 2.203125 
L 7.625 11.71875 
Q 11.71875 9.328125 16.59375 8.109375 
Q 21.484375 6.890625 26.8125 6.890625 
Q 36.078125 6.890625 40.9375 10.546875 
Q 45.796875 14.203125 45.796875 21.1875 
Q 45.796875 27.640625 41.28125 31.265625 
Q 36.765625 34.90625 28.71875 34.90625 
L 20.21875 34.90625 
L 20.21875 43.015625 
L 29.109375 43.015625 
Q 36.375 43.015625 40.234375 45.921875 
Q 44.09375 48.828125 44.09375 54.296875 
Q 44.09375 59.90625 40.109375 62.90625 
Q 36.140625 65.921875 28.71875 65.921875 
Q 24.65625 65.921875 20.015625 65.03125 
Q 15.375 64.15625 9.8125 62.3125 
L 9.8125 71.09375 
Q 15.4375 72.65625 20.34375 73.4375 
Q 25.25 74.21875 29.59375 74.21875 
Q 40.828125 74.21875 47.359375 69.109375 
Q 53.90625 64.015625 53.90625 55.328125 
Q 53.90625 49.265625 50.4375 45.09375 
Q 46.96875 40.921875 40.578125 39.3125 
z
" id="DejaVuSans-51"/>
       </defs>
       <use xlink:href="#DejaVuSans-51"/>
       <use x="63.623047" xlink:href="#DejaVuSans-48"/>
       <use x="127.246094" xlink:href="#DejaVuSans-48"/>
      </g>
     </g>
    </g>
    <g id="ytick_5">
     <g id="line2d_35">
      <path clip-path="url(#p0781323a80)" d="M 176.890625 721.315294 
L 1370.230625 721.315294 
" style="fill:none;stroke:#b0b0b0;stroke-linecap:square;stroke-opacity:0.6;stroke-width:2;"/>
     </g>
     <g id="line2d_36">
      <g>
       <use style="stroke:#000000;stroke-width:2.5;" x="176.890625" xlink:href="#mf4d20dfcdf" y="721.315294"/>
      </g>
     </g>
     <g id="text_19">
      <!-- 400 -->
      <g transform="translate(85.040625 736.512169)scale(0.4 -0.4)">
       <use xlink:href="#DejaVuSans-52"/>
       <use x="63.623047" xlink:href="#DejaVuSans-48"/>
       <use x="127.246094" xlink:href="#DejaVuSans-48"/>
      </g>
     </g>
    </g>
    <g id="ytick_6">
     <g id="line2d_37">
      <path clip-path="url(#p0781323a80)" d="M 176.890625 670.114118 
L 1370.230625 670.114118 
" style="fill:none;stroke:#b0b0b0;stroke-linecap:square;stroke-opacity:0.6;stroke-width:2;"/>
     </g>
     <g id="line2d_38">
      <g>
       <use style="stroke:#000000;stroke-width:2.5;" x="176.890625" xlink:href="#mf4d20dfcdf" y="670.114118"/>
      </g>
     </g>
     <g id="text_20">
      <!-- 500 -->
      <g transform="translate(85.040625 685.310993)scale(0.4 -0.4)">
       <defs>
        <path d="M 10.796875 72.90625 
L 49.515625 72.90625 
L 49.515625 64.59375 
L 19.828125 64.59375 
L 19.828125 46.734375 
Q 21.96875 47.46875 24.109375 47.828125 
Q 26.265625 48.1875 28.421875 48.1875 
Q 40.625 48.1875 47.75 41.5 
Q 54.890625 34.8125 54.890625 23.390625 
Q 54.890625 11.625 47.5625 5.09375 
Q 40.234375 -1.421875 26.90625 -1.421875 
Q 22.3125 -1.421875 17.546875 -0.640625 
Q 12.796875 0.140625 7.71875 1.703125 
L 7.71875 11.625 
Q 12.109375 9.234375 16.796875 8.0625 
Q 21.484375 6.890625 26.703125 6.890625 
Q 35.15625 6.890625 40.078125 11.328125 
Q 45.015625 15.765625 45.015625 23.390625 
Q 45.015625 31 40.078125 35.4375 
Q 35.15625 39.890625 26.703125 39.890625 
Q 22.75 39.890625 18.8125 39.015625 
Q 14.890625 38.140625 10.796875 36.28125 
z
" id="DejaVuSans-53"/>
       </defs>
       <use xlink:href="#DejaVuSans-53"/>
       <use x="63.623047" xlink:href="#DejaVuSans-48"/>
       <use x="127.246094" xlink:href="#DejaVuSans-48"/>
      </g>
     </g>
    </g>
    <g id="ytick_7">
     <g id="line2d_39">
      <path clip-path="url(#p0781323a80)" d="M 176.890625 618.912941 
L 1370.230625 618.912941 
" style="fill:none;stroke:#b0b0b0;stroke-linecap:square;stroke-opacity:0.6;stroke-width:2;"/>
     </g>
     <g id="line2d_40">
      <g>
       <use style="stroke:#000000;stroke-width:2.5;" x="176.890625" xlink:href="#mf4d20dfcdf" y="618.912941"/>
      </g>
     </g>
     <g id="text_21">
      <!-- 600 -->
      <g transform="translate(85.040625 634.109816)scale(0.4 -0.4)">
       <use xlink:href="#DejaVuSans-54"/>
       <use x="63.623047" xlink:href="#DejaVuSans-48"/>
       <use x="127.246094" xlink:href="#DejaVuSans-48"/>
      </g>
     </g>
    </g>
    <g id="ytick_8">
     <g id="line2d_41">
      <path clip-path="url(#p0781323a80)" d="M 176.890625 567.711765 
L 1370.230625 567.711765 
" style="fill:none;stroke:#b0b0b0;stroke-linecap:square;stroke-opacity:0.6;stroke-width:2;"/>
     </g>
     <g id="line2d_42">
      <g>
       <use style="stroke:#000000;stroke-width:2.5;" x="176.890625" xlink:href="#mf4d20dfcdf" y="567.711765"/>
      </g>
     </g>
     <g id="text_22">
      <!-- 700 -->
      <g transform="translate(85.040625 582.90864)scale(0.4 -0.4)">
       <defs>
        <path d="M 8.203125 72.90625 
L 55.078125 72.90625 
L 55.078125 68.703125 
L 28.609375 0 
L 18.3125 0 
L 43.21875 64.59375 
L 8.203125 64.59375 
z
" id="DejaVuSans-55"/>
       </defs>
       <use xlink:href="#DejaVuSans-55"/>
       <use x="63.623047" xlink:href="#DejaVuSans-48"/>
       <use x="127.246094" xlink:href="#DejaVuSans-48"/>
      </g>
     </g>
    </g>
    <g id="ytick_9">
     <g id="line2d_43">
      <path clip-path="url(#p0781323a80)" d="M 176.890625 516.510588 
L 1370.230625 516.510588 
" style="fill:none;stroke:#b0b0b0;stroke-linecap:square;stroke-opacity:0.6;stroke-width:2;"/>
     </g>
     <g id="line2d_44">
      <g>
       <use style="stroke:#000000;stroke-width:2.5;" x="176.890625" xlink:href="#mf4d20dfcdf" y="516.510588"/>
      </g>
     </g>
     <g id="text_23">
      <!-- 800 -->
      <g transform="translate(85.040625 531.707463)scale(0.4 -0.4)">
       <use xlink:href="#DejaVuSans-56"/>
       <use x="63.623047" xlink:href="#DejaVuSans-48"/>
       <use x="127.246094" xlink:href="#DejaVuSans-48"/>
      </g>
     </g>
    </g>
    <g id="ytick_10">
     <g id="line2d_45">
      <path clip-path="url(#p0781323a80)" d="M 176.890625 465.309412 
L 1370.230625 465.309412 
" style="fill:none;stroke:#b0b0b0;stroke-linecap:square;stroke-opacity:0.6;stroke-width:2;"/>
     </g>
     <g id="line2d_46">
      <g>
       <use style="stroke:#000000;stroke-width:2.5;" x="176.890625" xlink:href="#mf4d20dfcdf" y="465.309412"/>
      </g>
     </g>
     <g id="text_24">
      <!-- 900 -->
      <g transform="translate(85.040625 480.506287)scale(0.4 -0.4)">
       <defs>
        <path d="M 10.984375 1.515625 
L 10.984375 10.5 
Q 14.703125 8.734375 18.5 7.8125 
Q 22.3125 6.890625 25.984375 6.890625 
Q 35.75 6.890625 40.890625 13.453125 
Q 46.046875 20.015625 46.78125 33.40625 
Q 43.953125 29.203125 39.59375 26.953125 
Q 35.25 24.703125 29.984375 24.703125 
Q 19.046875 24.703125 12.671875 31.3125 
Q 6.296875 37.9375 6.296875 49.421875 
Q 6.296875 60.640625 12.9375 67.421875 
Q 19.578125 74.21875 30.609375 74.21875 
Q 43.265625 74.21875 49.921875 64.515625 
Q 56.59375 54.828125 56.59375 36.375 
Q 56.59375 19.140625 48.40625 8.859375 
Q 40.234375 -1.421875 26.421875 -1.421875 
Q 22.703125 -1.421875 18.890625 -0.6875 
Q 15.09375 0.046875 10.984375 1.515625 
z
M 30.609375 32.421875 
Q 37.25 32.421875 41.125 36.953125 
Q 45.015625 41.5 45.015625 49.421875 
Q 45.015625 57.28125 41.125 61.84375 
Q 37.25 66.40625 30.609375 66.40625 
Q 23.96875 66.40625 20.09375 61.84375 
Q 16.21875 57.28125 16.21875 49.421875 
Q 16.21875 41.5 20.09375 36.953125 
Q 23.96875 32.421875 30.609375 32.421875 
z
" id="DejaVuSans-57"/>
       </defs>
       <use xlink:href="#DejaVuSans-57"/>
       <use x="63.623047" xlink:href="#DejaVuSans-48"/>
       <use x="127.246094" xlink:href="#DejaVuSans-48"/>
      </g>
     </g>
    </g>
    <g id="ytick_11">
     <g id="line2d_47">
      <path clip-path="url(#p0781323a80)" d="M 176.890625 414.108235 
L 1370.230625 414.108235 
" style="fill:none;stroke:#b0b0b0;stroke-linecap:square;stroke-opacity:0.6;stroke-width:2;"/>
     </g>
     <g id="line2d_48">
      <g>
       <use style="stroke:#000000;stroke-width:2.5;" x="176.890625" xlink:href="#mf4d20dfcdf" y="414.108235"/>
      </g>
     </g>
     <g id="text_25">
      <!-- 1000 -->
      <g transform="translate(59.590625 429.30511)scale(0.4 -0.4)">
       <use xlink:href="#DejaVuSans-49"/>
       <use x="63.623047" xlink:href="#DejaVuSans-48"/>
       <use x="127.246094" xlink:href="#DejaVuSans-48"/>
       <use x="190.869141" xlink:href="#DejaVuSans-48"/>
      </g>
     </g>
    </g>
    <g id="ytick_12">
     <g id="line2d_49">
      <path clip-path="url(#p0781323a80)" d="M 176.890625 362.907059 
L 1370.230625 362.907059 
" style="fill:none;stroke:#b0b0b0;stroke-linecap:square;stroke-opacity:0.6;stroke-width:2;"/>
     </g>
     <g id="line2d_50">
      <g>
       <use style="stroke:#000000;stroke-width:2.5;" x="176.890625" xlink:href="#mf4d20dfcdf" y="362.907059"/>
      </g>
     </g>
     <g id="text_26">
      <!-- 1100 -->
      <g transform="translate(59.590625 378.103934)scale(0.4 -0.4)">
       <use xlink:href="#DejaVuSans-49"/>
       <use x="63.623047" xlink:href="#DejaVuSans-49"/>
       <use x="127.246094" xlink:href="#DejaVuSans-48"/>
       <use x="190.869141" xlink:href="#DejaVuSans-48"/>
      </g>
     </g>
    </g>
    <g id="ytick_13">
     <g id="line2d_51">
      <path clip-path="url(#p0781323a80)" d="M 176.890625 311.705882 
L 1370.230625 311.705882 
" style="fill:none;stroke:#b0b0b0;stroke-linecap:square;stroke-opacity:0.6;stroke-width:2;"/>
     </g>
     <g id="line2d_52">
      <g>
       <use style="stroke:#000000;stroke-width:2.5;" x="176.890625" xlink:href="#mf4d20dfcdf" y="311.705882"/>
      </g>
     </g>
     <g id="text_27">
      <!-- 1200 -->
      <g transform="translate(59.590625 326.902757)scale(0.4 -0.4)">
       <use xlink:href="#DejaVuSans-49"/>
       <use x="63.623047" xlink:href="#DejaVuSans-50"/>
       <use x="127.246094" xlink:href="#DejaVuSans-48"/>
       <use x="190.869141" xlink:href="#DejaVuSans-48"/>
      </g>
     </g>
    </g>
    <g id="ytick_14">
     <g id="line2d_53">
      <path clip-path="url(#p0781323a80)" d="M 176.890625 260.504706 
L 1370.230625 260.504706 
" style="fill:none;stroke:#b0b0b0;stroke-linecap:square;stroke-opacity:0.6;stroke-width:2;"/>
     </g>
     <g id="line2d_54">
      <g>
       <use style="stroke:#000000;stroke-width:2.5;" x="176.890625" xlink:href="#mf4d20dfcdf" y="260.504706"/>
      </g>
     </g>
     <g id="text_28">
      <!-- 1300 -->
      <g transform="translate(59.590625 275.701581)scale(0.4 -0.4)">
       <use xlink:href="#DejaVuSans-49"/>
       <use x="63.623047" xlink:href="#DejaVuSans-51"/>
       <use x="127.246094" xlink:href="#DejaVuSans-48"/>
       <use x="190.869141" xlink:href="#DejaVuSans-48"/>
      </g>
     </g>
    </g>
    <g id="ytick_15">
     <g id="line2d_55">
      <path clip-path="url(#p0781323a80)" d="M 176.890625 209.303529 
L 1370.230625 209.303529 
" style="fill:none;stroke:#b0b0b0;stroke-linecap:square;stroke-opacity:0.6;stroke-width:2;"/>
     </g>
     <g id="line2d_56">
      <g>
       <use style="stroke:#000000;stroke-width:2.5;" x="176.890625" xlink:href="#mf4d20dfcdf" y="209.303529"/>
      </g>
     </g>
     <g id="text_29">
      <!-- 1400 -->
      <g transform="translate(59.590625 224.500404)scale(0.4 -0.4)">
       <use xlink:href="#DejaVuSans-49"/>
       <use x="63.623047" xlink:href="#DejaVuSans-52"/>
       <use x="127.246094" xlink:href="#DejaVuSans-48"/>
       <use x="190.869141" xlink:href="#DejaVuSans-48"/>
      </g>
     </g>
    </g>
    <g id="ytick_16">
     <g id="line2d_57">
      <path clip-path="url(#p0781323a80)" d="M 176.890625 158.102353 
L 1370.230625 158.102353 
" style="fill:none;stroke:#b0b0b0;stroke-linecap:square;stroke-opacity:0.6;stroke-width:2;"/>
     </g>
     <g id="line2d_58">
      <g>
       <use style="stroke:#000000;stroke-width:2.5;" x="176.890625" xlink:href="#mf4d20dfcdf" y="158.102353"/>
      </g>
     </g>
     <g id="text_30">
      <!-- 1500 -->
      <g transform="translate(59.590625 173.299228)scale(0.4 -0.4)">
       <use xlink:href="#DejaVuSans-49"/>
       <use x="63.623047" xlink:href="#DejaVuSans-53"/>
       <use x="127.246094" xlink:href="#DejaVuSans-48"/>
       <use x="190.869141" xlink:href="#DejaVuSans-48"/>
      </g>
     </g>
    </g>
    <g id="ytick_17">
     <g id="line2d_59">
      <path clip-path="url(#p0781323a80)" d="M 176.890625 106.901176 
L 1370.230625 106.901176 
" style="fill:none;stroke:#b0b0b0;stroke-linecap:square;stroke-opacity:0.6;stroke-width:2;"/>
     </g>
     <g id="line2d_60">
      <g>
       <use style="stroke:#000000;stroke-width:2.5;" x="176.890625" xlink:href="#mf4d20dfcdf" y="106.901176"/>
      </g>
     </g>
     <g id="text_31">
      <!-- 1600 -->
      <g transform="translate(59.590625 122.098051)scale(0.4 -0.4)">
       <use xlink:href="#DejaVuSans-49"/>
       <use x="63.623047" xlink:href="#DejaVuSans-54"/>
       <use x="127.246094" xlink:href="#DejaVuSans-48"/>
       <use x="190.869141" xlink:href="#DejaVuSans-48"/>
      </g>
     </g>
    </g>
    <g id="text_32">
     <!-- Largest cluster size -->
     <g transform="translate(45.192188 733.460781)rotate(-90)scale(0.5 -0.5)">
      <defs>
       <path d="M 9.8125 72.90625 
L 19.671875 72.90625 
L 19.671875 8.296875 
L 55.171875 8.296875 
L 55.171875 0 
L 9.8125 0 
z
" id="DejaVuSans-76"/>
       <path d="M 34.28125 27.484375 
Q 23.390625 27.484375 19.1875 25 
Q 14.984375 22.515625 14.984375 16.5 
Q 14.984375 11.71875 18.140625 8.90625 
Q 21.296875 6.109375 26.703125 6.109375 
Q 34.1875 6.109375 38.703125 11.40625 
Q 43.21875 16.703125 43.21875 25.484375 
L 43.21875 27.484375 
z
M 52.203125 31.203125 
L 52.203125 0 
L 43.21875 0 
L 43.21875 8.296875 
Q 40.140625 3.328125 35.546875 0.953125 
Q 30.953125 -1.421875 24.3125 -1.421875 
Q 15.921875 -1.421875 10.953125 3.296875 
Q 6 8.015625 6 15.921875 
Q 6 25.140625 12.171875 29.828125 
Q 18.359375 34.515625 30.609375 34.515625 
L 43.21875 34.515625 
L 43.21875 35.40625 
Q 43.21875 41.609375 39.140625 45 
Q 35.0625 48.390625 27.6875 48.390625 
Q 23 48.390625 18.546875 47.265625 
Q 14.109375 46.140625 10.015625 43.890625 
L 10.015625 52.203125 
Q 14.9375 54.109375 19.578125 55.046875 
Q 24.21875 56 28.609375 56 
Q 40.484375 56 46.34375 49.84375 
Q 52.203125 43.703125 52.203125 31.203125 
z
" id="DejaVuSans-97"/>
       <path d="M 41.109375 46.296875 
Q 39.59375 47.171875 37.8125 47.578125 
Q 36.03125 48 33.890625 48 
Q 26.265625 48 22.1875 43.046875 
Q 18.109375 38.09375 18.109375 28.8125 
L 18.109375 0 
L 9.078125 0 
L 9.078125 54.6875 
L 18.109375 54.6875 
L 18.109375 46.1875 
Q 20.953125 51.171875 25.484375 53.578125 
Q 30.03125 56 36.53125 56 
Q 37.453125 56 38.578125 55.875 
Q 39.703125 55.765625 41.0625 55.515625 
z
" id="DejaVuSans-114"/>
       <path d="M 45.40625 27.984375 
Q 45.40625 37.75 41.375 43.109375 
Q 37.359375 48.484375 30.078125 48.484375 
Q 22.859375 48.484375 18.828125 43.109375 
Q 14.796875 37.75 14.796875 27.984375 
Q 14.796875 18.265625 18.828125 12.890625 
Q 22.859375 7.515625 30.078125 7.515625 
Q 37.359375 7.515625 41.375 12.890625 
Q 45.40625 18.265625 45.40625 27.984375 
z
M 54.390625 6.78125 
Q 54.390625 -7.171875 48.1875 -13.984375 
Q 42 -20.796875 29.203125 -20.796875 
Q 24.46875 -20.796875 20.265625 -20.09375 
Q 16.0625 -19.390625 12.109375 -17.921875 
L 12.109375 -9.1875 
Q 16.0625 -11.328125 19.921875 -12.34375 
Q 23.78125 -13.375 27.78125 -13.375 
Q 36.625 -13.375 41.015625 -8.765625 
Q 45.40625 -4.15625 45.40625 5.171875 
L 45.40625 9.625 
Q 42.625 4.78125 38.28125 2.390625 
Q 33.9375 0 27.875 0 
Q 17.828125 0 11.671875 7.65625 
Q 5.515625 15.328125 5.515625 27.984375 
Q 5.515625 40.671875 11.671875 48.328125 
Q 17.828125 56 27.875 56 
Q 33.9375 56 38.28125 53.609375 
Q 42.625 51.21875 45.40625 46.390625 
L 45.40625 54.6875 
L 54.390625 54.6875 
z
" id="DejaVuSans-103"/>
       <path d="M 18.3125 70.21875 
L 18.3125 54.6875 
L 36.8125 54.6875 
L 36.8125 47.703125 
L 18.3125 47.703125 
L 18.3125 18.015625 
Q 18.3125 11.328125 20.140625 9.421875 
Q 21.96875 7.515625 27.59375 7.515625 
L 36.8125 7.515625 
L 36.8125 0 
L 27.59375 0 
Q 17.1875 0 13.234375 3.875 
Q 9.28125 7.765625 9.28125 18.015625 
L 9.28125 47.703125 
L 2.6875 47.703125 
L 2.6875 54.6875 
L 9.28125 54.6875 
L 9.28125 70.21875 
z
" id="DejaVuSans-116"/>
       <path d="M 9.421875 75.984375 
L 18.40625 75.984375 
L 18.40625 0 
L 9.421875 0 
z
" id="DejaVuSans-108"/>
       <path d="M 8.5 21.578125 
L 8.5 54.6875 
L 17.484375 54.6875 
L 17.484375 21.921875 
Q 17.484375 14.15625 20.5 10.265625 
Q 23.53125 6.390625 29.59375 6.390625 
Q 36.859375 6.390625 41.078125 11.03125 
Q 45.3125 15.671875 45.3125 23.6875 
L 45.3125 54.6875 
L 54.296875 54.6875 
L 54.296875 0 
L 45.3125 0 
L 45.3125 8.40625 
Q 42.046875 3.421875 37.71875 1 
Q 33.40625 -1.421875 27.6875 -1.421875 
Q 18.265625 -1.421875 13.375 4.4375 
Q 8.5 10.296875 8.5 21.578125 
z
M 31.109375 56 
z
" id="DejaVuSans-117"/>
       <path d="M 5.515625 54.6875 
L 48.1875 54.6875 
L 48.1875 46.484375 
L 14.40625 7.171875 
L 48.1875 7.171875 
L 48.1875 0 
L 4.296875 0 
L 4.296875 8.203125 
L 38.09375 47.515625 
L 5.515625 47.515625 
z
" id="DejaVuSans-122"/>
      </defs>
      <use xlink:href="#DejaVuSans-76"/>
      <use x="55.712891" xlink:href="#DejaVuSans-97"/>
      <use x="116.992188" xlink:href="#DejaVuSans-114"/>
      <use x="156.355469" xlink:href="#DejaVuSans-103"/>
      <use x="219.832031" xlink:href="#DejaVuSans-101"/>
      <use x="281.355469" xlink:href="#DejaVuSans-115"/>
      <use x="333.455078" xlink:href="#DejaVuSans-116"/>
      <use x="372.664062" xlink:href="#DejaVuSans-32"/>
      <use x="404.451172" xlink:href="#DejaVuSans-99"/>
      <use x="459.431641" xlink:href="#DejaVuSans-108"/>
      <use x="487.214844" xlink:href="#DejaVuSans-117"/>
      <use x="550.59375" xlink:href="#DejaVuSans-115"/>
      <use x="602.693359" xlink:href="#DejaVuSans-116"/>
      <use x="641.902344" xlink:href="#DejaVuSans-101"/>
      <use x="703.425781" xlink:href="#DejaVuSans-114"/>
      <use x="744.539062" xlink:href="#DejaVuSans-32"/>
      <use x="776.326172" xlink:href="#DejaVuSans-115"/>
      <use x="828.425781" xlink:href="#DejaVuSans-105"/>
      <use x="856.208984" xlink:href="#DejaVuSans-122"/>
      <use x="908.699219" xlink:href="#DejaVuSans-101"/>
     </g>
    </g>
   </g>
   <g id="line2d_61">
    <path clip-path="url(#p0781323a80)" d="M 230.285209 926.12 
L 230.730535 924.583965 
L 231.175861 922.535918 
L 231.621187 922.023906 
L 232.066513 920.999882 
L 232.511839 920.999882 
L 232.957165 919.975859 
L 233.402491 919.975859 
L 233.847816 919.463847 
L 234.293142 917.4158 
L 235.183794 916.391776 
L 235.62912 914.343729 
L 236.074446 914.343729 
L 236.519772 907.175565 
L 236.965098 906.663553 
L 237.410424 906.663553 
L 237.85575 902.567459 
L 240.973032 902.567459 
L 241.418358 895.911306 
L 243.644988 895.911306 
L 244.090314 895.399294 
L 245.426292 895.399294 
L 245.871618 877.990894 
L 246.316944 877.990894 
L 246.76227 874.918824 
L 247.207596 874.918824 
L 247.652922 870.310718 
L 254.778137 870.310718 
L 255.223463 869.798706 
L 255.668789 869.798706 
L 256.114115 869.286694 
L 257.004767 869.286694 
L 257.450093 865.702612 
L 260.122049 865.702612 
L 260.567375 860.582494 
L 273.927154 860.582494 
L 274.37248 860.070482 
L 286.396281 860.070482 
L 286.841607 844.710129 
L 294.412148 844.710129 
L 294.857474 834.469894 
L 298.420082 834.469894 
L 298.865408 824.741671 
L 302.873342 824.741671 
L 303.318668 764.324282 
L 303.763994 759.716176 
L 308.217253 759.716176 
L 308.662579 757.668129 
L 314.006491 757.668129 
L 314.451817 751.523988 
L 315.787795 751.523988 
L 316.233121 747.427894 
L 337.163441 747.427894 
L 337.608767 747.939906 
L 357.20311 747.939906 
L 357.648436 611.744776 
L 358.539088 611.744776 
L 359.42974 610.720753 
L 367.445607 610.720753 
L 367.890933 610.208741 
L 386.594624 610.208741 
L 387.03995 598.432471 
L 423.91294 598.432471 
L 424.358266 598.944482 
L 434.600763 598.944482 
L 435.046089 549.279341 
L 463.101625 549.279341 
L 463.546951 491.934024 
L 551.276167 491.934024 
L 551.721493 491.422012 
L 573.987792 491.422012 
L 574.433118 491.934024 
L 574.878444 491.422012 
L 652.276097 491.422012 
L 652.721423 490.91 
L 677.659678 490.91 
L 678.105003 491.422012 
L 751.583788 491.422012 
L 752.029114 491.934024 
L 764.052916 491.934024 
L 764.409176 492.446035 
L 786.230149 492.446035 
L 786.675475 492.958047 
L 790.683409 492.958047 
L 791.128734 492.446035 
L 824.973508 492.446035 
L 825.418834 492.958047 
L 839.223939 492.958047 
L 839.669265 130.965729 
L 874.850017 130.965729 
L 875.295343 130.453718 
L 922.945221 130.453718 
L 923.390547 129.941706 
L 934.078371 129.941706 
L 934.523697 130.453718 
L 936.750326 130.453718 
L 937.195652 129.941706 
L 954.028974 129.941706 
L 954.4743 130.453718 
L 957.146256 130.453718 
L 957.591582 129.941706 
L 961.15419 129.941706 
L 961.599516 130.453718 
L 976.295273 130.453718 
L 976.740599 130.965729 
L 998.116245 130.965729 
L 998.561571 130.453718 
L 1000.788201 130.453718 
L 1001.233527 129.941706 
L 1021.718521 129.941706 
L 1022.163847 129.429694 
L 1024.835803 129.429694 
L 1025.281129 128.917682 
L 1050.664709 128.917682 
L 1051.110035 129.429694 
L 1051.555361 129.429694 
L 1052.000687 128.405671 
L 1082.728179 128.405671 
L 1083.173505 127.893659 
L 1134.742252 127.893659 
L 1135.187578 128.405671 
L 1163.243114 128.405671 
L 1163.68844 127.893659 
L 1177.493545 127.893659 
L 1177.938871 128.405671 
L 1201.541148 128.405671 
L 1201.986474 128.917682 
L 1217.572883 128.917682 
L 1218.018209 129.429694 
L 1218.463535 128.917682 
L 1245.183093 128.917682 
L 1245.628419 129.429694 
L 1247.409723 129.429694 
L 1247.855049 128.917682 
L 1268.785369 128.917682 
L 1269.230695 129.429694 
L 1271.011999 129.429694 
L 1271.457325 128.917682 
L 1277.246563 128.917682 
L 1277.691889 129.429694 
L 1292.387646 129.429694 
L 1292.832972 129.941706 
L 1298.176883 129.941706 
L 1298.176883 129.941706 
" style="fill:none;stroke:#1f77b4;stroke-linecap:square;stroke-width:3;"/>
   </g>
   <g id="line2d_62">
    <path clip-path="url(#p0781323a80)" d="M 230.285209 926.12 
L 230.730535 924.071953 
L 231.175861 923.559941 
L 231.621187 922.535918 
L 232.066513 922.023906 
L 232.511839 920.999882 
L 232.957165 920.487871 
L 233.402491 920.487871 
L 233.847816 919.463847 
L 234.293142 916.903788 
L 235.183794 913.831718 
L 235.62912 913.831718 
L 236.074446 912.807694 
L 236.965098 911.783671 
L 237.410424 909.735624 
L 238.746402 909.735624 
L 239.637054 908.7116 
L 240.08238 901.543435 
L 240.527706 901.543435 
L 240.973032 898.983376 
L 243.644988 898.983376 
L 244.090314 887.719118 
L 244.53564 887.719118 
L 244.980966 887.207106 
L 245.426292 887.207106 
L 245.871618 882.086988 
L 246.76227 882.086988 
L 247.207596 881.574976 
L 247.652922 881.574976 
L 248.098247 879.526929 
L 248.543573 875.942847 
L 249.879551 875.942847 
L 250.324877 872.358765 
L 251.660855 872.358765 
L 252.106181 863.654565 
L 258.786071 863.654565 
L 259.231397 860.582494 
L 262.794004 860.582494 
L 263.23933 851.366282 
L 265.46596 851.366282 
L 265.911286 844.198118 
L 270.809872 844.198118 
L 271.255198 841.126047 
L 276.59911 841.126047 
L 277.044436 840.614035 
L 279.716391 840.614035 
L 280.161717 805.285224 
L 281.497695 805.285224 
L 281.943021 804.773212 
L 297.974756 804.773212 
L 298.420082 804.2612 
L 303.318668 804.2612 
L 303.763994 804.773212 
L 311.779861 804.773212 
L 312.225187 804.2612 
L 312.670513 804.2612 
L 313.115839 765.860318 
L 314.451817 765.860318 
L 314.897143 766.372329 
L 329.147574 766.372329 
L 329.5929 765.860318 
L 335.382137 765.860318 
L 335.827463 765.348306 
L 342.507353 765.348306 
L 342.952679 764.836294 
L 378.578757 764.836294 
L 379.024082 638.8814 
L 394.610491 638.8814 
L 395.055817 636.321341 
L 408.326531 636.321341 
L 408.771857 543.647212 
L 419.014355 543.647212 
L 419.45968 478.109706 
L 422.576962 478.109706 
L 423.022288 458.141247 
L 426.584896 458.141247 
L 427.030222 457.629235 
L 429.256852 457.629235 
L 429.702178 458.141247 
L 431.483482 458.141247 
L 431.928808 457.629235 
L 433.264786 457.629235 
L 433.710112 458.141247 
L 459.093692 458.141247 
L 459.539018 341.402565 
L 468.445537 341.402565 
L 468.890863 341.914576 
L 476.906731 341.914576 
L 477.352057 341.402565 
L 493.829117 341.402565 
L 494.274443 340.890553 
L 505.407593 340.890553 
L 505.852919 285.593282 
L 574.878444 285.593282 
L 575.32377 285.081271 
L 628.673821 285.081271 
L 629.119147 284.569259 
L 636.689688 284.569259 
L 637.135014 284.057247 
L 648.268164 284.057247 
L 648.713489 284.569259 
L 695.918042 284.569259 
L 696.363368 285.081271 
L 696.808694 285.081271 
L 697.25402 284.569259 
L 710.168473 284.569259 
L 710.613799 284.057247 
L 714.176407 284.057247 
L 714.621733 284.569259 
L 739.559987 284.569259 
L 740.005313 284.057247 
L 794.691342 284.057247 
L 795.136668 283.545235 
L 828.536116 283.545235 
L 828.981442 228.247965 
L 841.895895 228.247965 
L 842.341221 228.759976 
L 845.903829 228.759976 
L 846.349155 229.271988 
L 861.044912 229.271988 
L 861.490238 229.784 
L 907.358812 229.784 
L 907.804138 230.296012 
L 908.249464 230.296012 
L 908.69479 229.784 
L 929.179785 229.784 
L 929.625111 230.296012 
L 1002.124179 230.296012 
L 1002.569505 229.784 
L 1008.804068 229.784 
L 1009.249394 229.271988 
L 1018.60124 229.271988 
L 1019.046566 229.784 
L 1034.187649 229.784 
L 1034.632975 230.296012 
L 1047.102102 230.296012 
L 1047.547428 229.784 
L 1057.789925 229.784 
L 1058.235251 230.296012 
L 1058.680577 229.784 
L 1095.197306 229.784 
L 1095.642632 230.296012 
L 1111.229041 230.296012 
L 1111.674367 129.941706 
L 1120.937147 129.941706 
L 1121.382473 129.429694 
L 1123.609103 129.429694 
L 1124.054429 128.917682 
L 1129.398341 128.917682 
L 1129.843667 128.405671 
L 1153.445943 128.405671 
L 1153.891269 127.893659 
L 1155.672573 127.893659 
L 1156.117899 128.405671 
L 1157.899203 128.405671 
L 1158.344529 128.917682 
L 1164.133766 128.917682 
L 1164.579092 129.429694 
L 1165.024418 129.429694 
L 1165.469744 129.941706 
L 1166.360396 129.941706 
L 1166.805722 129.429694 
L 1167.251048 129.941706 
L 1175.712242 129.941706 
L 1176.157568 129.429694 
L 1187.736043 129.429694 
L 1188.181369 128.917682 
L 1188.626695 128.917682 
L 1189.072021 129.429694 
L 1210.892993 129.429694 
L 1211.338319 128.917682 
L 1237.612551 128.917682 
L 1238.057877 128.405671 
L 1242.065811 128.405671 
L 1242.511137 127.893659 
L 1244.292441 127.893659 
L 1244.737767 128.405671 
L 1247.855049 128.405671 
L 1248.300375 128.917682 
L 1298.176883 128.917682 
L 1298.176883 128.917682 
" style="fill:none;stroke:#ff7f0e;stroke-linecap:square;stroke-width:3;"/>
   </g>
   <g id="line2d_63">
    <path clip-path="url(#p0781323a80)" d="M 230.285209 925.607988 
L 230.730535 924.071953 
L 231.175861 923.559941 
L 231.621187 921.511894 
L 232.511839 919.463847 
L 232.957165 919.463847 
L 233.847816 918.439824 
L 234.293142 911.783671 
L 234.738468 911.783671 
L 235.183794 911.271659 
L 235.62912 911.271659 
L 236.074446 910.759647 
L 236.519772 910.759647 
L 236.965098 909.735624 
L 237.410424 908.199588 
L 237.85575 904.103494 
L 238.301076 903.591482 
L 238.746402 900.0074 
L 239.191728 900.0074 
L 239.637054 899.495388 
L 241.863684 899.495388 
L 242.30901 897.959353 
L 242.754336 897.959353 
L 243.199662 895.911306 
L 244.090314 895.911306 
L 244.53564 888.743141 
L 244.980966 888.743141 
L 245.426292 877.990894 
L 245.871618 877.478882 
L 247.652922 877.478882 
L 248.098247 874.918824 
L 248.543573 868.774682 
L 249.879551 868.774682 
L 250.324877 868.262671 
L 254.332811 868.262671 
L 254.778137 840.614035 
L 255.223463 840.614035 
L 255.668789 840.102024 
L 256.114115 837.541965 
L 257.004767 837.541965 
L 257.450093 835.493918 
L 258.340745 835.493918 
L 258.786071 834.981906 
L 263.684656 834.981906 
L 264.129982 828.837765 
L 265.46596 828.837765 
L 265.911286 827.301729 
L 273.927154 827.301729 
L 274.37248 825.253682 
L 278.825739 825.253682 
L 279.271065 808.869306 
L 282.388347 808.869306 
L 282.833673 797.093035 
L 287.286933 797.093035 
L 287.732259 785.316765 
L 291.294867 785.316765 
L 291.740192 784.804753 
L 293.966822 784.804753 
L 294.412148 756.132094 
L 302.873342 756.132094 
L 303.318668 677.282282 
L 307.771927 677.282282 
L 308.217253 659.361871 
L 329.147574 659.361871 
L 329.5929 627.617141 
L 330.928878 627.617141 
L 331.374204 576.927976 
L 333.155508 576.927976 
L 333.600834 524.702776 
L 340.280723 524.702776 
L 340.726049 403.355988 
L 342.952679 403.355988 
L 343.398005 401.819953 
L 345.179309 401.819953 
L 345.624635 401.307941 
L 355.421806 401.307941 
L 355.867132 393.115753 
L 383.922668 393.115753 
L 384.367994 392.603741 
L 387.485276 392.603741 
L 387.930602 390.555694 
L 434.155437 390.555694 
L 434.600763 391.067706 
L 457.312388 391.067706 
L 457.757714 390.555694 
L 471.117493 390.555694 
L 471.562819 390.043682 
L 480.024012 390.043682 
L 480.469338 389.531671 
L 489.821184 389.531671 
L 490.26651 390.043682 
L 492.938465 390.043682 
L 493.383791 389.531671 
L 495.610421 389.531671 
L 496.055747 375.195341 
L 499.618355 375.195341 
L 500.063681 375.707353 
L 515.204764 375.707353 
L 515.65009 376.219365 
L 518.767372 376.219365 
L 519.212698 376.731376 
L 565.081272 376.731376 
L 565.526598 377.243388 
L 573.987792 377.243388 
L 574.433118 376.731376 
L 636.689688 376.731376 
L 637.135014 376.219365 
L 639.361644 376.219365 
L 639.80697 375.707353 
L 677.214352 375.707353 
L 677.659678 376.219365 
L 732.434772 376.219365 
L 732.880098 325.5302 
L 733.77075 325.5302 
L 734.216076 325.018188 
L 764.854502 325.018188 
L 765.299828 324.506176 
L 767.971784 324.506176 
L 768.41711 323.994165 
L 786.230149 323.994165 
L 786.675475 324.506176 
L 863.271542 324.506176 
L 863.716867 325.018188 
L 868.170127 325.018188 
L 868.615453 324.506176 
L 880.193928 324.506176 
L 880.639254 325.018188 
L 901.569575 325.018188 
L 902.014901 325.5302 
L 907.804138 325.5302 
L 908.249464 325.018188 
L 925.617177 325.018188 
L 926.062503 325.5302 
L 946.903759 325.5302 
L 947.349085 325.018188 
L 1019.046566 325.018188 
L 1019.491892 325.5302 
L 1027.953085 325.5302 
L 1028.398411 325.018188 
L 1043.094168 325.018188 
L 1043.539494 324.506176 
L 1043.98482 325.018188 
L 1047.992754 325.018188 
L 1048.883406 323.994165 
L 1089.853395 323.994165 
L 1090.298721 324.506176 
L 1105.88513 324.506176 
L 1106.330456 323.482153 
L 1115.682301 323.482153 
L 1116.127627 322.970141 
L 1117.018279 322.970141 
L 1117.463605 323.482153 
L 1119.244909 323.482153 
L 1119.690235 322.970141 
L 1141.867468 322.970141 
L 1142.312794 323.482153 
L 1145.430076 323.482153 
L 1145.875402 323.994165 
L 1151.664639 323.994165 
L 1152.109965 324.506176 
L 1158.344529 324.506176 
L 1158.789855 323.994165 
L 1172.149634 323.994165 
L 1172.59496 324.506176 
L 1173.040286 323.994165 
L 1183.282783 323.994165 
L 1183.728109 324.506176 
L 1184.173435 323.994165 
L 1185.954739 323.994165 
L 1186.400065 323.482153 
L 1197.533214 323.482153 
L 1197.97854 322.970141 
L 1228.706032 322.970141 
L 1229.151358 323.482153 
L 1243.847115 323.482153 
L 1244.292441 322.970141 
L 1281.254496 322.970141 
L 1281.699822 322.458129 
L 1298.176883 322.458129 
L 1298.176883 322.458129 
" style="fill:none;stroke:#2ca02c;stroke-linecap:square;stroke-width:3;"/>
   </g>
   <g id="line2d_64">
    <path clip-path="url(#p0781323a80)" d="M 230.285209 926.12 
L 230.730535 924.583965 
L 231.175861 923.559941 
L 231.621187 922.023906 
L 232.511839 922.023906 
L 232.957165 920.487871 
L 233.402491 919.463847 
L 233.847816 919.463847 
L 234.293142 917.4158 
L 234.738468 917.4158 
L 235.183794 916.391776 
L 235.62912 916.391776 
L 236.074446 915.879765 
L 236.519772 908.7116 
L 236.965098 908.7116 
L 237.410424 905.127518 
L 238.301076 904.103494 
L 238.746402 904.103494 
L 239.191728 902.567459 
L 240.08238 902.567459 
L 240.527706 901.543435 
L 240.973032 901.031424 
L 241.418358 899.495388 
L 242.30901 898.471365 
L 245.426292 898.471365 
L 245.871618 889.767165 
L 248.098247 889.767165 
L 248.543573 873.8948 
L 248.988899 873.8948 
L 249.434225 865.1906 
L 251.215529 865.1906 
L 251.660855 864.678588 
L 252.106181 862.630541 
L 253.442159 862.630541 
L 253.887485 862.118529 
L 257.004767 862.118529 
L 257.450093 843.174094 
L 259.231397 843.174094 
L 259.676723 842.662082 
L 260.567375 842.662082 
L 261.012701 842.150071 
L 270.364546 842.150071 
L 270.809872 817.061494 
L 271.255198 816.549482 
L 276.59911 816.549482 
L 277.044436 815.525459 
L 277.489761 815.013447 
L 287.732259 815.013447 
L 288.177585 804.773212 
L 289.068237 804.773212 
L 289.513563 802.725165 
L 291.294867 802.725165 
L 291.740192 802.213153 
L 313.561165 802.213153 
L 314.006491 800.677118 
L 315.787795 800.677118 
L 316.233121 797.093035 
L 318.014425 797.093035 
L 318.459751 796.581024 
L 320.241055 796.581024 
L 320.68638 796.069012 
L 325.13964 796.069012 
L 325.584966 795.557 
L 353.195176 795.557 
L 353.640502 781.732682 
L 367.000281 781.732682 
L 367.445607 707.490976 
L 372.344193 707.490976 
L 372.789519 706.978965 
L 379.469408 706.978965 
L 379.914734 707.490976 
L 390.157232 707.490976 
L 390.602558 617.376906 
L 391.938536 617.376906 
L 392.383862 617.888918 
L 398.618425 617.888918 
L 399.063751 617.376906 
L 400.845055 617.376906 
L 401.290381 616.864894 
L 435.936741 616.864894 
L 436.382067 617.376906 
L 455.085758 617.376906 
L 455.531084 616.864894 
L 464.437603 616.864894 
L 464.882929 617.376906 
L 492.938465 617.376906 
L 493.383791 616.864894 
L 525.447261 616.864894 
L 525.892587 617.376906 
L 538.80704 617.376906 
L 539.252366 616.864894 
L 562.409317 616.864894 
L 562.854643 616.352882 
L 575.769096 616.352882 
L 576.214422 615.840871 
L 582.003659 615.840871 
L 582.448985 535.455024 
L 590.375788 535.455024 
L 590.821113 535.967035 
L 596.610351 535.967035 
L 597.055677 535.455024 
L 620.657953 535.455024 
L 621.103279 534.943012 
L 646.932186 534.943012 
L 647.377512 535.455024 
L 667.862506 535.455024 
L 668.307832 535.967035 
L 706.16054 535.967035 
L 706.605866 536.479047 
L 722.6376 536.479047 
L 723.082926 535.967035 
L 740.895965 535.967035 
L 741.341291 507.806388 
L 749.357159 507.806388 
L 749.802485 508.3184 
L 771.089066 508.3184 
L 771.534392 508.830412 
L 808.496447 508.830412 
L 808.941773 508.3184 
L 816.066989 508.3184 
L 816.512315 508.830412 
L 827.200138 508.830412 
L 827.645464 508.3184 
L 858.372956 508.3184 
L 858.818282 508.830412 
L 871.287409 508.830412 
L 871.732735 508.3184 
L 917.155984 508.3184 
L 917.60131 507.806388 
L 928.734459 507.806388 
L 929.179785 508.3184 
L 1004.796135 508.3184 
L 1005.241461 508.830412 
L 1011.476024 508.830412 
L 1011.92135 509.342424 
L 1092.525351 509.342424 
L 1092.970676 509.854435 
L 1163.243114 509.854435 
L 1163.68844 509.342424 
L 1229.151358 509.342424 
L 1229.596684 509.854435 
L 1243.847115 509.854435 
L 1244.292441 510.366447 
L 1254.980264 510.366447 
L 1255.42559 509.854435 
L 1258.988198 509.854435 
L 1259.433524 509.342424 
L 1272.793303 509.342424 
L 1273.238629 509.854435 
L 1298.176883 509.854435 
L 1298.176883 509.854435 
" style="fill:none;stroke:#d62728;stroke-linecap:square;stroke-width:3;"/>
   </g>
   <g id="line2d_65">
    <path clip-path="url(#p0781323a80)" d="M 230.285209 926.12 
L 230.730535 924.071953 
L 231.175861 923.559941 
L 231.621187 922.535918 
L 232.066513 922.023906 
L 232.511839 920.999882 
L 232.957165 920.999882 
L 233.402491 918.951835 
L 233.847816 918.439824 
L 234.738468 918.439824 
L 235.62912 917.4158 
L 236.074446 913.319706 
L 237.410424 913.319706 
L 237.85575 911.271659 
L 238.301076 911.271659 
L 238.746402 910.759647 
L 239.191728 904.615506 
L 239.637054 903.591482 
L 240.08238 903.079471 
L 240.527706 903.079471 
L 240.973032 902.567459 
L 242.30901 902.567459 
L 242.754336 898.983376 
L 243.644988 898.983376 
L 244.090314 898.471365 
L 244.980966 898.471365 
L 245.426292 897.447341 
L 246.316944 897.447341 
L 246.76227 896.423318 
L 248.543573 896.423318 
L 248.988899 887.207106 
L 249.879551 887.207106 
L 250.324877 880.550953 
L 255.668789 880.550953 
L 256.114115 873.382788 
L 259.676723 873.382788 
L 260.122049 870.822729 
L 261.012701 870.822729 
L 261.458027 871.334741 
L 267.247264 871.334741 
L 267.69259 868.774682 
L 268.137916 855.462376 
L 271.255198 855.462376 
L 271.700524 854.950365 
L 275.263132 854.950365 
L 275.708458 847.270188 
L 276.59911 847.270188 
L 277.044436 840.102024 
L 280.161717 840.102024 
L 280.607043 808.357294 
L 281.052369 808.357294 
L 281.497695 806.821259 
L 302.428016 806.821259 
L 302.873342 798.117059 
L 310.889209 798.117059 
L 311.334535 796.069012 
L 314.451817 796.069012 
L 314.897143 735.651624 
L 333.155508 735.651624 
L 333.600834 707.490976 
L 340.280723 707.490976 
L 340.726049 541.599165 
L 353.640502 541.599165 
L 354.531154 540.575141 
L 366.109629 540.575141 
L 366.554955 522.142718 
L 376.352127 522.142718 
L 376.797453 521.630706 
L 377.688105 521.630706 
L 378.133431 521.118694 
L 427.030222 521.118694 
L 427.475548 406.940071 
L 434.155437 406.940071 
L 434.600763 407.452082 
L 436.382067 407.452082 
L 436.827393 407.964094 
L 440.835327 407.964094 
L 441.280653 398.235871 
L 455.97641 398.235871 
L 456.421736 397.723859 
L 456.867062 397.723859 
L 457.312388 397.211847 
L 482.250642 397.211847 
L 482.695968 397.723859 
L 484.031946 397.723859 
L 484.477272 397.211847 
L 521.439327 397.211847 
L 521.884653 320.922094 
L 547.71356 320.922094 
L 548.158886 320.410082 
L 554.393449 320.410082 
L 554.838775 319.898071 
L 574.878444 319.898071 
L 575.32377 320.922094 
L 579.777029 320.922094 
L 580.222355 321.434106 
L 620.212627 321.434106 
L 620.657953 320.922094 
L 654.057401 320.922094 
L 654.502727 320.410082 
L 662.518595 320.410082 
L 662.963921 320.922094 
L 693.691412 320.922094 
L 694.136738 321.434106 
L 711.059125 321.434106 
L 711.504451 321.946118 
L 726.200208 321.946118 
L 726.645534 322.458129 
L 773.761022 322.458129 
L 774.206348 321.946118 
L 784.448845 321.946118 
L 784.894171 322.458129 
L 788.902105 322.458129 
L 789.347431 321.946118 
L 789.792757 321.946118 
L 790.238083 321.434106 
L 792.910038 321.434106 
L 793.355364 321.946118 
L 793.80069 321.946118 
L 794.246016 321.434106 
L 808.941773 321.434106 
L 809.387099 238.4882 
L 811.168403 238.4882 
L 811.613729 128.405671 
L 816.512315 128.405671 
L 816.957641 127.893659 
L 820.074922 127.893659 
L 820.520248 128.405671 
L 854.810348 128.405671 
L 855.255674 128.917682 
L 862.826216 128.917682 
L 863.271542 128.405671 
L 881.529906 128.405671 
L 881.975232 128.917682 
L 891.327078 128.917682 
L 891.772404 129.429694 
L 898.897619 129.429694 
L 899.342945 128.917682 
L 904.686857 128.917682 
L 905.132183 129.429694 
L 905.577509 129.429694 
L 906.022835 129.941706 
L 908.249464 129.941706 
L 908.69479 130.453718 
L 927.843807 130.453718 
L 928.289133 130.965729 
L 950.466366 130.965729 
L 950.911692 131.477741 
L 953.138322 131.477741 
L 953.583648 130.965729 
L 954.4743 130.965729 
L 954.919626 130.453718 
L 997.670919 130.453718 
L 998.116245 130.965729 
L 1023.054499 130.965729 
L 1023.499825 130.453718 
L 1035.0783 130.453718 
L 1035.523626 129.941706 
L 1035.968952 129.941706 
L 1036.414278 129.429694 
L 1082.728179 129.429694 
L 1083.173505 129.941706 
L 1084.509483 129.941706 
L 1084.954809 129.429694 
L 1106.330456 129.429694 
L 1106.775782 128.917682 
L 1138.750186 128.917682 
L 1139.195512 129.429694 
L 1173.040286 129.429694 
L 1173.485612 128.917682 
L 1174.82159 128.917682 
L 1175.266916 129.429694 
L 1206.885059 129.429694 
L 1207.330385 129.941706 
L 1209.557015 129.941706 
L 1210.002341 130.453718 
L 1216.236905 130.453718 
L 1216.682231 130.965729 
L 1223.36212 130.965729 
L 1223.807446 130.453718 
L 1238.503203 130.453718 
L 1238.948529 129.941706 
L 1242.956463 129.941706 
L 1243.401789 129.429694 
L 1246.964397 129.429694 
L 1247.409723 129.941706 
L 1247.855049 129.941706 
L 1248.300375 129.429694 
L 1267.004065 129.429694 
L 1267.449391 129.941706 
L 1282.590474 129.941706 
L 1283.0358 130.453718 
L 1298.176883 130.453718 
L 1298.176883 130.453718 
" style="fill:none;stroke:#9467bd;stroke-linecap:square;stroke-width:3;"/>
   </g>
   <g id="patch_3">
    <path d="M 176.890625 926.12 
L 176.890625 55.7 
" style="fill:none;stroke:#000000;stroke-linecap:square;stroke-linejoin:miter;stroke-width:5;"/>
   </g>
   <g id="patch_4">
    <path d="M 1370.230625 926.12 
L 1370.230625 55.7 
" style="fill:none;stroke:#000000;stroke-linecap:square;stroke-linejoin:miter;stroke-width:5;"/>
   </g>
   <g id="patch_5">
    <path d="M 176.890625 926.12 
L 1370.230625 926.12 
" style="fill:none;stroke:#000000;stroke-linecap:square;stroke-linejoin:miter;stroke-width:5;"/>
   </g>
   <g id="patch_6">
    <path d="M 176.890625 55.7 
L 1370.230625 55.7 
" style="fill:none;stroke:#000000;stroke-linecap:square;stroke-linejoin:miter;stroke-width:5;"/>
   </g>
   <g id="text_33">
    <!-- $\phi_{ribosome} = $0.3 ; $T_{c} = $1.0 ; $\varepsilon = $17.0 -->
    <g transform="translate(359.810625 45.2)scale(0.5 -0.5)">
     <defs>
      <path d="M 46.734375 75.984375 
L 42.78125 55.8125 
Q 52.546875 55.8125 57.5625 48.34375 
Q 62.75 40.71875 60.15625 27.296875 
Q 57.515625 13.875 49.359375 6.25 
Q 41.453125 -1.21875 31.6875 -1.21875 
L 27.875 -20.796875 
L 18.953125 -20.796875 
L 22.75 -1.21875 
Q 13.03125 -1.21875 7.953125 6.25 
Q 2.78125 13.875 5.421875 27.296875 
Q 8.015625 40.71875 16.15625 48.34375 
Q 24.125 55.8125 33.84375 55.8125 
L 37.796875 75.984375 
z
M 33.25 6.78125 
Q 38.765625 6.78125 43.5 11.8125 
Q 48.6875 17.4375 50.6875 27.296875 
Q 52.640625 37.0625 49.515625 42.78125 
Q 46.734375 47.796875 41.21875 47.796875 
z
M 24.3125 6.78125 
L 32.28125 47.796875 
Q 26.8125 47.796875 22.078125 42.78125 
Q 16.75 37.0625 14.890625 27.296875 
Q 13.03125 17.4375 16.0625 11.8125 
Q 18.796875 6.78125 24.3125 6.78125 
z
" id="DejaVuSans-Oblique-981"/>
      <path d="M 44.578125 46.390625 
Q 43.21875 47.125 41.453125 47.515625 
Q 39.703125 47.90625 37.703125 47.90625 
Q 30.515625 47.90625 25.140625 42.453125 
Q 19.78125 37.015625 18.015625 27.875 
L 12.5 0 
L 3.515625 0 
L 14.203125 54.6875 
L 23.1875 54.6875 
L 21.484375 46.1875 
Q 25.046875 50.921875 30 53.453125 
Q 34.96875 56 40.578125 56 
Q 42.046875 56 43.453125 55.828125 
Q 44.875 55.671875 46.296875 55.28125 
z
" id="DejaVuSans-Oblique-114"/>
      <path d="M 18.3125 75.984375 
L 27.296875 75.984375 
L 25.09375 64.59375 
L 16.109375 64.59375 
z
M 14.203125 54.6875 
L 23.1875 54.6875 
L 12.5 0 
L 3.515625 0 
z
" id="DejaVuSans-Oblique-105"/>
      <path d="M 49.515625 33.40625 
Q 49.515625 40.484375 46.265625 44.484375 
Q 43.015625 48.484375 37.3125 48.484375 
Q 33.15625 48.484375 29.515625 46.453125 
Q 25.875 44.4375 23.1875 40.578125 
Q 20.359375 36.53125 18.71875 31.171875 
Q 17.09375 25.828125 17.09375 20.515625 
Q 17.09375 13.765625 20.28125 9.9375 
Q 23.484375 6.109375 29.109375 6.109375 
Q 33.34375 6.109375 36.953125 8.078125 
Q 40.578125 10.0625 43.3125 13.921875 
Q 46.09375 17.921875 47.796875 23.234375 
Q 49.515625 28.5625 49.515625 33.40625 
z
M 21.578125 46.390625 
Q 24.90625 50.875 29.90625 53.4375 
Q 34.90625 56 40.375 56 
Q 48.78125 56 53.734375 50.328125 
Q 58.6875 44.671875 58.6875 35.015625 
Q 58.6875 27.09375 55.78125 19.671875 
Q 52.875 12.25 47.515625 6.5 
Q 44 2.6875 39.40625 0.625 
Q 34.8125 -1.421875 29.78125 -1.421875 
Q 24.46875 -1.421875 20.5625 1.015625 
Q 16.65625 3.46875 14.203125 8.296875 
L 12.59375 0 
L 3.609375 0 
L 18.40625 75.984375 
L 27.390625 75.984375 
z
" id="DejaVuSans-Oblique-98"/>
      <path d="M 25.390625 -1.421875 
Q 15.765625 -1.421875 10.171875 4.515625 
Q 4.59375 10.453125 4.59375 20.703125 
Q 4.59375 26.65625 6.515625 32.828125 
Q 8.453125 39.015625 11.53125 43.21875 
Q 16.359375 49.75 22.3125 52.875 
Q 28.265625 56 35.796875 56 
Q 45.125 56 50.859375 50.1875 
Q 56.59375 44.390625 56.59375 35.015625 
Q 56.59375 28.515625 54.6875 22.0625 
Q 52.78125 15.625 49.703125 11.375 
Q 44.921875 4.828125 38.96875 1.703125 
Q 33.015625 -1.421875 25.390625 -1.421875 
z
M 13.921875 21 
Q 13.921875 13.578125 17.015625 9.890625 
Q 20.125 6.203125 26.421875 6.203125 
Q 35.453125 6.203125 41.375 14.078125 
Q 47.3125 21.96875 47.3125 34.078125 
Q 47.3125 41.15625 44.140625 44.765625 
Q 40.96875 48.390625 34.8125 48.390625 
Q 29.734375 48.390625 25.78125 46.015625 
Q 21.828125 43.65625 18.703125 38.8125 
Q 16.40625 35.203125 15.15625 30.5625 
Q 13.921875 25.921875 13.921875 21 
z
" id="DejaVuSans-Oblique-111"/>
      <path d="M 50 53.078125 
L 48.296875 44.578125 
Q 44.734375 46.53125 40.765625 47.5 
Q 36.8125 48.484375 32.625 48.484375 
Q 25.53125 48.484375 21.453125 46.0625 
Q 17.390625 43.65625 17.390625 39.5 
Q 17.390625 34.671875 26.859375 32.078125 
Q 27.59375 31.890625 27.9375 31.78125 
L 30.8125 30.90625 
Q 39.796875 28.421875 42.796875 25.6875 
Q 45.796875 22.953125 45.796875 18.21875 
Q 45.796875 9.515625 38.890625 4.046875 
Q 31.984375 -1.421875 20.796875 -1.421875 
Q 16.453125 -1.421875 11.671875 -0.578125 
Q 6.890625 0.25 1.125 2 
L 2.875 11.28125 
Q 7.8125 8.734375 12.59375 7.421875 
Q 17.390625 6.109375 21.78125 6.109375 
Q 28.375 6.109375 32.5 8.9375 
Q 36.625 11.765625 36.625 16.109375 
Q 36.625 20.796875 25.78125 23.6875 
L 24.859375 23.921875 
L 21.78125 24.703125 
Q 14.9375 26.515625 11.765625 29.46875 
Q 8.59375 32.421875 8.59375 37.015625 
Q 8.59375 45.75 15.15625 50.875 
Q 21.734375 56 33.015625 56 
Q 37.453125 56 41.671875 55.265625 
Q 45.90625 54.546875 50 53.078125 
z
" id="DejaVuSans-Oblique-115"/>
      <path d="M 89.796875 33.015625 
L 83.40625 0 
L 74.421875 0 
L 80.71875 32.71875 
Q 81.109375 34.8125 81.296875 36.328125 
Q 81.5 37.84375 81.5 38.921875 
Q 81.5 43.3125 79.046875 45.75 
Q 76.609375 48.1875 72.21875 48.1875 
Q 65.671875 48.1875 60.546875 43.28125 
Q 55.421875 38.375 53.90625 30.515625 
L 47.90625 0 
L 38.921875 0 
L 45.3125 32.71875 
Q 45.703125 34.515625 45.890625 36.046875 
Q 46.09375 37.59375 46.09375 38.8125 
Q 46.09375 43.265625 43.65625 45.71875 
Q 41.21875 48.1875 36.921875 48.1875 
Q 30.28125 48.1875 25.140625 43.28125 
Q 20.015625 38.375 18.5 30.515625 
L 12.5 0 
L 3.515625 0 
L 14.203125 54.6875 
L 23.1875 54.6875 
L 21.484375 46.1875 
Q 25.140625 50.984375 30.046875 53.484375 
Q 34.96875 56 40.578125 56 
Q 46.53125 56 50.359375 52.875 
Q 54.203125 49.75 54.984375 44.1875 
Q 59.078125 49.953125 64.46875 52.96875 
Q 69.875 56 75.875 56 
Q 82.90625 56 86.734375 51.953125 
Q 90.578125 47.90625 90.578125 40.484375 
Q 90.578125 38.875 90.375 36.9375 
Q 90.1875 35.015625 89.796875 33.015625 
z
" id="DejaVuSans-Oblique-109"/>
      <path d="M 48.09375 32.234375 
Q 48.25 33.015625 48.3125 33.84375 
Q 48.390625 34.671875 48.390625 35.5 
Q 48.390625 41.453125 44.890625 44.921875 
Q 41.40625 48.390625 35.40625 48.390625 
Q 28.71875 48.390625 23.578125 44.15625 
Q 18.453125 39.9375 15.828125 32.171875 
z
M 55.90625 25.203125 
L 14.109375 25.203125 
Q 13.8125 23.34375 13.71875 22.265625 
Q 13.625 21.1875 13.625 20.40625 
Q 13.625 13.625 17.796875 9.90625 
Q 21.96875 6.203125 29.59375 6.203125 
Q 35.453125 6.203125 40.671875 7.515625 
Q 45.90625 8.84375 50.390625 11.375 
L 48.6875 2.484375 
Q 43.84375 0.53125 38.6875 -0.4375 
Q 33.546875 -1.421875 28.21875 -1.421875 
Q 16.84375 -1.421875 10.71875 4.015625 
Q 4.59375 9.46875 4.59375 19.484375 
Q 4.59375 28.03125 7.640625 35.375 
Q 10.6875 42.71875 16.609375 48.484375 
Q 20.40625 52.09375 25.65625 54.046875 
Q 30.90625 56 36.8125 56 
Q 46.09375 56 51.578125 50.4375 
Q 57.078125 44.875 57.078125 35.5 
Q 57.078125 33.25 56.78125 30.6875 
Q 56.5 28.125 55.90625 25.203125 
z
" id="DejaVuSans-Oblique-101"/>
      <path d="M 10.59375 45.40625 
L 73.1875 45.40625 
L 73.1875 37.203125 
L 10.59375 37.203125 
z
M 10.59375 25.484375 
L 73.1875 25.484375 
L 73.1875 17.1875 
L 10.59375 17.1875 
z
" id="DejaVuSans-61"/>
      <path d="M 10.6875 12.40625 
L 21 12.40625 
L 21 0 
L 10.6875 0 
z
" id="DejaVuSans-46"/>
      <path d="M 11.71875 51.703125 
L 22.015625 51.703125 
L 22.015625 39.3125 
L 11.71875 39.3125 
z
M 11.71875 12.40625 
L 22.015625 12.40625 
L 22.015625 4 
L 14.015625 -11.625 
L 7.71875 -11.625 
L 11.71875 4 
z
" id="DejaVuSans-59"/>
      <path d="M 5.90625 72.90625 
L 67.578125 72.90625 
L 66.015625 64.59375 
L 39.984375 64.59375 
L 27.484375 0 
L 17.578125 0 
L 30.078125 64.59375 
L 4.296875 64.59375 
z
" id="DejaVuSans-Oblique-84"/>
      <path d="M 53.609375 52.59375 
L 51.8125 43.703125 
Q 48.578125 46.046875 44.9375 47.21875 
Q 41.3125 48.390625 37.40625 48.390625 
Q 33.109375 48.390625 29.21875 46.875 
Q 25.34375 45.359375 22.703125 42.578125 
Q 18.5 38.328125 16.203125 32.609375 
Q 13.921875 26.90625 13.921875 20.796875 
Q 13.921875 13.421875 17.609375 9.8125 
Q 21.296875 6.203125 28.8125 6.203125 
Q 32.515625 6.203125 36.6875 7.328125 
Q 40.875 8.453125 45.40625 10.6875 
L 43.703125 1.8125 
Q 39.796875 0.203125 35.671875 -0.609375 
Q 31.546875 -1.421875 27.203125 -1.421875 
Q 16.3125 -1.421875 10.453125 4.015625 
Q 4.59375 9.46875 4.59375 19.578125 
Q 4.59375 28.078125 7.640625 35.234375 
Q 10.6875 42.390625 16.703125 48.09375 
Q 20.796875 52 26.3125 54 
Q 31.84375 56 38.375 56 
Q 42.1875 56 45.9375 55.140625 
Q 49.703125 54.296875 53.609375 52.59375 
z
" id="DejaVuSans-Oblique-99"/>
      <path d="M 19.734375 29.5 
Q 14.453125 30.671875 12.15625 33.84375 
Q 10.453125 36.078125 10.453125 39.109375 
Q 10.453125 47.40625 18.359375 52.25 
Q 24.609375 56.0625 34.1875 56.0625 
Q 37.890625 56.0625 41.9375 55.46875 
Q 46 54.890625 50.53125 53.71875 
L 48.96875 45.5625 
Q 44.484375 46.96875 40.71875 47.609375 
Q 36.859375 48.25 33.40625 48.25 
Q 27.59375 48.25 23.78125 46 
Q 19.1875 43.3125 19.1875 39.40625 
Q 19.1875 36.8125 21.578125 35.015625 
Q 24.421875 32.859375 30.078125 32.859375 
L 37.640625 32.859375 
L 36.234375 25.4375 
L 29 25.4375 
Q 22.265625 25.4375 18.3125 22.953125 
Q 12.9375 19.578125 12.9375 14.3125 
Q 12.9375 10.984375 15.828125 8.796875 
Q 19.4375 6.0625 26.8125 6.0625 
Q 31.34375 6.0625 35.6875 6.9375 
Q 40.046875 7.859375 43.84375 9.671875 
L 42.1875 1.3125 
Q 37.546875 -0.046875 33.296875 -0.734375 
Q 29.046875 -1.421875 25.140625 -1.421875 
Q 13.53125 -1.421875 8.0625 3.03125 
Q 3.90625 6.453125 3.90625 12.203125 
Q 3.90625 19.96875 9.375 24.75 
Q 13.421875 28.328125 19.734375 29.5 
z
" id="DejaVuSans-Oblique-949"/>
     </defs>
     <use transform="translate(0 0.015625)" xlink:href="#DejaVuSans-Oblique-981"/>
     <use transform="translate(65.966797 -16.390625)scale(0.7)" xlink:href="#DejaVuSans-Oblique-114"/>
     <use transform="translate(94.746094 -16.390625)scale(0.7)" xlink:href="#DejaVuSans-Oblique-105"/>
     <use transform="translate(114.194336 -16.390625)scale(0.7)" xlink:href="#DejaVuSans-Oblique-98"/>
     <use transform="translate(158.62793 -16.390625)scale(0.7)" xlink:href="#DejaVuSans-Oblique-111"/>
     <use transform="translate(201.455078 -16.390625)scale(0.7)" xlink:href="#DejaVuSans-Oblique-115"/>
     <use transform="translate(237.924805 -16.390625)scale(0.7)" xlink:href="#DejaVuSans-Oblique-111"/>
     <use transform="translate(280.751953 -16.390625)scale(0.7)" xlink:href="#DejaVuSans-Oblique-109"/>
     <use transform="translate(348.94043 -16.390625)scale(0.7)" xlink:href="#DejaVuSans-Oblique-101"/>
     <use transform="translate(414.223633 0.015625)" xlink:href="#DejaVuSans-61"/>
     <use transform="translate(517.495117 0.015625)" xlink:href="#DejaVuSans-48"/>
     <use transform="translate(581.118164 0.015625)" xlink:href="#DejaVuSans-46"/>
     <use transform="translate(612.905273 0.015625)" xlink:href="#DejaVuSans-51"/>
     <use transform="translate(676.52832 0.015625)" xlink:href="#DejaVuSans-32"/>
     <use transform="translate(708.31543 0.015625)" xlink:href="#DejaVuSans-59"/>
     <use transform="translate(742.006836 0.015625)" xlink:href="#DejaVuSans-32"/>
     <use transform="translate(773.793945 0.015625)" xlink:href="#DejaVuSans-Oblique-84"/>
     <use transform="translate(834.87793 -16.390625)scale(0.7)" xlink:href="#DejaVuSans-Oblique-99"/>
     <use transform="translate(895.581055 0.015625)" xlink:href="#DejaVuSans-61"/>
     <use transform="translate(998.852539 0.015625)" xlink:href="#DejaVuSans-49"/>
     <use transform="translate(1062.475586 0.015625)" xlink:href="#DejaVuSans-46"/>
     <use transform="translate(1094.262695 0.015625)" xlink:href="#DejaVuSans-48"/>
     <use transform="translate(1157.885742 0.015625)" xlink:href="#DejaVuSans-32"/>
     <use transform="translate(1189.672852 0.015625)" xlink:href="#DejaVuSans-59"/>
     <use transform="translate(1223.364258 0.015625)" xlink:href="#DejaVuSans-32"/>
     <use transform="translate(1255.151367 0.015625)" xlink:href="#DejaVuSans-Oblique-949"/>
     <use transform="translate(1328.686523 0.015625)" xlink:href="#DejaVuSans-61"/>
     <use transform="translate(1431.958008 0.015625)" xlink:href="#DejaVuSans-49"/>
     <use transform="translate(1495.581055 0.015625)" xlink:href="#DejaVuSans-55"/>
     <use transform="translate(1559.204102 0.015625)" xlink:href="#DejaVuSans-46"/>
     <use transform="translate(1590.991211 0.015625)" xlink:href="#DejaVuSans-48"/>
    </g>
   </g>
   <g id="legend_1">
    <g id="patch_7">
     <path d="M 197.890625 299.871875 
L 372.814062 299.871875 
Q 378.814062 299.871875 378.814062 293.871875 
L 378.814062 76.7 
Q 378.814062 70.7 372.814062 70.7 
L 197.890625 70.7 
Q 191.890625 70.7 191.890625 76.7 
L 191.890625 293.871875 
Q 191.890625 299.871875 197.890625 299.871875 
z
" style="fill:#ffffff;opacity:0.8;stroke:#cccccc;stroke-linejoin:miter;stroke-width:2;"/>
    </g>
    <g id="line2d_66">
     <path d="M 203.890625 94.995312 
L 263.890625 94.995312 
" style="fill:none;stroke:#1f77b4;stroke-linecap:square;stroke-width:3;"/>
    </g>
    <g id="line2d_67"/>
    <g id="text_34">
     <!-- s = 1 -->
     <g transform="translate(287.890625 105.495312)scale(0.3 -0.3)">
      <use xlink:href="#DejaVuSans-115"/>
      <use x="52.099609" xlink:href="#DejaVuSans-32"/>
      <use x="83.886719" xlink:href="#DejaVuSans-61"/>
      <use x="167.675781" xlink:href="#DejaVuSans-32"/>
      <use x="199.462891" xlink:href="#DejaVuSans-49"/>
     </g>
    </g>
    <g id="line2d_68">
     <path d="M 203.890625 139.029687 
L 263.890625 139.029687 
" style="fill:none;stroke:#ff7f0e;stroke-linecap:square;stroke-width:3;"/>
    </g>
    <g id="line2d_69"/>
    <g id="text_35">
     <!-- s = 2 -->
     <g transform="translate(287.890625 149.529687)scale(0.3 -0.3)">
      <use xlink:href="#DejaVuSans-115"/>
      <use x="52.099609" xlink:href="#DejaVuSans-32"/>
      <use x="83.886719" xlink:href="#DejaVuSans-61"/>
      <use x="167.675781" xlink:href="#DejaVuSans-32"/>
      <use x="199.462891" xlink:href="#DejaVuSans-50"/>
     </g>
    </g>
    <g id="line2d_70">
     <path d="M 203.890625 183.064062 
L 263.890625 183.064062 
" style="fill:none;stroke:#2ca02c;stroke-linecap:square;stroke-width:3;"/>
    </g>
    <g id="line2d_71"/>
    <g id="text_36">
     <!-- s = 3 -->
     <g transform="translate(287.890625 193.564062)scale(0.3 -0.3)">
      <use xlink:href="#DejaVuSans-115"/>
      <use x="52.099609" xlink:href="#DejaVuSans-32"/>
      <use x="83.886719" xlink:href="#DejaVuSans-61"/>
      <use x="167.675781" xlink:href="#DejaVuSans-32"/>
      <use x="199.462891" xlink:href="#DejaVuSans-51"/>
     </g>
    </g>
    <g id="line2d_72">
     <path d="M 203.890625 227.098437 
L 263.890625 227.098437 
" style="fill:none;stroke:#d62728;stroke-linecap:square;stroke-width:3;"/>
    </g>
    <g id="line2d_73"/>
    <g id="text_37">
     <!-- s = 4 -->
     <g transform="translate(287.890625 237.598437)scale(0.3 -0.3)">
      <use xlink:href="#DejaVuSans-115"/>
      <use x="52.099609" xlink:href="#DejaVuSans-32"/>
      <use x="83.886719" xlink:href="#DejaVuSans-61"/>
      <use x="167.675781" xlink:href="#DejaVuSans-32"/>
      <use x="199.462891" xlink:href="#DejaVuSans-52"/>
     </g>
    </g>
    <g id="line2d_74">
     <path d="M 203.890625 271.132812 
L 263.890625 271.132812 
" style="fill:none;stroke:#9467bd;stroke-linecap:square;stroke-width:3;"/>
    </g>
    <g id="line2d_75"/>
    <g id="text_38">
     <!-- s = 5 -->
     <g transform="translate(287.890625 281.632812)scale(0.3 -0.3)">
      <use xlink:href="#DejaVuSans-115"/>
      <use x="52.099609" xlink:href="#DejaVuSans-32"/>
      <use x="83.886719" xlink:href="#DejaVuSans-61"/>
      <use x="167.675781" xlink:href="#DejaVuSans-32"/>
      <use x="199.462891" xlink:href="#DejaVuSans-53"/>
     </g>
    </g>
   </g>
  </g>
 </g>
 <defs>
  <clipPath id="p0781323a80">
   <rect height="870.42" width="1193.34" x="176.890625" y="55.7"/>
  </clipPath>
 </defs>
</svg>
