<?xml version="1.0" encoding="utf-8" standalone="no"?>
<!DOCTYPE svg PUBLIC "-//W3C//DTD SVG 1.1//EN"
  "http://www.w3.org/Graphics/SVG/1.1/DTD/svg11.dtd">
<!-- Created with matplotlib (https://matplotlib.org/) -->
<svg height="1039.923125pt" version="1.1" viewBox="0 0 1402.880625 1039.923125" width="1402.880625pt" xmlns="http://www.w3.org/2000/svg" xmlns:xlink="http://www.w3.org/1999/xlink">
 <metadata>
  <rdf:RDF xmlns:cc="http://creativecommons.org/ns#" xmlns:dc="http://purl.org/dc/elements/1.1/" xmlns:rdf="http://www.w3.org/1999/02/22-rdf-syntax-ns#">
   <cc:Work>
    <dc:type rdf:resource="http://purl.org/dc/dcmitype/StillImage"/>
    <dc:date>2023-10-16T19:46:46.878667</dc:date>
    <dc:format>image/svg+xml</dc:format>
    <dc:creator>
     <cc:Agent>
      <dc:title>Matplotlib v3.3.2, https://matplotlib.org/</dc:title>
     </cc:Agent>
    </dc:creator>
   </cc:Work>
  </rdf:RDF>
 </metadata>
 <defs>
  <style type="text/css">*{stroke-linecap:butt;stroke-linejoin:round;}</style>
 </defs>
 <g id="figure_1">
  <g id="patch_1">
   <path d="M 0 1039.923125 
L 1402.880625 1039.923125 
L 1402.880625 0 
L 0 0 
z
" style="fill:#ffffff;"/>
  </g>
  <g id="axes_1">
   <g id="patch_2">
    <path d="M 176.890625 926.12 
L 1370.230625 926.12 
L 1370.230625 55.7 
L 176.890625 55.7 
z
" style="fill:#ffffff;"/>
   </g>
   <g id="matplotlib.axis_1">
    <g id="xtick_1">
     <g id="line2d_1">
      <path clip-path="url(#p57f73d80a0)" d="M 230.208906 926.12 
L 230.208906 55.7 
" style="fill:none;stroke:#b0b0b0;stroke-linecap:square;stroke-opacity:0.6;stroke-width:2;"/>
     </g>
     <g id="line2d_2">
      <defs>
       <path d="M 0 0 
L 0 12 
" id="m8524d7635a" style="stroke:#000000;stroke-width:2.5;"/>
      </defs>
      <g>
       <use style="stroke:#000000;stroke-width:2.5;" x="230.208906" xlink:href="#m8524d7635a" y="926.12"/>
      </g>
     </g>
     <g id="text_1">
      <!-- 0 -->
      <g transform="translate(217.483906 972.01375)scale(0.4 -0.4)">
       <defs>
        <path d="M 31.78125 66.40625 
Q 24.171875 66.40625 20.328125 58.90625 
Q 16.5 51.421875 16.5 36.375 
Q 16.5 21.390625 20.328125 13.890625 
Q 24.171875 6.390625 31.78125 6.390625 
Q 39.453125 6.390625 43.28125 13.890625 
Q 47.125 21.390625 47.125 36.375 
Q 47.125 51.421875 43.28125 58.90625 
Q 39.453125 66.40625 31.78125 66.40625 
z
M 31.78125 74.21875 
Q 44.046875 74.21875 50.515625 64.515625 
Q 56.984375 54.828125 56.984375 36.375 
Q 56.984375 17.96875 50.515625 8.265625 
Q 44.046875 -1.421875 31.78125 -1.421875 
Q 19.53125 -1.421875 13.0625 8.265625 
Q 6.59375 17.96875 6.59375 36.375 
Q 6.59375 54.828125 13.0625 64.515625 
Q 19.53125 74.21875 31.78125 74.21875 
z
" id="DejaVuSans-48"/>
       </defs>
       <use xlink:href="#DejaVuSans-48"/>
      </g>
     </g>
    </g>
    <g id="xtick_2">
     <g id="line2d_3">
      <path clip-path="url(#p57f73d80a0)" d="M 325.210716 926.12 
L 325.210716 55.7 
" style="fill:none;stroke:#b0b0b0;stroke-linecap:square;stroke-opacity:0.6;stroke-width:2;"/>
     </g>
     <g id="line2d_4">
      <g>
       <use style="stroke:#000000;stroke-width:2.5;" x="325.210716" xlink:href="#m8524d7635a" y="926.12"/>
      </g>
     </g>
     <g id="text_2">
      <!-- 2 -->
      <g transform="translate(312.485716 972.01375)scale(0.4 -0.4)">
       <defs>
        <path d="M 19.1875 8.296875 
L 53.609375 8.296875 
L 53.609375 0 
L 7.328125 0 
L 7.328125 8.296875 
Q 12.9375 14.109375 22.625 23.890625 
Q 32.328125 33.6875 34.8125 36.53125 
Q 39.546875 41.84375 41.421875 45.53125 
Q 43.3125 49.21875 43.3125 52.78125 
Q 43.3125 58.59375 39.234375 62.25 
Q 35.15625 65.921875 28.609375 65.921875 
Q 23.96875 65.921875 18.8125 64.3125 
Q 13.671875 62.703125 7.8125 59.421875 
L 7.8125 69.390625 
Q 13.765625 71.78125 18.9375 73 
Q 24.125 74.21875 28.421875 74.21875 
Q 39.75 74.21875 46.484375 68.546875 
Q 53.21875 62.890625 53.21875 53.421875 
Q 53.21875 48.921875 51.53125 44.890625 
Q 49.859375 40.875 45.40625 35.40625 
Q 44.1875 33.984375 37.640625 27.21875 
Q 31.109375 20.453125 19.1875 8.296875 
z
" id="DejaVuSans-50"/>
       </defs>
       <use xlink:href="#DejaVuSans-50"/>
      </g>
     </g>
    </g>
    <g id="xtick_3">
     <g id="line2d_5">
      <path clip-path="url(#p57f73d80a0)" d="M 420.212526 926.12 
L 420.212526 55.7 
" style="fill:none;stroke:#b0b0b0;stroke-linecap:square;stroke-opacity:0.6;stroke-width:2;"/>
     </g>
     <g id="line2d_6">
      <g>
       <use style="stroke:#000000;stroke-width:2.5;" x="420.212526" xlink:href="#m8524d7635a" y="926.12"/>
      </g>
     </g>
     <g id="text_3">
      <!-- 4 -->
      <g transform="translate(407.487526 972.01375)scale(0.4 -0.4)">
       <defs>
        <path d="M 37.796875 64.3125 
L 12.890625 25.390625 
L 37.796875 25.390625 
z
M 35.203125 72.90625 
L 47.609375 72.90625 
L 47.609375 25.390625 
L 58.015625 25.390625 
L 58.015625 17.1875 
L 47.609375 17.1875 
L 47.609375 0 
L 37.796875 0 
L 37.796875 17.1875 
L 4.890625 17.1875 
L 4.890625 26.703125 
z
" id="DejaVuSans-52"/>
       </defs>
       <use xlink:href="#DejaVuSans-52"/>
      </g>
     </g>
    </g>
    <g id="xtick_4">
     <g id="line2d_7">
      <path clip-path="url(#p57f73d80a0)" d="M 515.214336 926.12 
L 515.214336 55.7 
" style="fill:none;stroke:#b0b0b0;stroke-linecap:square;stroke-opacity:0.6;stroke-width:2;"/>
     </g>
     <g id="line2d_8">
      <g>
       <use style="stroke:#000000;stroke-width:2.5;" x="515.214336" xlink:href="#m8524d7635a" y="926.12"/>
      </g>
     </g>
     <g id="text_4">
      <!-- 6 -->
      <g transform="translate(502.489336 972.01375)scale(0.4 -0.4)">
       <defs>
        <path d="M 33.015625 40.375 
Q 26.375 40.375 22.484375 35.828125 
Q 18.609375 31.296875 18.609375 23.390625 
Q 18.609375 15.53125 22.484375 10.953125 
Q 26.375 6.390625 33.015625 6.390625 
Q 39.65625 6.390625 43.53125 10.953125 
Q 47.40625 15.53125 47.40625 23.390625 
Q 47.40625 31.296875 43.53125 35.828125 
Q 39.65625 40.375 33.015625 40.375 
z
M 52.59375 71.296875 
L 52.59375 62.3125 
Q 48.875 64.0625 45.09375 64.984375 
Q 41.3125 65.921875 37.59375 65.921875 
Q 27.828125 65.921875 22.671875 59.328125 
Q 17.53125 52.734375 16.796875 39.40625 
Q 19.671875 43.65625 24.015625 45.921875 
Q 28.375 48.1875 33.59375 48.1875 
Q 44.578125 48.1875 50.953125 41.515625 
Q 57.328125 34.859375 57.328125 23.390625 
Q 57.328125 12.15625 50.6875 5.359375 
Q 44.046875 -1.421875 33.015625 -1.421875 
Q 20.359375 -1.421875 13.671875 8.265625 
Q 6.984375 17.96875 6.984375 36.375 
Q 6.984375 53.65625 15.1875 63.9375 
Q 23.390625 74.21875 37.203125 74.21875 
Q 40.921875 74.21875 44.703125 73.484375 
Q 48.484375 72.75 52.59375 71.296875 
z
" id="DejaVuSans-54"/>
       </defs>
       <use xlink:href="#DejaVuSans-54"/>
      </g>
     </g>
    </g>
    <g id="xtick_5">
     <g id="line2d_9">
      <path clip-path="url(#p57f73d80a0)" d="M 610.216146 926.12 
L 610.216146 55.7 
" style="fill:none;stroke:#b0b0b0;stroke-linecap:square;stroke-opacity:0.6;stroke-width:2;"/>
     </g>
     <g id="line2d_10">
      <g>
       <use style="stroke:#000000;stroke-width:2.5;" x="610.216146" xlink:href="#m8524d7635a" y="926.12"/>
      </g>
     </g>
     <g id="text_5">
      <!-- 8 -->
      <g transform="translate(597.491146 972.01375)scale(0.4 -0.4)">
       <defs>
        <path d="M 31.78125 34.625 
Q 24.75 34.625 20.71875 30.859375 
Q 16.703125 27.09375 16.703125 20.515625 
Q 16.703125 13.921875 20.71875 10.15625 
Q 24.75 6.390625 31.78125 6.390625 
Q 38.8125 6.390625 42.859375 10.171875 
Q 46.921875 13.96875 46.921875 20.515625 
Q 46.921875 27.09375 42.890625 30.859375 
Q 38.875 34.625 31.78125 34.625 
z
M 21.921875 38.8125 
Q 15.578125 40.375 12.03125 44.71875 
Q 8.5 49.078125 8.5 55.328125 
Q 8.5 64.0625 14.71875 69.140625 
Q 20.953125 74.21875 31.78125 74.21875 
Q 42.671875 74.21875 48.875 69.140625 
Q 55.078125 64.0625 55.078125 55.328125 
Q 55.078125 49.078125 51.53125 44.71875 
Q 48 40.375 41.703125 38.8125 
Q 48.828125 37.15625 52.796875 32.3125 
Q 56.78125 27.484375 56.78125 20.515625 
Q 56.78125 9.90625 50.3125 4.234375 
Q 43.84375 -1.421875 31.78125 -1.421875 
Q 19.734375 -1.421875 13.25 4.234375 
Q 6.78125 9.90625 6.78125 20.515625 
Q 6.78125 27.484375 10.78125 32.3125 
Q 14.796875 37.15625 21.921875 38.8125 
z
M 18.3125 54.390625 
Q 18.3125 48.734375 21.84375 45.5625 
Q 25.390625 42.390625 31.78125 42.390625 
Q 38.140625 42.390625 41.71875 45.5625 
Q 45.3125 48.734375 45.3125 54.390625 
Q 45.3125 60.0625 41.71875 63.234375 
Q 38.140625 66.40625 31.78125 66.40625 
Q 25.390625 66.40625 21.84375 63.234375 
Q 18.3125 60.0625 18.3125 54.390625 
z
" id="DejaVuSans-56"/>
       </defs>
       <use xlink:href="#DejaVuSans-56"/>
      </g>
     </g>
    </g>
    <g id="xtick_6">
     <g id="line2d_11">
      <path clip-path="url(#p57f73d80a0)" d="M 705.217956 926.12 
L 705.217956 55.7 
" style="fill:none;stroke:#b0b0b0;stroke-linecap:square;stroke-opacity:0.6;stroke-width:2;"/>
     </g>
     <g id="line2d_12">
      <g>
       <use style="stroke:#000000;stroke-width:2.5;" x="705.217956" xlink:href="#m8524d7635a" y="926.12"/>
      </g>
     </g>
     <g id="text_6">
      <!-- 10 -->
      <g transform="translate(679.767956 972.01375)scale(0.4 -0.4)">
       <defs>
        <path d="M 12.40625 8.296875 
L 28.515625 8.296875 
L 28.515625 63.921875 
L 10.984375 60.40625 
L 10.984375 69.390625 
L 28.421875 72.90625 
L 38.28125 72.90625 
L 38.28125 8.296875 
L 54.390625 8.296875 
L 54.390625 0 
L 12.40625 0 
z
" id="DejaVuSans-49"/>
       </defs>
       <use xlink:href="#DejaVuSans-49"/>
       <use x="63.623047" xlink:href="#DejaVuSans-48"/>
      </g>
     </g>
    </g>
    <g id="xtick_7">
     <g id="line2d_13">
      <path clip-path="url(#p57f73d80a0)" d="M 800.219766 926.12 
L 800.219766 55.7 
" style="fill:none;stroke:#b0b0b0;stroke-linecap:square;stroke-opacity:0.6;stroke-width:2;"/>
     </g>
     <g id="line2d_14">
      <g>
       <use style="stroke:#000000;stroke-width:2.5;" x="800.219766" xlink:href="#m8524d7635a" y="926.12"/>
      </g>
     </g>
     <g id="text_7">
      <!-- 12 -->
      <g transform="translate(774.769766 972.01375)scale(0.4 -0.4)">
       <use xlink:href="#DejaVuSans-49"/>
       <use x="63.623047" xlink:href="#DejaVuSans-50"/>
      </g>
     </g>
    </g>
    <g id="xtick_8">
     <g id="line2d_15">
      <path clip-path="url(#p57f73d80a0)" d="M 895.221576 926.12 
L 895.221576 55.7 
" style="fill:none;stroke:#b0b0b0;stroke-linecap:square;stroke-opacity:0.6;stroke-width:2;"/>
     </g>
     <g id="line2d_16">
      <g>
       <use style="stroke:#000000;stroke-width:2.5;" x="895.221576" xlink:href="#m8524d7635a" y="926.12"/>
      </g>
     </g>
     <g id="text_8">
      <!-- 14 -->
      <g transform="translate(869.771576 972.01375)scale(0.4 -0.4)">
       <use xlink:href="#DejaVuSans-49"/>
       <use x="63.623047" xlink:href="#DejaVuSans-52"/>
      </g>
     </g>
    </g>
    <g id="xtick_9">
     <g id="line2d_17">
      <path clip-path="url(#p57f73d80a0)" d="M 990.223385 926.12 
L 990.223385 55.7 
" style="fill:none;stroke:#b0b0b0;stroke-linecap:square;stroke-opacity:0.6;stroke-width:2;"/>
     </g>
     <g id="line2d_18">
      <g>
       <use style="stroke:#000000;stroke-width:2.5;" x="990.223385" xlink:href="#m8524d7635a" y="926.12"/>
      </g>
     </g>
     <g id="text_9">
      <!-- 16 -->
      <g transform="translate(964.773385 972.01375)scale(0.4 -0.4)">
       <use xlink:href="#DejaVuSans-49"/>
       <use x="63.623047" xlink:href="#DejaVuSans-54"/>
      </g>
     </g>
    </g>
    <g id="xtick_10">
     <g id="line2d_19">
      <path clip-path="url(#p57f73d80a0)" d="M 1085.225195 926.12 
L 1085.225195 55.7 
" style="fill:none;stroke:#b0b0b0;stroke-linecap:square;stroke-opacity:0.6;stroke-width:2;"/>
     </g>
     <g id="line2d_20">
      <g>
       <use style="stroke:#000000;stroke-width:2.5;" x="1085.225195" xlink:href="#m8524d7635a" y="926.12"/>
      </g>
     </g>
     <g id="text_10">
      <!-- 18 -->
      <g transform="translate(1059.775195 972.01375)scale(0.4 -0.4)">
       <use xlink:href="#DejaVuSans-49"/>
       <use x="63.623047" xlink:href="#DejaVuSans-56"/>
      </g>
     </g>
    </g>
    <g id="xtick_11">
     <g id="line2d_21">
      <path clip-path="url(#p57f73d80a0)" d="M 1180.227005 926.12 
L 1180.227005 55.7 
" style="fill:none;stroke:#b0b0b0;stroke-linecap:square;stroke-opacity:0.6;stroke-width:2;"/>
     </g>
     <g id="line2d_22">
      <g>
       <use style="stroke:#000000;stroke-width:2.5;" x="1180.227005" xlink:href="#m8524d7635a" y="926.12"/>
      </g>
     </g>
     <g id="text_11">
      <!-- 20 -->
      <g transform="translate(1154.777005 972.01375)scale(0.4 -0.4)">
       <use xlink:href="#DejaVuSans-50"/>
       <use x="63.623047" xlink:href="#DejaVuSans-48"/>
      </g>
     </g>
    </g>
    <g id="xtick_12">
     <g id="line2d_23">
      <path clip-path="url(#p57f73d80a0)" d="M 1275.228815 926.12 
L 1275.228815 55.7 
" style="fill:none;stroke:#b0b0b0;stroke-linecap:square;stroke-opacity:0.6;stroke-width:2;"/>
     </g>
     <g id="line2d_24">
      <g>
       <use style="stroke:#000000;stroke-width:2.5;" x="1275.228815" xlink:href="#m8524d7635a" y="926.12"/>
      </g>
     </g>
     <g id="text_12">
      <!-- 22 -->
      <g transform="translate(1249.778815 972.01375)scale(0.4 -0.4)">
       <use xlink:href="#DejaVuSans-50"/>
       <use x="63.623047" xlink:href="#DejaVuSans-50"/>
      </g>
     </g>
    </g>
    <g id="xtick_13">
     <g id="line2d_25">
      <path clip-path="url(#p57f73d80a0)" d="M 1370.230625 926.12 
L 1370.230625 55.7 
" style="fill:none;stroke:#b0b0b0;stroke-linecap:square;stroke-opacity:0.6;stroke-width:2;"/>
     </g>
     <g id="line2d_26">
      <g>
       <use style="stroke:#000000;stroke-width:2.5;" x="1370.230625" xlink:href="#m8524d7635a" y="926.12"/>
      </g>
     </g>
     <g id="text_13">
      <!-- 24 -->
      <g transform="translate(1344.780625 972.01375)scale(0.4 -0.4)">
       <use xlink:href="#DejaVuSans-50"/>
       <use x="63.623047" xlink:href="#DejaVuSans-52"/>
      </g>
     </g>
    </g>
    <g id="text_14">
     <!-- Time (in sec) -->
     <g transform="translate(612.052813 1022.324687)scale(0.5 -0.5)">
      <defs>
       <path d="M -0.296875 72.90625 
L 61.375 72.90625 
L 61.375 64.59375 
L 35.5 64.59375 
L 35.5 0 
L 25.59375 0 
L 25.59375 64.59375 
L -0.296875 64.59375 
z
" id="DejaVuSans-84"/>
       <path d="M 9.421875 54.6875 
L 18.40625 54.6875 
L 18.40625 0 
L 9.421875 0 
z
M 9.421875 75.984375 
L 18.40625 75.984375 
L 18.40625 64.59375 
L 9.421875 64.59375 
z
" id="DejaVuSans-105"/>
       <path d="M 52 44.1875 
Q 55.375 50.25 60.0625 53.125 
Q 64.75 56 71.09375 56 
Q 79.640625 56 84.28125 50.015625 
Q 88.921875 44.046875 88.921875 33.015625 
L 88.921875 0 
L 79.890625 0 
L 79.890625 32.71875 
Q 79.890625 40.578125 77.09375 44.375 
Q 74.3125 48.1875 68.609375 48.1875 
Q 61.625 48.1875 57.5625 43.546875 
Q 53.515625 38.921875 53.515625 30.90625 
L 53.515625 0 
L 44.484375 0 
L 44.484375 32.71875 
Q 44.484375 40.625 41.703125 44.40625 
Q 38.921875 48.1875 33.109375 48.1875 
Q 26.21875 48.1875 22.15625 43.53125 
Q 18.109375 38.875 18.109375 30.90625 
L 18.109375 0 
L 9.078125 0 
L 9.078125 54.6875 
L 18.109375 54.6875 
L 18.109375 46.1875 
Q 21.1875 51.21875 25.484375 53.609375 
Q 29.78125 56 35.6875 56 
Q 41.65625 56 45.828125 52.96875 
Q 50 49.953125 52 44.1875 
z
" id="DejaVuSans-109"/>
       <path d="M 56.203125 29.59375 
L 56.203125 25.203125 
L 14.890625 25.203125 
Q 15.484375 15.921875 20.484375 11.0625 
Q 25.484375 6.203125 34.421875 6.203125 
Q 39.59375 6.203125 44.453125 7.46875 
Q 49.3125 8.734375 54.109375 11.28125 
L 54.109375 2.78125 
Q 49.265625 0.734375 44.1875 -0.34375 
Q 39.109375 -1.421875 33.890625 -1.421875 
Q 20.796875 -1.421875 13.15625 6.1875 
Q 5.515625 13.8125 5.515625 26.8125 
Q 5.515625 40.234375 12.765625 48.109375 
Q 20.015625 56 32.328125 56 
Q 43.359375 56 49.78125 48.890625 
Q 56.203125 41.796875 56.203125 29.59375 
z
M 47.21875 32.234375 
Q 47.125 39.59375 43.09375 43.984375 
Q 39.0625 48.390625 32.421875 48.390625 
Q 24.90625 48.390625 20.390625 44.140625 
Q 15.875 39.890625 15.1875 32.171875 
z
" id="DejaVuSans-101"/>
       <path id="DejaVuSans-32"/>
       <path d="M 31 75.875 
Q 24.46875 64.65625 21.28125 53.65625 
Q 18.109375 42.671875 18.109375 31.390625 
Q 18.109375 20.125 21.3125 9.0625 
Q 24.515625 -2 31 -13.1875 
L 23.1875 -13.1875 
Q 15.875 -1.703125 12.234375 9.375 
Q 8.59375 20.453125 8.59375 31.390625 
Q 8.59375 42.28125 12.203125 53.3125 
Q 15.828125 64.359375 23.1875 75.875 
z
" id="DejaVuSans-40"/>
       <path d="M 54.890625 33.015625 
L 54.890625 0 
L 45.90625 0 
L 45.90625 32.71875 
Q 45.90625 40.484375 42.875 44.328125 
Q 39.84375 48.1875 33.796875 48.1875 
Q 26.515625 48.1875 22.3125 43.546875 
Q 18.109375 38.921875 18.109375 30.90625 
L 18.109375 0 
L 9.078125 0 
L 9.078125 54.6875 
L 18.109375 54.6875 
L 18.109375 46.1875 
Q 21.34375 51.125 25.703125 53.5625 
Q 30.078125 56 35.796875 56 
Q 45.21875 56 50.046875 50.171875 
Q 54.890625 44.34375 54.890625 33.015625 
z
" id="DejaVuSans-110"/>
       <path d="M 44.28125 53.078125 
L 44.28125 44.578125 
Q 40.484375 46.53125 36.375 47.5 
Q 32.28125 48.484375 27.875 48.484375 
Q 21.1875 48.484375 17.84375 46.4375 
Q 14.5 44.390625 14.5 40.28125 
Q 14.5 37.15625 16.890625 35.375 
Q 19.28125 33.59375 26.515625 31.984375 
L 29.59375 31.296875 
Q 39.15625 29.25 43.1875 25.515625 
Q 47.21875 21.78125 47.21875 15.09375 
Q 47.21875 7.46875 41.1875 3.015625 
Q 35.15625 -1.421875 24.609375 -1.421875 
Q 20.21875 -1.421875 15.453125 -0.5625 
Q 10.6875 0.296875 5.421875 2 
L 5.421875 11.28125 
Q 10.40625 8.6875 15.234375 7.390625 
Q 20.0625 6.109375 24.8125 6.109375 
Q 31.15625 6.109375 34.5625 8.28125 
Q 37.984375 10.453125 37.984375 14.40625 
Q 37.984375 18.0625 35.515625 20.015625 
Q 33.0625 21.96875 24.703125 23.78125 
L 21.578125 24.515625 
Q 13.234375 26.265625 9.515625 29.90625 
Q 5.8125 33.546875 5.8125 39.890625 
Q 5.8125 47.609375 11.28125 51.796875 
Q 16.75 56 26.8125 56 
Q 31.78125 56 36.171875 55.265625 
Q 40.578125 54.546875 44.28125 53.078125 
z
" id="DejaVuSans-115"/>
       <path d="M 48.78125 52.59375 
L 48.78125 44.1875 
Q 44.96875 46.296875 41.140625 47.34375 
Q 37.3125 48.390625 33.40625 48.390625 
Q 24.65625 48.390625 19.8125 42.84375 
Q 14.984375 37.3125 14.984375 27.296875 
Q 14.984375 17.28125 19.8125 11.734375 
Q 24.65625 6.203125 33.40625 6.203125 
Q 37.3125 6.203125 41.140625 7.25 
Q 44.96875 8.296875 48.78125 10.40625 
L 48.78125 2.09375 
Q 45.015625 0.34375 40.984375 -0.53125 
Q 36.96875 -1.421875 32.421875 -1.421875 
Q 20.0625 -1.421875 12.78125 6.34375 
Q 5.515625 14.109375 5.515625 27.296875 
Q 5.515625 40.671875 12.859375 48.328125 
Q 20.21875 56 33.015625 56 
Q 37.15625 56 41.109375 55.140625 
Q 45.0625 54.296875 48.78125 52.59375 
z
" id="DejaVuSans-99"/>
       <path d="M 8.015625 75.875 
L 15.828125 75.875 
Q 23.140625 64.359375 26.78125 53.3125 
Q 30.421875 42.28125 30.421875 31.390625 
Q 30.421875 20.453125 26.78125 9.375 
Q 23.140625 -1.703125 15.828125 -13.1875 
L 8.015625 -13.1875 
Q 14.5 -2 17.703125 9.0625 
Q 20.90625 20.125 20.90625 31.390625 
Q 20.90625 42.671875 17.703125 53.65625 
Q 14.5 64.65625 8.015625 75.875 
z
" id="DejaVuSans-41"/>
      </defs>
      <use xlink:href="#DejaVuSans-84"/>
      <use x="57.958984" xlink:href="#DejaVuSans-105"/>
      <use x="85.742188" xlink:href="#DejaVuSans-109"/>
      <use x="183.154297" xlink:href="#DejaVuSans-101"/>
      <use x="244.677734" xlink:href="#DejaVuSans-32"/>
      <use x="276.464844" xlink:href="#DejaVuSans-40"/>
      <use x="315.478516" xlink:href="#DejaVuSans-105"/>
      <use x="343.261719" xlink:href="#DejaVuSans-110"/>
      <use x="406.640625" xlink:href="#DejaVuSans-32"/>
      <use x="438.427734" xlink:href="#DejaVuSans-115"/>
      <use x="490.527344" xlink:href="#DejaVuSans-101"/>
      <use x="552.050781" xlink:href="#DejaVuSans-99"/>
      <use x="607.03125" xlink:href="#DejaVuSans-41"/>
     </g>
    </g>
   </g>
   <g id="matplotlib.axis_2">
    <g id="ytick_1">
     <g id="line2d_27">
      <path clip-path="url(#p57f73d80a0)" d="M 176.890625 926.12 
L 1370.230625 926.12 
" style="fill:none;stroke:#b0b0b0;stroke-linecap:square;stroke-opacity:0.6;stroke-width:2;"/>
     </g>
     <g id="line2d_28">
      <defs>
       <path d="M 0 0 
L -12 0 
" id="m04166ebd10" style="stroke:#000000;stroke-width:2.5;"/>
      </defs>
      <g>
       <use style="stroke:#000000;stroke-width:2.5;" x="176.890625" xlink:href="#m04166ebd10" y="926.12"/>
      </g>
     </g>
     <g id="text_15">
      <!-- 0 -->
      <g transform="translate(135.940625 941.316875)scale(0.4 -0.4)">
       <use xlink:href="#DejaVuSans-48"/>
      </g>
     </g>
    </g>
    <g id="ytick_2">
     <g id="line2d_29">
      <path clip-path="url(#p57f73d80a0)" d="M 176.890625 874.918824 
L 1370.230625 874.918824 
" style="fill:none;stroke:#b0b0b0;stroke-linecap:square;stroke-opacity:0.6;stroke-width:2;"/>
     </g>
     <g id="line2d_30">
      <g>
       <use style="stroke:#000000;stroke-width:2.5;" x="176.890625" xlink:href="#m04166ebd10" y="874.918824"/>
      </g>
     </g>
     <g id="text_16">
      <!-- 100 -->
      <g transform="translate(85.040625 890.115699)scale(0.4 -0.4)">
       <use xlink:href="#DejaVuSans-49"/>
       <use x="63.623047" xlink:href="#DejaVuSans-48"/>
       <use x="127.246094" xlink:href="#DejaVuSans-48"/>
      </g>
     </g>
    </g>
    <g id="ytick_3">
     <g id="line2d_31">
      <path clip-path="url(#p57f73d80a0)" d="M 176.890625 823.717647 
L 1370.230625 823.717647 
" style="fill:none;stroke:#b0b0b0;stroke-linecap:square;stroke-opacity:0.6;stroke-width:2;"/>
     </g>
     <g id="line2d_32">
      <g>
       <use style="stroke:#000000;stroke-width:2.5;" x="176.890625" xlink:href="#m04166ebd10" y="823.717647"/>
      </g>
     </g>
     <g id="text_17">
      <!-- 200 -->
      <g transform="translate(85.040625 838.914522)scale(0.4 -0.4)">
       <use xlink:href="#DejaVuSans-50"/>
       <use x="63.623047" xlink:href="#DejaVuSans-48"/>
       <use x="127.246094" xlink:href="#DejaVuSans-48"/>
      </g>
     </g>
    </g>
    <g id="ytick_4">
     <g id="line2d_33">
      <path clip-path="url(#p57f73d80a0)" d="M 176.890625 772.516471 
L 1370.230625 772.516471 
" style="fill:none;stroke:#b0b0b0;stroke-linecap:square;stroke-opacity:0.6;stroke-width:2;"/>
     </g>
     <g id="line2d_34">
      <g>
       <use style="stroke:#000000;stroke-width:2.5;" x="176.890625" xlink:href="#m04166ebd10" y="772.516471"/>
      </g>
     </g>
     <g id="text_18">
      <!-- 300 -->
      <g transform="translate(85.040625 787.713346)scale(0.4 -0.4)">
       <defs>
        <path d="M 40.578125 39.3125 
Q 47.65625 37.796875 51.625 33 
Q 55.609375 28.21875 55.609375 21.1875 
Q 55.609375 10.40625 48.1875 4.484375 
Q 40.765625 -1.421875 27.09375 -1.421875 
Q 22.515625 -1.421875 17.65625 -0.515625 
Q 12.796875 0.390625 7.625 2.203125 
L 7.625 11.71875 
Q 11.71875 9.328125 16.59375 8.109375 
Q 21.484375 6.890625 26.8125 6.890625 
Q 36.078125 6.890625 40.9375 10.546875 
Q 45.796875 14.203125 45.796875 21.1875 
Q 45.796875 27.640625 41.28125 31.265625 
Q 36.765625 34.90625 28.71875 34.90625 
L 20.21875 34.90625 
L 20.21875 43.015625 
L 29.109375 43.015625 
Q 36.375 43.015625 40.234375 45.921875 
Q 44.09375 48.828125 44.09375 54.296875 
Q 44.09375 59.90625 40.109375 62.90625 
Q 36.140625 65.921875 28.71875 65.921875 
Q 24.65625 65.921875 20.015625 65.03125 
Q 15.375 64.15625 9.8125 62.3125 
L 9.8125 71.09375 
Q 15.4375 72.65625 20.34375 73.4375 
Q 25.25 74.21875 29.59375 74.21875 
Q 40.828125 74.21875 47.359375 69.109375 
Q 53.90625 64.015625 53.90625 55.328125 
Q 53.90625 49.265625 50.4375 45.09375 
Q 46.96875 40.921875 40.578125 39.3125 
z
" id="DejaVuSans-51"/>
       </defs>
       <use xlink:href="#DejaVuSans-51"/>
       <use x="63.623047" xlink:href="#DejaVuSans-48"/>
       <use x="127.246094" xlink:href="#DejaVuSans-48"/>
      </g>
     </g>
    </g>
    <g id="ytick_5">
     <g id="line2d_35">
      <path clip-path="url(#p57f73d80a0)" d="M 176.890625 721.315294 
L 1370.230625 721.315294 
" style="fill:none;stroke:#b0b0b0;stroke-linecap:square;stroke-opacity:0.6;stroke-width:2;"/>
     </g>
     <g id="line2d_36">
      <g>
       <use style="stroke:#000000;stroke-width:2.5;" x="176.890625" xlink:href="#m04166ebd10" y="721.315294"/>
      </g>
     </g>
     <g id="text_19">
      <!-- 400 -->
      <g transform="translate(85.040625 736.512169)scale(0.4 -0.4)">
       <use xlink:href="#DejaVuSans-52"/>
       <use x="63.623047" xlink:href="#DejaVuSans-48"/>
       <use x="127.246094" xlink:href="#DejaVuSans-48"/>
      </g>
     </g>
    </g>
    <g id="ytick_6">
     <g id="line2d_37">
      <path clip-path="url(#p57f73d80a0)" d="M 176.890625 670.114118 
L 1370.230625 670.114118 
" style="fill:none;stroke:#b0b0b0;stroke-linecap:square;stroke-opacity:0.6;stroke-width:2;"/>
     </g>
     <g id="line2d_38">
      <g>
       <use style="stroke:#000000;stroke-width:2.5;" x="176.890625" xlink:href="#m04166ebd10" y="670.114118"/>
      </g>
     </g>
     <g id="text_20">
      <!-- 500 -->
      <g transform="translate(85.040625 685.310993)scale(0.4 -0.4)">
       <defs>
        <path d="M 10.796875 72.90625 
L 49.515625 72.90625 
L 49.515625 64.59375 
L 19.828125 64.59375 
L 19.828125 46.734375 
Q 21.96875 47.46875 24.109375 47.828125 
Q 26.265625 48.1875 28.421875 48.1875 
Q 40.625 48.1875 47.75 41.5 
Q 54.890625 34.8125 54.890625 23.390625 
Q 54.890625 11.625 47.5625 5.09375 
Q 40.234375 -1.421875 26.90625 -1.421875 
Q 22.3125 -1.421875 17.546875 -0.640625 
Q 12.796875 0.140625 7.71875 1.703125 
L 7.71875 11.625 
Q 12.109375 9.234375 16.796875 8.0625 
Q 21.484375 6.890625 26.703125 6.890625 
Q 35.15625 6.890625 40.078125 11.328125 
Q 45.015625 15.765625 45.015625 23.390625 
Q 45.015625 31 40.078125 35.4375 
Q 35.15625 39.890625 26.703125 39.890625 
Q 22.75 39.890625 18.8125 39.015625 
Q 14.890625 38.140625 10.796875 36.28125 
z
" id="DejaVuSans-53"/>
       </defs>
       <use xlink:href="#DejaVuSans-53"/>
       <use x="63.623047" xlink:href="#DejaVuSans-48"/>
       <use x="127.246094" xlink:href="#DejaVuSans-48"/>
      </g>
     </g>
    </g>
    <g id="ytick_7">
     <g id="line2d_39">
      <path clip-path="url(#p57f73d80a0)" d="M 176.890625 618.912941 
L 1370.230625 618.912941 
" style="fill:none;stroke:#b0b0b0;stroke-linecap:square;stroke-opacity:0.6;stroke-width:2;"/>
     </g>
     <g id="line2d_40">
      <g>
       <use style="stroke:#000000;stroke-width:2.5;" x="176.890625" xlink:href="#m04166ebd10" y="618.912941"/>
      </g>
     </g>
     <g id="text_21">
      <!-- 600 -->
      <g transform="translate(85.040625 634.109816)scale(0.4 -0.4)">
       <use xlink:href="#DejaVuSans-54"/>
       <use x="63.623047" xlink:href="#DejaVuSans-48"/>
       <use x="127.246094" xlink:href="#DejaVuSans-48"/>
      </g>
     </g>
    </g>
    <g id="ytick_8">
     <g id="line2d_41">
      <path clip-path="url(#p57f73d80a0)" d="M 176.890625 567.711765 
L 1370.230625 567.711765 
" style="fill:none;stroke:#b0b0b0;stroke-linecap:square;stroke-opacity:0.6;stroke-width:2;"/>
     </g>
     <g id="line2d_42">
      <g>
       <use style="stroke:#000000;stroke-width:2.5;" x="176.890625" xlink:href="#m04166ebd10" y="567.711765"/>
      </g>
     </g>
     <g id="text_22">
      <!-- 700 -->
      <g transform="translate(85.040625 582.90864)scale(0.4 -0.4)">
       <defs>
        <path d="M 8.203125 72.90625 
L 55.078125 72.90625 
L 55.078125 68.703125 
L 28.609375 0 
L 18.3125 0 
L 43.21875 64.59375 
L 8.203125 64.59375 
z
" id="DejaVuSans-55"/>
       </defs>
       <use xlink:href="#DejaVuSans-55"/>
       <use x="63.623047" xlink:href="#DejaVuSans-48"/>
       <use x="127.246094" xlink:href="#DejaVuSans-48"/>
      </g>
     </g>
    </g>
    <g id="ytick_9">
     <g id="line2d_43">
      <path clip-path="url(#p57f73d80a0)" d="M 176.890625 516.510588 
L 1370.230625 516.510588 
" style="fill:none;stroke:#b0b0b0;stroke-linecap:square;stroke-opacity:0.6;stroke-width:2;"/>
     </g>
     <g id="line2d_44">
      <g>
       <use style="stroke:#000000;stroke-width:2.5;" x="176.890625" xlink:href="#m04166ebd10" y="516.510588"/>
      </g>
     </g>
     <g id="text_23">
      <!-- 800 -->
      <g transform="translate(85.040625 531.707463)scale(0.4 -0.4)">
       <use xlink:href="#DejaVuSans-56"/>
       <use x="63.623047" xlink:href="#DejaVuSans-48"/>
       <use x="127.246094" xlink:href="#DejaVuSans-48"/>
      </g>
     </g>
    </g>
    <g id="ytick_10">
     <g id="line2d_45">
      <path clip-path="url(#p57f73d80a0)" d="M 176.890625 465.309412 
L 1370.230625 465.309412 
" style="fill:none;stroke:#b0b0b0;stroke-linecap:square;stroke-opacity:0.6;stroke-width:2;"/>
     </g>
     <g id="line2d_46">
      <g>
       <use style="stroke:#000000;stroke-width:2.5;" x="176.890625" xlink:href="#m04166ebd10" y="465.309412"/>
      </g>
     </g>
     <g id="text_24">
      <!-- 900 -->
      <g transform="translate(85.040625 480.506287)scale(0.4 -0.4)">
       <defs>
        <path d="M 10.984375 1.515625 
L 10.984375 10.5 
Q 14.703125 8.734375 18.5 7.8125 
Q 22.3125 6.890625 25.984375 6.890625 
Q 35.75 6.890625 40.890625 13.453125 
Q 46.046875 20.015625 46.78125 33.40625 
Q 43.953125 29.203125 39.59375 26.953125 
Q 35.25 24.703125 29.984375 24.703125 
Q 19.046875 24.703125 12.671875 31.3125 
Q 6.296875 37.9375 6.296875 49.421875 
Q 6.296875 60.640625 12.9375 67.421875 
Q 19.578125 74.21875 30.609375 74.21875 
Q 43.265625 74.21875 49.921875 64.515625 
Q 56.59375 54.828125 56.59375 36.375 
Q 56.59375 19.140625 48.40625 8.859375 
Q 40.234375 -1.421875 26.421875 -1.421875 
Q 22.703125 -1.421875 18.890625 -0.6875 
Q 15.09375 0.046875 10.984375 1.515625 
z
M 30.609375 32.421875 
Q 37.25 32.421875 41.125 36.953125 
Q 45.015625 41.5 45.015625 49.421875 
Q 45.015625 57.28125 41.125 61.84375 
Q 37.25 66.40625 30.609375 66.40625 
Q 23.96875 66.40625 20.09375 61.84375 
Q 16.21875 57.28125 16.21875 49.421875 
Q 16.21875 41.5 20.09375 36.953125 
Q 23.96875 32.421875 30.609375 32.421875 
z
" id="DejaVuSans-57"/>
       </defs>
       <use xlink:href="#DejaVuSans-57"/>
       <use x="63.623047" xlink:href="#DejaVuSans-48"/>
       <use x="127.246094" xlink:href="#DejaVuSans-48"/>
      </g>
     </g>
    </g>
    <g id="ytick_11">
     <g id="line2d_47">
      <path clip-path="url(#p57f73d80a0)" d="M 176.890625 414.108235 
L 1370.230625 414.108235 
" style="fill:none;stroke:#b0b0b0;stroke-linecap:square;stroke-opacity:0.6;stroke-width:2;"/>
     </g>
     <g id="line2d_48">
      <g>
       <use style="stroke:#000000;stroke-width:2.5;" x="176.890625" xlink:href="#m04166ebd10" y="414.108235"/>
      </g>
     </g>
     <g id="text_25">
      <!-- 1000 -->
      <g transform="translate(59.590625 429.30511)scale(0.4 -0.4)">
       <use xlink:href="#DejaVuSans-49"/>
       <use x="63.623047" xlink:href="#DejaVuSans-48"/>
       <use x="127.246094" xlink:href="#DejaVuSans-48"/>
       <use x="190.869141" xlink:href="#DejaVuSans-48"/>
      </g>
     </g>
    </g>
    <g id="ytick_12">
     <g id="line2d_49">
      <path clip-path="url(#p57f73d80a0)" d="M 176.890625 362.907059 
L 1370.230625 362.907059 
" style="fill:none;stroke:#b0b0b0;stroke-linecap:square;stroke-opacity:0.6;stroke-width:2;"/>
     </g>
     <g id="line2d_50">
      <g>
       <use style="stroke:#000000;stroke-width:2.5;" x="176.890625" xlink:href="#m04166ebd10" y="362.907059"/>
      </g>
     </g>
     <g id="text_26">
      <!-- 1100 -->
      <g transform="translate(59.590625 378.103934)scale(0.4 -0.4)">
       <use xlink:href="#DejaVuSans-49"/>
       <use x="63.623047" xlink:href="#DejaVuSans-49"/>
       <use x="127.246094" xlink:href="#DejaVuSans-48"/>
       <use x="190.869141" xlink:href="#DejaVuSans-48"/>
      </g>
     </g>
    </g>
    <g id="ytick_13">
     <g id="line2d_51">
      <path clip-path="url(#p57f73d80a0)" d="M 176.890625 311.705882 
L 1370.230625 311.705882 
" style="fill:none;stroke:#b0b0b0;stroke-linecap:square;stroke-opacity:0.6;stroke-width:2;"/>
     </g>
     <g id="line2d_52">
      <g>
       <use style="stroke:#000000;stroke-width:2.5;" x="176.890625" xlink:href="#m04166ebd10" y="311.705882"/>
      </g>
     </g>
     <g id="text_27">
      <!-- 1200 -->
      <g transform="translate(59.590625 326.902757)scale(0.4 -0.4)">
       <use xlink:href="#DejaVuSans-49"/>
       <use x="63.623047" xlink:href="#DejaVuSans-50"/>
       <use x="127.246094" xlink:href="#DejaVuSans-48"/>
       <use x="190.869141" xlink:href="#DejaVuSans-48"/>
      </g>
     </g>
    </g>
    <g id="ytick_14">
     <g id="line2d_53">
      <path clip-path="url(#p57f73d80a0)" d="M 176.890625 260.504706 
L 1370.230625 260.504706 
" style="fill:none;stroke:#b0b0b0;stroke-linecap:square;stroke-opacity:0.6;stroke-width:2;"/>
     </g>
     <g id="line2d_54">
      <g>
       <use style="stroke:#000000;stroke-width:2.5;" x="176.890625" xlink:href="#m04166ebd10" y="260.504706"/>
      </g>
     </g>
     <g id="text_28">
      <!-- 1300 -->
      <g transform="translate(59.590625 275.701581)scale(0.4 -0.4)">
       <use xlink:href="#DejaVuSans-49"/>
       <use x="63.623047" xlink:href="#DejaVuSans-51"/>
       <use x="127.246094" xlink:href="#DejaVuSans-48"/>
       <use x="190.869141" xlink:href="#DejaVuSans-48"/>
      </g>
     </g>
    </g>
    <g id="ytick_15">
     <g id="line2d_55">
      <path clip-path="url(#p57f73d80a0)" d="M 176.890625 209.303529 
L 1370.230625 209.303529 
" style="fill:none;stroke:#b0b0b0;stroke-linecap:square;stroke-opacity:0.6;stroke-width:2;"/>
     </g>
     <g id="line2d_56">
      <g>
       <use style="stroke:#000000;stroke-width:2.5;" x="176.890625" xlink:href="#m04166ebd10" y="209.303529"/>
      </g>
     </g>
     <g id="text_29">
      <!-- 1400 -->
      <g transform="translate(59.590625 224.500404)scale(0.4 -0.4)">
       <use xlink:href="#DejaVuSans-49"/>
       <use x="63.623047" xlink:href="#DejaVuSans-52"/>
       <use x="127.246094" xlink:href="#DejaVuSans-48"/>
       <use x="190.869141" xlink:href="#DejaVuSans-48"/>
      </g>
     </g>
    </g>
    <g id="ytick_16">
     <g id="line2d_57">
      <path clip-path="url(#p57f73d80a0)" d="M 176.890625 158.102353 
L 1370.230625 158.102353 
" style="fill:none;stroke:#b0b0b0;stroke-linecap:square;stroke-opacity:0.6;stroke-width:2;"/>
     </g>
     <g id="line2d_58">
      <g>
       <use style="stroke:#000000;stroke-width:2.5;" x="176.890625" xlink:href="#m04166ebd10" y="158.102353"/>
      </g>
     </g>
     <g id="text_30">
      <!-- 1500 -->
      <g transform="translate(59.590625 173.299228)scale(0.4 -0.4)">
       <use xlink:href="#DejaVuSans-49"/>
       <use x="63.623047" xlink:href="#DejaVuSans-53"/>
       <use x="127.246094" xlink:href="#DejaVuSans-48"/>
       <use x="190.869141" xlink:href="#DejaVuSans-48"/>
      </g>
     </g>
    </g>
    <g id="ytick_17">
     <g id="line2d_59">
      <path clip-path="url(#p57f73d80a0)" d="M 176.890625 106.901176 
L 1370.230625 106.901176 
" style="fill:none;stroke:#b0b0b0;stroke-linecap:square;stroke-opacity:0.6;stroke-width:2;"/>
     </g>
     <g id="line2d_60">
      <g>
       <use style="stroke:#000000;stroke-width:2.5;" x="176.890625" xlink:href="#m04166ebd10" y="106.901176"/>
      </g>
     </g>
     <g id="text_31">
      <!-- 1600 -->
      <g transform="translate(59.590625 122.098051)scale(0.4 -0.4)">
       <use xlink:href="#DejaVuSans-49"/>
       <use x="63.623047" xlink:href="#DejaVuSans-54"/>
       <use x="127.246094" xlink:href="#DejaVuSans-48"/>
       <use x="190.869141" xlink:href="#DejaVuSans-48"/>
      </g>
     </g>
    </g>
    <g id="text_32">
     <!-- Largest cluster size -->
     <g transform="translate(45.192188 733.460781)rotate(-90)scale(0.5 -0.5)">
      <defs>
       <path d="M 9.8125 72.90625 
L 19.671875 72.90625 
L 19.671875 8.296875 
L 55.171875 8.296875 
L 55.171875 0 
L 9.8125 0 
z
" id="DejaVuSans-76"/>
       <path d="M 34.28125 27.484375 
Q 23.390625 27.484375 19.1875 25 
Q 14.984375 22.515625 14.984375 16.5 
Q 14.984375 11.71875 18.140625 8.90625 
Q 21.296875 6.109375 26.703125 6.109375 
Q 34.1875 6.109375 38.703125 11.40625 
Q 43.21875 16.703125 43.21875 25.484375 
L 43.21875 27.484375 
z
M 52.203125 31.203125 
L 52.203125 0 
L 43.21875 0 
L 43.21875 8.296875 
Q 40.140625 3.328125 35.546875 0.953125 
Q 30.953125 -1.421875 24.3125 -1.421875 
Q 15.921875 -1.421875 10.953125 3.296875 
Q 6 8.015625 6 15.921875 
Q 6 25.140625 12.171875 29.828125 
Q 18.359375 34.515625 30.609375 34.515625 
L 43.21875 34.515625 
L 43.21875 35.40625 
Q 43.21875 41.609375 39.140625 45 
Q 35.0625 48.390625 27.6875 48.390625 
Q 23 48.390625 18.546875 47.265625 
Q 14.109375 46.140625 10.015625 43.890625 
L 10.015625 52.203125 
Q 14.9375 54.109375 19.578125 55.046875 
Q 24.21875 56 28.609375 56 
Q 40.484375 56 46.34375 49.84375 
Q 52.203125 43.703125 52.203125 31.203125 
z
" id="DejaVuSans-97"/>
       <path d="M 41.109375 46.296875 
Q 39.59375 47.171875 37.8125 47.578125 
Q 36.03125 48 33.890625 48 
Q 26.265625 48 22.1875 43.046875 
Q 18.109375 38.09375 18.109375 28.8125 
L 18.109375 0 
L 9.078125 0 
L 9.078125 54.6875 
L 18.109375 54.6875 
L 18.109375 46.1875 
Q 20.953125 51.171875 25.484375 53.578125 
Q 30.03125 56 36.53125 56 
Q 37.453125 56 38.578125 55.875 
Q 39.703125 55.765625 41.0625 55.515625 
z
" id="DejaVuSans-114"/>
       <path d="M 45.40625 27.984375 
Q 45.40625 37.75 41.375 43.109375 
Q 37.359375 48.484375 30.078125 48.484375 
Q 22.859375 48.484375 18.828125 43.109375 
Q 14.796875 37.75 14.796875 27.984375 
Q 14.796875 18.265625 18.828125 12.890625 
Q 22.859375 7.515625 30.078125 7.515625 
Q 37.359375 7.515625 41.375 12.890625 
Q 45.40625 18.265625 45.40625 27.984375 
z
M 54.390625 6.78125 
Q 54.390625 -7.171875 48.1875 -13.984375 
Q 42 -20.796875 29.203125 -20.796875 
Q 24.46875 -20.796875 20.265625 -20.09375 
Q 16.0625 -19.390625 12.109375 -17.921875 
L 12.109375 -9.1875 
Q 16.0625 -11.328125 19.921875 -12.34375 
Q 23.78125 -13.375 27.78125 -13.375 
Q 36.625 -13.375 41.015625 -8.765625 
Q 45.40625 -4.15625 45.40625 5.171875 
L 45.40625 9.625 
Q 42.625 4.78125 38.28125 2.390625 
Q 33.9375 0 27.875 0 
Q 17.828125 0 11.671875 7.65625 
Q 5.515625 15.328125 5.515625 27.984375 
Q 5.515625 40.671875 11.671875 48.328125 
Q 17.828125 56 27.875 56 
Q 33.9375 56 38.28125 53.609375 
Q 42.625 51.21875 45.40625 46.390625 
L 45.40625 54.6875 
L 54.390625 54.6875 
z
" id="DejaVuSans-103"/>
       <path d="M 18.3125 70.21875 
L 18.3125 54.6875 
L 36.8125 54.6875 
L 36.8125 47.703125 
L 18.3125 47.703125 
L 18.3125 18.015625 
Q 18.3125 11.328125 20.140625 9.421875 
Q 21.96875 7.515625 27.59375 7.515625 
L 36.8125 7.515625 
L 36.8125 0 
L 27.59375 0 
Q 17.1875 0 13.234375 3.875 
Q 9.28125 7.765625 9.28125 18.015625 
L 9.28125 47.703125 
L 2.6875 47.703125 
L 2.6875 54.6875 
L 9.28125 54.6875 
L 9.28125 70.21875 
z
" id="DejaVuSans-116"/>
       <path d="M 9.421875 75.984375 
L 18.40625 75.984375 
L 18.40625 0 
L 9.421875 0 
z
" id="DejaVuSans-108"/>
       <path d="M 8.5 21.578125 
L 8.5 54.6875 
L 17.484375 54.6875 
L 17.484375 21.921875 
Q 17.484375 14.15625 20.5 10.265625 
Q 23.53125 6.390625 29.59375 6.390625 
Q 36.859375 6.390625 41.078125 11.03125 
Q 45.3125 15.671875 45.3125 23.6875 
L 45.3125 54.6875 
L 54.296875 54.6875 
L 54.296875 0 
L 45.3125 0 
L 45.3125 8.40625 
Q 42.046875 3.421875 37.71875 1 
Q 33.40625 -1.421875 27.6875 -1.421875 
Q 18.265625 -1.421875 13.375 4.4375 
Q 8.5 10.296875 8.5 21.578125 
z
M 31.109375 56 
z
" id="DejaVuSans-117"/>
       <path d="M 5.515625 54.6875 
L 48.1875 54.6875 
L 48.1875 46.484375 
L 14.40625 7.171875 
L 48.1875 7.171875 
L 48.1875 0 
L 4.296875 0 
L 4.296875 8.203125 
L 38.09375 47.515625 
L 5.515625 47.515625 
z
" id="DejaVuSans-122"/>
      </defs>
      <use xlink:href="#DejaVuSans-76"/>
      <use x="55.712891" xlink:href="#DejaVuSans-97"/>
      <use x="116.992188" xlink:href="#DejaVuSans-114"/>
      <use x="156.355469" xlink:href="#DejaVuSans-103"/>
      <use x="219.832031" xlink:href="#DejaVuSans-101"/>
      <use x="281.355469" xlink:href="#DejaVuSans-115"/>
      <use x="333.455078" xlink:href="#DejaVuSans-116"/>
      <use x="372.664062" xlink:href="#DejaVuSans-32"/>
      <use x="404.451172" xlink:href="#DejaVuSans-99"/>
      <use x="459.431641" xlink:href="#DejaVuSans-108"/>
      <use x="487.214844" xlink:href="#DejaVuSans-117"/>
      <use x="550.59375" xlink:href="#DejaVuSans-115"/>
      <use x="602.693359" xlink:href="#DejaVuSans-116"/>
      <use x="641.902344" xlink:href="#DejaVuSans-101"/>
      <use x="703.425781" xlink:href="#DejaVuSans-114"/>
      <use x="744.539062" xlink:href="#DejaVuSans-32"/>
      <use x="776.326172" xlink:href="#DejaVuSans-115"/>
      <use x="828.425781" xlink:href="#DejaVuSans-105"/>
      <use x="856.208984" xlink:href="#DejaVuSans-122"/>
      <use x="908.699219" xlink:href="#DejaVuSans-101"/>
     </g>
    </g>
   </g>
   <g id="line2d_61">
    <path clip-path="url(#p57f73d80a0)" d="M 230.297971 925.607988 
L 230.743292 924.071953 
L 231.188613 923.047929 
L 231.633934 923.047929 
L 232.079255 922.535918 
L 232.524576 922.535918 
L 233.860538 920.999882 
L 234.305859 920.999882 
L 234.75118 919.463847 
L 235.196501 919.463847 
L 235.641822 918.951835 
L 236.532464 918.951835 
L 236.977785 917.4158 
L 238.313748 917.4158 
L 238.759069 915.879765 
L 239.649711 915.879765 
L 240.540353 912.295682 
L 240.985674 905.127518 
L 241.430995 905.127518 
L 241.876316 903.079471 
L 242.766958 903.079471 
L 243.212279 902.567459 
L 243.6576 902.567459 
L 244.102921 902.055447 
L 244.548242 902.055447 
L 244.993563 901.543435 
L 246.329526 901.543435 
L 246.774847 900.519412 
L 249.892094 900.519412 
L 250.337415 891.3032 
L 255.681267 891.3032 
L 256.126588 883.111012 
L 256.571909 883.111012 
L 257.01723 880.550953 
L 257.462551 880.038941 
L 259.243835 880.038941 
L 259.689156 874.918824 
L 261.91576 874.918824 
L 262.361081 874.406812 
L 263.251723 874.406812 
L 263.697044 868.774682 
L 264.142365 868.774682 
L 264.587686 860.582494 
L 265.033007 860.582494 
L 265.478328 859.046459 
L 268.150254 859.046459 
L 268.595575 853.414329 
L 269.486217 853.414329 
L 269.931538 846.758176 
L 270.376859 810.405341 
L 270.82218 810.405341 
L 271.267501 809.893329 
L 273.048785 809.893329 
L 273.494106 809.381318 
L 280.173921 809.381318 
L 280.619242 807.333271 
L 281.955205 807.333271 
L 282.400526 806.821259 
L 285.963094 806.821259 
L 286.408415 806.309247 
L 294.424192 806.309247 
L 294.869513 805.797235 
L 296.650797 805.797235 
L 297.096118 800.165106 
L 303.775933 800.165106 
L 304.221254 799.653094 
L 326.932624 799.653094 
L 327.377945 753.060024 
L 329.60455 753.060024 
L 330.049871 752.548012 
L 332.721797 752.548012 
L 333.167118 752.036 
L 345.190784 752.036 
L 345.636105 725.411388 
L 348.308031 725.411388 
L 348.753352 724.899376 
L 355.878488 724.899376 
L 356.323809 710.563047 
L 378.589858 710.563047 
L 379.035179 679.842341 
L 381.261784 679.842341 
L 381.707105 679.330329 
L 384.824352 679.330329 
L 385.269673 678.818318 
L 399.074623 678.818318 
L 399.519944 678.306306 
L 416.887463 678.306306 
L 417.332784 672.674176 
L 430.692413 672.674176 
L 431.137734 672.162165 
L 444.052043 672.162165 
L 444.497364 456.605212 
L 460.083598 456.605212 
L 460.528919 453.533141 
L 469.88066 453.533141 
L 470.325981 453.021129 
L 498.826524 453.021129 
L 499.271845 452.509118 
L 503.725055 452.509118 
L 504.170376 451.997106 
L 509.959548 451.997106 
L 510.404869 385.947588 
L 515.3034 385.947588 
L 515.748721 385.435576 
L 529.998993 385.435576 
L 530.444314 378.779424 
L 559.390178 378.779424 
L 559.835499 378.267412 
L 573.640449 378.267412 
L 574.08577 377.7554 
L 583.437511 377.7554 
L 583.882832 377.243388 
L 700.022544 377.243388 
L 700.467865 376.731376 
L 718.726026 376.731376 
L 719.171347 173.462706 
L 749.007853 173.462706 
L 749.453174 132.501765 
L 820.25921 132.501765 
L 820.704531 131.989753 
L 983.157626 131.989753 
L 983.602947 127.381647 
L 1281.077364 127.381647 
L 1281.522685 127.893659 
L 1298.444882 127.893659 
L 1298.444882 127.893659 
" style="fill:none;stroke:#1f77b4;stroke-linecap:square;stroke-width:3;"/>
   </g>
   <g id="line2d_62">
    <path clip-path="url(#p57f73d80a0)" d="M 230.297971 925.607988 
L 230.743292 924.071953 
L 231.188613 924.071953 
L 231.633934 923.047929 
L 232.079255 922.535918 
L 232.524576 922.535918 
L 232.969896 922.023906 
L 233.415217 922.023906 
L 233.860538 921.511894 
L 234.305859 921.511894 
L 234.75118 920.999882 
L 235.196501 919.975859 
L 235.641822 919.975859 
L 236.087143 919.463847 
L 236.532464 919.463847 
L 236.977785 917.4158 
L 237.423106 917.4158 
L 237.868427 911.271659 
L 238.313748 909.223612 
L 240.095032 909.223612 
L 240.540353 908.7116 
L 242.321637 908.7116 
L 242.766958 901.543435 
L 243.212279 901.543435 
L 243.6576 901.031424 
L 244.102921 900.0074 
L 244.548242 897.447341 
L 245.438884 897.447341 
L 245.884205 896.935329 
L 246.329526 895.911306 
L 246.774847 895.399294 
L 247.665489 895.399294 
L 248.11081 889.767165 
L 248.556131 889.255153 
L 250.337415 889.255153 
L 250.782736 888.743141 
L 251.228057 887.719118 
L 251.673378 887.719118 
L 252.118699 887.207106 
L 253.899983 887.207106 
L 254.345304 880.550953 
L 255.235946 880.550953 
L 255.681267 870.310718 
L 258.353193 870.310718 
L 258.798514 867.750659 
L 264.587686 867.750659 
L 265.033007 865.1906 
L 275.27539 865.1906 
L 275.720711 863.654565 
L 277.947316 863.654565 
L 278.392637 854.438353 
L 289.525661 854.438353 
L 289.970982 810.405341 
L 291.306945 810.405341 
L 291.752266 809.893329 
L 296.205476 809.893329 
L 296.650797 809.381318 
L 297.541439 809.381318 
L 297.98676 808.869306 
L 301.994649 808.869306 
L 302.43997 778.660612 
L 304.221254 778.660612 
L 304.666575 715.683165 
L 306.447859 715.683165 
L 306.89318 714.147129 
L 312.682353 714.147129 
L 313.127674 711.075059 
L 316.24492 711.075059 
L 316.690241 710.563047 
L 322.034093 710.563047 
L 322.479414 710.051035 
L 338.065649 710.051035 
L 338.51097 707.490976 
L 353.651883 707.490976 
L 354.097204 706.978965 
L 370.12876 706.978965 
L 370.57408 706.466953 
L 379.035179 706.466953 
L 379.4805 582.048094 
L 396.402698 582.048094 
L 396.848019 581.536082 
L 427.129845 581.536082 
L 427.575166 471.965565 
L 431.137734 471.965565 
L 431.583055 455.581188 
L 435.145623 455.581188 
L 435.590944 446.876988 
L 445.388006 446.876988 
L 445.833327 446.364976 
L 447.16929 446.364976 
L 447.614611 445.852965 
L 452.513142 445.852965 
L 452.958463 445.340953 
L 469.88066 445.340953 
L 470.325981 427.420541 
L 484.130931 427.420541 
L 484.576252 424.348471 
L 485.912215 424.348471 
L 486.357536 412.5722 
L 518.865968 412.5722 
L 519.311289 407.964094 
L 623.427335 407.964094 
L 623.872656 407.452082 
L 663.506224 407.452082 
L 663.951545 406.940071 
L 699.131902 406.940071 
L 699.577223 130.965729 
L 850.095716 130.965729 
L 850.541037 131.477741 
L 877.260296 131.477741 
L 877.705617 130.965729 
L 964.454145 130.965729 
L 964.899466 127.893659 
L 974.251206 127.893659 
L 974.696527 127.381647 
L 1298.444882 127.381647 
L 1298.444882 127.381647 
" style="fill:none;stroke:#ff7f0e;stroke-linecap:square;stroke-width:3;"/>
   </g>
   <g id="line2d_63">
    <path clip-path="url(#p57f73d80a0)" d="M 230.297971 925.607988 
L 231.188613 923.559941 
L 231.633934 923.559941 
L 232.079255 922.535918 
L 232.524576 922.535918 
L 232.969896 922.023906 
L 233.415217 922.023906 
L 233.860538 920.999882 
L 234.305859 920.999882 
L 234.75118 919.975859 
L 235.196501 919.975859 
L 235.641822 918.951835 
L 236.087143 918.951835 
L 236.532464 917.927812 
L 236.977785 917.4158 
L 237.423106 914.343729 
L 238.313748 914.343729 
L 238.759069 911.271659 
L 239.649711 911.271659 
L 240.095032 909.735624 
L 240.985674 909.735624 
L 241.430995 909.223612 
L 242.766958 909.223612 
L 243.212279 906.151541 
L 243.6576 897.447341 
L 244.102921 896.935329 
L 244.548242 896.935329 
L 244.993563 896.423318 
L 245.884205 896.423318 
L 246.329526 895.911306 
L 246.774847 879.526929 
L 248.556131 879.526929 
L 249.001452 879.014918 
L 249.446773 876.966871 
L 250.782736 876.966871 
L 251.228057 871.334741 
L 253.454662 871.334741 
L 253.899983 870.310718 
L 254.790625 870.310718 
L 255.235946 859.046459 
L 257.462551 859.046459 
L 257.907872 858.534447 
L 260.579797 858.534447 
L 261.025118 854.950365 
L 273.494106 854.950365 
L 273.939427 854.438353 
L 274.384748 854.438353 
L 274.830069 852.390306 
L 277.947316 852.390306 
L 278.392637 851.878294 
L 287.299057 851.878294 
L 287.744378 848.294212 
L 288.635019 848.294212 
L 289.08034 828.325753 
L 289.970982 828.325753 
L 290.416303 817.573506 
L 290.861624 817.573506 
L 291.306945 817.061494 
L 299.768044 817.061494 
L 300.213365 710.051035 
L 302.885291 710.051035 
L 303.330612 709.539024 
L 304.221254 709.539024 
L 304.666575 706.466953 
L 312.682353 706.466953 
L 313.127674 705.954941 
L 318.026204 705.954941 
L 318.471525 705.442929 
L 324.706019 705.442929 
L 325.15134 703.906894 
L 341.182896 703.906894 
L 341.628217 703.394882 
L 342.964179 703.394882 
L 343.4095 702.882871 
L 347.417389 702.882871 
L 347.86271 693.666659 
L 357.659772 693.666659 
L 358.105093 693.154647 
L 368.792797 693.154647 
L 369.238118 692.642635 
L 392.394809 692.642635 
L 392.84013 678.306306 
L 399.519944 678.306306 
L 399.965265 677.794294 
L 414.215537 677.794294 
L 414.660858 677.282282 
L 415.996821 677.282282 
L 416.442142 676.770271 
L 417.778105 676.770271 
L 418.223426 666.018024 
L 420.450031 666.018024 
L 420.895352 645.537553 
L 432.473697 645.537553 
L 432.919018 642.465482 
L 444.497364 642.465482 
L 444.942685 641.953471 
L 674.639248 641.953471 
L 675.084569 641.441459 
L 712.491532 641.441459 
L 712.936853 641.953471 
L 750.343816 641.953471 
L 750.789136 421.788412 
L 795.321235 421.788412 
L 795.766556 306.073753 
L 799.774445 306.073753 
L 800.219766 128.405671 
L 855.884889 128.405671 
L 856.33021 127.893659 
L 1149.262353 127.893659 
L 1149.707674 127.381647 
L 1298.444882 127.381647 
L 1298.444882 127.381647 
" style="fill:none;stroke:#2ca02c;stroke-linecap:square;stroke-width:3;"/>
   </g>
   <g id="line2d_64">
    <path clip-path="url(#p57f73d80a0)" d="M 230.297971 925.607988 
L 230.743292 924.071953 
L 231.633934 923.047929 
L 232.079255 923.047929 
L 232.524576 922.535918 
L 233.415217 922.535918 
L 234.305859 921.511894 
L 234.75118 919.975859 
L 235.196501 919.975859 
L 235.641822 918.951835 
L 236.087143 916.903788 
L 237.423106 916.903788 
L 237.868427 914.855741 
L 238.313748 914.343729 
L 239.20439 914.343729 
L 239.649711 912.807694 
L 240.095032 912.807694 
L 240.985674 911.783671 
L 241.430995 907.175565 
L 241.876316 906.663553 
L 242.321637 906.663553 
L 242.766958 906.151541 
L 244.102921 906.151541 
L 244.548242 902.055447 
L 244.993563 902.055447 
L 245.438884 893.863259 
L 246.774847 893.863259 
L 247.220168 894.375271 
L 247.665489 893.863259 
L 255.235946 893.863259 
L 255.681267 889.255153 
L 258.353193 889.255153 
L 258.798514 881.574976 
L 259.243835 881.574976 
L 259.689156 874.406812 
L 269.486217 874.406812 
L 269.931538 837.029953 
L 270.82218 837.029953 
L 271.267501 836.517941 
L 272.158143 836.517941 
L 272.603464 834.469894 
L 273.494106 834.469894 
L 273.939427 833.957882 
L 276.166032 833.957882 
L 276.611353 832.933859 
L 280.619242 832.933859 
L 281.064563 832.421847 
L 282.845847 832.421847 
L 283.291168 811.941376 
L 284.18181 811.941376 
L 284.627131 811.429365 
L 304.221254 811.429365 
L 304.666575 810.917353 
L 310.455748 810.917353 
L 310.901069 747.427894 
L 312.237032 747.427894 
L 312.682353 664.481988 
L 318.471525 664.481988 
L 318.916846 663.969976 
L 324.706019 663.969976 
L 325.15134 660.385894 
L 330.940513 660.385894 
L 331.385834 659.873882 
L 343.854821 659.873882 
L 344.300142 659.361871 
L 351.425278 659.361871 
L 351.870599 615.840871 
L 358.105093 615.840871 
L 358.550414 615.328859 
L 360.777019 615.328859 
L 361.22234 561.055612 
L 363.003624 561.055612 
L 363.448945 536.991059 
L 371.019401 536.991059 
L 371.464722 536.479047 
L 372.355364 536.479047 
L 372.800685 526.238812 
L 373.246006 526.238812 
L 373.691327 258.968671 
L 385.269673 258.968671 
L 385.714994 258.456659 
L 387.941599 258.456659 
L 388.38692 250.264471 
L 403.527833 250.264471 
L 404.418475 245.144353 
L 406.64508 245.144353 
L 407.090401 241.560271 
L 412.879574 241.560271 
L 413.324895 226.199918 
L 415.106179 226.199918 
L 415.5515 218.007729 
L 421.340673 218.007729 
L 421.785994 217.495718 
L 423.567278 217.495718 
L 424.012599 186.263 
L 431.137734 186.263 
L 431.583055 185.750988 
L 445.833327 185.750988 
L 446.278648 185.238976 
L 486.357536 185.238976 
L 486.802857 166.294541 
L 496.599919 166.294541 
L 497.04524 165.782529 
L 507.287623 165.782529 
L 507.732944 162.710459 
L 519.311289 162.710459 
L 519.75661 160.1504 
L 522.428536 160.1504 
L 522.873857 159.638388 
L 598.044039 159.638388 
L 598.48936 159.126376 
L 599.825323 159.126376 
L 600.270644 154.518271 
L 712.491532 154.518271 
L 712.936853 131.477741 
L 736.093544 131.477741 
L 736.538865 131.989753 
L 789.977383 131.989753 
L 790.422704 131.477741 
L 816.696642 131.477741 
L 817.141963 130.965729 
L 849.650395 130.965729 
L 850.095716 130.453718 
L 893.737172 130.453718 
L 894.182493 129.941706 
L 927.136246 129.941706 
L 927.581567 130.453718 
L 1008.095601 130.453718 
L 1008.540922 129.941706 
L 1091.370625 129.941706 
L 1091.815946 130.453718 
L 1168.411155 130.453718 
L 1168.856476 129.941706 
L 1298.444882 129.941706 
L 1298.444882 129.941706 
" style="fill:none;stroke:#d62728;stroke-linecap:square;stroke-width:3;"/>
   </g>
   <g id="line2d_65">
    <path clip-path="url(#p57f73d80a0)" d="M 230.297971 925.607988 
L 230.743292 924.071953 
L 231.633934 924.071953 
L 232.079255 923.047929 
L 232.969896 923.047929 
L 233.415217 922.535918 
L 233.860538 921.511894 
L 234.305859 920.999882 
L 235.641822 920.999882 
L 236.087143 919.975859 
L 236.532464 919.975859 
L 236.977785 918.439824 
L 237.868427 918.439824 
L 238.313748 916.391776 
L 239.20439 916.391776 
L 239.649711 914.855741 
L 240.095032 905.127518 
L 240.985674 905.127518 
L 241.430995 904.615506 
L 241.876316 904.615506 
L 242.321637 901.031424 
L 243.212279 901.031424 
L 243.6576 900.519412 
L 244.102921 900.519412 
L 244.548242 896.423318 
L 245.438884 896.423318 
L 245.884205 895.911306 
L 249.001452 895.911306 
L 249.446773 895.399294 
L 252.56402 895.399294 
L 253.009341 881.062965 
L 257.01723 881.062965 
L 257.462551 879.014918 
L 259.243835 879.014918 
L 259.689156 878.502906 
L 264.587686 878.502906 
L 265.033007 864.678588 
L 269.486217 864.678588 
L 269.931538 862.630541 
L 272.603464 862.630541 
L 273.048785 862.118529 
L 277.501995 862.118529 
L 277.947316 861.606518 
L 278.392637 859.046459 
L 280.173921 859.046459 
L 280.619242 856.4864 
L 283.291168 856.4864 
L 283.736489 855.974388 
L 284.18181 855.974388 
L 284.627131 842.662082 
L 285.072452 840.614035 
L 290.861624 840.614035 
L 291.306945 816.037471 
L 295.314834 816.037471 
L 295.760155 813.477412 
L 301.104007 813.477412 
L 301.549328 811.429365 
L 306.447859 811.429365 
L 306.89318 804.773212 
L 312.682353 804.773212 
L 313.127674 804.2612 
L 327.377945 804.2612 
L 327.823266 720.291271 
L 335.393723 720.291271 
L 335.839044 656.801812 
L 353.206562 656.801812 
L 353.651883 654.241753 
L 374.581969 654.241753 
L 375.02729 653.729741 
L 400.410586 653.729741 
L 400.855907 653.217729 
L 421.785994 653.217729 
L 422.231315 652.705718 
L 437.817549 652.705718 
L 438.26287 652.193706 
L 459.192956 652.193706 
L 459.638277 651.681694 
L 464.982129 651.681694 
L 465.42745 646.561576 
L 486.802857 646.561576 
L 487.248178 646.049565 
L 540.686696 646.049565 
L 541.132017 642.977494 
L 542.913301 642.977494 
L 543.358622 640.417435 
L 565.624671 640.417435 
L 566.069992 473.5016 
L 621.646051 473.5016 
L 622.091372 472.989588 
L 627.435224 472.989588 
L 627.880545 379.803447 
L 760.586198 379.803447 
L 761.031519 364.955106 
L 769.492618 364.955106 
L 769.937939 352.666824 
L 777.063075 352.666824 
L 777.508396 166.294541 
L 809.126185 166.294541 
L 809.571506 153.494247 
L 872.807086 153.494247 
L 873.252407 127.381647 
L 1003.19707 127.381647 
L 1003.642391 127.893659 
L 1298.444882 127.893659 
L 1298.444882 127.893659 
" style="fill:none;stroke:#9467bd;stroke-linecap:square;stroke-width:3;"/>
   </g>
   <g id="patch_3">
    <path d="M 176.890625 926.12 
L 176.890625 55.7 
" style="fill:none;stroke:#000000;stroke-linecap:square;stroke-linejoin:miter;stroke-width:5;"/>
   </g>
   <g id="patch_4">
    <path d="M 1370.230625 926.12 
L 1370.230625 55.7 
" style="fill:none;stroke:#000000;stroke-linecap:square;stroke-linejoin:miter;stroke-width:5;"/>
   </g>
   <g id="patch_5">
    <path d="M 176.890625 926.12 
L 1370.230625 926.12 
" style="fill:none;stroke:#000000;stroke-linecap:square;stroke-linejoin:miter;stroke-width:5;"/>
   </g>
   <g id="patch_6">
    <path d="M 176.890625 55.7 
L 1370.230625 55.7 
" style="fill:none;stroke:#000000;stroke-linecap:square;stroke-linejoin:miter;stroke-width:5;"/>
   </g>
   <g id="text_33">
    <!-- $\phi_{ribosome} = $0.0 ; $T_{c} = $1.0 ; $\varepsilon = $20.0 -->
    <g transform="translate(359.810625 45.2)scale(0.5 -0.5)">
     <defs>
      <path d="M 46.734375 75.984375 
L 42.78125 55.8125 
Q 52.546875 55.8125 57.5625 48.34375 
Q 62.75 40.71875 60.15625 27.296875 
Q 57.515625 13.875 49.359375 6.25 
Q 41.453125 -1.21875 31.6875 -1.21875 
L 27.875 -20.796875 
L 18.953125 -20.796875 
L 22.75 -1.21875 
Q 13.03125 -1.21875 7.953125 6.25 
Q 2.78125 13.875 5.421875 27.296875 
Q 8.015625 40.71875 16.15625 48.34375 
Q 24.125 55.8125 33.84375 55.8125 
L 37.796875 75.984375 
z
M 33.25 6.78125 
Q 38.765625 6.78125 43.5 11.8125 
Q 48.6875 17.4375 50.6875 27.296875 
Q 52.640625 37.0625 49.515625 42.78125 
Q 46.734375 47.796875 41.21875 47.796875 
z
M 24.3125 6.78125 
L 32.28125 47.796875 
Q 26.8125 47.796875 22.078125 42.78125 
Q 16.75 37.0625 14.890625 27.296875 
Q 13.03125 17.4375 16.0625 11.8125 
Q 18.796875 6.78125 24.3125 6.78125 
z
" id="DejaVuSans-Oblique-981"/>
      <path d="M 44.578125 46.390625 
Q 43.21875 47.125 41.453125 47.515625 
Q 39.703125 47.90625 37.703125 47.90625 
Q 30.515625 47.90625 25.140625 42.453125 
Q 19.78125 37.015625 18.015625 27.875 
L 12.5 0 
L 3.515625 0 
L 14.203125 54.6875 
L 23.1875 54.6875 
L 21.484375 46.1875 
Q 25.046875 50.921875 30 53.453125 
Q 34.96875 56 40.578125 56 
Q 42.046875 56 43.453125 55.828125 
Q 44.875 55.671875 46.296875 55.28125 
z
" id="DejaVuSans-Oblique-114"/>
      <path d="M 18.3125 75.984375 
L 27.296875 75.984375 
L 25.09375 64.59375 
L 16.109375 64.59375 
z
M 14.203125 54.6875 
L 23.1875 54.6875 
L 12.5 0 
L 3.515625 0 
z
" id="DejaVuSans-Oblique-105"/>
      <path d="M 49.515625 33.40625 
Q 49.515625 40.484375 46.265625 44.484375 
Q 43.015625 48.484375 37.3125 48.484375 
Q 33.15625 48.484375 29.515625 46.453125 
Q 25.875 44.4375 23.1875 40.578125 
Q 20.359375 36.53125 18.71875 31.171875 
Q 17.09375 25.828125 17.09375 20.515625 
Q 17.09375 13.765625 20.28125 9.9375 
Q 23.484375 6.109375 29.109375 6.109375 
Q 33.34375 6.109375 36.953125 8.078125 
Q 40.578125 10.0625 43.3125 13.921875 
Q 46.09375 17.921875 47.796875 23.234375 
Q 49.515625 28.5625 49.515625 33.40625 
z
M 21.578125 46.390625 
Q 24.90625 50.875 29.90625 53.4375 
Q 34.90625 56 40.375 56 
Q 48.78125 56 53.734375 50.328125 
Q 58.6875 44.671875 58.6875 35.015625 
Q 58.6875 27.09375 55.78125 19.671875 
Q 52.875 12.25 47.515625 6.5 
Q 44 2.6875 39.40625 0.625 
Q 34.8125 -1.421875 29.78125 -1.421875 
Q 24.46875 -1.421875 20.5625 1.015625 
Q 16.65625 3.46875 14.203125 8.296875 
L 12.59375 0 
L 3.609375 0 
L 18.40625 75.984375 
L 27.390625 75.984375 
z
" id="DejaVuSans-Oblique-98"/>
      <path d="M 25.390625 -1.421875 
Q 15.765625 -1.421875 10.171875 4.515625 
Q 4.59375 10.453125 4.59375 20.703125 
Q 4.59375 26.65625 6.515625 32.828125 
Q 8.453125 39.015625 11.53125 43.21875 
Q 16.359375 49.75 22.3125 52.875 
Q 28.265625 56 35.796875 56 
Q 45.125 56 50.859375 50.1875 
Q 56.59375 44.390625 56.59375 35.015625 
Q 56.59375 28.515625 54.6875 22.0625 
Q 52.78125 15.625 49.703125 11.375 
Q 44.921875 4.828125 38.96875 1.703125 
Q 33.015625 -1.421875 25.390625 -1.421875 
z
M 13.921875 21 
Q 13.921875 13.578125 17.015625 9.890625 
Q 20.125 6.203125 26.421875 6.203125 
Q 35.453125 6.203125 41.375 14.078125 
Q 47.3125 21.96875 47.3125 34.078125 
Q 47.3125 41.15625 44.140625 44.765625 
Q 40.96875 48.390625 34.8125 48.390625 
Q 29.734375 48.390625 25.78125 46.015625 
Q 21.828125 43.65625 18.703125 38.8125 
Q 16.40625 35.203125 15.15625 30.5625 
Q 13.921875 25.921875 13.921875 21 
z
" id="DejaVuSans-Oblique-111"/>
      <path d="M 50 53.078125 
L 48.296875 44.578125 
Q 44.734375 46.53125 40.765625 47.5 
Q 36.8125 48.484375 32.625 48.484375 
Q 25.53125 48.484375 21.453125 46.0625 
Q 17.390625 43.65625 17.390625 39.5 
Q 17.390625 34.671875 26.859375 32.078125 
Q 27.59375 31.890625 27.9375 31.78125 
L 30.8125 30.90625 
Q 39.796875 28.421875 42.796875 25.6875 
Q 45.796875 22.953125 45.796875 18.21875 
Q 45.796875 9.515625 38.890625 4.046875 
Q 31.984375 -1.421875 20.796875 -1.421875 
Q 16.453125 -1.421875 11.671875 -0.578125 
Q 6.890625 0.25 1.125 2 
L 2.875 11.28125 
Q 7.8125 8.734375 12.59375 7.421875 
Q 17.390625 6.109375 21.78125 6.109375 
Q 28.375 6.109375 32.5 8.9375 
Q 36.625 11.765625 36.625 16.109375 
Q 36.625 20.796875 25.78125 23.6875 
L 24.859375 23.921875 
L 21.78125 24.703125 
Q 14.9375 26.515625 11.765625 29.46875 
Q 8.59375 32.421875 8.59375 37.015625 
Q 8.59375 45.75 15.15625 50.875 
Q 21.734375 56 33.015625 56 
Q 37.453125 56 41.671875 55.265625 
Q 45.90625 54.546875 50 53.078125 
z
" id="DejaVuSans-Oblique-115"/>
      <path d="M 89.796875 33.015625 
L 83.40625 0 
L 74.421875 0 
L 80.71875 32.71875 
Q 81.109375 34.8125 81.296875 36.328125 
Q 81.5 37.84375 81.5 38.921875 
Q 81.5 43.3125 79.046875 45.75 
Q 76.609375 48.1875 72.21875 48.1875 
Q 65.671875 48.1875 60.546875 43.28125 
Q 55.421875 38.375 53.90625 30.515625 
L 47.90625 0 
L 38.921875 0 
L 45.3125 32.71875 
Q 45.703125 34.515625 45.890625 36.046875 
Q 46.09375 37.59375 46.09375 38.8125 
Q 46.09375 43.265625 43.65625 45.71875 
Q 41.21875 48.1875 36.921875 48.1875 
Q 30.28125 48.1875 25.140625 43.28125 
Q 20.015625 38.375 18.5 30.515625 
L 12.5 0 
L 3.515625 0 
L 14.203125 54.6875 
L 23.1875 54.6875 
L 21.484375 46.1875 
Q 25.140625 50.984375 30.046875 53.484375 
Q 34.96875 56 40.578125 56 
Q 46.53125 56 50.359375 52.875 
Q 54.203125 49.75 54.984375 44.1875 
Q 59.078125 49.953125 64.46875 52.96875 
Q 69.875 56 75.875 56 
Q 82.90625 56 86.734375 51.953125 
Q 90.578125 47.90625 90.578125 40.484375 
Q 90.578125 38.875 90.375 36.9375 
Q 90.1875 35.015625 89.796875 33.015625 
z
" id="DejaVuSans-Oblique-109"/>
      <path d="M 48.09375 32.234375 
Q 48.25 33.015625 48.3125 33.84375 
Q 48.390625 34.671875 48.390625 35.5 
Q 48.390625 41.453125 44.890625 44.921875 
Q 41.40625 48.390625 35.40625 48.390625 
Q 28.71875 48.390625 23.578125 44.15625 
Q 18.453125 39.9375 15.828125 32.171875 
z
M 55.90625 25.203125 
L 14.109375 25.203125 
Q 13.8125 23.34375 13.71875 22.265625 
Q 13.625 21.1875 13.625 20.40625 
Q 13.625 13.625 17.796875 9.90625 
Q 21.96875 6.203125 29.59375 6.203125 
Q 35.453125 6.203125 40.671875 7.515625 
Q 45.90625 8.84375 50.390625 11.375 
L 48.6875 2.484375 
Q 43.84375 0.53125 38.6875 -0.4375 
Q 33.546875 -1.421875 28.21875 -1.421875 
Q 16.84375 -1.421875 10.71875 4.015625 
Q 4.59375 9.46875 4.59375 19.484375 
Q 4.59375 28.03125 7.640625 35.375 
Q 10.6875 42.71875 16.609375 48.484375 
Q 20.40625 52.09375 25.65625 54.046875 
Q 30.90625 56 36.8125 56 
Q 46.09375 56 51.578125 50.4375 
Q 57.078125 44.875 57.078125 35.5 
Q 57.078125 33.25 56.78125 30.6875 
Q 56.5 28.125 55.90625 25.203125 
z
" id="DejaVuSans-Oblique-101"/>
      <path d="M 10.59375 45.40625 
L 73.1875 45.40625 
L 73.1875 37.203125 
L 10.59375 37.203125 
z
M 10.59375 25.484375 
L 73.1875 25.484375 
L 73.1875 17.1875 
L 10.59375 17.1875 
z
" id="DejaVuSans-61"/>
      <path d="M 10.6875 12.40625 
L 21 12.40625 
L 21 0 
L 10.6875 0 
z
" id="DejaVuSans-46"/>
      <path d="M 11.71875 51.703125 
L 22.015625 51.703125 
L 22.015625 39.3125 
L 11.71875 39.3125 
z
M 11.71875 12.40625 
L 22.015625 12.40625 
L 22.015625 4 
L 14.015625 -11.625 
L 7.71875 -11.625 
L 11.71875 4 
z
" id="DejaVuSans-59"/>
      <path d="M 5.90625 72.90625 
L 67.578125 72.90625 
L 66.015625 64.59375 
L 39.984375 64.59375 
L 27.484375 0 
L 17.578125 0 
L 30.078125 64.59375 
L 4.296875 64.59375 
z
" id="DejaVuSans-Oblique-84"/>
      <path d="M 53.609375 52.59375 
L 51.8125 43.703125 
Q 48.578125 46.046875 44.9375 47.21875 
Q 41.3125 48.390625 37.40625 48.390625 
Q 33.109375 48.390625 29.21875 46.875 
Q 25.34375 45.359375 22.703125 42.578125 
Q 18.5 38.328125 16.203125 32.609375 
Q 13.921875 26.90625 13.921875 20.796875 
Q 13.921875 13.421875 17.609375 9.8125 
Q 21.296875 6.203125 28.8125 6.203125 
Q 32.515625 6.203125 36.6875 7.328125 
Q 40.875 8.453125 45.40625 10.6875 
L 43.703125 1.8125 
Q 39.796875 0.203125 35.671875 -0.609375 
Q 31.546875 -1.421875 27.203125 -1.421875 
Q 16.3125 -1.421875 10.453125 4.015625 
Q 4.59375 9.46875 4.59375 19.578125 
Q 4.59375 28.078125 7.640625 35.234375 
Q 10.6875 42.390625 16.703125 48.09375 
Q 20.796875 52 26.3125 54 
Q 31.84375 56 38.375 56 
Q 42.1875 56 45.9375 55.140625 
Q 49.703125 54.296875 53.609375 52.59375 
z
" id="DejaVuSans-Oblique-99"/>
      <path d="M 19.734375 29.5 
Q 14.453125 30.671875 12.15625 33.84375 
Q 10.453125 36.078125 10.453125 39.109375 
Q 10.453125 47.40625 18.359375 52.25 
Q 24.609375 56.0625 34.1875 56.0625 
Q 37.890625 56.0625 41.9375 55.46875 
Q 46 54.890625 50.53125 53.71875 
L 48.96875 45.5625 
Q 44.484375 46.96875 40.71875 47.609375 
Q 36.859375 48.25 33.40625 48.25 
Q 27.59375 48.25 23.78125 46 
Q 19.1875 43.3125 19.1875 39.40625 
Q 19.1875 36.8125 21.578125 35.015625 
Q 24.421875 32.859375 30.078125 32.859375 
L 37.640625 32.859375 
L 36.234375 25.4375 
L 29 25.4375 
Q 22.265625 25.4375 18.3125 22.953125 
Q 12.9375 19.578125 12.9375 14.3125 
Q 12.9375 10.984375 15.828125 8.796875 
Q 19.4375 6.0625 26.8125 6.0625 
Q 31.34375 6.0625 35.6875 6.9375 
Q 40.046875 7.859375 43.84375 9.671875 
L 42.1875 1.3125 
Q 37.546875 -0.046875 33.296875 -0.734375 
Q 29.046875 -1.421875 25.140625 -1.421875 
Q 13.53125 -1.421875 8.0625 3.03125 
Q 3.90625 6.453125 3.90625 12.203125 
Q 3.90625 19.96875 9.375 24.75 
Q 13.421875 28.328125 19.734375 29.5 
z
" id="DejaVuSans-Oblique-949"/>
     </defs>
     <use transform="translate(0 0.015625)" xlink:href="#DejaVuSans-Oblique-981"/>
     <use transform="translate(65.966797 -16.390625)scale(0.7)" xlink:href="#DejaVuSans-Oblique-114"/>
     <use transform="translate(94.746094 -16.390625)scale(0.7)" xlink:href="#DejaVuSans-Oblique-105"/>
     <use transform="translate(114.194336 -16.390625)scale(0.7)" xlink:href="#DejaVuSans-Oblique-98"/>
     <use transform="translate(158.62793 -16.390625)scale(0.7)" xlink:href="#DejaVuSans-Oblique-111"/>
     <use transform="translate(201.455078 -16.390625)scale(0.7)" xlink:href="#DejaVuSans-Oblique-115"/>
     <use transform="translate(237.924805 -16.390625)scale(0.7)" xlink:href="#DejaVuSans-Oblique-111"/>
     <use transform="translate(280.751953 -16.390625)scale(0.7)" xlink:href="#DejaVuSans-Oblique-109"/>
     <use transform="translate(348.94043 -16.390625)scale(0.7)" xlink:href="#DejaVuSans-Oblique-101"/>
     <use transform="translate(414.223633 0.015625)" xlink:href="#DejaVuSans-61"/>
     <use transform="translate(517.495117 0.015625)" xlink:href="#DejaVuSans-48"/>
     <use transform="translate(581.118164 0.015625)" xlink:href="#DejaVuSans-46"/>
     <use transform="translate(612.905273 0.015625)" xlink:href="#DejaVuSans-48"/>
     <use transform="translate(676.52832 0.015625)" xlink:href="#DejaVuSans-32"/>
     <use transform="translate(708.31543 0.015625)" xlink:href="#DejaVuSans-59"/>
     <use transform="translate(742.006836 0.015625)" xlink:href="#DejaVuSans-32"/>
     <use transform="translate(773.793945 0.015625)" xlink:href="#DejaVuSans-Oblique-84"/>
     <use transform="translate(834.87793 -16.390625)scale(0.7)" xlink:href="#DejaVuSans-Oblique-99"/>
     <use transform="translate(895.581055 0.015625)" xlink:href="#DejaVuSans-61"/>
     <use transform="translate(998.852539 0.015625)" xlink:href="#DejaVuSans-49"/>
     <use transform="translate(1062.475586 0.015625)" xlink:href="#DejaVuSans-46"/>
     <use transform="translate(1094.262695 0.015625)" xlink:href="#DejaVuSans-48"/>
     <use transform="translate(1157.885742 0.015625)" xlink:href="#DejaVuSans-32"/>
     <use transform="translate(1189.672852 0.015625)" xlink:href="#DejaVuSans-59"/>
     <use transform="translate(1223.364258 0.015625)" xlink:href="#DejaVuSans-32"/>
     <use transform="translate(1255.151367 0.015625)" xlink:href="#DejaVuSans-Oblique-949"/>
     <use transform="translate(1328.686523 0.015625)" xlink:href="#DejaVuSans-61"/>
     <use transform="translate(1431.958008 0.015625)" xlink:href="#DejaVuSans-50"/>
     <use transform="translate(1495.581055 0.015625)" xlink:href="#DejaVuSans-48"/>
     <use transform="translate(1559.204102 0.015625)" xlink:href="#DejaVuSans-46"/>
     <use transform="translate(1590.991211 0.015625)" xlink:href="#DejaVuSans-48"/>
    </g>
   </g>
   <g id="legend_1">
    <g id="patch_7">
     <path d="M 197.890625 299.871875 
L 372.814062 299.871875 
Q 378.814062 299.871875 378.814062 293.871875 
L 378.814062 76.7 
Q 378.814062 70.7 372.814062 70.7 
L 197.890625 70.7 
Q 191.890625 70.7 191.890625 76.7 
L 191.890625 293.871875 
Q 191.890625 299.871875 197.890625 299.871875 
z
" style="fill:#ffffff;opacity:0.8;stroke:#cccccc;stroke-linejoin:miter;stroke-width:2;"/>
    </g>
    <g id="line2d_66">
     <path d="M 203.890625 94.995312 
L 263.890625 94.995312 
" style="fill:none;stroke:#1f77b4;stroke-linecap:square;stroke-width:3;"/>
    </g>
    <g id="line2d_67"/>
    <g id="text_34">
     <!-- s = 1 -->
     <g transform="translate(287.890625 105.495312)scale(0.3 -0.3)">
      <use xlink:href="#DejaVuSans-115"/>
      <use x="52.099609" xlink:href="#DejaVuSans-32"/>
      <use x="83.886719" xlink:href="#DejaVuSans-61"/>
      <use x="167.675781" xlink:href="#DejaVuSans-32"/>
      <use x="199.462891" xlink:href="#DejaVuSans-49"/>
     </g>
    </g>
    <g id="line2d_68">
     <path d="M 203.890625 139.029687 
L 263.890625 139.029687 
" style="fill:none;stroke:#ff7f0e;stroke-linecap:square;stroke-width:3;"/>
    </g>
    <g id="line2d_69"/>
    <g id="text_35">
     <!-- s = 2 -->
     <g transform="translate(287.890625 149.529687)scale(0.3 -0.3)">
      <use xlink:href="#DejaVuSans-115"/>
      <use x="52.099609" xlink:href="#DejaVuSans-32"/>
      <use x="83.886719" xlink:href="#DejaVuSans-61"/>
      <use x="167.675781" xlink:href="#DejaVuSans-32"/>
      <use x="199.462891" xlink:href="#DejaVuSans-50"/>
     </g>
    </g>
    <g id="line2d_70">
     <path d="M 203.890625 183.064062 
L 263.890625 183.064062 
" style="fill:none;stroke:#2ca02c;stroke-linecap:square;stroke-width:3;"/>
    </g>
    <g id="line2d_71"/>
    <g id="text_36">
     <!-- s = 3 -->
     <g transform="translate(287.890625 193.564062)scale(0.3 -0.3)">
      <use xlink:href="#DejaVuSans-115"/>
      <use x="52.099609" xlink:href="#DejaVuSans-32"/>
      <use x="83.886719" xlink:href="#DejaVuSans-61"/>
      <use x="167.675781" xlink:href="#DejaVuSans-32"/>
      <use x="199.462891" xlink:href="#DejaVuSans-51"/>
     </g>
    </g>
    <g id="line2d_72">
     <path d="M 203.890625 227.098437 
L 263.890625 227.098437 
" style="fill:none;stroke:#d62728;stroke-linecap:square;stroke-width:3;"/>
    </g>
    <g id="line2d_73"/>
    <g id="text_37">
     <!-- s = 4 -->
     <g transform="translate(287.890625 237.598437)scale(0.3 -0.3)">
      <use xlink:href="#DejaVuSans-115"/>
      <use x="52.099609" xlink:href="#DejaVuSans-32"/>
      <use x="83.886719" xlink:href="#DejaVuSans-61"/>
      <use x="167.675781" xlink:href="#DejaVuSans-32"/>
      <use x="199.462891" xlink:href="#DejaVuSans-52"/>
     </g>
    </g>
    <g id="line2d_74">
     <path d="M 203.890625 271.132812 
L 263.890625 271.132812 
" style="fill:none;stroke:#9467bd;stroke-linecap:square;stroke-width:3;"/>
    </g>
    <g id="line2d_75"/>
    <g id="text_38">
     <!-- s = 5 -->
     <g transform="translate(287.890625 281.632812)scale(0.3 -0.3)">
      <use xlink:href="#DejaVuSans-115"/>
      <use x="52.099609" xlink:href="#DejaVuSans-32"/>
      <use x="83.886719" xlink:href="#DejaVuSans-61"/>
      <use x="167.675781" xlink:href="#DejaVuSans-32"/>
      <use x="199.462891" xlink:href="#DejaVuSans-53"/>
     </g>
    </g>
   </g>
  </g>
 </g>
 <defs>
  <clipPath id="p57f73d80a0">
   <rect height="870.42" width="1193.34" x="176.890625" y="55.7"/>
  </clipPath>
 </defs>
</svg>
